<svg width="69" height="69" viewBox="0 0 69 69" fill="none" xmlns="http://www.w3.org/2000/svg">
<g id="Big Data">
<path id="Oval" fill-rule="evenodd" clip-rule="evenodd" d="M34.5312 68.1541C53.3089 68.1541 68.5312 52.9317 68.5312 34.1541C68.5312 15.3764 53.3089 0.154053 34.5312 0.154053C15.7536 0.154053 0.53125 15.3764 0.53125 34.1541C0.53125 52.9317 15.7536 68.1541 34.5312 68.1541Z" fill="#07AFF2"/>
<g id="Asset 1">
<path id="Shape" fill-rule="evenodd" clip-rule="evenodd" d="M42.0847 54.4291C42.0847 54.7891 42.5798 55.1041 43.1378 55.1041C43.7003 55.1041 44.1908 54.8026 44.1908 54.4426V48.8311H45.6623C47.3157 48.8311 48.6568 47.492 48.6592 45.8386V43.8136H54.8198C55.1798 43.8136 55.4948 43.3186 55.4948 42.7606C55.4948 42.2026 55.1798 41.7076 54.8198 41.7076H48.6592V39.7501H54.8198C55.1798 39.7501 55.4948 39.2551 55.4948 38.6971C55.4948 38.1391 55.1798 37.6441 54.8198 37.6441H48.6592V35.6911H54.8198C55.1798 35.6911 55.4948 35.1916 55.4948 34.6336C55.4948 34.0756 55.1798 33.5806 54.8198 33.5806H48.6592V31.6276H54.8198C55.1798 31.6276 55.4948 31.1281 55.4948 30.5701C55.4948 30.0121 55.1798 29.5171 54.8198 29.5171H48.6592V27.5641H54.8198C55.1798 27.5641 55.4948 27.0736 55.4948 26.5111C55.4948 25.9486 55.1798 25.4536 54.8198 25.4536H48.6592V23.7076C48.6568 22.0541 47.3157 20.7151 45.6623 20.7151H44.1908V14.8291C44.1908 14.4691 43.6958 14.1541 43.1378 14.1541C42.5798 14.1541 42.0847 14.4691 42.0847 14.8291V20.7151H40.1318V14.8291C40.1318 14.4691 39.6322 14.1541 39.0742 14.1541C38.5162 14.1541 38.0212 14.4691 38.0212 14.8291V20.7151H36.0683V14.8291C36.0683 14.4691 35.5688 14.1541 35.0107 14.1541C34.4527 14.1541 33.9578 14.4691 33.9578 14.8291V20.7151H32.0047V14.8291C32.0047 14.4691 31.5053 14.1541 30.9473 14.1541C30.3893 14.1541 29.8942 14.4691 29.8942 14.8291V20.7151H27.9412V14.8291C27.9412 14.4691 27.4508 14.1541 26.8883 14.1541C26.3258 14.1541 25.8308 14.4691 25.8308 14.8291V20.7151H23.5312C21.8796 20.7175 20.5412 22.0559 20.5388 23.7076V25.4536H15.2063C14.8462 25.4536 14.5312 25.9531 14.5312 26.5111C14.5312 27.0691 14.8462 27.5641 15.2063 27.5641H20.5388V29.5171H15.2063C14.8462 29.5171 14.5312 30.0076 14.5312 30.5701C14.5312 31.1326 14.8462 31.6276 15.2063 31.6276H20.5388V33.5806H15.2063C14.8462 33.5806 14.5312 34.0711 14.5312 34.6336C14.5312 35.1961 14.8462 35.6911 15.2063 35.6911H20.5388V37.6441H15.2063C14.8462 37.6441 14.5312 38.1346 14.5312 38.6971C14.5312 39.2596 14.8462 39.7501 15.2063 39.7501H20.5388V41.7076H15.2063C14.8462 41.7076 14.5312 42.1981 14.5312 42.7606C14.5312 43.3231 14.8462 43.8136 15.2063 43.8136H20.5388V45.8386C20.5412 47.4902 21.8796 48.8286 23.5312 48.8311H25.8308V54.4426C25.8308 54.8026 26.3303 55.1176 26.8883 55.1176C27.4462 55.1176 27.9412 54.8026 27.9412 54.4426V48.8311H29.8942V54.4426C29.8942 54.8026 30.3848 55.1176 30.9473 55.1176C31.5098 55.1176 32.0047 54.8026 32.0047 54.4426V48.8311H33.9578V54.4426C33.9578 54.8026 34.4482 55.1176 35.0107 55.1176C35.5732 55.1176 36.0683 54.8026 36.0683 54.4426V48.8311H38.0212V54.4426C38.0212 54.8026 38.5117 55.1176 39.0742 55.1176C39.6367 55.1176 40.1318 54.8026 40.1318 54.4426V48.8311H42.0847V54.4291ZM27.2393 31.3081C27.2417 29.1576 28.9858 27.4156 31.1362 27.4156H38.0618C40.2105 27.418 41.9518 29.1593 41.9543 31.3081V38.2381C41.9518 40.3868 40.2105 42.1281 38.0618 42.1306H31.1362C28.9858 42.1306 27.2417 40.3885 27.2393 38.2381V31.3081Z" fill="white"/>
</g>
</g>
</svg>
