<svg width="69" height="69" viewBox="0 0 69 69" fill="none" xmlns="http://www.w3.org/2000/svg">
<g id="Blockchain">
<path id="Oval" fill-rule="evenodd" clip-rule="evenodd" d="M34.5312 68.1541C53.3089 68.1541 68.5312 52.9317 68.5312 34.1541C68.5312 15.3764 53.3089 0.154053 34.5312 0.154053C15.7536 0.154053 0.53125 15.3764 0.53125 34.1541C0.53125 52.9317 15.7536 68.1541 34.5312 68.1541Z" fill="#07AFF2"/>
<g id="Asset 3">
<path id="Shape" fill-rule="evenodd" clip-rule="evenodd" d="M41.9651 16.1541H52.6166L53.3132 16.7575V27.5791C51.7661 29.1141 48.6314 32.3946 48.6314 32.3946H45.2861V39.8061C44.9578 40.012 44.553 40.0553 44.1885 39.9235C44.0736 39.8879 43.9808 39.7783 43.8678 39.6448C43.8135 39.5807 43.7546 39.5111 43.6863 39.4416V32.431H37.9961C37.5487 32.431 37.1861 32.0684 37.1861 31.621V25.951H30.0986C29.8511 25.7099 29.636 25.4376 29.4587 25.141C29.4083 24.8652 29.4083 24.5825 29.4587 24.3067H37.0443V21.0667L41.9651 16.1541ZM38.8344 30.6571H47.6229V21.9334H38.8344V30.6571ZM47.6634 20.5321H39.3528L42.119 17.8429H50.3526L47.6634 20.5321ZM49.0931 29.8593L51.8673 27.0121V18.7663L48.8744 21.6013L49.0931 29.8593Z" fill="white"/>
<path id="Shape_2" fill-rule="evenodd" clip-rule="evenodd" d="M52.7826 37.2747H46.335V38.9474H50.0326C50.0326 38.9474 48.7245 40.292 48.3559 40.7375H40.0656L42.609 38.186C42.609 38.186 42.046 37.0641 41.317 37.2788L37.1091 41.4786V44.8442H30.1188C29.491 45.314 29.2399 45.7838 29.6287 46.4925H37.1455V52.3974C37.1455 52.5324 37.1994 52.6618 37.2952 52.7568C37.391 52.8519 37.5208 52.9047 37.6558 52.9037H48.9634L53.3253 48.3879V37.704C53.3253 37.704 53.3374 37.5866 52.7826 37.2747ZM47.6229 51.1055H38.8344V42.3818H47.6229V51.1055ZM49.2186 42.564V50.5466L51.8146 47.5496L51.7053 39.7655L49.2186 42.564Z" fill="white"/>
<path id="Shape_3" fill-rule="evenodd" clip-rule="evenodd" d="M32.2574 27.1983H30.6374L28.7218 29.0735V21.1193L30.6252 19.0659V22.7109H32.2898V16.7412L31.739 16.2107H21.209L16.5312 20.8763V31.5075C16.5312 31.9549 16.8939 32.3175 17.3413 32.3175H22.9505C22.9505 32.3175 22.8573 37.4894 23.076 39.9761H23.0963C23.6808 39.9764 24.2416 39.7448 24.6556 39.3321V32.3054H28.2358L32.2493 28.2027L32.2574 27.1983ZM18.1998 30.657C18.1998 30.657 18.1998 21.9212 18.2606 21.8847C18.3213 21.8483 26.7291 21.824 26.7291 21.824L26.7656 30.6732L18.1998 30.657ZM18.702 20.532H26.875L29.5358 17.8226H21.5371L18.702 20.532Z" fill="white"/>
<path id="Shape_4" fill-rule="evenodd" clip-rule="evenodd" d="M28.6894 49.5706C28.6894 49.5706 30.7913 47.5699 30.8723 47.6509H32.2614V48.5176L27.8713 52.8997H17.9609C17.9143 52.9001 17.8675 52.9012 17.8207 52.9023C17.3232 52.9139 16.8274 52.9255 16.5312 52.0371V41.5395L20.9538 37.125C21.3953 37.0399 21.9096 37.2141 22.2377 38.0241L19.6579 40.7173H27.4257L29.5237 38.7774H25.8462V37.2141H31.7512L32.2574 37.7041V43.5645H30.7063V39.9843L28.6894 42.0741V49.5706ZM18.1998 51.7009H26.7656V42.4426H18.1998V51.7009Z" fill="white"/>
</g>
</g>
</svg>
