<svg width="69" height="69" viewBox="0 0 69 69" fill="none" xmlns="http://www.w3.org/2000/svg">
<g id="Cloud">
<path id="Oval" fill-rule="evenodd" clip-rule="evenodd" d="M34.5312 68.1541C53.3089 68.1541 68.5312 52.9317 68.5312 34.1541C68.5312 15.3764 53.3089 0.154053 34.5312 0.154053C15.7536 0.154053 0.53125 15.3764 0.53125 34.1541C0.53125 52.9317 15.7536 68.1541 34.5312 68.1541Z" fill="#07AFF2"/>
<g id="Asset 5">
<path id="Path" d="M54.291 35.0651C53.3045 33.1498 51.6605 31.6543 49.6605 30.8531C49.6965 30.4751 49.7145 30.0926 49.7145 29.7056C49.7103 24.2063 45.8313 19.4717 40.4403 18.3859C35.0493 17.3 29.6398 20.1637 27.507 25.2326C25.32 24.6341 22.962 24.0716 20.9145 25.2956C18.768 26.5826 17.7015 28.8326 17.4135 31.2986L17.238 31.4741C13.7708 33.1005 11.897 36.9157 12.7295 40.654C13.562 44.3922 16.8777 47.0517 20.7075 47.0531H20.847C21.2745 47.1026 21.7155 47.1341 22.1655 47.1431C30.1755 47.2871 38.19 47.1431 46.2 47.2331C47.2765 47.2107 48.3414 47.0068 49.35 46.6301C54.4125 44.9426 56.5995 39.6326 54.291 35.0651Z" fill="white"/>
</g>
</g>
</svg>
