<?xml version="1.0" encoding="UTF-8"?> <svg xmlns="http://www.w3.org/2000/svg" xmlns:xlink="http://www.w3.org/1999/xlink" width="158.74" height="205.85" viewBox="0 0 158.74 205.85"><defs><style>.cls-1,.cls-11,.cls-4{fill:none;}.cls-2{fill:#29abe2;}.cls-3,.cls-5{fill:url(#New_Pattern);}.cls-4,.cls-5{stroke:#414141;}.cls-11,.cls-4,.cls-5{stroke-miterlimit:10;}.cls-6{isolation:isolate;}.cls-7{clip-path:url(#clip-path);}.cls-8{fill:#414141;}.cls-9{clip-path:url(#clip-path-2);}.cls-10{clip-path:url(#clip-path-3);}.cls-11{stroke:#29abe2;stroke-linecap:round;}</style><pattern id="New_Pattern" data-name="New Pattern" y="-1.26" width="7" height="13" patternUnits="userSpaceOnUse" viewBox="0 0 7 13"><rect class="cls-1" width="7" height="13"></rect><circle class="cls-2" cx="7" cy="13" r="1"></circle><circle class="cls-2" cy="13" r="1"></circle><circle class="cls-2" cx="3.5" cy="6.5" r="1"></circle><circle class="cls-2" cx="7" r="1"></circle><circle class="cls-2" r="1"></circle></pattern><clipPath id="clip-path" transform="translate(0 -1.26)"><polygon class="cls-1" points="114.24 141.05 92.22 128.25 136.37 102.77 158.38 115.56 114.24 141.05"></polygon></clipPath><clipPath id="clip-path-2" transform="translate(0 -1.26)"><polygon class="cls-1" points="111.75 47.81 89.73 35.02 150.39 0 172.41 12.79 111.75 47.81"></polygon></clipPath><clipPath id="clip-path-3" transform="translate(0 -1.26)"><polygon class="cls-1" points="115.01 93.98 93.44 81.44 143.21 52.71 164.78 65.24 115.01 93.98"></polygon></clipPath></defs><title>Asset 1</title><g id="Layer_2" data-name="Layer 2"><g id="Layer_3" data-name="Layer 3"><polygon class="cls-3" points="64.5 145.16 64.5 145.21 36.5 161.21 36.5 139.21 64.5 123.2 64.5 145.16"></polygon><path class="cls-2" d="M36.5,184v11.55h-.33c-13.67,0-24.89-6-26.06-13.63a8.2,8.2,0,0,1-.11-1.32,9.12,9.12,0,0,1,.82-3.73Z" transform="translate(0 -1.26)"></path><path class="cls-4" d="M36.5,195.52h-.33c-13.67,0-24.89-6-26.06-13.63a8.2,8.2,0,0,1-.11-1.32,9.12,9.12,0,0,1,.82-3.73" transform="translate(0 -1.26)"></path><path class="cls-4" d="M64.53,146.43c6.79,4,11,9.55,11,15.61a13.27,13.27,0,0,1-.16,2" transform="translate(0 -1.26)"></path><path class="cls-4" d="M.5,153c6.21-7.81,19.51-13.5,35.5-13.5" transform="translate(0 -1.26)"></path><path class="cls-4" d="M75.49,183.76v.49a13.37,13.37,0,0,1-.15,1.79c-1.76,11.44-18.43,20.43-38.84,20.57v-22c14.61-.11,27.32-4.74,34-11.57a16.56,16.56,0,0,0,4.85-9Z" transform="translate(0 -1.26)"></path><polygon class="cls-5" points="36.5 161.71 36.5 182.71 10.82 175.58 0.5 172.71 0.5 151.71 36.37 161.67 36.5 161.71"></polygon><path class="cls-4" d="M36,117.47h.5c10.89.06,20.94,2.35,28,6.49" transform="translate(0 -1.26)"></path><polygon class="cls-4" points="64.5 123.2 64.5 145.16 64.5 145.21 36.5 161.21 36.5 139.21 64.5 123.2"></polygon><polyline class="cls-4" points="36.5 138.21 36.5 116.22 36.5 116.2"></polyline><line class="cls-4" x1="36.5" y1="139.2" x2="36.5" y2="138.2"></line><g class="cls-6"><g class="cls-7"><path class="cls-8" d="M96.59,126.19c-2.23,1.28-2.31,3.26,0,4.63a8.5,8.5,0,0,0,8,0c2.14-1.24,2.12-3,.36-4.29l-.79-.46-4.26,2.46.83.49,3.16-1.82c1.39,1,1.32,2.18-.23,3.08a6.19,6.19,0,0,1-6-.11c-1.89-1.09-1.84-2.51-.17-3.48a5.51,5.51,0,0,1,3.85-.55l1.24-.71a8.18,8.18,0,0,0-6,.73" transform="translate(0 -1.26)"></path><path class="cls-8" d="M112.55,125.26a4.41,4.41,0,0,1-4.34-.16c-1.56-.9-1.3-1.9-.22-2.53a4.52,4.52,0,0,1,4.39.12c1.57.91,1.25,2,.17,2.57m-5.44-3.21c-1.76,1-1.91,2.52,0,3.66a6.53,6.53,0,0,0,6.3.07c1.78-1,2-2.56,0-3.7a6.56,6.56,0,0,0-6.33,0" transform="translate(0 -1.26)"></path><path class="cls-8" d="M120.67,120.58a4.43,4.43,0,0,1-4.35-.16c-1.55-.91-1.3-1.91-.21-2.54a4.55,4.55,0,0,1,4.39.12c1.57.91,1.25,2,.17,2.58m-5.45-3.22c-1.75,1-1.91,2.53,0,3.66a6.56,6.56,0,0,0,6.3.08c1.77-1,2-2.57,0-3.71a6.63,6.63,0,0,0-6.34,0" transform="translate(0 -1.26)"></path><path class="cls-8" d="M128.84,115.86a4.64,4.64,0,0,1-4.42-.14c-1.45-.84-1.31-1.88-.17-2.53a4.62,4.62,0,0,1,4.4.11c1.45.84,1.33,1.9.19,2.56m-5.69-3.07c-1.67,1-1.71,2.42.22,3.54a6.51,6.51,0,0,0,6.17.17c1.13-.66,1.34-1.47,1.05-2.07l1.3.75c1.31.77,1.19,1.65.09,2.29a4.24,4.24,0,0,1-3.25.42l-1,.59a6,6,0,0,0,5.16-.5c1.82-1,1.77-2.41.06-3.41l-6.32-3.67-1,.61,1.13.65a5.55,5.55,0,0,0-3.55.63" transform="translate(0 -1.26)"></path><polyline class="cls-8" points="128.08 106.29 127.04 106.89 135.39 111.74 136.43 111.14 128.08 106.29"></polyline><path class="cls-8" d="M136.18,108.44c-1.1-.77-.93-1.64.08-2.22a4,4,0,0,1,3.85,0l-3.93,2.26m-.73-2.75c-1.82,1-1.85,2.49.1,3.62a6.5,6.5,0,0,0,6.28.09c1.54-.89,1.66-2,.85-2.82l-1.12.64c.45.52.33,1.14-.6,1.67a4.22,4.22,0,0,1-4,0l5-2.87-.59-.38a6.18,6.18,0,0,0-5.93,0" transform="translate(0 -1.26)"></path><path class="cls-8" d="M108.68,134.47c-1.52.88-1.78,2-.49,2.84l1-.59c-.68-.51-.65-1.16.32-1.72a2.82,2.82,0,0,1,2.83-.1c1,.55.62,1.22-.74,2l-.27.15.86.5.26-.15c1.48-.85,2.72-1.06,3.87-.39.84.48,1,1.16-.14,1.79a3.77,3.77,0,0,1-3.37.17l-1,.57a5.55,5.55,0,0,0,5.24-.24c1.72-1,1.62-2.08.35-2.81a4.39,4.39,0,0,0-3.7-.29l0,0c.67-.61.52-1.38-.41-1.92a4.69,4.69,0,0,0-4.57.21" transform="translate(0 -1.26)"></path><polyline class="cls-8" points="118.78 127.59 113.39 130.69 114.27 131.21 118.65 128.68 122.71 134.74 123.75 134.14 119.56 128.04 118.78 127.59"></polyline><path class="cls-8" d="M128.07,131.36c-.4.23-.4.58,0,.82a1.54,1.54,0,0,0,1.4,0c.37-.21.38-.57,0-.79a1.47,1.47,0,0,0-1.38,0" transform="translate(0 -1.26)"></path><path class="cls-8" d="M126.39,124.25c-1.48.86-1.68,2,0,3.07l1-.58c-1-.62-1.17-1.37-.1-2a2.93,2.93,0,0,1,3.09,0c1.67,1,1.25,3.09.81,5.34l.74.43,5.46-3.16-.85-.5-3.91,2.26c.28-1.54.76-3.81-1.27-5a5,5,0,0,0-5,.06" transform="translate(0 -1.26)"></path><path class="cls-8" d="M144.77,122.67a1.89,1.89,0,0,1-1.88-.12c-.72-.42-.71-.81-.21-1.1a1.88,1.88,0,0,1,1.89.12c.7.41.7.81.2,1.1m-2.72-1.6c-1,.55-1,1.33,0,1.94a3.44,3.44,0,0,0,3.35,0c.94-.54,1-1.33,0-1.94a3.45,3.45,0,0,0-3.34,0m-4-3-1,.59,3.27,7.23,1-.59L138.05,118m-2.36,4.39a1.84,1.84,0,0,1-1.89-.14c-.71-.41-.72-.79-.22-1.08a1.86,1.86,0,0,1,1.89.12c.7.41.72.82.22,1.1M133,120.82c-.95.54-1,1.33,0,1.93a3.42,3.42,0,0,0,3.35,0c1-.55,1-1.32,0-1.94a3.4,3.4,0,0,0-3.33,0" transform="translate(0 -1.26)"></path></g></g><g class="cls-6"><g class="cls-9"><polyline class="cls-8" points="94.99 31.29 90.52 33.87 98.38 38.44 99.41 37.84 95.87 35.79 98.66 34.17 97.82 33.69 95.03 35.3 92.38 33.76 95.82 31.77 94.99 31.29"></polyline><path class="cls-8" d="M106.92,33.84a4.61,4.61,0,0,1-4.42-.13c-1.45-.84-1.31-1.88-.17-2.54a4.65,4.65,0,0,1,4.4.11c1.45.85,1.32,1.91.19,2.56m-5.69-3.07c-1.67,1-1.71,2.43.22,3.55a6.47,6.47,0,0,0,6.15.17c1.15-.66,1.37-1.47,1.08-2.07l1.15.67,1-.61-6.19-3.59-1,.6,1.13.66a5.6,5.6,0,0,0-3.55.62" transform="translate(0 -1.26)"></path><path class="cls-8" d="M109.83,25.8c-1.77,1-1.79,2.48.16,3.6a6.38,6.38,0,0,0,6.23.12c1.55-.9,1.7-2,.79-2.88l-1.12.65c.56.58.38,1.19-.54,1.72A4.32,4.32,0,0,1,111,28.8c-1.51-.88-1.47-1.84-.34-2.49a3.68,3.68,0,0,1,3-.3l1.12-.65a6,6,0,0,0-5,.44" transform="translate(0 -1.26)"></path><path class="cls-8" d="M118.36,24.06c-1.1-.76-.93-1.64.08-2.22a3.94,3.94,0,0,1,3.84,0l-3.92,2.26m-.74-2.75c-1.82,1.05-1.85,2.49.1,3.63A6.5,6.5,0,0,0,124,25c1.55-.89,1.67-2,.86-2.81l-1.11.64c.44.51.32,1.13-.62,1.67a4.23,4.23,0,0,1-3.95,0l5-2.87-.59-.38a6.2,6.2,0,0,0-5.94,0" transform="translate(0 -1.26)"></path><path class="cls-8" d="M131.45,19.68a4.64,4.64,0,0,1-4.42-.12c-1.43-.83-1.3-1.9-.17-2.55a4.55,4.55,0,0,1,4.39.11c1.45.84,1.35,1.9.2,2.56m-9.66-3.17-1,.6L129.1,22l1-.59L129,20.71a5.73,5.73,0,0,0,3.57-.63c1.66-1,1.65-2.46-.27-3.57a6.38,6.38,0,0,0-6.12-.14c-1.11.63-1.37,1.44-1.08,2.07l-3.31-1.93" transform="translate(0 -1.26)"></path><path class="cls-8" d="M139.54,15a4.43,4.43,0,0,1-4.35-.16c-1.55-.9-1.3-1.9-.21-2.53a4.49,4.49,0,0,1,4.39.12c1.57.91,1.25,2,.17,2.57m-5.44-3.22c-1.76,1-1.92,2.53,0,3.67a6.53,6.53,0,0,0,6.3.07c1.77-1,1.95-2.56,0-3.7a6.59,6.59,0,0,0-6.33,0" transform="translate(0 -1.26)"></path><path class="cls-8" d="M147.66,10.32a4.43,4.43,0,0,1-4.35-.15c-1.56-.91-1.3-1.91-.21-2.54a4.55,4.55,0,0,1,4.39.12c1.57.91,1.25,1.95.17,2.57m-5.44-3.21c-1.77,1-1.92,2.53,0,3.66a6.53,6.53,0,0,0,6.31.07c1.77-1,1.95-2.55,0-3.7a6.6,6.6,0,0,0-6.32,0" transform="translate(0 -1.26)"></path><polyline class="cls-8" points="146.55 0.96 145.51 1.56 153.86 6.41 154.89 5.81 152.17 4.22 157.33 4.4 158.74 3.59 152.7 3.48 152.55 0 151.1 0.83 151.46 3.81 146.55 0.96"></polyline><path class="cls-8" d="M106,41.36c-1.47.85-1.66,2,0,3.07l1-.58c-1-.63-1.18-1.37-.11-2a2.93,2.93,0,0,1,3.09,0c1.67,1,1.26,3.1.82,5.35l.73.42L117,44.53l-.85-.5-3.91,2.26c.28-1.54.76-3.81-1.27-5a5,5,0,0,0-5,.06" transform="translate(0 -1.26)"></path><path class="cls-8" d="M113.37,37.1c-1.48.85-1.68,2,0,3.06l1-.57c-1-.62-1.17-1.37-.1-2a3,3,0,0,1,3.09,0c1.66,1,1.25,3.1.82,5.35l.73.42,5.46-3.15-.85-.5L119.6,42c.28-1.54.75-3.81-1.28-5a5,5,0,0,0-4.95.06" transform="translate(0 -1.26)"></path><path class="cls-8" d="M125.67,38.08c-.4.23-.41.59,0,.82a1.48,1.48,0,0,0,1.4,0c.37-.21.38-.56,0-.79a1.51,1.51,0,0,0-1.37,0" transform="translate(0 -1.26)"></path><polyline class="cls-8" points="123.44 30.2 121.3 31.44 122.23 31.98 123.33 31.35 130.54 35.54 131.59 34.94 123.44 30.2"></polyline><path class="cls-8" d="M139.47,31.06a1.88,1.88,0,0,1-1.89-.12c-.71-.41-.71-.81-.2-1.1a1.87,1.87,0,0,1,1.88.13c.7.4.7.8.21,1.09m-2.73-1.6c-1,.55-1,1.33,0,1.94a3.44,3.44,0,0,0,3.35,0c.94-.54,1-1.32,0-1.93a3.42,3.42,0,0,0-3.34,0m-4-3-1,.59L135,34.23l1-.59-3.28-7.22m-2.35,4.39a1.89,1.89,0,0,1-1.89-.14c-.71-.42-.72-.8-.23-1.09a1.86,1.86,0,0,1,1.89.12c.71.41.73.82.23,1.11m-2.74-1.59c-.94.54-1,1.32,0,1.92a3.4,3.4,0,0,0,3.34,0c1-.55,1-1.32,0-1.94a3.38,3.38,0,0,0-3.33,0" transform="translate(0 -1.26)"></path></g></g><g class="cls-6"><g class="cls-10"><path class="cls-8" d="M100.69,83.32l-2.54-3.14,5.4,1.49-2.86,1.65m-3.2-4.22-1.19.69,5,6.2,1.09-.63L101.24,84l3.44-2,2.39.65,1.09-.63L97.49,79.1" transform="translate(0 -1.26)"></path><path class="cls-8" d="M111.44,72.81c-1,.55-1.35,1.35-.82,2.07a5.09,5.09,0,0,0-3.66.52c-.82.47-1.21,1.1-1,1.72l-.89-.52-1,.6,6.19,3.59,1-.6-3.41-2c-1.33-.77-1.28-1.57-.23-2.17a3.53,3.53,0,0,1,3.6.12l3.5,2,1-.6-3.41-2c-1.33-.77-1.28-1.57-.24-2.17a3.55,3.55,0,0,1,3.61.12l3.5,2,1-.59-3.64-2.12a5.19,5.19,0,0,0-5.18-.09" transform="translate(0 -1.26)"></path><path class="cls-8" d="M124.77,71.48a4.59,4.59,0,0,1-4.41-.13c-1.46-.85-1.32-1.88-.18-2.54a4.65,4.65,0,0,1,4.4.12c1.45.84,1.32,1.9.19,2.55m-5.69-3.07c-1.67,1-1.71,2.43.22,3.55a6.49,6.49,0,0,0,6.16.17c1.14-.66,1.36-1.47,1.07-2.07l1.15.67,1-.6-6.19-3.6-1,.61,1.13.65a5.66,5.66,0,0,0-3.55.62" transform="translate(0 -1.26)"></path><polyline class="cls-8" points="128.94 61.58 124.75 64 125.59 64.48 128.59 62.75 130.07 67.11 130.92 67.6 135.15 65.16 134.3 64.67 131.25 66.43 129.78 62.07 128.94 61.58"></polyline><path class="cls-8" d="M139.25,63.12a4.41,4.41,0,0,1-4.34-.15c-1.56-.91-1.31-1.91-.22-2.54a4.54,4.54,0,0,1,4.4.12c1.56.92,1.24,2,.16,2.57m-5.44-3.21c-1.76,1-1.91,2.53,0,3.67a6.58,6.58,0,0,0,6.31.07c1.77-1,2-2.57,0-3.71a6.61,6.61,0,0,0-6.34,0" transform="translate(0 -1.26)"></path><path class="cls-8" d="M142.19,55.06c-.84.49-1.24,1.12-1,1.73l-.88-.51-1,.6,6.19,3.59,1-.6-3.42-2c-1.33-.78-1.26-1.58-.2-2.19a3.56,3.56,0,0,1,3.64.11l3.5,2,1-.59-3.65-2.12a5.18,5.18,0,0,0-5.19-.07" transform="translate(0 -1.26)"></path><path class="cls-8" d="M117.36,91.63a3.6,3.6,0,0,1-3.51.18c-1.09-.63-.71-1.4.35-2a3.45,3.45,0,0,1,3.45-.19c.95.55.88,1.35-.29,2m-4-2.29a3.17,3.17,0,0,1-3.09.16c-1-.55-.76-1.23.25-1.81a3.09,3.09,0,0,1,3.14-.15c.84.49.71,1.22-.3,1.8m-3.7-2.15c-1.78,1-1.73,2.12-.53,2.81a4.19,4.19,0,0,0,3.19.33c-.64.69-.51,1.47.52,2.07a5.49,5.49,0,0,0,5.32-.27c1.74-1,2-2.23.5-3.09a4.56,4.56,0,0,0-3.58-.3c.49-.65.33-1.34-.55-1.85a5,5,0,0,0-4.87.3" transform="translate(0 -1.26)"></path><path class="cls-8" d="M122.3,88c-.4.23-.4.58,0,.81a1.5,1.5,0,0,0,1.41,0c.38-.22.38-.57,0-.81a1.56,1.56,0,0,0-1.38,0" transform="translate(0 -1.26)"></path><path class="cls-8" d="M128.61,85.14a3.6,3.6,0,0,1-3.51.17c-1.09-.63-.71-1.4.35-2a3.47,3.47,0,0,1,3.45-.19c.95.55.88,1.35-.29,2m-4-2.29a3.23,3.23,0,0,1-3.09.16c-1-.56-.77-1.23.25-1.82a3.09,3.09,0,0,1,3.13-.14c.85.49.72,1.21-.29,1.8M121,80.69c-1.79,1-1.73,2.12-.53,2.82a4.23,4.23,0,0,0,3.19.33c-.65.69-.51,1.46.52,2.06a5.49,5.49,0,0,0,5.32-.26c1.74-1,2-2.24.5-3.1a4.6,4.6,0,0,0-3.58-.3c.49-.65.33-1.33-.55-1.85a5,5,0,0,0-4.87.3" transform="translate(0 -1.26)"></path><path class="cls-8" d="M139.63,78.91a1.84,1.84,0,0,1-1.88-.12c-.71-.42-.71-.81-.21-1.09a1.81,1.81,0,0,1,1.89.12c.7.41.7.8.2,1.09m-2.72-1.59c-.95.55-1,1.32,0,1.93a3.42,3.42,0,0,0,3.35,0c1-.55,1-1.32,0-1.93a3.4,3.4,0,0,0-3.34,0m-4-3.06-1,.59,3.29,7.24,1-.59-3.28-7.24m-2.36,4.4a1.87,1.87,0,0,1-1.89-.14c-.71-.41-.71-.8-.21-1.09a1.86,1.86,0,0,1,1.89.13c.69.4.71.81.21,1.1m-2.74-1.59c-.94.54-1,1.32,0,1.93a3.46,3.46,0,0,0,3.36,0c.95-.55,1-1.33,0-2a3.45,3.45,0,0,0-3.34,0" transform="translate(0 -1.26)"></path></g></g><polyline class="cls-11" points="91.69 132.12 69 145.02 69 158.52"></polyline><polyline class="cls-11" points="87.5 85.7 49 108.02 49 124.52"></polyline><polyline class="cls-11" points="13.69 147.12 13.69 87.12 86.69 44.12"></polyline></g></g></svg> 