<?xml version="1.0" encoding="UTF-8"?>
<svg width="120" viewBox="0 0 63 25" version="1.1" xmlns="http://www.w3.org/2000/svg" xmlns:xlink="http://www.w3.org/1999/xlink">
    <defs>
        <polygon id="path-1" points="0.000941176471 0.000376470588 62.7774118 0.000376470588 62.7774118 24.4954353 0.000941176471 24.4954353"></polygon>
    </defs>
    <g stroke="none" stroke-width="1" fill="none" fill-rule="evenodd">
            <g transform="translate(-44.000000, -587.000000)">
                    <g transform="translate(44.000000, 587.000000)">
                            <mask fill="white">
                                <use xlink:href="#path-1"></use>
                            </mask>
                            <g></g>
                            <path d="M10.0884706,16.6279529 L12.6842353,11.3366588 L15.28,16.6279529 L10.0884706,16.6279529 Z M53.8870588,11.6641882 L62.4875294,1.50324706 L55.1407059,1.50324706 L47.3101176,10.8133647 L47.3101176,1.50324706 L41.0550588,1.50324706 L41.0550588,16.5037176 C40.9176471,15.3441882 40.5110588,14.3408941 39.8371765,13.4919529 C38.9901176,12.4246588 37.5877647,11.5361882 35.6357647,10.8321882 C35.024,10.6063059 34.3915294,10.3954824 33.7364706,10.1978353 C33.0832941,10.0001882 32.5637647,9.8496 32.1778824,9.74983529 C31.792,9.64818824 31.4136471,9.53524706 31.0447059,9.41289412 C30.6738824,9.29054118 30.3952941,9.17007059 30.2108235,9.05336471 C30.0263529,8.93477647 29.8795294,8.78230588 29.7684706,8.59407059 C29.6574118,8.4096 29.6009412,8.18183529 29.6009412,7.91454118 C29.6009412,7.49665882 29.8136471,7.15971765 30.2352941,6.89618824 C30.6588235,6.63454118 31.2668235,6.50277647 32.0592941,6.50277647 C33.7910588,6.50277647 35.9896471,6.84912941 36.9797647,7.90136471 L37.8738824,2.88489412 C36.1571765,1.55783529 33.1774118,1.21524706 31.8371765,1.28677647 C30.7755294,1.34512941 29.7590588,1.43171765 28.7952941,1.71783529 C27.8334118,2.00583529 26.9769412,2.42183529 26.2221176,2.96771765 C25.4710588,3.51171765 24.8705882,4.21948235 24.4225882,5.08912941 C23.9764706,5.95689412 23.7524706,6.93195294 23.7524706,8.01054118 C23.7524706,9.66701176 24.2023529,11.0223059 25.1021176,12.0820706 C26.0018824,13.1380706 27.2894118,13.9832471 28.9628235,14.6138353 C29.5011765,14.8284235 30.1185882,15.0392471 30.8188235,15.2481882 C31.5190588,15.4552471 32.0912941,15.6246588 32.5430588,15.7507765 C32.9910588,15.8806588 33.4296471,16.0331294 33.8588235,16.2081882 C34.2861176,16.3851294 34.6023529,16.5884235 34.8094118,16.8180706 C35.0164706,17.0477176 35.12,17.3168941 35.12,17.6274824 C35.12,18.7286588 34.1091765,19.2783059 32.0894118,19.2783059 C30.9110588,19.2783059 29.8268235,19.0147765 28.8423529,18.4839529 C27.856,17.9550118 27.0654118,17.2754824 26.4630588,16.4397176 L22.7209412,19.3460706 L12.6842353,-0.000752941176 L0.000941176471,24.4472471 L6.50635294,24.4472471 L7.98588235,21.4561882 L17.3825882,21.4561882 L18.8621176,24.4472471 L25.3675294,24.4472471 L24.0611765,21.9248941 C24.2494118,22.0792471 24.4508235,22.2354824 24.6691765,22.3898353 C25.2658824,22.8133647 25.9096471,23.1747765 26.6042353,23.4740706 C27.3025882,23.7733647 28.1232941,24.0199529 29.072,24.2081882 C30.0207059,24.4001882 31.0258824,24.4961882 32.0894118,24.4961882 C35.0974118,24.4961882 37.3524706,23.8561882 38.8545882,22.5743059 C40.1289412,21.4900706 40.8611765,20.0952471 41.0550588,18.3898353 L41.0550588,24.4472471 L47.3101176,24.4472471 L47.3101176,18.5479529 L49.5783529,15.9258353 L55.4136471,24.4472471 L62.7774118,24.4472471 L53.8870588,11.6641882 Z" fill="#07AFF2" mask="url(#mask-2)"></path>
                    </g>
            </g>
    </g>
</svg>