<?xml version="1.0" encoding="UTF-8"?>
<svg width="167px" height="35px" viewBox="0 0 167 35" version="1.1" xmlns="http://www.w3.org/2000/svg" xmlns:xlink="http://www.w3.org/1999/xlink">
    <g id="Developer-Pages" stroke="none" stroke-width="1" fill="none" fill-rule="evenodd">
        <g id="Developer-Page:-Desktop-V6" transform="translate(-208.000000, -283.000000)" fill="#FFFFFF">
            <g id="TopNavigation/Desktop1440" transform="translate(0.000000, 246.000000)">
                <g id="TopNavigation/Copy/Desktop1440" transform="translate(208.000000, 36.000000)">
                    <g id="Group">
                        <g id="Logo" transform="translate(0.000000, 1.000000)">
                            <path d="M55.097856,16.761261 L57.928266,16.761261 C58.118346,16.761261 58.315356,16.727931 58.519626,16.661271 C58.723566,16.594611 58.931466,16.490991 59.142666,16.350741 C59.353866,16.210161 59.528106,15.995991 59.665386,15.708231 C59.802666,15.420141 59.871306,15.082881 59.871306,14.696451 C59.871306,14.303421 59.802666,13.962861 59.665386,13.674771 C59.528106,13.386681 59.353866,13.170861 59.142666,13.027311 C58.931466,12.883101 58.723566,12.779811 58.519626,12.716451 C58.315356,12.653091 58.118346,12.621411 57.928266,12.621411 L55.097856,12.621411 L55.097856,16.761261 Z M51.760896,24.660471 L51.760896,9.590691 L58.118346,9.590691 C58.702446,9.590691 59.290506,9.705201 59.881866,9.934221 C60.473226,10.163241 61.018716,10.484001 61.518666,10.896171 C62.018616,11.308671 62.425176,11.847561 62.738346,12.513831 C63.051846,13.179441 63.208596,13.907421 63.208596,14.696451 C63.208596,15.434991 63.060426,16.127991 62.764746,16.775121 C62.469066,17.422251 62.079996,17.962131 61.597866,18.394431 C61.115736,18.827061 60.571566,19.168281 59.966346,19.417761 C59.360796,19.667571 58.744686,19.792311 58.118346,19.792311 L55.097856,19.792311 L55.097856,24.660471 L51.760896,24.660471 Z" id="Fill-1"></path>
                            <path d="M67.127874,17.954607 L72.123084,17.954607 C72.123084,17.454657 71.890764,17.026977 71.425794,16.671237 C70.961484,16.316157 70.405104,16.138287 69.757314,16.138287 C69.060354,16.138287 68.458434,16.314177 67.951554,16.666287 C67.444674,17.018397 67.170114,17.447727 67.127874,17.954607 M63.854274,19.274607 L63.854274,19.190127 C63.854274,17.472477 64.406694,16.090767 65.512194,15.045327 C66.617364,13.999887 68.032404,13.477167 69.757314,13.477167 C70.855554,13.477167 71.834334,13.725327 72.693324,14.221317 C73.551984,14.717637 74.212314,15.384897 74.673324,16.222767 C75.134334,17.060637 75.365004,17.989917 75.365004,19.010607 C75.365004,19.376907 75.350814,19.725387 75.322764,20.056047 L67.075074,20.056047 C67.110054,20.704167 67.389894,21.222927 67.914594,21.613977 C68.438964,22.004367 69.127344,22.200057 69.979404,22.200057 C70.528524,22.200057 71.012304,22.113927 71.431404,21.941337 C71.850174,21.769077 72.253104,21.499467 72.640524,21.133497 L74.520204,22.928697 C73.224954,24.259257 71.661744,24.924537 69.831234,24.924537 C68.049894,24.924537 66.608454,24.409077 65.506914,23.377497 C64.405044,22.346247 63.854274,20.978727 63.854274,19.274607" id="Fill-3"></path>
                            <path d="M77.024508,24.660636 L77.024508,13.762056 L80.255868,13.762056 L80.255868,15.239796 C80.502378,14.694306 80.903658,14.271246 81.460038,13.970286 C82.016088,13.669656 82.667508,13.519176 83.413638,13.519176 C83.631768,13.519176 83.909958,13.540296 84.247878,13.582206 L84.247878,16.592466 C83.909958,16.522176 83.550918,16.486536 83.170758,16.486536 C82.255668,16.486536 81.540888,16.737336 81.026748,17.238606 C80.512938,17.739546 80.255868,18.435186 80.255868,19.324206 L80.255868,24.660636 L77.024508,24.660636 Z" id="Fill-5"></path>
                            <path d="M86.258535,24.660636 L86.258535,13.762056 L89.489895,13.762056 L89.489895,15.129906 C89.701425,14.642496 90.060465,14.252106 90.567345,13.958736 C91.074225,13.666026 91.658325,13.519176 92.320305,13.519176 C93.781545,13.519176 94.769895,14.098326 95.285025,15.256956 C95.889585,14.098326 97.098375,13.519176 98.912055,13.519176 C100.153845,13.519176 101.111505,13.918806 101.785365,14.717736 C102.459555,15.516996 102.796485,16.623816 102.796485,18.039186 L102.796485,24.660636 L99.565125,24.660636 L99.565125,18.437826 C99.565125,17.797956 99.424545,17.297346 99.143715,16.935006 C98.862885,16.572666 98.462925,16.391496 97.943505,16.391496 C97.417155,16.391496 96.983535,16.592136 96.643305,16.993086 C96.302745,17.393706 96.132465,17.910486 96.132465,18.543096 L96.132465,24.660636 L92.901105,24.660636 L92.901105,18.437826 C92.901105,17.797956 92.762175,17.297346 92.483985,16.935006 C92.205795,16.572666 91.806495,16.391496 91.285425,16.391496 C90.764355,16.391496 90.335025,16.592136 89.997105,16.993086 C89.659185,17.393706 89.489895,17.910486 89.489895,18.543096 L89.489895,24.660636 L86.258535,24.660636 Z" id="Fill-7"></path>
                            <path d="M104.89941,24.66057 L108.1311,24.66057 L108.1311,13.76199 L104.89941,13.76199 L104.89941,24.66057 Z M104.66709,11.01606 C104.66709,10.50258 104.84859,10.06731 105.21126,9.7119 C105.5736,9.35649 106.00491,9.17862 106.50486,9.17862 C107.01174,9.17862 107.4447,9.35649 107.80374,9.7119 C108.16278,10.06731 108.3423,10.50258 108.3423,11.01606 C108.3423,11.52327 108.16278,11.9526 107.80374,12.30471 C107.4447,12.65682 107.01174,12.83271 106.50486,12.83271 C106.00491,12.83271 105.5736,12.65484 105.21126,12.29943 C104.84859,11.94402 104.66709,11.51634 104.66709,11.01606 L104.66709,11.01606 Z" id="Fill-9"></path>
                            <path d="M109.505319,23.028027 L111.364209,21.044727 C111.659559,21.405087 112.073379,21.694827 112.605009,21.913617 C113.136639,22.132737 113.715459,22.242297 114.342129,22.242297 C114.898179,22.242297 115.311999,22.162767 115.582929,22.003707 C115.853859,21.844977 115.989489,21.627507 115.989489,21.351957 C115.989489,21.210717 115.936689,21.086967 115.831089,20.981367 C115.725819,20.875437 115.563459,20.783367 115.345329,20.705817 C115.127199,20.627937 114.903459,20.559297 114.674769,20.499237 C114.446079,20.438847 114.150069,20.361297 113.788059,20.265927 C113.425059,20.170557 113.106609,20.077167 112.832049,19.985097 C112.022229,19.709217 111.401169,19.329717 110.968209,18.845937 C110.534919,18.361827 110.318769,17.727897 110.318769,16.943817 C110.318769,16.379847 110.434599,15.870987 110.667249,15.416577 C110.899569,14.962167 111.214719,14.592237 111.612369,14.306457 C112.010019,14.021337 112.460469,13.804527 112.964049,13.656687 C113.467299,13.508517 114.000579,13.434597 114.563889,13.434597 C116.091459,13.434597 117.337539,13.903197 118.302459,14.839407 L116.771259,16.964607 C116.179899,16.427697 115.415619,16.159407 114.479409,16.159407 C114.127299,16.159407 113.858019,16.226727 113.671569,16.360707 C113.485119,16.495017 113.391729,16.661007 113.391729,16.859007 C113.391729,16.999917 113.423409,17.114757 113.486769,17.203197 C113.550129,17.291637 113.669589,17.370837 113.845809,17.441457 C114.022029,17.512077 114.208479,17.572467 114.405819,17.621637 C114.602499,17.671467 114.891249,17.749017 115.271739,17.854947 C115.651569,17.960877 116.021169,18.077697 116.380539,18.204747 C117.330939,18.529467 118.015359,18.948237 118.434459,19.460067 C118.853229,19.972557 119.062779,20.588997 119.062779,21.309717 C119.062779,22.409607 118.661499,23.294337 117.858609,23.963247 C117.056379,24.632157 115.855839,24.966777 114.257649,24.966777 C113.124099,24.966777 112.165119,24.785277 111.380049,24.422277 C110.594979,24.058617 109.969959,23.594307 109.505319,23.028027" id="Fill-11"></path>
                            <path d="M119.813958,23.028027 L121.672848,21.044727 C121.968198,21.405087 122.382018,21.694827 122.913648,21.913617 C123.445278,22.132737 124.024098,22.242297 124.650768,22.242297 C125.206818,22.242297 125.620638,22.162767 125.891568,22.003707 C126.162498,21.844977 126.298128,21.627507 126.298128,21.351957 C126.298128,21.210717 126.245328,21.086967 126.139728,20.981367 C126.034458,20.875437 125.872098,20.783367 125.653968,20.705817 C125.435838,20.627937 125.212098,20.559297 124.983408,20.499237 C124.754718,20.438847 124.458708,20.361297 124.096698,20.265927 C123.733698,20.170557 123.415248,20.077167 123.140688,19.985097 C122.330868,19.709217 121.709808,19.329717 121.276848,18.845937 C120.843558,18.361827 120.627408,17.727897 120.627408,16.943817 C120.627408,16.379847 120.743238,15.870987 120.975888,15.416577 C121.208208,14.962167 121.523358,14.592237 121.921008,14.306457 C122.318658,14.021337 122.769108,13.804527 123.272688,13.656687 C123.775938,13.508517 124.309218,13.434597 124.872528,13.434597 C126.400098,13.434597 127.646178,13.903197 128.611098,14.839407 L127.079898,16.964607 C126.488538,16.427697 125.724258,16.159407 124.788048,16.159407 C124.435938,16.159407 124.166658,16.226727 123.980208,16.360707 C123.793758,16.495017 123.700368,16.661007 123.700368,16.859007 C123.700368,16.999917 123.732048,17.114757 123.795408,17.203197 C123.858768,17.291637 123.978228,17.370837 124.154448,17.441457 C124.330668,17.512077 124.517118,17.572467 124.714458,17.621637 C124.911138,17.671467 125.199888,17.749017 125.580378,17.854947 C125.960208,17.960877 126.329808,18.077697 126.689178,18.204747 C127.639578,18.529467 128.323998,18.948237 128.743098,19.460067 C129.161868,19.972557 129.371418,20.588997 129.371418,21.309717 C129.371418,22.409607 128.970138,23.294337 128.167248,23.963247 C127.365018,24.632157 126.164478,24.966777 124.566288,24.966777 C123.432738,24.966777 122.473758,24.785277 121.688688,24.422277 C120.903618,24.058617 120.278598,23.594307 119.813958,23.028027" id="Fill-12"></path>
                            <path d="M130.95687,24.66057 L134.18856,24.66057 L134.18856,13.76199 L130.95687,13.76199 L130.95687,24.66057 Z M130.72455,11.01606 C130.72455,10.50258 130.90605,10.06731 131.26872,9.7119 C131.63106,9.35649 132.06237,9.17862 132.56199,9.17862 C133.0692,9.17862 133.50216,9.35649 133.8612,9.7119 C134.22024,10.06731 134.39976,10.50258 134.39976,11.01606 C134.39976,11.52327 134.22024,11.9526 133.8612,12.30471 C133.50216,12.65682 133.0692,12.83271 132.56199,12.83271 C132.06237,12.83271 131.63106,12.65484 131.26872,12.29943 C130.90605,11.94402 130.72455,11.51634 130.72455,11.01606 L130.72455,11.01606 Z" id="Fill-13"></path>
                            <path d="M139.153443,19.211445 C139.153443,20.014005 139.425693,20.689515 139.970523,21.239295 C140.515023,21.788415 141.187893,22.062975 141.989133,22.062975 C142.783113,22.062975 143.452023,21.788415 143.997183,21.239295 C144.541353,20.689515 144.813933,20.014005 144.813933,19.211445 C144.813933,18.415815 144.539703,17.741955 143.991573,17.188875 C143.443443,16.636125 142.776183,16.359915 141.989133,16.359915 C141.187893,16.359915 140.515023,16.636125 139.970523,17.188875 C139.425693,17.741955 139.153443,18.415815 139.153443,19.211445 M136.730583,22.126005 C136.191363,21.239295 135.922083,20.267445 135.922083,19.211445 C135.922083,18.155445 136.191363,17.183595 136.730583,16.296555 C137.269473,15.409515 138.004383,14.710905 138.934323,14.200065 C139.864263,13.690215 140.882643,13.434465 141.989133,13.434465 C143.088363,13.434465 144.102783,13.690215 145.033053,14.200065 C145.962993,14.710905 146.697573,15.409515 147.236793,16.296555 C147.776013,17.183595 148.045293,18.155445 148.045293,19.211445 C148.045293,20.267445 147.776013,21.239295 147.236793,22.126005 C146.697573,23.013375 145.962993,23.711985 145.033053,24.222495 C144.102783,24.732675 143.088363,24.988095 141.989133,24.988095 C140.882643,24.988095 139.864263,24.732675 138.934323,24.222495 C138.004383,23.711985 137.269473,23.013375 136.730583,22.126005" id="Fill-14"></path>
                            <path d="M149.778849,24.660636 L149.778849,13.762056 L153.010539,13.762056 L153.010539,15.129906 C153.242859,14.649426 153.644139,14.260686 154.214379,13.964346 C154.784619,13.667346 155.442969,13.519176 156.189099,13.519176 C157.523289,13.519176 158.553549,13.918806 159.280539,14.717736 C160.007529,15.516996 160.371189,16.623816 160.371189,18.039186 L160.371189,24.660636 L157.139829,24.660636 L157.139829,18.437826 C157.139829,17.797956 156.966909,17.297346 156.622059,16.935006 C156.276879,16.572666 155.784189,16.391496 155.143659,16.391496 C154.524249,16.391496 154.013739,16.592136 153.612459,16.993086 C153.210849,17.393706 153.010539,17.910486 153.010539,18.543096 L153.010539,24.660636 L149.778849,24.660636 Z" id="Fill-15"></path>
                            <polygon id="Fill-19" points="36.564198 16.313319 36.564198 25.907739 21.605958 34.544499 6.648048 25.907739 6.648048 22.070499 21.605958 30.705939 24.930048 28.786989 14.958108 23.029809 18.282198 21.110529 28.254138 26.867709 31.579218 24.948759 21.605958 19.191579 24.930048 17.272299 33.240108 22.070499 33.240108 18.231279 28.254138 15.353019 31.578228 13.433739"></polygon>
                            <polygon id="Fill-20" points="24.930114 1.919313 6.648114 12.473703 6.648114 8.636463 21.606024 3.3e-05"></polygon>
                            <polygon id="Fill-21" points="3.323958 6.717513 3.323958 27.827943 -0.000132 25.908663 -0.000132 8.636463"></polygon>
                            <polygon id="Fill-22" points="43.212246 8.636628 43.212246 25.908828 39.888156 27.827778 39.888156 14.392818 28.254006 7.676658 18.282066 13.433838 14.957976 11.514888 28.254006 3.838428 39.888156 10.555578 39.888156 6.717678"></polygon>
                            <path d="M164.591692,13.8707076 L164.95675,13.8707076 C165.035919,13.8707076 165.112645,13.8682635 165.188393,13.8628865 C165.263653,13.8575095 165.329627,13.8418673 165.387294,13.8174264 C165.444472,13.7920078 165.490898,13.7529024 165.526573,13.6986435 C165.562248,13.6448735 165.58033,13.5720396 165.58033,13.4781865 C165.58033,13.3994867 165.564203,13.3359404 165.532437,13.2875474 C165.499695,13.2391543 165.458644,13.202493 165.408797,13.1770744 C165.357972,13.1521447 165.302749,13.1360137 165.241662,13.1286814 C165.181063,13.121838 165.119976,13.1179274 165.059377,13.1179274 L164.591692,13.1179274 L164.591692,13.8707076 Z M164.236408,12.8275694 L165.118021,12.8275694 C165.66292,12.8275694 165.935614,13.0499817 165.935614,13.4943175 C165.935614,13.7059758 165.876481,13.8609312 165.758216,13.9596725 C165.639951,14.0584138 165.492853,14.1165832 165.316921,14.1341806 L165.988882,15.1665648 L165.607208,15.1665648 L164.972877,14.1615544 L164.591692,14.1615544 L164.591692,15.1665648 L164.236408,15.1665648 L164.236408,12.8275694 Z M163.355284,14.0002444 C163.355284,14.2441647 163.39829,14.4699988 163.483812,14.6772577 C163.569823,14.8854943 163.686133,15.0653794 163.833232,15.2178907 C163.98033,15.3699132 164.153818,15.4901625 164.355162,15.5781498 C164.555528,15.6661371 164.770556,15.7101308 165.000244,15.7101308 C165.229444,15.7101308 165.443494,15.6661371 165.642395,15.5781498 C165.841295,15.4901625 166.015272,15.3699132 166.163836,15.2178907 C166.312401,15.0653794 166.430177,14.8854943 166.516188,14.6772577 C166.60171,14.4699988 166.644716,14.2441647 166.644716,14.0002444 C166.644716,13.7597458 166.60171,13.5348894 166.516188,13.3251864 C166.430177,13.1154833 166.312401,12.9346206 166.163836,12.7816204 C166.015272,12.6295979 165.841295,12.5098375 165.642395,12.4218502 C165.443494,12.3338629 165.229444,12.2903581 165.000244,12.2903581 C164.770556,12.2903581 164.555528,12.3338629 164.355162,12.4218502 C164.153818,12.5098375 163.98033,12.6295979 163.833232,12.7816204 C163.686133,12.9346206 163.569823,13.1154833 163.483812,13.3251864 C163.39829,13.5348894 163.355284,13.7597458 163.355284,14.0002444 L163.355284,14.0002444 Z M163,14.0002444 C163,13.7172186 163.053268,13.4527679 163.158827,13.2068923 C163.264386,12.9615056 163.408552,12.7498472 163.591326,12.5724062 C163.774099,12.3944764 163.986683,12.2551631 164.228589,12.1530001 C164.470495,12.0508371 164.72755,12 165.000244,12 C165.27245,12 165.529505,12.0508371 165.771411,12.1530001 C166.013317,12.2551631 166.225901,12.3944764 166.408674,12.5724062 C166.591448,12.7498472 166.735614,12.9615056 166.841662,13.2068923 C166.946732,13.4527679 167,13.7172186 167,14.0002444 C167,14.2871807 166.946732,14.5521202 166.841662,14.7960406 C166.735614,15.0399609 166.591448,15.2501528 166.408674,15.4275938 C166.225901,15.6050348 166.013317,15.7448369 165.771411,15.8469999 C165.529505,15.9491629 165.27245,16 165.000244,16 C164.72755,16 164.470495,15.9491629 164.228589,15.8469999 C163.986683,15.7448369 163.774099,15.6050348 163.591326,15.4275938 C163.408552,15.2501528 163.264386,15.0399609 163.158827,14.7960406 C163.053268,14.5521202 163,14.2871807 163,14.0002444 L163,14.0002444 Z" id="Fill-23"></path>
                        </g>
                    </g>
                </g>
            </g>
        </g>
    </g>
</svg>