<?xml version="1.0" encoding="UTF-8"?>
<svg width="18px" height="17px" viewBox="0 0 18 17" version="1.1" xmlns="http://www.w3.org/2000/svg" xmlns:xlink="http://www.w3.org/1999/xlink">
    <!-- Generator: sketchtool 63 (101010) - https://sketch.com -->
    <title>80341E8C-205D-42D9-8A25-5095C546AB8E</title>
    <desc>Created with sketchtool.</desc>
    <g id="Design-System" stroke="none" stroke-width="1" fill="none" fill-rule="evenodd">
        <g id="Utility-Icons" transform="translate(-716.000000, -617.000000)" fill="#ffffff" fill-rule="nonzero">
            <g id="GitlabLogo" transform="translate(716.000000, 617.000000)">
                <path d="M17.9195294,9.33617647 L16.9782353,6.444 C16.9732455,6.41736836 16.9656197,6.39129893 16.9554706,6.36617647 L15.0670588,0.553235294 C14.9638653,0.245605112 14.6747047,0.0390923633 14.3502353,0.0412766819 C14.0264499,0.0393308065 13.7391996,0.248649995 13.6418824,0.557470588 L11.8418824,6.09670588 L6.16076471,6.09670588 L4.35811765,0.557470588 C4.26114854,0.24977374 3.97555555,0.0407248153 3.65294118,0.0412766819 L3.64870588,0.0412766819 C3.32396111,0.0412766819 3.03585384,0.249641502 2.934,0.558 L1.044,6.37782353 C1.044,6.38311765 1.03976471,6.38735294 1.03817647,6.39264706 L0.0799411765,9.33670588 C-0.0645159831,9.77967789 0.0930714981,10.2652697 0.470117647,10.539 L8.74905882,16.5547059 C8.89858263,16.6629383 9.1009828,16.6618674 9.24935294,16.5520588 L17.5298824,10.539 C17.9071056,10.2651569 18.0645312,9.77919108 17.9195294,9.33617647 M5.54452941,6.94694118 L7.85223529,14.0495294 L2.31247059,6.94694118 M10.1504118,14.0511176 L12.3633529,7.24182353 L12.4586471,6.94694118 L15.6933529,6.94694118 L10.6814118,13.3676471 M14.3576471,1.10276471 L15.9792353,6.09670588 L12.7334118,6.09670588 M11.5671176,6.94376471 L9.95929412,11.8916471 L9,14.8383529 L6.43658824,6.94376471 M3.645,1.10276471 L5.26976471,6.09670588 L2.02605882,6.09670588 M0.968294118,9.85394118 C0.888173282,9.79567272 0.854805675,9.69236148 0.885705882,9.59823529 L1.59723529,7.41176471 L6.81564706,14.1019412 M17.0322353,9.85394118 L11.1843529,14.1003529 L11.2039412,14.0749412 L16.4027647,7.41176471 L17.1142941,9.59717647 C17.1455638,9.69134499 17.1123918,9.79492723 17.0322353,9.85341176" id="Shape"></path>
            </g>
        </g>
    </g>
</svg>