<?xml version="1.0" encoding="UTF-8"?>
<svg width="18px" height="15px" viewBox="0 0 18 15" version="1.1" xmlns="http://www.w3.org/2000/svg" xmlns:xlink="http://www.w3.org/1999/xlink">
    <!-- Generator: sketchtool 63 (101010) - https://sketch.com -->
    <title>3A6D0C1B-B030-42B6-9FEB-6D20B67F4139</title>
    <desc>Created with sketchtool.</desc>
    <g id="Design-System" stroke="none" stroke-width="1" fill="none" fill-rule="evenodd">
        <g id="Utility-Icons" transform="translate(-254.000000, -618.000000)" fill="#ffffff" fill-rule="nonzero">
            <g id="medium-seeklogo.com" transform="translate(254.000000, 618.000000)">
                <path d="M2.19537572,2.97572254 C2.21618497,2.75722543 2.13294798,2.53872832 1.96647399,2.39306358 L0.301734104,0.384971098 L0.301734104,0.0832369942 L5.49364162,0.0832369942 L9.49942197,8.87514451 L13.0265896,0.0832369942 L17.9687861,0.0832369942 L17.9687861,0.384971098 L16.5433526,1.7583815 C16.4184971,1.85202312 16.3560694,2.00809249 16.3872832,2.16416185 L16.3872832,12.2254335 C16.366474,12.3815029 16.4184971,12.5375723 16.5433526,12.6312139 L17.9375723,14.0046243 L17.9375723,14.3063584 L10.9248555,14.3063584 L10.9248555,14.0046243 L12.3710983,12.6 C12.516763,12.4543353 12.516763,12.4127168 12.516763,12.1942197 L12.516763,4.04739884 L8.47976879,14.2543353 L7.93872832,14.2543353 L3.2566474,4.04739884 L3.2566474,10.883237 C3.2150289,11.1745665 3.30867052,11.4554913 3.51676301,11.6635838 L5.4,13.9421965 L5.4,14.2439306 L0.0728323699,14.2439306 L0.0728323699,13.9421965 L1.95606936,11.6635838 C2.15375723,11.4554913 2.24739884,11.1641618 2.19537572,10.883237 L2.19537572,2.97572254 Z" id="Path"></path>
            </g>
        </g>
    </g>
</svg>