<?xml version="1.0" encoding="UTF-8"?>
<svg width="173px" height="213px" viewBox="0 0 173 213" version="1.1" xmlns="http://www.w3.org/2000/svg" xmlns:xlink="http://www.w3.org/1999/xlink">
    <!-- Generator: sketchtool 63 (101010) - https://sketch.com -->
    <title>6B313D7E-B1DF-45F8-BB9B-5CFA3B2C9B19</title>
    <desc>Created with sketchtool.</desc>
    <g id="Design-System" stroke="none" stroke-width="1" fill="none" fill-rule="evenodd">
        <g id="Illustrations" transform="translate(-547.000000, -567.000000)">
            <g id="app-user-colour" transform="translate(547.000000, 567.000000)">
                <path d="M141.145061,101.791157 L141.145061,187.492098 C141.145061,193.763876 136.075541,198.833396 129.803763,198.833396 L129.803763,198.833396 L63.198683,198.833396 C56.926905,198.833396 51.8573848,193.763876 51.8573848,187.492098 L51.8573848,187.492098 L51.8573848,17.4527752 C51.8573848,11.1809972 56.926905,6.11147695 63.198683,6.11147695 L129.803763,6.11147695 C136.075541,6.11147695 141.145061,11.1809972 141.145061,17.4527752 L141.145061,17.4527752 L141.145061,101.791157" id="Path" fill="#FFFFFF" fill-rule="nonzero"></path>
                <path d="M124.75428,202.420132 L110.026623,182.021825 C110.026623,182.021825 101.731044,170.560301 96.5212606,170.359925 C96.4811853,173.365569 96.6815616,194.926058 97.6032926,202.400094 L124.75428,202.400094 L124.75428,202.420132 Z" id="Path" fill="#56CAD8" fill-rule="nonzero"></path>
                <path d="M77.3853246,1.62304798 L115.617121,1.62304798 C117.360395,1.62304798 118.763029,3.02568203 118.763029,4.76895579 L118.763029,9.59802446 C118.763029,11.3412982 117.360395,12.7439323 115.617121,12.7439323 L77.3853246,12.7439323 C75.6420508,12.7439323 74.2394167,11.3412982 74.2394167,9.59802446 L74.2394167,4.76895579 C74.2394167,3.04571966 75.6420508,1.62304798 77.3853246,1.62304798 Z" id="Path" fill="#F3F3F3" fill-rule="nonzero"></path>
                <path d="M138.419944,199.153998 L141.145061,199.153998 L141.145061,165.971684 L118.181938,162.164534 L96.501223,170.379962 C97.5231421,172.704327 102.913264,188.133302 114.474976,201.638664 L138.399906,201.638664 L138.399906,199.153998 L138.419944,199.153998 Z" id="Path" fill="#74D5DE" fill-rule="nonzero"></path>
                <path d="M90.1092192,117.761148 C88.2457197,117.721072 88.2457197,120.586453 88.2457197,120.586453 C87.3440263,117.901411 67.6670743,68.9494826 67.6670743,68.9494826 C67.6670743,68.9494826 63.5994356,70.6727187 68.2882408,79.9301035 C66.765381,80.8317968 62.5374412,84.2181562 64.280715,89.6683913 C65.6031985,93.7560677 68.4886171,95.198777 70.2920038,95.198777 C69.9914393,98.2645343 76.5437441,129.583349 77.4053622,131.086171 C79.4091251,134.632832 83.2763876,138.500094 85.5606773,138.600282 C89.2075259,138.780621 98.1843838,133.991627 100.408561,131.486924 C102.632738,128.98222 93.6158043,117.821261 90.1092192,117.761148 Z" id="Path" fill="#DE8E68" fill-rule="nonzero"></path>
                <path d="M117.200094,100.488711 C108.323424,92.5738476 86.6627469,111.529445 87.0835372,114.815616 C87.5043274,118.101787 99.1662277,129.984102 102.592662,128.98222 C106.019097,127.980339 124.193227,106.700376 117.200094,100.488711 Z" id="Path" fill="#FCC486" fill-rule="nonzero"></path>
                <path d="M141.145061,101.791157 C137.197648,95.3991533 131.406773,91.2714017 123.111195,91.2714017 C94.3171214,91.2714017 93.4955786,166.212135 96.501223,170.379962 C99.1662277,174.066886 130.92587,175.028692 141.145061,172.483913" id="Path" fill="#FED385" fill-rule="nonzero"></path>
                <path d="M141.145061,129.142521 L138.119379,130.384854 C138.379868,131.34666 139.542051,136.736783 141.145061,142.687959" id="Path" fill="#DE8E68" fill-rule="nonzero"></path>
                <path d="M141.145061,101.129915 C139.141298,99.6471308 137.09746,99.0460019 135.213923,99.8274694 C124.353528,104.355974 132.088053,131.587112 135.213923,132.588993 C136.215804,132.909595 138.500094,132.588993 141.145061,131.887676" id="Path" fill="#FED892" fill-rule="nonzero"></path>
                <path d="M128.64158,97.8437441 C128.64158,100.228222 115.436783,100.7492 115.436783,97.8437441 L115.436783,81.6132643 L128.64158,81.6132643 L128.64158,97.8437441 Z" id="Path" fill="#DE8E68" fill-rule="nonzero"></path>
                <ellipse id="Oval" fill="#DE8E68" fill-rule="nonzero" transform="translate(120.281575, 74.696315) rotate(-68.303917) translate(-120.281575, -74.696315) " cx="120.281575" cy="74.6963148" rx="16.0909463" ry="11.9630074"></ellipse>
                <ellipse id="Oval" fill="#DE8E68" fill-rule="nonzero" transform="translate(130.601990, 80.334797) rotate(-54.388392) translate(-130.601990, -80.334797) " cx="130.60199" cy="80.3347975" rx="3.78719202" ry="2.645023"></ellipse>
                <path d="M141.706115,72.7165569 C141.706115,70.5124177 139.642239,68.0878645 139.261524,65.3226717 C139.061148,63.9200376 139.501976,58.0890875 137.85889,56.1053622 C134.452493,52.0176858 132.44873,52.8592662 129.843838,51.89746 C125.315334,50.2343368 123.57206,47.4891816 119.825024,47.4891816 C115.577046,47.4891816 113.85381,49.6933208 110.80809,49.6933208 C107.321543,49.6933208 104.476199,48.0903104 99.5870179,48.0903104 C96.9821261,48.0903104 93.5757291,51.4967074 93.5757291,54.5023518 C93.5757291,61.6157103 100.188147,60.5937912 100.188147,62.3170273 C100.188147,63.519285 99.7873942,64.4810913 99.7873942,66.1241769 C99.7873942,68.2882408 102.592662,69.5305738 104.195673,69.5305738 C109.084854,69.5305738 109.726058,68.929445 109.726058,68.929445 C110.687865,66.9857949 111.930198,65.2024459 113.412982,63.6194732 C113.613358,63.4190969 116.779304,65.6432738 121.949012,65.8236124 C126.19699,65.9638758 129.182596,66.7854186 129.182596,68.7691439 C129.182596,70.171778 128.661618,74.3195673 128.701693,75.4817498 C128.741769,76.6439323 129.142521,77.4053622 129.40301,77.4053622 C129.6635,77.4053622 129.803763,77.0246472 131.446849,77.0246472 C133.190122,77.0246472 133.330386,79.1686736 133.63095,79.1686736 C135.394262,79.1686736 141.706115,77.7460019 141.706115,72.7165569 Z" id="Path" fill="#FD8369" fill-rule="nonzero"></path>
                <path d="M62.6175917,46.2468485 L72.6163688,46.2468485 C75.5819379,46.2468485 77.9864534,48.6513641 77.9864534,51.6169332 L77.9864534,61.6157103 C77.9864534,64.5812794 75.5819379,66.9857949 72.6163688,66.9857949 L62.6175917,66.9857949 C59.6520226,66.9857949 57.2475071,64.5812794 57.2475071,61.6157103 L57.2475071,51.6169332 C57.2475071,48.6513641 59.6520226,46.2468485 62.6175917,46.2468485 Z" id="Path" fill="#FED385" fill-rule="nonzero"></path>
                <circle id="Oval" fill="#FD8369" fill-rule="nonzero" cx="75.5017874" cy="47.9099718" r="4.24797742"></circle>
                <path d="M130.16444,0 L62.8580433,0 C53.8010348,0 46.4472248,7.35380997 46.4472248,16.4108184 L46.4472248,188.493979 C46.4472248,197.550988 53.8010348,204.904798 62.8580433,204.904798 L62.8580433,204.904798 L130.16444,204.904798 C139.221449,204.904798 146.575259,197.550988 146.575259,188.493979 L146.575259,16.4108184 C146.575259,7.35380997 139.221449,0 130.16444,0 Z M141.145061,101.791157 L141.145061,187.492098 C141.145061,193.763876 136.075541,198.833396 129.803763,198.833396 L129.803763,198.833396 L63.198683,198.833396 C56.926905,198.833396 51.8573848,193.763876 51.8573848,187.492098 L51.8573848,187.492098 L51.8573848,17.4527752 C51.8573848,11.1809972 56.926905,6.11147695 63.198683,6.11147695 L129.803763,6.11147695 C136.075541,6.11147695 141.145061,11.1809972 141.145061,17.4527752 L141.145061,17.4527752 L141.145061,101.791157 Z" id="Shape" fill="#F3F3F3" fill-rule="nonzero"></path>
                <path d="M140.584008,25.4678269 L164.889652,25.4678269 C169.277893,25.4678269 172.844591,29.0345249 172.844591,33.4227658 L172.844591,33.4227658 C172.844591,37.8110066 169.277893,41.3777046 164.889652,41.3777046 L140.584008,41.3777046 C136.195767,41.3777046 132.629069,37.8110066 132.629069,33.4227658 L132.629069,33.4227658 C132.629069,29.0144873 136.195767,25.4678269 140.584008,25.4678269 Z" id="Path" fill="#74D5DE" fill-rule="nonzero"></path>
                <polygon id="Path" fill="#74D5DE" fill-rule="nonzero" points="142.08683 37.6707432 135.193885 30.7577611 135.193885 44.5837253"></polygon>
                <circle id="Oval" fill="#FED385" fill-rule="nonzero" cx="144.531421" cy="33.6832549" r="2.00376294"></circle>
                <circle id="Oval" fill="#FED385" fill-rule="nonzero" cx="152.746849" cy="33.6832549" r="2.00376294"></circle>
                <circle id="Oval" fill="#FED385" fill-rule="nonzero" cx="160.942239" cy="33.6832549" r="2.00376294"></circle>
                <path d="M31.8798683,187.011195 C34.8654751,185.728786 37.1898401,183.745061 37.1898401,178.034337 C37.1898401,151.284102 5.5303857,158.497648 5.5303857,136.275917" id="Path" stroke="#74D5DE" stroke-width="1.80338664" stroke-linecap="round"></path>
                <path d="M11.1008467,136.135654 C12.8240828,138.379868 7.07328316,140.924647 6.25174036,139.862653 C5.43019755,138.800659 9.27742239,133.751176 11.1008467,136.135654 Z" id="Path" fill="#74D5DE" fill-rule="nonzero"></path>
                <path d="M39.1535278,96.821825 C41.2374412,99.5469426 35.0658514,102.031609 34.0639699,100.729163 C33.0620884,99.4267168 36.9093133,93.8963311 39.1535278,96.821825 Z" id="Path" fill="#74D5DE" fill-rule="nonzero"></path>
                <path d="M37.4703669,108.082973 C39.1334901,111.088617 31.0583255,113.51317 30.2568203,112.070461 C29.4553151,110.627752 35.7070555,104.856914 37.4703669,108.082973 Z" id="Path" fill="#74D5DE" fill-rule="nonzero"></path>
                <path d="M37.95127,116.63904 C40.1353716,119.284008 32.6212606,123.131232 31.5793039,121.868862 C30.5373471,120.606491 35.626905,113.793697 37.95127,116.63904 Z" id="Path" fill="#74D5DE" fill-rule="nonzero"></path>
                <path d="M40.5160865,126.237065 C42.7001881,128.882032 35.1860771,132.729257 34.1441204,131.466886 C33.1021637,130.204516 38.1917215,123.411759 40.5160865,126.237065 Z" id="Path" fill="#74D5DE" fill-rule="nonzero"></path>
                <path d="M42.760301,135.193885 C44.7440263,137.598401 38.1716839,140.884572 37.2299153,139.722389 C36.2881468,138.560207 40.6363123,132.609031 42.760301,135.193885 Z" id="Path" fill="#74D5DE" fill-rule="nonzero"></path>
                <path d="M45.7659454,144.992286 C47.7496707,147.396802 41.1773283,150.682973 40.2355597,149.52079 C39.2937912,148.358608 43.6419567,142.407432 45.7659454,144.992286 Z" id="Path" fill="#74D5DE" fill-rule="nonzero"></path>
                <path d="M0.200376294,134.372342 C0.92173095,131.647225 6.47215428,134.612794 6.13151458,135.935278 C5.79087488,137.257761 -0.561053622,137.297836 0.200376294,134.372342 Z" id="Path" fill="#74D5DE" fill-rule="nonzero"></path>
                <path d="M0.100188147,143.970367 C-0.260489182,141.185136 6.01128881,141.866416 6.17158984,143.208937 C6.33189087,144.551458 0.480903104,146.976011 0.100188147,143.970367 Z" id="Path" fill="#74D5DE" fill-rule="nonzero"></path>
                <path d="M5.63057385,152.686736 C3.80714958,150.542709 9.41768579,147.677328 10.2993415,148.699247 C11.1809972,149.721167 7.59426152,154.971025 5.63057385,152.686736 Z" id="Path" fill="#74D5DE" fill-rule="nonzero"></path>
                <path d="M12.5836312,157.395579 C11.4815616,154.810724 17.6932267,153.768768 18.2142051,155.011101 C18.7351834,156.253434 13.7458137,160.160771 12.5836312,157.395579 Z" id="Path" fill="#74D5DE" fill-rule="nonzero"></path>
                <path d="M21.9011289,162.28476 C20.7990593,159.699906 27.0107244,158.657949 27.5317027,159.900282 C28.0526811,161.142615 23.083349,165.049953 21.9011289,162.28476 Z" id="Path" fill="#74D5DE" fill-rule="nonzero"></path>
                <path d="M28.8942615,169.378081 C28.65381,166.572813 34.8855127,167.514581 35.0057385,168.857103 C35.1259643,170.199624 29.1547507,172.383725 28.8942615,169.378081 Z" id="Path" fill="#74D5DE" fill-rule="nonzero"></path>
                <path d="M14.1265287,142.16698 C16.3306679,143.930292 11.3613358,147.797554 10.2993415,146.955974 C9.23734713,146.114393 11.7620884,140.263405 14.1265287,142.16698 Z" id="Path" fill="#74D5DE" fill-rule="nonzero"></path>
                <path d="M19.1158984,147.176388 C21.5404516,148.619097 17.1722484,153.127563 16.0100659,152.446284 C14.8478833,151.765005 16.5310442,145.653528 19.1158984,147.176388 Z" id="Path" fill="#74D5DE" fill-rule="nonzero"></path>
                <path d="M28.273095,152.105644 C30.5573848,153.74873 25.7683913,157.856444 24.6663217,157.054939 C23.5642521,156.253434 25.8285042,150.342333 28.273095,152.105644 Z" id="Path" fill="#74D5DE" fill-rule="nonzero"></path>
                <path d="M32.4409219,188.053151 C32.4409219,186.911007 42.1591722,176.250988 42.1591722,163.006115 C42.1591722,141.40555 30.0965193,130.58523 30.0965193,115.156256 C30.0965193,112.230762 30.3570085,103.053528 35.0057385,99.3265287" id="Path" stroke="#74D5DE" stroke-width="1.80338664" stroke-linecap="round"></path>
                <path d="M45.6457197,212.879774 L27.9324553,212.879774 C27.1109125,212.879774 26.3695202,212.358796 26.109031,211.557291 L17.2924741,184.847131 C16.9718721,183.845249 17.5128881,182.763217 18.5147695,182.422578 C18.7151458,182.362465 18.9155221,182.322389 19.1158984,182.322389 L54.5424271,182.322389 C55.6044214,182.322389 56.4660395,183.184008 56.4660395,184.246002 C56.4660395,184.446378 56.4259643,184.646754 56.3658514,184.847131 L47.4691439,211.557291 C47.1886171,212.358796 46.4672625,212.879774 45.6457197,212.879774 Z" id="Path" fill="#FD8369" fill-rule="nonzero"></path>
                <path d="M48.6112888,156.233396 C49.6532455,159.178928 42.3595484,160.020508 41.8786453,158.617874 C41.3977422,157.21524 47.5092192,153.067451 48.6112888,156.233396 Z" id="Path" fill="#74D5DE" fill-rule="nonzero"></path>
                <path d="M36.708937,160.561524 C39.0132643,158.477611 42.6200376,164.869614 41.4979304,165.871496 C40.3758231,166.873377 34.2242709,162.805738 36.708937,160.561524 Z" id="Path" fill="#74D5DE" fill-rule="nonzero"></path>
                <path d="M34.8454374,152.586548 C36.3682973,149.881468 41.7984948,154.810724 41.0771402,156.093133 C40.3557855,157.375541 33.2023518,155.492004 34.8454374,152.586548 Z" id="Path" fill="#74D5DE" fill-rule="nonzero"></path>
                <path d="M33.1021637,143.128786 C34.6250235,140.423706 40.0552211,145.352963 39.3338664,146.635372 C38.6125118,147.91778 31.4590781,146.034243 33.1021637,143.128786 Z" id="Path" fill="#74D5DE" fill-rule="nonzero"></path>
                <path d="M29.9963311,135.614675 C30.9982126,132.649106 37.249953,136.476294 36.7690499,137.898965 C36.2881468,139.321637 28.9142992,138.760583 29.9963311,135.614675 Z" id="Path" fill="#74D5DE" fill-rule="nonzero"></path>
                <path d="M25.5880527,125.235183 C27.0507996,122.469991 32.601223,127.258984 31.8999059,128.581468 C31.1985889,129.903951 24.0451552,128.200753 25.5880527,125.235183 Z" id="Path" fill="#74D5DE" fill-rule="nonzero"></path>
                <path d="M23.5241769,113.693509 C25.2273754,111.088617 30.3369708,116.358514 29.515428,117.600847 C28.6938852,118.84318 21.7007526,116.498777 23.5241769,113.693509 Z" id="Path" fill="#74D5DE" fill-rule="nonzero"></path>
                <path d="M24.546096,103.754845 C26.2492944,101.149953 31.3588899,106.419849 30.5373471,107.662183 C29.7158043,108.904516 22.7226717,106.560113 24.546096,103.754845 Z" id="Path" fill="#74D5DE" fill-rule="nonzero"></path>
                <path d="M48.6112888,166.452587 C49.6532455,169.398119 42.3595484,170.239699 41.8786453,168.837065 C41.3977422,167.434431 47.5092192,163.306679 48.6112888,166.452587 Z" id="Path" fill="#74D5DE" fill-rule="nonzero"></path>
            </g>
        </g>
    </g>
</svg>