<?xml version="1.0" encoding="UTF-8"?>
<svg width="62px" height="24px" viewBox="0 0 62 24" version="1.1" xmlns="http://www.w3.org/2000/svg" xmlns:xlink="http://www.w3.org/1999/xlink">
    <!-- Generator: sketchtool 63 (101010) - https://sketch.com -->
    <title>6E97F1D1-AB14-4BCB-8612-D48A3121F523</title>
    <desc>Created with sketchtool.</desc>
    <defs>
        <polygon id="path-1" points="1.32858182 0.585018182 12.3773091 0.585018182 12.3773091 11.6363636 1.32858182 11.6363636"></polygon>
        <polygon id="path-3" points="2.4736 0.585018182 13.5235244 0.585018182 13.5235244 11.6363636 2.4736 11.6363636"></polygon>
        <polygon id="path-5" points="0.000290909091 1.16770909 61.1665455 1.16770909 61.1665455 19.5677091 0.000290909091 19.5677091"></polygon>
    </defs>
    <g id="Design-System" stroke="none" stroke-width="1" fill="none" fill-rule="evenodd">
        <g id="Icons" transform="translate(-380.000000, -589.000000)">
            <g id="Group-18" transform="translate(380.000000, 587.000000)">
                <g id="Group-3" transform="translate(43.636364, 13.440524)">
                    <mask id="mask-2" fill="white">
                        <use xlink:href="#path-1"></use>
                    </mask>
                    <g id="Clip-2"></g>
                    <path d="M6.85294545,2.02792727 C4.59258182,2.02792727 2.77149091,3.84901818 2.77149091,6.10938182 C2.77149091,8.37265455 4.59258182,10.1937455 6.85294545,10.1937455 C9.11330909,10.1937455 10.9344,8.37265455 10.9344,6.10938182 C10.9344,3.84901818 9.11330909,2.02792727 6.85294545,2.02792727 M6.85294545,11.6366545 C3.77512727,11.6366545 1.32858182,9.1232 1.32858182,6.10938182 C1.32858182,3.03447273 3.83912727,0.585018182 6.85294545,0.585018182 C9.93076364,0.585018182 12.3773091,3.09556364 12.3773091,6.10938182 C12.3773091,9.1872 9.93076364,11.6366545 6.85294545,11.6366545" id="Fill-1" fill="#020303" mask="url(#mask-2)"></path>
                </g>
                <g id="Group-6" transform="translate(5.818182, 13.440524)">
                    <mask id="mask-4" fill="white">
                        <use xlink:href="#path-3"></use>
                    </mask>
                    <g id="Clip-5"></g>
                    <path d="M7.99796364,2.02792727 C5.7376,2.02792727 3.91650909,3.84901818 3.91650909,6.10938182 C3.91650909,8.37265455 5.7376,10.1937455 7.99796364,10.1937455 C10.2583273,10.1937455 12.0794182,8.37265455 12.0794182,6.10938182 C12.0794182,3.84901818 10.2583273,2.02792727 7.99796364,2.02792727 M7.99796364,11.6366545 C4.92014545,11.6366545 2.4736,9.1232 2.4736,6.10938182 C2.4736,3.03447273 4.98414545,0.585018182 7.99796364,0.585018182 C11.0757818,0.585018182 13.5223273,3.09556364 13.5223273,6.10938182 C13.5863273,9.1872 11.0757818,11.6366545 7.99796364,11.6366545" id="Fill-4" fill="#020303" mask="url(#mask-4)"></path>
                </g>
                <g id="Group-9" transform="translate(0.000000, 1.804160)">
                    <mask id="mask-6" fill="white">
                        <use xlink:href="#path-5"></use>
                    </mask>
                    <g id="Clip-8"></g>
                    <path d="M59.6599273,19.5677091 L55.2002909,19.5677091 C54.8221091,19.5677091 54.4468364,19.2535273 54.4468364,18.8142545 C54.4468364,18.4360727 54.7581091,18.0578909 55.2002909,18.0578909 L59.6599273,18.0578909 L59.6599273,14.6688 C59.6599273,14.3546182 59.5319273,14.2935273 59.4708364,14.2295273 L58.1501091,13.4149818 C57.9639273,13.2869818 57.8359273,13.0368 57.8359273,12.7866182 L57.8359273,11.0266182 L57.8359273,10.9655273 C57.8359273,10.8375273 57.7748364,10.6513455 57.6497455,10.5873455 C56.5181091,10.0840727 53.1290182,8.83025455 46.6592,8.45207273 C44.1486545,8.32698182 42.7639273,7.63461818 40.6926545,6.63098182 L35.4795636,4.05643636 C33.5362909,3.11389091 31.3981091,2.54661818 29.2017455,2.54661818 L22.5428364,2.54661818 C18.2722909,2.54661818 14.1297455,3.61716364 10.6766545,5.62734545 C8.03810909,7.19534545 5.33847273,7.8848 2.69992727,7.75970909 L2.69992727,10.0229818 C2.69992727,10.2091636 2.63592727,10.3371636 2.57483636,10.4622545 C2.57483636,10.4622545 1.4432,11.9051636 1.4432,13.9182545 C1.4432,14.1044364 1.5072,18.0578909 4.52101818,18.0578909 L9.16974545,18.0578909 C9.54501818,18.0578909 9.92029091,18.3749818 9.92029091,18.8142545 C9.92029091,19.1895273 9.60901818,19.5677091 9.16974545,19.5677091 L4.52101818,19.5677091 C0.939927273,19.5677091 0.000290909091,15.9255273 0.000290909091,13.9793455 C0.000290909091,11.9051636 0.878836364,10.4011636 1.25701818,9.83389091 L1.25701818,7.75970909 C1.25701818,7.38734545 1.4432,7.00916364 1.69629091,6.75898182 C1.94647273,6.50589091 2.32465455,6.3808 2.69992727,6.3808 C5.08538182,6.50589091 7.53483636,5.87752727 9.92029091,4.43461818 C13.6293818,2.29643636 17.9610182,1.16770909 22.5428364,1.16770909 L29.2017455,1.16770909 C31.5901091,1.16770909 33.9755636,1.73207273 36.1079273,2.79970909 L41.3210182,5.37425455 C43.2672,6.3808 44.5239273,6.94516364 46.7232,7.07025455 C53.1901091,7.44843636 56.7072,8.64116364 58.2141091,9.33061818 C58.9035636,9.6448 59.3457455,10.3371636 59.2817455,11.0906182 L59.2817455,12.4084364 L60.2882909,13.0368 C60.8526545,13.4149818 61.1028364,13.9793455 61.1028364,14.6688 L61.1668364,17.9968 C61.1668364,18.3749818 61.0417455,18.7531636 60.7246545,19.0644364 C60.4133818,19.3815273 60.0352,19.5677091 59.6599273,19.5677091" id="Fill-7" fill="#020303" mask="url(#mask-6)"></path>
                </g>
                <path d="M45.4042182,21.3718691 L18.8384,21.3718691 C18.4631273,21.3718691 18.0849455,21.0576873 18.0849455,20.6184145 C18.0849455,20.2402327 18.4020364,19.8620509 18.8384,19.8620509 L45.4042182,19.8620509 C45.7794909,19.8620509 46.1576727,20.1791418 46.1576727,20.6184145 C46.1576727,21.0576873 45.7794909,21.3718691 45.4042182,21.3718691" id="Fill-10" fill="#020303"></path>
                <path d="M36.4864,11.7014691 L26.1213091,11.7014691 C25.7489455,11.7014691 25.3707636,11.3872873 25.3707636,10.9480145 L25.3707636,3.66074182 C25.3707636,3.28546909 25.6849455,2.91019636 26.1213091,2.91019636 C26.4994909,2.91019636 26.8776727,3.22437818 26.8776727,3.66074182 L26.8776727,10.2556509 L36.4864,10.2556509 C38.4936727,10.2556509 40.4398545,9.44110545 41.8245818,8.05928727 L41.8856727,7.99819636 C42.1998545,7.68110545 42.6391273,7.68110545 42.8893091,7.99819636 C43.2064,8.30946909 43.2064,8.74874182 42.8893091,8.99892364 L42.8282182,9.06292364 C41.1351273,10.7589236 38.8718545,11.7014691 36.4864,11.7014691" id="Fill-12" fill="#020303"></path>
                <path d="M26.1227636,11.7014691 L22.4805818,11.7014691 C18.4020364,11.7014691 14.6318545,9.31601455 12.9358545,5.54583273 C12.7467636,5.17056 12.9358545,4.73128727 13.3140364,4.60619636 C13.6922182,4.41710545 14.1285818,4.60619636 14.2565818,4.98146909 C15.6994909,8.18437818 18.9024,10.2556509 22.4194909,10.2556509 L26.0616727,10.2556509 C26.4369455,10.2556509 26.8151273,10.5698327 26.8151273,11.0120145 C26.8791273,11.3872873 26.5620364,11.7014691 26.1227636,11.7014691" id="Fill-14" fill="#020303"></path>
                <path d="M6.71941818,12.5791418 L2.0096,12.5791418 C1.63141818,12.5791418 1.25614545,12.2678691 1.25614545,11.8256873 C1.25614545,11.3864145 1.56741818,11.0722327 2.0096,11.0722327 L6.71941818,11.0722327 C7.0976,11.0722327 7.47287273,11.3864145 7.47287273,11.8256873 C7.47287273,12.2678691 7.0976,12.5791418 6.71941818,12.5791418" id="Fill-16" fill="#020303"></path>
            </g>
        </g>
    </g>
</svg>