<?xml version="1.0" encoding="UTF-8"?>
<svg width="67px" height="65px" viewBox="0 0 67 65" version="1.1" xmlns="http://www.w3.org/2000/svg" xmlns:xlink="http://www.w3.org/1999/xlink">
    <title>325B7FAC-1405-4698-8179-3A3ED2C4EB81</title>
    <g id="Design-System" stroke="none" stroke-width="1" fill="none" fill-rule="evenodd" stroke-linecap="round" stroke-linejoin="round">
        <g id="Icons" transform="translate(-815.000000, -713.000000)">
            <g id="Group-2" transform="translate(817.000000, 715.000000)">
                <path d="M21.1845682,4.84490513 L6.84398414,19.1858049 C5.05200529,20.9801999 5.05200529,23.9130256 6.84398414,25.7074206 L37.2909883,56.1550949 C39.0853437,57.9494899 42.0204815,57.9471132 43.8124604,56.1550949 L58.1530445,41.8141951 C59.9474,40.0198001 59.9497766,37.0869744 58.1554211,35.2925794 L27.7060404,4.84490513 C25.9140615,3.05288683 22.9789237,3.05051015 21.1845682,4.84490513 Z" id="Stroke-5238" stroke="#000000" stroke-width="1.5"></path>
                <path d="M48.4148586,46.4144995 C47.6322166,47.1951668 46.3662503,47.1951668 45.5860618,46.4144995 C44.8058733,45.6338321 44.8034198,44.3695438 45.5860618,43.5864215 C46.3687038,42.8032992 47.6346701,42.8057541 48.4148586,43.5864215 C49.1950471,44.3670888 49.1950471,45.6313772 48.4148586,46.4144995 Z" id="Stroke-5239" stroke="#000000"></path>
                <polygon id="Stroke-5240" stroke="#000000" stroke-width="1.5" points="33.2189309 52 9 27.7823433 29.7834368 7 54 31.2176567"></polygon>
                <path d="M56.9934752,19 C57.2157517,12.2560439 51.7297773,6.78426468 45,7.00654093" id="Stroke-5241" stroke="#F28806" stroke-width="2.5"></path>
                <path d="M63.495655,18 C63.7154931,7.94718542 55.5647589,-0.215499294 45.5,0.00433881904" id="Stroke-5242" stroke="#F28806" stroke-width="2.5"></path>
                <path d="M6.50652484,43 C6.28424829,49.7439561 11.7702227,55.2157353 18.5,54.9934591" id="Stroke-5243" stroke="#F28806" stroke-width="2.5"></path>
                <path d="M0.00434497066,43.5 C-0.215493067,53.5528146 7.93524114,61.7154993 18,61.4956612" id="Stroke-5244" stroke="#F28806" stroke-width="2.5"></path>
                <path d="M31.6864401,37 C33.464369,36.8745275 35.5503782,36.0058717 36.6086692,34.9224648 C38.3019349,33.1851532 38.4736132,30.5478176 36.9920058,29.0300829 C35.5127501,27.5099352 33.3162083,28.2627702 31.2490131,29.4233909 C29.0736372,30.5912504 26.9852762,31.3368466 25.5060205,29.8191119 C24.0267649,28.3013771 24.1984432,25.6640416 25.8917088,23.9267299 C27.0323114,22.7588704 28.570361,22.2955873 29.9038077,22.5827263" id="Stroke-5245" stroke="#000000" stroke-width="1.5"></path>
                <line x1="24.5" y1="22.5" x2="26.0575" y2="24.0575" id="Stroke-5246" stroke="#000000"></line>
                <line x1="37" y1="35" x2="38.555" y2="36.5575" id="Stroke-5247" stroke="#000000"></line>
            </g>
        </g>
    </g>
</svg>