<?xml version="1.0" encoding="UTF-8"?>
<svg width="41px" height="47px" viewBox="0 0 41 47" version="1.1" xmlns="http://www.w3.org/2000/svg" xmlns:xlink="http://www.w3.org/1999/xlink">
    <title>82228DA5-BEE6-4BAF-8D0E-858F8F65FE07</title>
    <g id="Design-System" stroke="none" stroke-width="1" fill="none" fill-rule="evenodd" stroke-linecap="round" stroke-linejoin="round">
        <g id="Icons" transform="translate(-919.000000, -723.000000)">
            <g id="Group-11" transform="translate(920.000000, 724.000000)">
                <line x1="19" y1="18.5" x2="30.5" y2="6.5" id="Stroke-4704" stroke="#000000" stroke-width="1.5"></line>
                <line x1="16.5" y1="27" x2="19.5" y2="38" id="Stroke-4705" stroke="#000000" stroke-width="1.5"></line>
                <line x1="6.5" y1="5.5" x2="13.5" y2="18" id="Stroke-4711" stroke="#000000" stroke-width="1.5"></line>
                <line x1="34.5" y1="33" x2="19.867" y2="24.998" id="Stroke-4714" stroke="#000000" stroke-width="1.5"></line>
                <line x1="5" y1="28.5" x2="11.5" y2="24.5" id="Stroke-4716" stroke="#000000" stroke-width="1.5"></line>
                <path d="M20.5,22.2509598 C20.5,24.8750253 18.3726758,27 15.74808,27 C13.1254042,27 11,24.8750253 11,22.2509598 C11,19.6268943 13.1254042,17.5 15.74808,17.5 C18.3726758,17.5 20.5,19.6268943 20.5,22.2509598 Z" id="Stroke-4717" stroke="#000000" stroke-width="1.5"></path>
                <path d="M36.5,4 C36.5,5.93225084 34.9322508,7.5 33,7.5 C31.0677492,7.5 29.5,5.93225084 29.5,4 C29.5,2.06774916 31.0677492,0.5 33,0.5 C34.9322508,0.5 36.5,2.06774916 36.5,4 Z" id="Stroke-4702" stroke="#06AFF2" stroke-width="2"></path>
                <path d="M24,41.5 C24,43.4342105 22.4337721,45 20.5009801,45 C18.5681882,45 17,43.4342105 17,41.5 C17,39.5677492 18.5681882,38 20.5009801,38 C22.4337721,38 24,39.5677492 24,41.5 Z" id="Stroke-4703" stroke="#06AFF2" stroke-width="2"></path>
                <path d="M39,34.5 C39,35.880719 37.8802615,37 36.4989783,37 C35.1197385,37 34,35.880719 34,34.5 C34,33.119281 35.1197385,32 36.4989783,32 C37.8802615,32 39,33.119281 39,34.5 Z" id="Stroke-4706" stroke="#06AFF2" stroke-width="2"></path>
                <path d="M5,30.0010217 C5,31.3802615 3.88026154,32.5 2.49897834,32.5 C1.11973846,32.5 0,31.3802615 0,30.0010217 C0,28.6197385 1.11973846,27.5 2.49897834,27.5 C3.88026154,27.5 5,28.6197385 5,30.0010217 Z" id="Stroke-4707" stroke="#06AFF2" stroke-width="2"></path>
                <path d="M8,3 C8,4.65686275 6.65386187,6 4.99877401,6 C3.34123416,6 2,4.65686275 2,3 C2,1.34313725 3.34123416,0 4.99877401,0 C6.65386187,0 8,1.34313725 8,3 Z" id="Stroke-4708" stroke="#06AFF2" stroke-width="2"></path>
            </g>
        </g>
    </g>
</svg>