<?xml version="1.0" encoding="UTF-8"?>
<svg width="72px" height="58px" viewBox="0 0 72 58" version="1.1" xmlns="http://www.w3.org/2000/svg" xmlns:xlink="http://www.w3.org/1999/xlink">
    <!-- Generator: sketchtool 64 (101010) - https://sketch.com -->
    <title>D95D32E0-AD1B-446D-99BC-3489FA54A48D</title>
    <desc>Created with sketchtool.</desc>
    <defs>
        <polygon id="path-1" points="0.0870627437 0.787674547 39.7276164 0.787674547 39.7276164 38.588274 0.0870627437 38.588274"></polygon>
        <polygon id="path-3" points="0 0.313041096 61.4946986 0.313041096 61.4946986 57.2054795 0 57.2054795"></polygon>
    </defs>
    <g id="Design-System" stroke="none" stroke-width="1" fill="none" fill-rule="evenodd">
        <g id="Icons" transform="translate(-372.000000, -715.000000)">
            <g id="Group-7" transform="translate(372.000000, 715.000000)">
                <g id="Group-3" transform="translate(31.780822, 15.577688)">
                    <mask id="mask-2" fill="white">
                        <use xlink:href="#path-1"></use>
                    </mask>
                    <g id="Clip-2"></g>
                    <path d="M24.4206219,28.981726 C21.6723753,30.4309315 19.049663,32.1089589 16.5826767,33.9967397 C14.8871699,31.3930959 12.9755534,28.9364384 10.8676904,26.6537808 C6.12043014,21.2216438 2.37029315,16.9312329 4.86508767,9.65660274 C5.67788219,7.15147945 7.81990959,5.30978082 10.4187863,4.88073973 C10.8573616,4.81320548 11.2991151,4.7790411 11.7432521,4.77818111 C15.0015808,4.76473973 17.9031699,6.84241096 18.9408137,9.93150685 C19.2888137,10.9723288 20.4138548,11.5340548 21.4546767,11.1868493 C21.8241288,11.0629041 22.1506767,10.8324932 22.3906219,10.5250137 C24.7090329,7.56780822 28.8421288,6.75263014 32.1107863,8.6070411 C34.4164849,9.87906849 35.8211973,12.3293699 35.7528685,14.962411 C35.6765945,22.6525753 30.7092521,25.4453151 24.4206219,28.981726 M33.9842658,5.104 C29.9894164,2.87457534 25.0562384,3.20906849 21.3990603,5.95890411 C18.8708959,2.146 14.3318,0.183534247 9.82130685,0.952630137 C5.75892329,1.60254795 2.39730685,4.4620274 1.10621096,8.36789041 C-2.13304932,17.8155342 2.95585479,23.6377808 7.87711507,29.2677534 C10.1303753,31.6656164 12.1182658,34.2986575 13.8074164,37.1223836 C14.2181836,37.8779726 14.9531151,38.4023562 15.8008685,38.5461644 C15.9605671,38.5739726 16.1226493,38.5874795 16.283937,38.588274 C16.9751699,38.588274 17.6417726,38.3324384 18.1550329,37.8708219 C20.6903479,35.7724932 23.4441562,33.9538356 26.3679918,32.4442466 C32.8862384,28.7791233 39.6261562,24.9900548 39.7254712,15.002137 C39.8112795,10.8889041 37.5969507,7.07123288 33.9842658,5.104" id="Fill-1" fill="#FF6058" mask="url(#mask-2)"></path>
                </g>
                <g id="Group-6" transform="translate(0.000000, 0.481797)">
                    <mask id="mask-4" fill="white">
                        <use xlink:href="#path-3"></use>
                    </mask>
                    <g id="Clip-5"></g>
                    <path d="M37.2260685,46.4123151 C34.9418219,48.3890822 32.8156849,50.5430274 30.8699041,52.8542877 C27.3223699,48.5599041 23.0836027,45.114863 18.9783151,41.7794658 C9.98672603,34.4730548 2.22187671,28.1637671 4.31941096,15.1860685 C5.00269863,10.5214384 8.2300411,6.62590411 12.6873014,5.08691781 C14.1730548,4.5879589 15.7311096,4.33212329 17.2986986,4.32815068 C22.2469726,4.29557534 26.8027534,7.0160137 29.1203699,11.3882603 C29.6391918,12.3543973 30.8436849,12.7174932 31.8106164,12.1986712 C32.1538493,12.0143425 32.4359041,11.7322877 32.6210274,11.3882603 C35.7816301,5.50880822 42.7710274,2.82809589 49.0525068,5.08691781 C53.5089726,6.62590411 56.7371096,10.5214384 57.4211918,15.186863 C57.4545616,15.3950274 57.4783973,15.5976301 57.507,15.803411 C58.3476027,15.6484795 59.2001233,15.5674384 60.0550274,15.5610822 C60.5349178,15.5610822 61.0148082,15.5920685 61.4946986,15.6397397 C61.4486164,15.2806164 61.4025342,14.9206986 61.3429452,14.5528356 C60.425274,8.42549315 56.1690274,3.32149315 50.3062603,1.31771233 C43.3113014,-1.16436986 35.5122877,1.05313699 30.8699041,6.84439726 C26.2259315,1.05552055 18.4277123,-1.1619863 11.4327534,1.31771233 C5.57078082,3.32149315 1.31453425,8.42549315 0.397657534,14.5528356 C-2.06615068,29.7980959 7.35845205,37.4564795 16.4723973,44.8622055 C20.6094658,48.2230274 24.8863699,51.6982603 28.2614932,55.9457671 C29.4056027,57.3870274 31.4999589,57.6269726 32.9412192,56.482863 C33.1398493,56.3255479 33.3202055,56.1451918 33.4783151,55.9465616 C35.3931096,53.5963699 37.5097123,51.418589 39.8050822,49.4378493 C38.9827534,48.4256301 38.1191096,47.433274 37.265,46.4560137 L37.2260685,46.4123151 Z" id="Fill-4" fill="#FF6058" mask="url(#mask-4)"></path>
                </g>
            </g>
        </g>
    </g>
</svg>