<?xml version="1.0" encoding="UTF-8"?>
<svg width="211px" height="213px" viewBox="0 0 211 213" version="1.1" xmlns="http://www.w3.org/2000/svg" xmlns:xlink="http://www.w3.org/1999/xlink">
    <!-- Generator: sketchtool 63 (101010) - https://sketch.com -->
    <title>CEDE7304-14C3-4FF2-B8E7-EE26318C4211</title>
    <desc>Created with sketchtool.</desc>
    <g id="Design-System" stroke="none" stroke-width="1" fill="none" fill-rule="evenodd">
        <g id="Illustrations" transform="translate(-786.000000, -567.000000)">
            <g id="drawkit-charts-and-graphs" transform="translate(786.000000, 567.000000)">
                <path d="M77.7304506,30.672582 C77.7304506,20.6767456 83.7519528,11.6652183 92.9870141,7.84024922 C102.222075,4.01528013 112.851908,6.13017323 119.919615,13.198713 C126.987323,20.2672529 129.100964,30.8973342 125.274908,40.131945 C121.448851,49.3665558 112.436615,55.3869966 102.440779,55.3858197 C95.8866881,55.3858197 89.6010785,52.7820182 84.9669094,48.1473035 C80.3327404,43.5125887 77.729679,37.2266725 77.7304506,30.672582 L77.7304506,30.672582 Z" id="Path" fill="#DFDFDF" fill-rule="nonzero"></path>
                <polygon id="Path" fill="#000000" fill-rule="nonzero" points="22.2427869 207.50623 15.0496721 211.745861 15.0496721 212.790492 29.0983607 212.790492 29.0983607 207.50623"></polygon>
                <polygon id="Path" fill="#000000" fill-rule="nonzero" points="59.1220492 207.797213 66.0183607 207.797213 66.0183607 212.543156 59.1220492 212.543156"></polygon>
                <polygon id="Path" fill="#DFDFDF" fill-rule="nonzero" points="4.48987705 132.426639 30.1342623 140.04168 25.7695082 154.759631 0.125122951 147.14459"></polygon>
                <polygon id="Path" fill="#61CAD6" fill-rule="nonzero" points="26.5318852 109.953975 21.9110656 207.968893 29.6977869 208.03291 45.6553279 143.891393 45.2741393 111.979221"></polygon>
                <path d="M66.9262295,109.761926 C66.8011066,112.549549 66.4810246,208.169672 66.4810246,208.169672 L58.8863525,208.224959 L35.270123,112.168361 C35.270123,112.168361 67.0571721,106.977213 66.9262295,109.761926 Z" id="Path" fill="#6BD5E1" fill-rule="nonzero"></path>
                <path d="M19.542459,82.8517623 C17.9653279,85.5113525 14.1883607,105.577582 14.2232787,110.271148 C13.0069672,114.475861 13.9934016,127.119098 14.0254098,128.795164 C14.057418,130.47123 13.7344262,136.741926 14.0923361,138.284139 C13.1379098,140.716762 17.9653279,145.774057 19.4435246,145.905 C20.9217213,146.035943 22.6618033,143.443279 22.6618033,142.192049 C22.6618033,139.008689 20.5870902,136.31709 20.624918,135.001844 C20.8227869,128.434344 23.6802459,111.685328 24.0410656,110.559221 C24.4018852,109.433115 25.6181967,107.242008 26.6366393,106.354508 C27.655082,105.467008 28.1468443,85.9303689 28.1468443,85.9303689 C28.1468443,85.9303689 20.3834016,81.4346721 19.542459,82.8517623 Z" id="Path" fill="#E49D75" fill-rule="nonzero"></path>
                <path d="M40.2139344,49.007459 C40.2139344,49.8338525 40.7202459,57.4168852 39.7541803,59.1191393 C38.7881148,60.8213934 49.292623,60.2452459 49.292623,58.9561885 C49.292623,57.6671311 48.9463525,51.6815984 49.7960246,49.5137705 C50.6456967,47.3459426 40.2139344,48.1781557 40.2139344,49.007459 Z" id="Path" fill="#E49D75" fill-rule="nonzero"></path>
                <path d="M75.9612705,71.4684836 L77.4976639,72.5887705 C77.4976639,72.5887705 90.6966803,47.0345902 90.8567213,46.1092623 C91.0167623,45.1839344 89.9837705,42.9084426 90.1409016,41.8230738 C90.2980328,40.7377049 95.6084836,35.4738115 97.2729098,35.3923361 C98.9373361,35.3108607 99.0682787,36.1343443 98.6609016,36.9461885 C98.2535246,37.7580328 95.0672541,40.9937705 95.0672541,40.9937705 C95.0672541,40.9937705 97.2729098,40.3856148 98.0440164,40.9937705 C98.815123,41.6019262 101.739508,45.5011066 100.6425,47.2062705 C99.5454918,48.9114344 97.4416803,49.7640164 97.0284836,50.7795492 C96.6152869,51.795082 84.0738934,87.0622951 82.5345902,87.7577459 C79.9361066,88.9216803 71.5325,84.8479098 70.272541,82.8459426 C69.012582,80.8439754 75.9612705,71.4684836 75.9612705,71.4684836 Z" id="Path" fill="#E49D75" fill-rule="nonzero"></path>
                <path d="M35.1740984,60.4576639 C43.8017623,63.5740984 38.1857787,86.5065164 35.447623,88.1011066 C33.2797951,89.3581557 17.4357377,84.364877 16.8945082,81.970082 C16.0913934,78.4229918 27.6754508,57.7515164 35.1740984,60.4576639 Z" id="Path" fill="#FFC48E" fill-rule="nonzero"></path>
                <path d="M46.024877,56.3197986 C68.177459,56.2471311 70.3307377,106.767705 66.6119672,110.22459 C59.9193443,116.454549 27.7220082,113.664016 26.3194672,110.358443 C24.0177869,104.940328 25.1002459,56.3868033 46.024877,56.3197986 Z" id="Path" fill="#FFD98E" fill-rule="nonzero"></path>
                <path d="M49.2547951,65.2588934 C53.0754098,56.9222131 75.4636885,64.4266803 76.8138525,67.2957787 C77.887582,69.562541 71.5761475,84.9352049 69.1580738,85.2756557 C65.5644262,85.7703279 45.9317623,72.5043852 49.2547951,65.2588934 Z" id="Path" fill="#FFE3AD" fill-rule="nonzero"></path>
                <path d="M36.3729508,38.2236066 C36.3729508,30.9839344 40.8511885,25.1147951 46.3769672,25.1147951 C51.9027459,25.1147951 56.3809836,30.9839344 56.3809836,38.2236066 C56.3809836,45.4632787 51.9027459,51.3353279 46.3769672,51.3353279 C40.8511885,51.3353279 36.3729508,45.4632787 36.3729508,38.2236066 Z" id="Path" fill="#E49D75" fill-rule="nonzero"></path>
                <path d="M33.0790164,36.5359016 C32.712377,31.0654098 35.8753689,25.9819262 37.0014754,22.7869262 C37.9733607,19.7141393 39.9113115,17.4328279 42.4137705,17.3135246 C44.9162295,17.1942213 45.6145902,17.8285656 47.2819262,17.767459 C48.9492623,17.7063525 51.8445492,15.8207787 53.730123,15.8207787 C55.6156967,15.8207787 56.7418033,17.1680328 57.9057377,18.0118852 C59.0696721,18.8557377 61.4731967,20.4445082 61.4644909,21.8441393 C61.415,30.2593852 53.7243033,29.4620902 51.4866393,31.8801639 C49.9677049,33.157582 49.8745902,36.1401639 49.115123,36.6261066 C48.3556557,37.1120492 46.7115984,36.8239754 46.6825,39.2129508 C46.665041,40.6184016 47.0462295,41.7677869 48.050123,41.8579918 C49.0540164,41.9481967 49.4090164,42.3148361 49.3886475,43.0452049 C49.1762295,50.0928279 44.2004098,51.4168033 42.1722541,51.2131148 C39.3293443,50.9454098 38.5233197,47.4739754 37.8220492,46.2867623 C35.1333607,43.2867213 33.3059836,39.9753279 33.0790164,36.5359016 Z" id="Path" fill="#FF8364" fill-rule="nonzero"></path>
                <polygon id="Path" fill="#949494" fill-rule="nonzero" points="101.241926 31.7463115 104.946148 15.9837295 108.653279 0.218237705 115.811475 3.96610656 122.960943 7.71397541 112.107254 19.7315984"></polygon>
                <polygon id="Path" fill="#DFDFDF" fill-rule="nonzero" points="139.293852 7.32405738 210.34623 7.32405738 210.34623 51.0181557 139.293852 51.0181557"></polygon>
                <polygon id="Path" fill="#949494" fill-rule="nonzero" points="143.580041 10.8333197 149.885656 10.8333197 149.885656 47.4972541 143.580041 47.4972541"></polygon>
                <polygon id="Path" fill="#949494" fill-rule="nonzero" points="152.940984 16.1495902 159.246598 16.1495902 159.246598 47.5088934 152.940984 47.5088934"></polygon>
                <polygon id="Path" fill="#949494" fill-rule="nonzero" points="162.304836 24.2156557 168.610451 24.2156557 168.610451 47.4943443 162.304836 47.4943443"></polygon>
                <polygon id="Path" fill="#949494" fill-rule="nonzero" points="171.680328 35.1595492 177.983033 35.1595492 177.983033 47.5088934 171.680328 47.5088934"></polygon>
                <polygon id="Path" fill="#949494" fill-rule="nonzero" points="181.029631 24.5590164 187.335246 24.5590164 187.335246 47.5088934 181.029631 47.5088934"></polygon>
                <polygon id="Path" fill="#949494" fill-rule="nonzero" points="190.393484 16.559877 196.704918 16.559877 196.704918 47.5088934 190.393484 47.5088934"></polygon>
                <polygon id="Path" fill="#949494" fill-rule="nonzero" points="199.757336 10.8333197 206.060041 10.8333197 206.060041 47.4972541 199.757336 47.4972541"></polygon>
                <line x1="105.714344" y1="93.1962295" x2="119.070492" y2="79.8371721" id="Path" stroke="#000000" stroke-width="0.5" stroke-linecap="round" stroke-linejoin="round"></line>
                <line x1="126.601148" y1="86.940082" x2="140.93791" y2="72.6062295" id="Path" stroke="#000000" stroke-width="0.5" stroke-linecap="round" stroke-linejoin="round"></line>
                <line x1="148.401639" y1="79.5170902" x2="151.518074" y2="76.4006557" id="Path" stroke="#000000" stroke-width="0.5" stroke-linecap="round" stroke-linejoin="round"></line>
                <line x1="163.698648" y1="88.3979098" x2="182.321598" y2="69.774959" id="Path" stroke="#000000" stroke-width="0.5" stroke-linecap="round" stroke-linejoin="round"></line>
                <line x1="119.114139" y1="79.6160246" x2="126.269426" y2="86.7742213" id="Path" stroke="#000000" stroke-width="0.5" stroke-linecap="round" stroke-linejoin="round"></line>
                <line x1="140.958279" y1="72.7459016" x2="148.052459" y2="79.840082" id="Path" stroke="#000000" stroke-width="0.5" stroke-linecap="round" stroke-linejoin="round"></line>
                <line x1="151.701393" y1="76.2377049" x2="163.710287" y2="88.2465984" id="Path" stroke="#000000" stroke-width="0.5" stroke-linecap="round" stroke-linejoin="round"></line>
                <line x1="182.795902" y1="69.3152049" x2="187.428361" y2="73.9447541" id="Path" stroke="#000000" stroke-width="0.5" stroke-linecap="round" stroke-linejoin="round"></line>
                <path d="M118.351762,79.8517213 C118.351762,79.4097803 118.710026,79.0515164 119.151967,79.0515164 C119.593908,79.0515164 119.952172,79.4097803 119.952172,79.8517213 C119.952172,80.2936623 119.593908,80.6519262 119.151967,80.6519262 C118.710026,80.6519262 118.351762,80.2936623 118.351762,79.8517213 Z" id="Path" fill="#000000" fill-rule="nonzero"></path>
                <path d="M125.67291,86.6636475 C125.67291,86.2217066 126.031174,85.8634426 126.473115,85.8634426 C126.915056,85.8634426 127.27332,86.2217066 127.27332,86.6636475 C127.27332,87.1055885 126.915056,87.4638525 126.473115,87.4638525 C126.031174,87.4638525 125.67291,87.1055885 125.67291,86.6636475 Z" id="Path" fill="#000000" fill-rule="nonzero"></path>
                <path d="M140.076598,72.9903279 C140.076598,72.6664109 140.271881,72.3744447 140.571254,72.2507606 C140.870627,72.1270765 141.215037,72.1960737 141.443663,72.4255344 C141.67229,72.6549952 141.740032,72.9996537 141.615258,73.2985747 C141.490484,73.5974956 141.197808,73.7917107 140.873893,73.7905381 C140.433089,73.7889299 140.076598,73.431135 140.076598,72.9903279 Z" id="Path" fill="#000000" fill-rule="nonzero"></path>
                <path d="M147.415205,79.6567623 C147.415205,79.2148213 147.773469,78.8565574 148.21541,78.8565574 C148.657351,78.8565574 149.015615,79.2148213 149.015615,79.6567623 C149.015615,80.0987033 148.657351,80.4569672 148.21541,80.4569672 C147.773469,80.4569672 147.415205,80.0987033 147.415205,79.6567623 Z" id="Path" fill="#000000" fill-rule="nonzero"></path>
                <path d="M150.88373,76.2929918 C150.88373,75.8510508 151.241993,75.4927869 151.683934,75.4927869 C152.125875,75.4927869 152.484139,75.8510508 152.484139,76.2929918 C152.484139,76.7349328 152.125875,77.0931967 151.683934,77.0931967 C151.241993,77.0931967 150.88373,76.7349328 150.88373,76.2929918 Z" id="Path" fill="#000000" fill-rule="nonzero"></path>
                <path d="M162.965369,88.0545492 C162.965369,87.6126082 163.323633,87.2543443 163.765574,87.2543443 C164.207515,87.2543443 164.565779,87.6126082 164.565779,88.0545492 C164.565779,88.4964902 164.207515,88.8547541 163.765574,88.8547541 C163.323633,88.8547541 162.965369,88.4964902 162.965369,88.0545492 L162.965369,88.0545492 Z" id="Path" fill="#000000" fill-rule="nonzero"></path>
                <path d="M181.984057,69.545082 C181.984057,69.103141 182.342321,68.744877 182.784262,68.744877 C183.226203,68.744877 183.584467,69.103141 183.584467,69.545082 C183.584467,69.9870229 183.226203,70.3452869 182.784262,70.3452869 C182.342321,70.3452869 181.984057,69.9870229 181.984057,69.545082 Z" id="Path" fill="#000000" fill-rule="nonzero"></path>
            </g>
        </g>
    </g>
</svg>