<?xml version="1.0" encoding="UTF-8"?>
<svg width="250px" height="213px" viewBox="0 0 250 213" version="1.1" xmlns="http://www.w3.org/2000/svg" xmlns:xlink="http://www.w3.org/1999/xlink">
    <!-- Generator: sketchtool 63 (101010) - https://sketch.com -->
    <title>05DD2F6F-C58C-43D1-985E-C72FF7768EAD</title>
    <desc>Created with sketchtool.</desc>
    <g id="Design-System" stroke="none" stroke-width="1" fill="none" fill-rule="evenodd">
        <g id="Illustrations" transform="translate(-52.000000, -883.000000)" fill-rule="nonzero">
            <g id="drawkit-folder-man-colour" transform="translate(52.000000, 883.000000)">
                <rect id="Rectangle" fill="#DE8E68" x="235.036763" y="190.635" width="6.92131929" height="5.39584257"></rect>
                <path d="M221.543614,52.0220621 C220.764346,51.4364302 214.839545,42.96602 213.342406,36.9491242 C211.845266,30.9322284 211.715388,54.5605876 211.715388,54.5605876 L215.425177,57.8146231 L221.543614,52.0220621 Z" id="Path" fill="#FCC486"></path>
                <polygon id="Path" fill="#56CAD8" points="220.759623 138.967151 212.714268 153.045931 210.702339 109.298282 223.524845 109.718614"></polygon>
                <path d="M229.09071,49.7739911 C249.481563,54.0764967 243.138792,101.068736 239.185776,104.917849 C235.232761,108.766962 206.102295,109.482472 203.292206,106.263858 C200.482118,103.045244 203.500011,44.3687029 229.09071,49.7739911 Z" id="Path" fill="#FED385"></path>
                <path d="M231.955111,54.9974501 C231.718969,56.5607095 222.490543,55.4484812 222.891984,53.2995898 L225.239235,40.7840687 L234.302361,42.4842905 C234.302361,42.4842905 232.193614,53.4365521 231.955111,54.9974501 Z" id="Path" fill="#D37C59"></path>
                <ellipse id="Oval" fill="#DE8E68" transform="translate(228.259219, 34.598761) rotate(-79.390000) translate(-228.259219, -34.598761) " cx="228.259219" cy="34.5987608" rx="12.7918071" ry="9.20245011"></ellipse>
                <path d="M221.383038,13.8143016 C223.803492,13.8143016 224.821264,15.4672949 231.064856,15.4672949 C234.101641,15.4672949 240.27439,16.1143237 240.27439,23.9684035 C240.27439,29.2438137 243.344235,29.6358093 243.344235,32.941796 C243.344235,34.5947894 241.882517,38.6092018 238.149113,38.6092018 C236.49612,38.6092018 234.843126,35.7754989 234.843126,34.8309313 C234.843126,33.8863636 235.787694,33.1779379 235.787694,32.4695122 C235.806585,29.0572616 224.752783,27.1610421 224.01602,24.0911973 C223.215499,24.8255987 221.373592,27.0901996 220.686419,28.5566408 C219.741851,28.0725499 219.850477,27.2861973 218.797284,26.5659645 C217.888137,25.9496341 215.054371,24.3722062 215.054371,21.2315188 C215.042627,19.6706208 216.669645,13.8143016 221.383038,13.8143016 Z" id="Path" fill="#FD8369"></path>
                <circle id="Oval" fill="#DE8E68" cx="236.1301" cy="36.9491242" r="2.95885809"></circle>
                <polygon id="Path" fill="#74D5DE" points="238.555277 105.387772 243.174213 191.114368 234.722694 191.114368 212.227816 110.608869 212.227816 105.70184"></polygon>
                <rect id="Rectangle" fill="#DFDFDF" x="0" y="13.9087583" width="213.5998" height="157.622361"></rect>
                <rect id="Rectangle" fill="#F3F3F3" x="0" y="32.4081153" width="213.5998" height="157.622361"></rect>
                <path d="M224.417461,74.4012306 C222.455122,75.4142794 219.607251,76.8689135 217.644911,80.7298337 C215.177228,80.2858869 202.897849,78.0708758 194.101563,78.1983925 C193.279789,79.9694568 191.886552,82.7559313 192.44857,83.1361197 C193.010588,83.5163082 211.056552,91.0468736 223.713758,89.9063082 C225.366752,90.0243792 232.016508,83.7666186 232.231397,83.2612749 C232.446286,82.7559313 224.417461,74.4012306 224.417461,74.4012306 Z" id="Path" fill="#DE8E68"></path>
                <ellipse id="Oval" fill="#DE8E68" transform="translate(189.781555, 79.771742) rotate(-73.840000) translate(-189.781555, -79.771742) " cx="189.781555" cy="79.7717422" rx="3.84202882" ry="5.73116408"></ellipse>
                <ellipse id="Oval" fill="#DE8E68" cx="195.213792" cy="5.35097561" rx="6.08537694" ry="5.20692905"></ellipse>
                <polygon id="Path" fill="#DFDFDF" points="131.037506 62.908204 52.6997894 62.908204 52.6997894 190.030477 159.837373 190.030477 159.837373 91.708071"></polygon>
                <circle id="Oval" fill="#FFFFFF" cx="81.7924723" cy="111.482594" r="12.4352328"></circle>
                <rect id="Rectangle" fill="#FFFFFF" x="100.910521" y="121.065233" width="42.2694013" height="3.34140798"></rect>
                <rect id="Rectangle" fill="#FFFFFF" x="69.3572395" y="136.008293" width="73.8250443" height="3.34140798"></rect>
                <rect id="Rectangle" fill="#FFFFFF" x="69.3572395" y="150.948991" width="73.8250443" height="3.34140798"></rect>
                <rect id="Rectangle" fill="#F3F3F3" x="137.148858" y="3.2445898" width="76.4509424" height="35.364612" rx="5.79492239"></rect>
                <path d="M137.148858,9.0395122 C137.148858,11.7126386 128.921674,32.417561 85.1149889,32.417561 C85.1149889,36.880643 139.451242,34.6302106 139.451242,34.6302106 L140.254124,9.47165188 L137.148858,9.0395122 Z" id="Path" fill="#F3F3F3"></path>
                <path d="M242.990022,62.7405432 C248.421286,68.8613415 235.079268,86.4586364 232.507683,85.7313193 C229.477982,84.8741242 220.259002,76.2454989 220.185798,73.2583038 C220.112594,70.2711086 236.290676,55.1958093 242.990022,62.7405432 Z" id="Path" fill="#FED892"></path>
                <polygon id="Path" fill="#000000" points="235.036763 194.623437 235.036763 199.022761 245.885122 212.799279 249.129712 211.221851 242.484678 194.623437"></polygon>
            </g>
        </g>
    </g>
</svg>