<?xml version="1.0" encoding="UTF-8"?>
<svg width="215px" height="213px" viewBox="0 0 215 213" version="1.1" xmlns="http://www.w3.org/2000/svg" xmlns:xlink="http://www.w3.org/1999/xlink">
    <!-- Generator: sketchtool 63 (101010) - https://sketch.com -->
    <title>AF1A8011-E64E-442D-878F-FEE7A896B487</title>
    <desc>Created with sketchtool.</desc>
    <g id="Design-System" stroke="none" stroke-width="1" fill="none" fill-rule="evenodd">
        <g id="Illustrations" transform="translate(-765.000000, -256.000000)" fill-rule="nonzero">
            <g id="drawkit-mobile-article-colour" transform="translate(765.000000, 256.000000)">
                <g id="Background_elements" transform="translate(58.498736, 0.000000)">
                    <path d="M98.4088711,105.78043 L98.4088711,194.827709 C98.4088711,201.334888 93.1337595,206.61 86.6265796,206.61 L17.4060657,206.61 C10.8988858,206.61 5.62377422,201.334888 5.62377422,194.827709 L5.62377422,18.1238416 C5.62476497,11.6170721 10.8992962,6.34155013 17.4060657,6.34155013 L86.6265796,6.34155013 C93.1333491,6.34155013 98.4078804,11.6170721 98.4088711,18.1238416 L98.4088711,105.78043" id="Path" fill="#FFFFFF"></path>
                    <rect id="Rectangle" fill="#F3F3F3" x="28.8761247" y="1.69036226" width="46.2786015" height="11.5543976" rx="2.82085931"></rect>
                    <path d="M86.9818787,0 L17.0471778,0 C7.63054011,0.00594359743 -1.02002091e-14,7.64130488 -1.02002091e-14,17.0579444 L-1.02002091e-14,195.884634 C-1.02002091e-14,205.301273 7.63054011,212.936634 17.0471778,212.942578 L86.9818787,212.942578 C96.4027212,212.942578 104.039823,205.305476 104.039823,195.884634 L104.039823,17.0579444 C104.039823,7.63710184 96.4027212,0 86.9818787,0 Z M98.4088711,105.78043 L98.4088711,194.827709 C98.4088711,201.334888 93.1337595,206.61 86.6265796,206.61 L17.4060657,206.61 C10.8988858,206.61 5.62377422,201.334888 5.62377422,194.827709 L5.62377422,18.1238416 C5.62476497,11.6170721 10.8992962,6.34155013 17.4060657,6.34155013 L86.6265796,6.34155013 C93.1333491,6.34155013 98.4078804,11.6170721 98.4088711,18.1238416 L98.4088711,105.78043 Z" id="Shape" fill="#F3F3F3"></path>
                    <rect id="Rectangle" fill="#F3F3F3" x="13.9804802" y="25.7161163" width="76.0716849" height="37.2525695"></rect>
                    <rect id="Rectangle" fill="#F3F3F3" x="18.2368913" y="93.2408846" width="101.48813" height="3.50454086"></rect>
                    <rect id="Rectangle" fill="#F3F3F3" x="18.2368913" y="102.457127" width="101.48813" height="3.50454086"></rect>
                    <rect id="Rectangle" fill="#F3F3F3" x="18.2368913" y="111.671575" width="101.48813" height="3.50454086"></rect>
                    <rect id="Rectangle" fill="#F3F3F3" x="18.2368913" y="120.887818" width="101.48813" height="3.50454086"></rect>
                    <rect id="Rectangle" fill="#F3F3F3" x="18.2368913" y="130.104061" width="101.48813" height="3.50454086"></rect>
                    <rect id="Rectangle" fill="#F3F3F3" x="18.2368913" y="139.320303" width="101.48813" height="3.50454086"></rect>
                    <rect id="Rectangle" fill="#F3F3F3" x="18.2368913" y="148.536546" width="101.48813" height="3.50454086"></rect>
                    <rect id="Rectangle" fill="#F3F3F3" x="18.2368913" y="157.752789" width="101.48813" height="3.50454086"></rect>
                    <rect id="Rectangle" fill="#F3F3F3" x="38.1749115" y="173.737658" width="70.6076158" height="3.50454086"></rect>
                    <rect id="Rectangle" fill="#F3F3F3" x="38.1749115" y="181.105628" width="77.8374136" height="3.50454086"></rect>
                    <rect id="Rectangle" fill="#F3F3F3" x="13.5372536" y="83.7877759" width="11.4592923" height="3.63912384"></rect>
                    <rect id="Rectangle" fill="#F3F3F3" x="27.8281719" y="83.7877759" width="11.4592923" height="3.63912384"></rect>
                    <rect id="Rectangle" fill="#F3F3F3" x="43.0791154" y="83.7877759" width="11.4592923" height="3.63912384"></rect>
                    <circle id="Oval" fill="#F3F3F3" cx="26.498492" cy="178.690312" r="7.6173968"></circle>
                    <rect id="Rectangle" fill="#E2E2E2" x="18.2368913" y="69.7355181" width="94.3713816" height="7.48101938"></rect>
                </g>
                <g id="Vector" transform="translate(0.000000, 13.099410)">
                    <rect id="Rectangle" fill="#DE8E68" transform="translate(61.696226, 181.563162) rotate(-53.170000) translate(-61.696226, -181.563162) " x="58.3675402" y="178.593364" width="6.65737152" height="5.93959562"></rect>
                    <rect id="Rectangle" fill="#DE8E68" x="46.0363521" y="188.432325" width="7.24774221" height="4.72117102"></rect>
                    <path d="M31.1407077,98.7677591 C31.1407077,98.7677591 16.4962848,148.778795 16.4962848,149.792654 C16.4962848,150.806512 57.3700337,184.208214 58.1272873,184.208214 C58.8845409,184.208214 62.0301938,178.107119 62.0301938,177.046605 C62.0301938,175.986091 52.3007414,167.959562 52.3007414,167.959562 L31.1407077,98.7677591 Z" id="Path" fill="#56CAD8"></path>
                    <path d="M53.576588,188.536403 L58.121904,97.9477001 C55.9865206,99.4801516 44.9901938,102.613243 31.1407077,98.7677591 C32.1025274,106.720716 45.6756698,189.028079 45.6756698,189.028079 L53.531727,189.028079 L53.576588,188.536403 Z" id="Path" fill="#74D5DE"></path>
                    <path d="M30.3619208,71.8045072 C28.5297978,70.8014153 9.07627633,57.9334878 5.89294019,57.9334878 C2.70960404,57.9334878 2.97159225,59.8104718 2.97159225,60.3775147 C2.97159225,60.9445577 3.36278012,64.6949368 12.2614069,67.0061752 C13.0455771,67.9662005 26.0427043,81.1373884 29.9240775,82.7075232 C29.9671441,78.5641618 30.3619208,71.8045072 30.3619208,71.8045072 Z" id="Path" fill="#DE8E68"></path>
                    <path d="M45.4836647,32.3196546 C21.3322999,32.3196546 29.8146167,96.9105139 31.1407077,98.7677591 C32.4667987,100.625004 57.1062511,101.893673 58.6207582,97.176091 C59.62385,94.0537658 64.7792755,32.3196546 45.4836647,32.3196546 Z" id="Path" fill="#FED385"></path>
                    <polygon id="Path" fill="#333333" points="10.6069334 64.1153328 0.0215332772 57.2139174 5.80860152 54.0144313 16.1338079 60.5120977"></polygon>
                    <path d="M47.4162763,59.3241786 C47.3714153,61.1186184 48.9074558,73.2903033 51.1164111,79.1401769 C50.2802022,83.4468324 45.684642,107.551542 45.684642,107.551542 L48.9146335,111.728997 C48.9146335,111.728997 60.7328138,86.6319629 61.3303623,82.7075232 C61.9279107,78.7830834 60.4941533,59.3241786 60.2536984,58.3695366 C60.0132435,57.4148947 47.4162763,59.3241786 47.4162763,59.3241786 Z" id="Path" fill="#DE8E68"></path>
                    <path d="M53.2087279,38.4602275 C60.4169924,38.3023168 62.4447094,57.4579612 61.2298736,59.1590901 C60.0150379,60.860219 47.174027,62.157599 45.7151474,60.5372199 C44.2562679,58.9168408 45.57877,38.6271104 53.2087279,38.4602275 Z" id="Path" fill="#FED892"></path>
                    <path d="M47.7051811,22.8862848 L39.6786521,22.8862848 L39.6786521,35.4976074 C39.6786521,37.1126032 47.7051811,37.0174979 47.7051811,35.4976074 L47.7051811,22.8862848 Z" id="Path" fill="#D37C59"></path>
                    <ellipse id="Oval" fill="#DE8E68" transform="translate(41.801533, 16.998782) rotate(-86.740000) translate(-41.801533, -16.998782) " cx="41.8015329" cy="16.9987819" rx="13.0025105" ry="7.56356361"></ellipse>
                    <path d="M26.0193766,13.0994103 C26.0193766,11.8433024 26.7371525,10.4077506 26.7371525,8.97219882 C26.7371525,7.71609099 26.1988206,6.28053917 26.1988206,4.48609941 C26.1988206,1.43555181 29.2493682,0 30.8643639,0 C33.9149115,0 34.6326874,2.15332772 39.4776748,2.15332772 C42.3487784,2.15332772 43.6048863,1.43555181 45.2198821,1.43555181 C50.2443134,1.43555181 50.9620893,7.71609099 50.9620893,8.43386689 C50.9620893,11.4844145 55.0893008,11.6638585 55.0893008,14.89385 C55.0893008,17.9443976 51.8593092,21.5332772 49.3470935,21.5332772 C46.8348778,21.5332772 44.5021061,19.2005055 44.5021061,18.4827296 C44.5021061,16.8677338 44.8609941,16.5088458 44.8609941,15.432182 C44.8609941,11.6638585 36.6496377,10.7666386 35.3935299,10.7666386 C34.7593962,12.6821482 34.3828512,14.6734919 34.2737995,16.6882898 C33.9149115,16.8677338 32.6588037,17.2266217 31.4026959,17.2266217 C30.505476,17.2266217 26.0193766,16.1499579 26.0193766,13.0994103 Z" id="Path" fill="#FD8369"></path>
                    <circle id="Oval" fill="#DE8E68" cx="48.0012637" cy="21.9818871" r="1.88416175"></circle>
                    <polygon id="Path" fill="#000000" points="53.4330329 192.618753 45.7295029 192.618753 33.3514575 197.508602 33.3514575 199.369436 53.4330329 199.369436"></polygon>
                    <polygon id="Path" fill="#000000" points="65.7536563 180.285569 61.5116007 185.948821 58.2905813 197.741879 59.6579444 198.766504 70.7152822 184.001853"></polygon>
                    <path d="M129.228374,112.529318 C128.088905,112.529318 127.554162,115.445282 127.554162,117.858804 C127.566643,125.141826 128.236291,132.408866 129.554962,139.571525 C129.8008,139.571525 130.050227,139.555375 130.303243,139.555375 C133.734212,139.555375 136.515594,140.518989 136.515594,141.708703 C136.515594,142.898416 133.791634,143.840497 130.414499,143.86203 C130.466537,144.098896 130.516782,144.333968 130.570615,144.56904 C133.877767,144.617489 136.519183,145.561365 136.519183,146.722367 C136.519183,147.757759 134.407127,148.622679 131.59524,148.827245 C137.669419,172.366706 149.283033,190.94813 157.115762,199.60989 L167.284853,199.60989 L167.284853,191.036057 C167.281264,176.08658 141.538231,112.529318 129.228374,112.529318 Z" id="Path" fill="#56CAD8"></path>
                    <path d="M207.214726,137.513302 C200.487372,137.513302 199.77139,144.730539 195.218896,144.730539 C193.46214,144.730539 192.975847,142.876883 192.975847,141.121921 C192.975847,138.13059 197.808273,127.026596 198.213816,119.895493 C197.740239,119.982238 197.25972,120.025485 196.778265,120.024693 C193.594928,120.024693 191.01273,118.174625 191.01273,115.897481 C191.01273,113.620337 193.594928,111.77027 196.778265,111.77027 C196.92182,111.77027 197.06358,111.77027 197.203547,111.782831 C195.680067,106.530505 192.11631,101.048492 184.28358,101.048492 C171.41027,101.048492 167.898551,123.870177 165.947995,133.134869 C164.740337,138.877077 151.892148,159.468273 151.892148,174.70845 C151.892148,188.141626 156.01936,199.599124 157.096024,199.599124 L170.039318,199.599124 C170.039318,195.471912 178.065847,187.847338 179.975131,185.760404 C193.185796,171.320548 214.966746,164.752898 214.966746,147.861837 C214.973884,144.145552 214.031803,137.513302 207.214726,137.513302 Z" id="Path" fill="#74D5DE"></path>
                </g>
            </g>
        </g>
    </g>
</svg>