<?xml version="1.0" encoding="UTF-8"?>
<svg width="224px" height="213px" viewBox="0 0 224 213" version="1.1" xmlns="http://www.w3.org/2000/svg" xmlns:xlink="http://www.w3.org/1999/xlink">
    <!-- Generator: sketchtool 63 (101010) - https://sketch.com -->
    <title>8E7C2C93-0984-44ED-8FAF-8E9B14184A38</title>
    <desc>Created with sketchtool.</desc>
    <g id="Design-System" stroke="none" stroke-width="1" fill="none" fill-rule="evenodd">
        <g id="Illustrations" transform="translate(-754.000000, -883.000000)" fill-rule="nonzero">
            <g id="drawkit-content-man-colour" transform="translate(754.000000, 883.000000)">
                <g id="Background" transform="translate(19.184758, 0.000000)">
                    <rect id="Rectangle" fill="#F3F3F3" x="0.221362587" y="0" width="178.983949" height="176.425982"></rect>
                    <rect id="Rectangle" fill="#E1E1E1" x="0.221362587" y="0" width="178.983949" height="13.4293303"></rect>
                    <circle id="Oval" fill="#FD8369" cx="9.66616628" cy="6.88683603" r="2.11524249"></circle>
                    <circle id="Oval" fill="#FD8369" cx="16.4792148" cy="6.88683603" r="2.11524249"></circle>
                    <circle id="Oval" fill="#FD8369" cx="23.2922633" cy="6.88683603" r="2.11524249"></circle>
                    <rect id="Rectangle" fill="#FFFFFF" x="8.97748268" y="23.2184758" width="71.5493072" height="38.7630485"></rect>
                    <rect id="Rectangle" fill="#FFFFFF" x="8.97748268" y="71.1803695" width="71.5493072" height="38.7630485"></rect>
                    <rect id="Rectangle" fill="#FFFFFF" x="97.9406467" y="71.1803695" width="71.5493072" height="83.6012702"></rect>
                    <rect id="Rectangle" fill="#E1E1E1" x="92.9476905" y="26.0224018" width="98.2357968" height="3.73856813"></rect>
                    <rect id="Rectangle" fill="#E1E1E1" x="92.9476905" y="36.5740185" width="98.2357968" height="3.73856813"></rect>
                    <rect id="Rectangle" fill="#E1E1E1" x="92.9476905" y="47.1256351" width="98.2357968" height="3.73856813"></rect>
                    <rect id="Rectangle" fill="#E1E1E1" x="92.9476905" y="57.6772517" width="98.2357968" height="3.73856813"></rect>
                </g>
                <g id="Foreground" transform="translate(0.000000, 58.784065)">
                    <rect id="Rectangle" fill="#DE8E68" x="162.062009" y="116.633487" width="3.76316397" height="5.70623557"></rect>
                    <rect id="Rectangle" fill="#DE8E68" x="206.408314" y="140.737413" width="3.76316397" height="5.70623557"></rect>
                    <path d="M189.683141,63.8262125 C185.13291,63.8262125 164.816744,84.0193995 163.045843,87.4136259 C161.274942,90.8078522 161.791455,117.395958 161.791455,117.395958 L166.169515,118.232217 L173.277714,93.4642032 C176.37679,93.0952656 189.412587,90.2913395 196.151848,84.8556582 C202.891109,79.3953811 195.512356,67.2204388 195.512356,67.2204388 L189.683141,63.8262125 Z" id="Path" fill="#6FC9CE"></path>
                    <path d="M182.083025,36.4018476 C179.844804,38.3941109 175.36836,43.387067 174.999423,44.0265589 C173.868014,43.4854503 162.086605,37.2872979 161.201155,36.8937644 C160.315704,36.5002309 158.44642,33.3765589 157.806928,33.3765589 C157.437991,33.3765589 157.093649,34.0898383 157.093649,34.5817552 C157.093649,35.4180139 157.487182,36.0575058 157.733141,36.32806 C156.896882,36.2050808 149.518129,35.6393764 149.518129,36.1312933 C149.518129,37.4102771 157.782333,39.1073903 158.421824,39.4517321 C159.061316,39.7960739 172.515242,52.2415704 177.188453,52.2415704 C179.008545,52.2415704 187.051386,46.7812933 187.051386,46.1909931 C187.813857,45.6744804 188.994457,44.9120092 188.994457,44.9120092 L188.994457,40.5831409 L186.190531,38.5416859 C186.190531,38.5170901 182.525751,36.0083141 182.083025,36.4018476 Z" id="Path" fill="#DE8E68"></path>
                    <path d="M181.787875,34.9752887 C182.279792,30.9907621 191.454042,21.9394919 195.659931,25.9732102 C199.324711,29.4904157 192.683834,42.0588915 190.986721,42.5508083 C189.068245,42.7475751 181.664896,37.6808314 181.787875,34.9752887 Z" id="Path" fill="#FEBF92"></path>
                    <path d="M209.777945,26.6864896 C214.451155,24.7188222 220.993649,35.5409931 220.255774,39.4763279 C220.255774,41.198037 210.663395,44.8874134 209.187644,43.9035797 C207.711894,42.919746 205.104734,28.654157 209.777945,26.6864896 Z" id="Path" fill="#FED892"></path>
                    <path d="M190.937529,65.5725173 L206.383718,140.712818 L210.343649,140.712818 L211.745612,73.6891455 C211.745612,72.5331409 211.647229,65.2527714 211.647229,64.3181293 C207.170785,65.621709 197.627598,66.6547344 190.937529,65.5725173 Z" id="Path" fill="#74D5DE"></path>
                    <polygon id="Path" fill="#000000" points="206.408314 146.443649 210.171478 146.443649 210.171478 150.526559 199.792032 150.526559"></polygon>
                    <polygon id="Path" fill="#000000" points="162.062009 122.339723 165.825173 122.339723 165.825173 126.422633 155.445727 126.422633"></polygon>
                    <rect id="Rectangle" fill="#FD8369" x="139.45843" y="126.422633" width="44.78903" height="26.2191686"></rect>
                    <polygon id="Path" fill="#FD8369" points="26.9816397 154.06836 9.69076212 153.871594 3.64018476 131.661547 32.6386836 131.661547"></polygon>
                    <path d="M199.546074,20.9064665 C211.10612,20.9064665 215.139838,30.5234411 215.139838,33.6471132 C215.139838,36.7707852 211.524249,55.8325635 211.671824,64.3181293 C211.69642,65.7200924 190.937529,66.9744804 188.109007,64.9330254 C186.780831,63.9737875 183.927714,20.9064665 199.546074,20.9064665 Z" id="Path" fill="#FECC92"></path>
                    <path d="M220.255774,39.4763279 C223.527021,44.4938799 223.330254,56.0539261 223.330254,57.8002309 C223.330254,59.5465358 211.130716,75.2386836 210.073095,75.2386836 C209.433603,74.5991917 207.662702,72.6561201 207.662702,72.0658199 C208.228406,71.0327945 215.48418,55.1684758 216.78776,54.037067 C216.19746,53.3237875 211.007737,45.1825635 210.786374,43.8297921 C215.336605,43.067321 219.739261,41.1488453 220.255774,39.4763279 Z" id="Path" fill="#DE8E68"></path>
                    <path d="M220.255774,39.4763279 C220.993649,35.5409931 215.016859,24.1285219 209.777945,26.6864896 C205.227714,28.9247113 207.711894,42.919746 209.187644,43.9035797 C210.958545,44.6660508 219.56709,42.0834873 220.255774,39.4763279 Z" id="Path" fill="#FED892"></path>
                    <path d="M196.594573,18.5452656 C196.348614,19.3077367 196.225635,21.6689376 196.496189,22.7265589 C196.520785,22.7757506 201.415358,23.1446882 201.956467,22.2838337 C201.981062,21.5705543 203.161663,15.2248268 204.760393,13.2571594 C204.907968,13.0357968 204.588222,12.4209007 204.588222,12.4209007 L198.906582,14.7821016 L196.594573,18.5452656" id="Path" fill="#D38466"></path>
                    <path d="M203.94873,12.9620092 C204.317667,13.4539261 204.784988,13.6752887 205.203118,13.6752887 C206.13776,13.6752887 208.302194,12.8144342 208.302194,9.73995381 C208.302194,7.52632794 206.13776,6.39491917 206.13776,5.33729792 C206.13776,4.32886836 206.408314,4.30427252 206.408314,3.46801386 C206.408314,3.04988453 205.990185,1.67251732 204.686605,1.67251732 C203.94873,1.67251732 203.678176,2.28741339 202.9403,2.28741339 C202.128637,2.28741339 201.390762,0.713279446 200.16097,0.713279446 C199.324711,0.713279446 198.537644,1.50034642 197.652194,1.50034642 C196.643764,1.50034642 195.955081,-1.3981118e-14 194.553118,-1.3981118e-14 C193.101963,-1.3981118e-14 192.58545,1.30357968 192.019746,1.30357968 C191.306467,1.30357968 191.183487,1.10681293 190.470208,1.10681293 C190.027483,1.10681293 188.674711,1.89387991 188.674711,3.3204388 C188.674711,4.32886836 189.092841,5.97678984 191.183487,5.97678984 C192.413279,5.97678984 193.101963,7.91986143 194.18418,7.91986143 C194.602309,7.91986143 194.971247,7.57551963 195.06963,7.74769053 C195.48776,8.48556582 196.348614,10.5024249 196.348614,10.5024249 L200.259353,12.691455 L203.94873,12.9620092 Z" id="Path" fill="#FD8369"></path>
                    <path d="M203.087875,11.9535797 C203.087875,12.2979215 202.964896,12.371709 202.448383,12.371709 C202.202425,12.371709 201.858083,12.051963 201.858083,11.7076212 C201.858083,10.8959584 202.448383,10.7237875 202.448383,9.66616628 C202.448383,7.87066975 197.750577,6.93602771 196.102656,6.00138568 L196.102656,6.00138568 C195.512356,6.59168591 195.094226,7.35415704 194.922055,8.21501155 L193.864434,13.6506928 C193.397113,16.0118938 194.946651,18.2993072 197.283256,18.7666282 C199.619861,19.2339492 201.931871,17.6844111 202.399192,15.347806 L202.571363,14.413164 L202.571363,14.413164 C202.669746,14.4377598 202.768129,14.4623557 202.841917,14.4623557 C203.456813,14.4623557 203.924134,13.8966513 203.924134,13.2079677 C203.973326,12.5684758 203.087875,11.437067 203.087875,11.9535797 Z" id="Path" fill="#DE8E68"></path>
                    <path d="M20.6113164,122.954619 C15.6183603,89.5288684 3.39422633,71.9920323 1.84468822,72.6561201 C-0.344341801,73.615358 -0.983833718,92.3819861 2.92690531,111.76351 C3.02528868,111.76351 3.09907621,111.738915 3.19745958,111.738915 C4.32886836,111.738915 5.23891455,112.648961 5.23891455,113.78037 C5.23891455,114.124711 5.16512702,114.444457 5.01755196,114.715012 C5.68163972,115.059353 6.14896074,115.748037 6.14896074,116.535104 C6.14896074,117.518938 5.43568129,118.355196 4.50103926,118.551963 C5.65704388,123.028406 7.10819861,127.455658 8.82990762,131.563164 C9.71535797,131.563164 19.6520785,131.563164 19.6520785,131.563164 C19.6520785,131.563164 21.3491917,127.824596 20.6113164,122.954619 Z" id="Path" fill="#6FC9CE"></path>
                    <path d="M49.5114319,87.5120092 C46.4861432,87.5120092 43.2394919,96.2189376 39.6484988,96.2189376 C38.8614319,96.2189376 38.3449192,95.3580831 38.3449192,94.5464203 C38.3449192,93.7593533 40.8290993,85.1016166 40.8290993,80.8957275 C40.8290993,80.5267898 40.8045035,80.1332564 40.7553118,79.7397229 C40.3617783,79.9856813 39.8698614,80.1332564 39.3779446,80.1332564 C37.902194,80.1332564 36.6969977,78.92806 36.6969977,77.4523095 C36.6969977,76.1487298 37.6070439,75.0911085 38.836836,74.8205543 C37.582448,73.2218245 35.7377598,72.0904157 33.2289838,72.0904157 C30.0561201,72.0904157 25.5796767,74.9189376 25.5796767,79.2969977 C25.5796767,80.5267898 25.9486143,83.6504619 25.9486143,86.4789838 C25.9486143,102.515473 13.3801386,104.925866 13.3801386,122.684065 C13.3801386,126.422633 15.4461894,130.530139 16.0610855,131.538568 C16.0610855,131.538568 26.5881062,131.661547 27.5965358,131.661547 C28.6049654,131.661547 36.7953811,117.986259 37.7300231,116.535104 C41.2964203,111.025635 53.1516166,104.975058 53.1516166,91.8162818 C53.1516166,89.9715935 52.4875289,87.5120092 49.5114319,87.5120092 Z" id="Path" fill="#74D5DE"></path>
                </g>
            </g>
        </g>
    </g>
</svg>