<?xml version="1.0" encoding="UTF-8"?>
<svg width="57px" height="58px" viewBox="0 0 57 58" version="1.1" xmlns="http://www.w3.org/2000/svg" xmlns:xlink="http://www.w3.org/1999/xlink">
    <!-- Generator: sketchtool 63 (101010) - https://sketch.com -->
    <title>2198579E-28A7-4145-9C82-9BC50A68DF99</title>
    <desc>Created with sketchtool.</desc>
    <defs>
        <polygon id="path-1" points="0 6.17021277e-05 56.7659574 6.17021277e-05 56.7659574 57.6853191 0 57.6853191"></polygon>
    </defs>
    <g id="Design-System" stroke="none" stroke-width="1" fill="none" fill-rule="evenodd">
        <g id="Icons" transform="translate(-155.000000, -718.000000)">
            <g id="Group-3" transform="translate(155.000000, 718.000000)">
                <mask id="mask-2" fill="white">
                    <use xlink:href="#path-1"></use>
                </mask>
                <g id="Clip-2"></g>
                <path d="M28.3829787,22.7372957 C26.5528936,22.7372957 25.0695745,21.2539766 25.0695745,19.4238915 C25.0695745,17.5938064 26.5528936,16.1104872 28.3829787,16.1104872 C30.2130638,16.1104872 31.696383,17.5938064 31.696383,19.4238915 C31.696383,21.2539766 30.2130638,22.7372957 28.3829787,22.7372957 L28.3829787,22.7372957 Z M28.3829787,32.344317 L28.7778723,32.344317 C29.6299787,32.344317 30.3204255,31.6538702 30.3204255,30.8017638 C30.3204255,29.9496574 29.6299787,29.2592106 28.7778723,29.2592106 L28.3829787,29.2592106 C22.9513404,29.2592106 18.5476596,24.8555298 18.5476596,19.4238915 C18.5476596,13.9922532 22.9513404,9.58857234 28.3829787,9.58857234 C33.815234,9.58857234 38.2182979,13.9922532 38.2182979,19.4238915 L38.2182979,22.0585723 C38.1615319,23.0075511 37.3458298,23.7307 36.3968511,23.673934 C35.5274681,23.6221043 34.8333191,22.9279553 34.7814894,22.0585723 L34.7814894,19.4238915 C34.8043191,15.8797213 31.9499787,12.9883596 28.4064255,12.9655298 C24.8622553,12.942083 21.9708936,15.7964234 21.9474468,19.3405936 C21.924617,22.8841468 24.7789574,25.7755085 28.3225106,25.7989553 C29.7681915,25.8082106 31.173766,25.3294021 32.3134043,24.4402745 C33.6079149,26.7541043 36.5325957,27.5809128 38.8464255,26.2864021 C40.3760213,25.4318277 41.3175957,23.8109128 41.3035624,22.0585723 L41.3035624,19.4238915 C41.3035624,12.2880404 35.5182128,6.50346596 28.3829787,6.50346596 C21.2471277,6.50346596 15.4625532,12.2880404 15.4625532,19.4238915 C15.4625532,26.5597426 21.2471277,32.344317 28.3829787,32.344317 L28.3829787,32.344317 Z M8.44702128,26.0630404 L4.07851064,22.977934 L8.44702128,19.2758064 L8.44702128,26.0630404 Z M12.7661702,3.0913383 L44.3082979,3.0913383 C44.9901064,3.0913383 45.5423404,3.64357234 45.5423404,4.32538085 L45.5423404,28.2287851 L28.537234,40.2668702 L11.5382979,28.2287851 L11.5382979,4.31921064 C11.542,3.6423383 12.0892979,3.09504043 12.7661702,3.0913383 L12.7661702,3.0913383 Z M52.8170213,23.0951681 L48.6212766,26.0630404 L48.6212766,19.5411255 L52.8170213,23.0951681 Z M51.3176596,54.6002745 L5.44212766,54.6002745 C4.13897872,54.5965723 3.08510638,53.5396149 3.08510638,52.237083 L3.08510638,26.0445298 L20.6702128,38.4836787 L8.18787234,48.0351681 C7.50668085,48.5466787 7.36785106,49.512934 7.8793617,50.1947426 C8.39087234,50.875934 9.35774468,51.0147638 10.0389362,50.5032532 L23.3110638,40.347083 L27.6302128,43.4321894 C28.1645532,43.8104234 28.8790638,43.8104234 29.4134043,43.4321894 L33.7325532,40.347083 L47.0108511,50.4847426 C47.6926596,50.9956362 48.6589149,50.8580404 49.1704255,50.1762319 C49.6819362,49.4950404 49.5437234,48.5275511 48.8619149,48.0166574 L36.4042553,38.4836787 L53.6808511,26.2666574 L53.6808511,52.2432532 C53.6771489,53.543317 52.6238936,54.5965723 51.3238298,54.6002745 L51.3176596,54.6002745 Z M5.44212766,57.6853809 L51.3238298,57.6853809 C54.3305745,57.6816787 56.7659574,55.2438277 56.7659574,52.237083 L56.7659574,23.1013383 C56.7653404,22.6465936 56.5648085,22.2152957 56.2168085,21.9228277 L48.6212766,15.5058064 L48.6212766,4.31921064 C48.6212766,1.93380638 46.6875319,6.17021277e-05 44.3021277,6.17021277e-05 L12.7661702,6.17021277e-05 C10.380766,6.17021277e-05 8.44702128,1.93380638 8.44702128,4.31921064 L8.44702128,15.2713383 L0.549148936,21.9228277 C0.201148936,22.2152957 0.000617021277,22.6465936 0,23.1013383 L0,52.237083 C0,55.2438277 2.43538298,57.6816787 5.44212766,57.6853809 L5.44212766,57.6853809 Z" id="Fill-1" fill="#000000" mask="url(#mask-2)"></path>
            </g>
        </g>
    </g>
</svg>