<?xml version="1.0" encoding="UTF-8"?>
<svg width="64px" height="64px" viewBox="0 0 64 64" version="1.1" xmlns="http://www.w3.org/2000/svg" xmlns:xlink="http://www.w3.org/1999/xlink">
    <!-- Generator: sketchtool 63 (101010) - https://sketch.com -->
    <title>985523D4-2846-4B37-AB33-B87C16BF3840</title>
    <desc>Created with sketchtool.</desc>
    <g id="Design-System" stroke="none" stroke-width="1" fill="none" fill-rule="evenodd">
        <g id="Icons" transform="translate(-157.000000, -568.000000)" fill="#020303">
            <path d="M158.602987,630.401991 L219.401991,630.401991 L219.401991,627.723709 L158.602987,627.723709 L158.602987,630.401991 Z M160.624144,608.53267 L172.790915,608.53267 L172.790915,609.598009 C172.790915,610.04107 173.149347,610.399502 173.592408,610.399502 L175.051027,610.399502 L175.051027,626.1257 L160.624144,626.1257 L160.624144,608.53267 Z M158.602987,603.668948 L171.143124,599.651525 L206.856876,599.651525 L219.397013,603.668948 L219.397013,606.934661 L205.209085,606.934661 L205.209085,606.526447 C205.209085,606.143124 204.940261,605.81954 204.566895,605.739888 L189.154325,602.668326 C189.05476,602.643435 188.94524,602.643435 188.845675,602.668326 L173.433105,605.739888 C173.059739,605.81954 172.790915,606.143124 172.790915,606.526447 L172.790915,606.934661 L158.602987,606.934661 L158.602987,603.668948 Z M176.967642,598.053516 L201.037337,598.053516 L201.037337,589.894213 L176.967642,589.894213 L176.967642,598.053516 Z M187.416926,576.81145 L190.583074,576.81145 C196.975109,576.81145 202.182327,581.943995 202.321717,588.296204 L175.678283,588.296204 C175.817673,581.943995 181.024891,576.81145 187.416926,576.81145 L187.416926,576.81145 Z M194.346609,626.120722 L201.594897,626.120722 L201.594897,610.399502 L194.346609,610.399502 L194.346609,626.120722 Z M185.500311,626.120722 L192.7486,626.120722 L192.7486,610.399502 L185.500311,610.399502 L185.500311,626.120722 Z M176.654014,626.1257 L183.902302,626.1257 L183.902302,610.40448 L176.654014,610.40448 L176.654014,626.1257 Z M174.388923,608.801493 L174.388923,607.183572 L189,604.266335 L203.611077,607.183572 L203.611077,608.801493 L174.388923,608.801493 Z M217.624767,626.1257 L203.192906,626.1257 L203.192906,610.399502 L204.407592,610.399502 C204.850653,610.399502 205.209085,610.04107 205.209085,609.598009 L205.209085,608.53267 L217.624767,608.53267 L217.624767,626.1257 Z M189.801493,572.893591 L195.924704,572.893591 L195.924704,570.170504 L189.801493,570.170504 L189.801493,572.893591 Z M157.801493,632 L220.198507,632 C220.641568,632 221,631.641568 221,631.198507 L221,626.922215 C221,626.479154 220.641568,626.1257 220.198507,626.1257 L219.222775,626.1257 L219.222775,608.53267 L220.198507,608.53267 C220.641568,608.53267 221,608.174238 221,607.731176 L221,603.086497 C221,602.733043 220.77598,602.429371 220.442439,602.319851 L207.230243,598.093342 C207.150591,598.068451 207.065961,598.053516 206.98631,598.053516 L202.635345,598.053516 L202.635345,589.894213 L203.123211,589.894213 C203.566273,589.894213 203.924704,589.535781 203.924704,589.092719 L203.924704,588.555072 C203.924704,581.197262 197.940884,575.213441 190.583074,575.213441 L189.801493,575.213441 L189.801493,574.496577 L196.726198,574.496577 C197.164281,574.496577 197.522713,574.133167 197.522713,573.695084 L197.522713,569.369011 C197.522713,568.930927 197.164281,568.572495 196.726198,568.572495 L189.751711,568.572495 C189.652147,568.243933 189.358432,568 189,568 C188.556938,568 188.198507,568.358432 188.198507,568.801493 L188.198507,575.213441 L187.416926,575.213441 C180.059116,575.213441 174.075296,581.197262 174.075296,588.555072 L174.075296,589.092719 C174.075296,589.535781 174.433727,589.894213 174.876789,589.894213 L175.364655,589.894213 L175.364655,598.053516 L171.01369,598.053516 C170.934039,598.053516 170.849409,598.068451 170.769757,598.093342 L157.557561,602.319851 C157.22402,602.429371 157,602.733043 157,603.086497 L157,607.731176 C157,608.174238 157.358432,608.53267 157.801493,608.53267 L159.026136,608.53267 L159.026136,626.1257 L157.801493,626.1257 C157.358432,626.1257 157,626.479154 157,626.922215 L157,631.198507 C157,631.641568 157.358432,632 157.801493,632 L157.801493,632 Z" id="Fill-1"></path>
        </g>
    </g>
</svg>