<?xml version="1.0" encoding="UTF-8"?>
<svg width="58px" height="58px" viewBox="0 0 58 58">
    <g stroke="none" stroke-width="1" fill="none" fill-rule="evenodd">
        <g transform="translate(-276.000000, -718.000000)" fill="#000000">
            <g transform="translate(276.000000, 718.000000)">
                <path d="M39.4282828,47.8646465 L55.4808081,47.8646465 L55.4808081,45.6969697 L39.4282828,45.6969697 L39.4282828,47.8646465 Z M37.0848485,55.6565657 L20.8565657,55.6565657 L20.8565657,39.4868687 L37.0262626,39.4868687 L37.0262626,43.3535354 L37.0262626,50.2080808 L37.0262626,55.6565657 L37.0848485,55.6565657 Z M2.34343434,50.6767677 L2.34343434,34.5070707 L18.5131313,34.5070707 L18.5131313,37.1434343 L18.5131313,50.6767677 L2.34343434,50.6767677 Z M9.37373737,2.34343434 L39.2525253,2.34343434 L39.2525253,7.32323232 C36.8505051,8.84646465 35.2686869,11.5414141 35.2686869,14.6464646 C35.2686869,17.6929293 36.8505051,20.3878788 39.2525253,21.969697 C39.1939394,30.4060606 37.4363636,31.9292929 36.2646465,32.9252525 L36.030303,33.1010101 C35.3858586,33.6868687 33.6868687,35.4444444 33.0424242,37.1434343 L20.8565657,37.1434343 L20.8565657,32.1636364 L9.37373737,32.1636364 L9.37373737,2.34343434 Z M50.2666667,14.6464646 C50.2666667,18.1616162 47.3959596,20.9737374 43.9393939,20.9737374 C40.4828283,20.9737374 37.6121212,18.1616162 37.6121212,14.6464646 C37.6121212,11.1313131 40.4242424,8.31919192 43.9393939,8.31919192 C47.4545455,8.31919192 50.2666667,11.1313131 50.2666667,14.6464646 L50.2666667,14.6464646 Z M50.2666667,34.8585859 C52.4929293,36.7919192 53.5474747,39.779798 53.3717172,43.3535354 L39.4282828,43.3535354 L39.4282828,37.1434343 L35.6787879,37.1434343 C36.1474747,36.3818182 36.9090909,35.4444444 37.6121212,34.8585859 L37.8464646,34.6828283 C39.2525253,33.4525253 41.3616162,31.6363636 41.5959596,23.0242424 C42.3575758,23.2585859 43.1191919,23.3757576 43.9393939,23.3757576 C44.759596,23.3757576 45.579798,23.2585859 46.2828283,23.0242424 C46.5757576,31.5777778 48.8606061,33.6282828 50.2666667,34.8585859 L50.2666667,34.8585859 Z M57.8242424,43.3535354 L55.7737374,43.3535354 C55.9494949,39.1353535 54.6020202,35.5030303 51.8484848,33.1010101 C50.6767677,32.1050505 48.7434343,30.4060606 48.6848485,21.969697 C51.0868687,20.4464646 52.6686869,17.7515152 52.6686869,14.6464646 C52.6686869,9.84242424 48.7434343,5.97575758 43.9979798,5.97575758 C43.1777778,5.97575758 42.4161616,6.09292929 41.6545455,6.32727273 L41.6545455,0 L7.03030303,0 L7.03030303,32.1636364 L0,32.1636364 L0,53.020202 L18.5131313,53.020202 L18.5131313,58 L39.369697,58 L39.369697,50.2080808 L57.7656566,50.2080808 L57.8242424,43.3535354 Z" id="Fill-1"></path>
                <polygon id="Fill-3" points="33.0426586 21.5594202 24.3133657 9.31497576 15.5840727 21.5594202 24.3133657 33.8038646"></polygon>
                <path d="M7.08894747,37.1436101 C6.03440202,37.1436101 5.2142,37.9632263 5.2142,39.0177717 C5.2142,40.072903 6.03440202,40.8925192 7.08894747,40.8925192 C8.14349293,40.8925192 8.96369495,40.072903 8.96369495,39.0177717 C8.96369495,37.9632263 8.14349293,37.1436101 7.08894747,37.1436101" id="Fill-4"></path>
                <path d="M14.0606061,37.1436101 C13.0060606,37.1436101 12.1858586,37.9632263 12.1858586,39.0177717 C12.1858586,40.072903 13.0060606,40.8925192 14.0606061,40.8925192 C15.1151515,40.8925192 15.9353535,40.072903 15.9353535,39.0177717 C15.9353535,37.9632263 15.0565657,37.1436101 14.0606061,37.1436101" id="Fill-5"></path>
                <path d="M7.08894747,44.0566242 C6.03440202,44.0566242 5.2142,44.8762404 5.2142,45.9313717 C5.2142,46.9859172 6.03440202,47.8055333 7.08894747,47.8055333 C8.14349293,47.8055333 8.96369495,46.9859172 8.96369495,45.9313717 C8.96369495,44.9354121 8.14349293,44.0566242 7.08894747,44.0566242" id="Fill-6"></path>
                <path d="M14.0606061,44.0566242 C13.0060606,44.0566242 12.1858586,44.8762404 12.1858586,45.9313717 C12.1858586,46.9859172 13.0060606,47.8055333 14.0606061,47.8055333 C15.1151515,47.8055333 15.9353535,46.9859172 15.9353535,45.9313717 C15.9353535,44.9354121 15.0565657,44.0566242 14.0606061,44.0566242" id="Fill-7"></path>
                <path d="M26.187996,42.8259697 C25.1920364,42.8259697 24.4304202,43.5881717 24.4304202,44.5835455 C24.4304202,45.5795051 25.1920364,46.3411212 26.187996,46.3411212 C27.1839556,46.3411212 27.9455717,45.5795051 27.9455717,44.5835455 C27.9455717,43.5881717 27.1253697,42.8259697 26.187996,42.8259697" id="Fill-8"></path>
                <path d="M31.9292929,48.626204 C30.9333333,48.626204 30.1717172,49.3878202 30.1717172,50.3837798 C30.1717172,51.3797394 30.9333333,52.1413556 31.9292929,52.1413556 C32.9252525,52.1413556 33.6868687,51.3797394 33.6868687,50.3837798 C33.6868687,49.3878202 32.9252525,48.626204 31.9292929,48.626204" id="Fill-9"></path>
            </g>
        </g>
    </g>
</svg>