<?xml version="1.0" encoding="UTF-8"?>
<svg width="60px" height="61px" viewBox="0 0 60 61" version="1.1" xmlns="http://www.w3.org/2000/svg" xmlns:xlink="http://www.w3.org/1999/xlink">
    <!-- Generator: sketchtool 63 (101010) - https://sketch.com -->
    <title>7D771C17-5F92-4213-AC6A-BDE92789D9D9</title>
    <desc>Created with sketchtool.</desc>
    <g id="Design-System" stroke="none" stroke-width="1" fill="none" fill-rule="evenodd">
        <g id="Icons" transform="translate(-496.000000, -409.000000)" fill="#020303">
            <g id="Group-34" transform="translate(496.000000, 409.000000)">
                <polygon id="Fill-1" points="12.762 31.456 14.762 31.456 14.762 29.456 12.762 29.456"></polygon>
                <polygon id="Fill-2" points="46.762 31.456 48.762 31.456 48.762 29.456 46.762 29.456"></polygon>
                <g id="Group-33">
                    <path d="M17.7615,2.4561 L43.7615,2.4561 C45.4185,2.4561 46.7615,3.7991 46.7615,5.4561 L46.7615,8.4561 L14.7615,8.4561 L14.7615,5.4561 C14.7615,3.7991 16.1055,2.4561 17.7615,2.4561 L17.7615,2.4561 Z M14.7615,10.4561 L48.7615,10.4561 L48.7615,5.4561 C48.7585,2.6961 46.5215,0.4591 43.7615,0.4561 L17.7615,0.4561 C15.0015,0.4591 12.7655,2.6961 12.7615,5.4561 L12.7615,11.4561 L14.7615,11.4561 L14.7615,10.4561 Z" id="Fill-3"></path>
                    <path d="M31.7615,54.4561 L29.7615,54.4561 C29.2095,54.4561 28.7615,54.9041 28.7615,55.4561 C28.7615,56.0081 29.2095,56.4561 29.7615,56.4561 L31.7615,56.4561 C32.3145,56.4561 32.7615,56.0081 32.7615,55.4561 C32.7615,54.9041 32.3145,54.4561 31.7615,54.4561" id="Fill-5"></path>
                    <path d="M43.7615,58.4561 L17.7615,58.4561 C16.1055,58.4561 14.7615,57.1131 14.7615,55.4561 L14.7615,52.4561 L46.7615,52.4561 L46.7615,55.4561 C46.7615,57.1131 45.4185,58.4561 43.7615,58.4561 L43.7615,58.4561 Z M14.7615,50.4561 L14.7615,49.4561 L12.7615,49.4561 L12.7615,55.4561 C12.7655,58.2161 15.0015,60.4531 17.7615,60.4561 L43.7615,60.4561 C46.5215,60.4531 48.7585,58.2161 48.7615,55.4561 L48.7615,50.4561 L14.7615,50.4561 Z" id="Fill-7"></path>
                    <path d="M18.7615,6.4561 L20.7615,6.4561 C21.3145,6.4561 21.7615,6.0081 21.7615,5.4561 C21.7615,4.9041 21.3145,4.4561 20.7615,4.4561 L18.7615,4.4561 C18.2095,4.4561 17.7615,4.9041 17.7615,5.4561 C17.7615,6.0081 18.2095,6.4561 18.7615,6.4561" id="Fill-9"></path>
                    <path d="M24.7615,6.4561 L30.7615,6.4561 C31.3145,6.4561 31.7615,6.0081 31.7615,5.4561 C31.7615,4.9041 31.3145,4.4561 30.7615,4.4561 L24.7615,4.4561 C24.2095,4.4561 23.7615,4.9041 23.7615,5.4561 C23.7615,6.0081 24.2095,6.4561 24.7615,6.4561" id="Fill-11"></path>
                    <path d="M38.7615,30.4561 C38.7615,34.8741 35.1795,38.4561 30.7615,38.4561 C26.3435,38.4561 22.7615,34.8741 22.7615,30.4561 C22.7615,26.0381 26.3435,22.4561 30.7615,22.4561 C35.1775,22.4611 38.7565,26.0401 38.7615,30.4561 M20.7615,30.4561 C20.7615,35.9791 25.2395,40.4561 30.7615,40.4561 C36.2845,40.4561 40.7615,35.9791 40.7615,30.4561 C40.7615,24.9331 36.2845,20.4561 30.7615,20.4561 C25.2405,20.4621 20.7675,24.9351 20.7615,30.4561" id="Fill-13"></path>
                    <path d="M28.7615,26.4561 L28.7615,28.4561 L27.7615,28.4561 C27.2095,28.4561 26.7615,28.9041 26.7615,29.4561 C26.7615,30.0081 27.2095,30.4561 27.7615,30.4561 L28.7615,30.4561 L28.7615,36.4561 C28.7615,37.0081 29.2095,37.4561 29.7615,37.4561 C30.3145,37.4561 30.7615,37.0081 30.7615,36.4561 L30.7615,30.4561 L31.7615,30.4561 C32.3145,30.4561 32.7615,30.0081 32.7615,29.4561 C32.7615,28.9041 32.3145,28.4561 31.7615,28.4561 L30.7615,28.4561 L30.7615,26.4561 C30.7615,25.9041 31.2095,25.4561 31.7615,25.4561 C32.3145,25.4561 32.7615,25.9041 32.7615,26.4561 C32.7615,27.0081 33.2095,27.4561 33.7615,27.4561 C34.3145,27.4561 34.7615,27.0081 34.7615,26.4561 C34.7615,24.7991 33.4185,23.4561 31.7615,23.4561 C30.1055,23.4561 28.7615,24.7991 28.7615,26.4561" id="Fill-15"></path>
                    <path d="M47.7615,18.4561 L52.7615,18.4561 C53.3145,18.4561 53.7615,18.9041 53.7615,19.4561 C53.7615,20.0081 53.3145,20.4561 52.7615,20.4561 L51.7615,20.4561 C51.2095,20.4561 50.7615,20.9041 50.7615,21.4561 C50.7615,22.0081 51.2095,22.4561 51.7615,22.4561 L52.7615,22.4561 C54.4185,22.4561 55.7615,21.1131 55.7615,19.4561 C55.7615,17.7991 54.4185,16.4561 52.7615,16.4561 L47.7615,16.4561 C47.2095,16.4561 46.7615,16.9041 46.7615,17.4561 C46.7615,18.0081 47.2095,18.4561 47.7615,18.4561" id="Fill-17"></path>
                    <path d="M49.7615,18.4561 C49.2095,18.4561 48.7615,18.9041 48.7615,19.4561 L48.7615,25.4561 C48.7615,26.0081 49.2095,26.4561 49.7615,26.4561 C50.3145,26.4561 50.7615,26.0081 50.7615,25.4561 L50.7615,19.4561 C50.7615,18.9041 50.3145,18.4561 49.7615,18.4561" id="Fill-19"></path>
                    <path d="M50.7615,13.4561 C54.6275,13.4561 57.7615,16.5901 57.7615,20.4561 C57.7615,24.3221 54.6275,27.4561 50.7615,27.4561 C46.8955,27.4561 43.7615,24.3221 43.7615,20.4561 C43.7665,16.5921 46.8975,13.4611 50.7615,13.4561 M41.7615,20.4561 C41.7615,25.4271 45.7905,29.4561 50.7615,29.4561 C55.7325,29.4561 59.7615,25.4271 59.7615,20.4561 C59.7615,15.4851 55.7325,11.4561 50.7615,11.4561 C45.7935,11.4611 41.7675,15.4881 41.7615,20.4561" id="Fill-21"></path>
                    <path d="M50.7615,47.4561 C46.8955,47.4561 43.7615,44.3221 43.7615,40.4561 C43.7615,36.5901 46.8955,33.4561 50.7615,33.4561 C54.6275,33.4561 57.7615,36.5901 57.7615,40.4561 C57.7565,44.3201 54.6255,47.4511 50.7615,47.4561 M50.7615,31.4561 C45.7905,31.4561 41.7615,35.4851 41.7615,40.4561 C41.7615,45.4271 45.7905,49.4561 50.7615,49.4561 C55.7325,49.4561 59.7615,45.4271 59.7615,40.4561 C59.7555,35.4881 55.7305,31.4611 50.7615,31.4561" id="Fill-23"></path>
                    <path d="M50.7615,42.375 L50.7615,38.537 L53.1615,40.456 L50.7615,42.375 Z M50.3865,35.675 C49.9555,35.33 49.3255,35.399 48.9815,35.831 C48.8385,36.008 48.7615,36.229 48.7615,36.456 L48.7615,44.456 C48.7615,45.008 49.2085,45.456 49.7615,45.457 C49.9895,45.457 50.2085,45.379 50.3865,45.237 L55.3865,41.237 C55.8185,40.892 55.8885,40.263 55.5425,39.832 C55.4965,39.774 55.4445,39.721 55.3865,39.675 L50.3865,35.675 Z" id="Fill-25"></path>
                    <path d="M5.7615,14.4561 L15.7615,14.4561 C16.3145,14.4561 16.7615,14.9041 16.7615,15.4561 L16.7615,18.4561 L13.5775,18.4561 C13.0355,16.9011 11.3355,16.0791 9.7815,16.6211 C8.9205,16.9201 8.2445,17.5961 7.9465,18.4561 L4.7615,18.4561 L4.7615,15.4561 C4.7615,14.9041 5.2095,14.4561 5.7615,14.4561 M9.7615,19.4561 C9.7615,18.9041 10.2095,18.4561 10.7615,18.4561 C11.3145,18.4561 11.7615,18.9041 11.7615,19.4561 C11.7615,20.0081 11.3145,20.4561 10.7615,20.4561 C10.2095,20.4561 9.7615,20.0081 9.7615,19.4561 M15.7615,26.4561 L5.7615,26.4561 C5.2095,26.4561 4.7615,26.0081 4.7615,25.4561 L4.7615,20.4561 L7.9465,20.4561 C8.4875,22.0111 10.1875,22.8331 11.7425,22.2911 C12.6025,21.9921 13.2785,21.3161 13.5775,20.4561 L16.7615,20.4561 L16.7615,25.4561 C16.7615,26.0081 16.3145,26.4561 15.7615,26.4561 M5.7615,28.4561 L15.7615,28.4561 C17.4185,28.4561 18.7615,27.1131 18.7615,25.4561 L18.7615,15.4561 C18.7615,13.7991 17.4185,12.4561 15.7615,12.4561 L5.7615,12.4561 C4.1055,12.4561 2.7615,13.7991 2.7615,15.4561 L2.7615,25.4561 C2.7615,27.1131 4.1055,28.4561 5.7615,28.4561" id="Fill-27"></path>
                    <path d="M12.7615,39.4561 C13.3145,39.4561 13.7615,39.0081 13.7615,38.4561 C13.7615,37.9041 13.3145,37.4561 12.7615,37.4561 L9.7615,37.4561 L9.7615,35.4561 C9.7615,34.9041 9.3145,34.4561 8.7615,34.4561 C8.2095,34.4561 7.7615,34.9041 7.7615,35.4561 L7.7615,37.4561 L6.7615,37.4561 C6.2095,37.4561 5.7615,37.9041 5.7615,38.4561 C5.7615,39.0081 6.2095,39.4561 6.7615,39.4561 L7.7615,39.4561 L7.7615,43.4561 C7.7615,45.1131 9.1055,46.4561 10.7615,46.4561 C12.4185,46.4561 13.7615,45.1131 13.7615,43.4561 C13.7615,42.9041 13.3145,42.4561 12.7615,42.4561 C12.2095,42.4561 11.7615,42.9041 11.7615,43.4561 C11.7615,44.0081 11.3145,44.4561 10.7615,44.4561 C10.2095,44.4561 9.7615,44.0081 9.7615,43.4561 L9.7615,39.4561 L12.7615,39.4561 Z" id="Fill-29"></path>
                    <path d="M9.7615,47.4561 C5.8955,47.4561 2.7615,44.3221 2.7615,40.4561 C2.7615,36.5901 5.8955,33.4561 9.7615,33.4561 C13.6275,33.4561 16.7615,36.5901 16.7615,40.4561 C16.7565,44.3201 13.6255,47.4511 9.7615,47.4561 M18.7615,40.4561 C18.7615,35.4851 14.7325,31.4561 9.7615,31.4561 C4.7905,31.4561 0.7615,35.4851 0.7615,40.4561 C0.7615,45.4271 4.7905,49.4561 9.7615,49.4561 C14.7305,49.4511 18.7555,45.4241 18.7615,40.4561" id="Fill-31"></path>
                </g>
            </g>
        </g>
    </g>
</svg>