<?xml version="1.0" encoding="UTF-8"?>
<svg width="64px" height="63px" viewBox="0 0 64 63" version="1.1" xmlns="http://www.w3.org/2000/svg" xmlns:xlink="http://www.w3.org/1999/xlink">
    <!-- Generator: sketchtool 63 (101010) - https://sketch.com -->
    <title>4D21D719-131A-4259-BAEA-28FE3E2F8736</title>
    <desc>Created with sketchtool.</desc>
    <defs>
        <polygon id="path-1" points="0 0.602488889 12.1230629 0.602488889 12.1230629 12.3891556 0 12.3891556"></polygon>
        <polygon id="path-3" points="0.112274286 0.602488889 12.2349714 0.602488889 12.2349714 12.3891556 0.112274286 12.3891556"></polygon>
        <polygon id="path-5" points="0.0559542857 0.549333333 12.1793829 0.549333333 12.1793829 12.3354667 0.0559542857 12.3354667"></polygon>
        <polygon id="path-7" points="0.0559542857 0.658133333 12.1793829 0.658133333 12.1793829 12.4444444 0.0559542857 12.4444444"></polygon>
    </defs>
    <g id="Design-System" stroke="none" stroke-width="1" fill="none" fill-rule="evenodd">
        <g id="Icons" transform="translate(-385.000000, -249.000000)">
            <g id="Group-31" transform="translate(385.000000, 248.000000)">
                <g id="Group-3" transform="translate(0.000000, 26.117689)">
                    <mask id="mask-2" fill="white">
                        <use xlink:href="#path-1"></use>
                    </mask>
                    <g id="Clip-2"></g>
                    <path d="M6.06134857,3.20693333 C4.22912,3.20693333 2.67849143,4.64693333 2.67849143,6.4976 C2.67849143,8.27893333 4.15780571,9.78471111 6.06134857,9.78471111 C7.96489143,9.78471111 9.44420571,8.34826667 9.44420571,6.4976 C9.44420571,4.71626667 7.89357714,3.20693333 6.06134857,3.20693333 M6.06134857,12.3891556 C2.74797714,12.3891556 -0.000365714286,9.71715556 -0.000365714286,6.4976 C-0.000365714286,3.27626667 2.74797714,0.602488889 6.06134857,0.602488889 C9.37472,0.602488889 12.1230629,3.27626667 12.1230629,6.4976 C12.1230629,9.71715556 9.37472,12.3891556 6.06134857,12.3891556" id="Fill-1" fill="#010202" mask="url(#mask-2)"></path>
                </g>
                <g id="Group-6" transform="translate(51.200000, 26.117689)">
                    <mask id="mask-4" fill="white">
                        <use xlink:href="#path-3"></use>
                    </mask>
                    <g id="Clip-5"></g>
                    <path d="M6.17398857,3.20693333 C4.34176,3.20693333 2.79113143,4.64693333 2.79113143,6.4976 C2.79113143,8.27893333 4.27044571,9.78471111 6.17398857,9.78471111 C8.07753143,9.78471111 9.55684571,8.34826667 9.55684571,6.4976 C9.55684571,4.71626667 8.00621714,3.20693333 6.17398857,3.20693333 M6.17398857,12.3891556 C2.86061714,12.3891556 0.112274286,9.71715556 0.112274286,6.4976 C0.112274286,3.27626667 2.86061714,0.602488889 6.17398857,0.602488889 C9.48736,0.602488889 12.2357029,3.27626667 12.2357029,6.4976 C12.2357029,9.71715556 9.48736,12.3891556 6.17398857,12.3891556" id="Fill-4" fill="#010202" mask="url(#mask-4)"></path>
                </g>
                <g id="Group-9" transform="translate(25.600000, 1.228800)">
                    <mask id="mask-6" fill="white">
                        <use xlink:href="#path-5"></use>
                    </mask>
                    <g id="Clip-8"></g>
                    <path d="M6.11766857,3.15324444 C4.28544,3.15324444 2.73481143,4.59324444 2.73481143,6.44213333 C2.73481143,8.22524444 4.21412571,9.73102222 6.11766857,9.73102222 C7.94989714,9.73102222 9.50052571,8.2928 9.50052571,6.44213333 C9.50052571,4.6608 7.94989714,3.15324444 6.11766857,3.15324444 M6.11766857,12.3354667 C2.80429714,12.3354667 0.0559542857,9.66346667 0.0559542857,6.44213333 C0.0559542857,3.2208 2.80429714,0.5488 6.11766857,0.5488 C9.43104,0.5488 12.1793829,3.2208 12.1793829,6.44213333 C12.1793829,9.66346667 9.43104,12.3354667 6.11766857,12.3354667" id="Fill-7" fill="#010202" mask="url(#mask-6)"></path>
                </g>
                <path d="M31.7176686,29.3246222 C29.88544,29.3246222 28.3348114,30.7646222 28.3348114,32.6152889 C28.3348114,34.3966222 29.8141257,35.9024 31.7176686,35.9024 C33.5498971,35.9024 35.1005257,34.4659556 35.1005257,32.6152889 C35.1005257,30.8339556 33.5498971,29.3246222 31.7176686,29.3246222 M31.7176686,38.5068444 C28.4042971,38.5068444 25.6559543,35.8348444 25.6559543,32.6152889 C25.6559543,29.3939556 28.4042971,26.7201778 31.7176686,26.7201778 C35.03104,26.7201778 37.7793829,29.3939556 37.7793829,32.6152889 C37.7793829,35.8348444 35.03104,38.5068444 31.7176686,38.5068444" id="Fill-10" fill="#010202"></path>
                <g id="Group-14" transform="translate(25.600000, 51.006578)">
                    <mask id="mask-8" fill="white">
                        <use xlink:href="#path-7"></use>
                    </mask>
                    <g id="Clip-13"></g>
                    <path d="M6.11766857,3.26257778 C4.28544,3.26257778 2.73481143,4.70257778 2.73481143,6.55146667 C2.73481143,8.33457778 4.21412571,9.84035556 6.11766857,9.84035556 C7.94989714,9.84035556 9.50052571,8.40213333 9.50052571,6.55146667 C9.50052571,4.77013333 7.94989714,3.26257778 6.11766857,3.26257778 M6.11766857,12.4448 C2.80429714,12.4448 0.0559542857,9.77102222 0.0559542857,6.55146667 C0.0559542857,3.33013333 2.80429714,0.658133333 6.11766857,0.658133333 C9.43104,0.658133333 12.1793829,3.33013333 12.1793829,6.55146667 C12.1793829,9.77102222 9.43104,12.4448 6.11766857,12.4448" id="Fill-12" fill="#010202" mask="url(#mask-8)"></path>
                </g>
                <path d="M22.90688,52.0069333 C22.5557943,52.0069333 22.20288,51.8700444 21.9194514,51.5962667 L12.05248,42.0016 C11.5587657,41.5233778 11.5587657,40.6327111 12.05248,40.1527111 C12.5461943,39.6727111 13.4623086,39.6727111 13.9560229,40.1527111 L23.8229943,49.7473778 C24.3167086,50.2256 24.3167086,51.1162667 23.8229943,51.5962667 C23.6127086,51.9393778 23.2597943,52.0069333 22.90688,52.0069333" id="Fill-15" fill="#010202"></path>
                <path d="M40.5284571,52.0069333 C40.1755429,52.0069333 39.8226286,51.8700444 39.5410286,51.5962667 C39.0473143,51.1162667 39.0473143,50.2256 39.5410286,49.7473778 L49.2690286,40.2896 C49.7609143,39.8096 50.6770286,39.8096 51.1707429,40.2896 C51.6644571,40.7696 51.6644571,41.6602667 51.1707429,42.1384889 L41.4445714,51.6656 C41.2324571,51.9393778 40.8795429,52.0069333 40.5284571,52.0069333" id="Fill-17" fill="#010202"></path>
                <path d="M50.32576,25.3507556 C49.9728457,25.3507556 49.6199314,25.2138667 49.3383314,24.9400889 L39.47136,15.3454222 C38.9776457,14.8672 38.9776457,13.9765333 39.47136,13.4947556 C39.9632457,13.0165333 40.87936,13.0165333 41.3730743,13.4947556 L51.2418743,23.0894222 C51.7355886,23.5694222 51.7355886,24.4600889 51.2418743,24.9400889 C51.02976,25.2138667 50.6768457,25.3507556 50.32576,25.3507556" id="Fill-19" fill="#010202"></path>
                <path d="M13.1095771,25.3507556 C12.7584914,25.3507556 12.4055771,25.2138667 12.1221486,24.9400889 C11.6302629,24.4600889 11.6302629,23.5694222 12.1221486,23.0894222 L21.9909486,13.4947556 C22.4846629,13.0165333 23.4007771,13.0165333 23.8926629,13.4947556 C24.3863771,13.9765333 24.3863771,14.8672 23.8926629,15.3454222 L14.0256914,24.9400889 C13.7440914,25.2138667 13.4624914,25.3507556 13.1095771,25.3507556" id="Fill-21" fill="#010202"></path>
                <path d="M22.3434971,33.9166222 L15.4351543,33.9166222 C14.65984,33.9166222 14.09664,33.2997333 14.09664,32.6152889 C14.09664,31.9290667 14.7311543,31.3121778 15.4351543,31.3121778 L22.3434971,31.3121778 C23.1188114,31.3121778 23.6820114,31.9290667 23.6820114,32.6152889 C23.6820114,33.2997333 23.0474971,33.9166222 22.3434971,33.9166222" id="Fill-23" fill="#010202"></path>
                <path d="M47.9998171,33.9166222 L41.0914743,33.9166222 C40.31616,33.9166222 39.75296,33.2997333 39.75296,32.6152889 C39.75296,31.9290667 40.3874743,31.3121778 41.0914743,31.3121778 L47.9998171,31.3121778 C48.7751314,31.3121778 49.3383314,31.9290667 49.3383314,32.6152889 C49.3383314,33.2997333 48.7751314,33.9166222 47.9998171,33.9166222" id="Fill-25" fill="#010202"></path>
                <path d="M31.7176686,49.7464889 C30.9423543,49.7464889 30.3791543,49.1278222 30.3791543,48.4451556 L30.3791543,41.7269333 C30.3791543,40.9731556 31.0136686,40.4273778 31.7176686,40.4273778 C32.4216686,40.4273778 33.0561829,41.0424889 33.0561829,41.7269333 L33.0561829,48.4451556 C33.0561829,49.1971556 32.4216686,49.7464889 31.7176686,49.7464889" id="Fill-27" fill="#010202"></path>
                <path d="M31.7176686,24.8021333 C30.9423543,24.8021333 30.3791543,24.1852444 30.3791543,23.5008 L30.3791543,16.7843556 C30.3791543,16.0305778 31.0136686,15.4830222 31.7176686,15.4830222 C32.4216686,15.4830222 33.0561829,16.0981333 33.0561829,16.7843556 L33.0561829,23.5008 C33.0561829,24.1852444 32.4216686,24.8021333 31.7176686,24.8021333" id="Fill-29" fill="#010202"></path>
            </g>
        </g>
    </g>
</svg>