<?xml version="1.0" encoding="UTF-8"?>
<svg width="62px" height="58px" viewBox="0 0 62 58" version="1.1" xmlns="http://www.w3.org/2000/svg" xmlns:xlink="http://www.w3.org/1999/xlink">
    <!-- Generator: sketchtool 63 (101010) - https://sketch.com -->
    <title>A03A33D3-6043-4690-996D-DBFE1345520A</title>
    <desc>Created with sketchtool.</desc>
    <defs>
        <polygon id="path-1" points="0 57.9799467 61.9562667 57.9799467 61.9562667 0.000213333333 0 0.000213333333"></polygon>
    </defs>
    <g id="Design-System" stroke="none" stroke-width="1" fill="none" fill-rule="evenodd">
        <g id="Icons" transform="translate(-693.000000, -250.000000)">
            <g id="Group-12" transform="translate(693.000000, 250.000000)">
                <path d="M36.6133333,18.99264 L23.9797333,18.99264 L23.9797333,10.9969067 L36.6133333,10.9969067 L41.4133333,14.9947733 L36.6133333,18.99264 Z M37.616,9.22837333 C37.4368,9.07904 37.2085333,8.99584 36.976,8.99584 L22.9792,8.99584 C22.4288,8.99584 21.9829333,9.44384 21.9829333,9.99637333 L21.9829333,19.9931733 C21.9829333,20.5457067 22.4288,20.9915733 22.9792,20.9915733 L36.976,20.9915733 C37.2085333,20.9915733 37.4368,20.9105067 37.616,20.7611733 L43.6128,15.7627733 C43.8432,15.5707733 43.9733333,15.29344 43.9733333,14.9947733 C43.9733333,14.69824 43.8432,14.41664 43.6128,14.2289067 L37.616,9.22837333 Z" id="Fill-1" fill="#010202"></path>
                <mask id="mask-2" fill="white">
                    <use xlink:href="#path-1"></use>
                </mask>
                <g id="Clip-4"></g>
                <polygon id="Fill-3" fill="#010202" mask="url(#mask-2)" points="34.976 15.9938133 36.9749333 15.9938133 36.9749333 13.99488 34.976 13.99488"></polygon>
                <path d="M36.976,49.3531733 L36.976,36.98624 L37.9765333,36.98624 C40.7328,36.98624 42.9749333,34.7441067 42.9749333,31.98784 L42.9749333,22.9937067 C42.9749333,22.4411733 42.5269333,21.9931733 41.9744,21.9931733 L37.9765333,21.9931733 C37.424,21.9931733 36.976,22.4411733 36.976,22.9937067 L36.976,30.98944 L34.9514667,30.98944 C35.5872,30.15104 35.9754667,29.12064 35.9754667,27.9899733 C35.9754667,25.2337067 33.7333333,22.9937067 30.9770667,22.9937067 C28.2208,22.9937067 25.9808,25.2337067 25.9808,27.9899733 C25.9808,29.12064 26.3690667,30.15104 27.0048,30.98944 L24.9802667,30.98944 L24.9802667,22.9937067 C24.9802667,22.4411733 24.5322667,21.9931733 23.9797333,21.9931733 L19.9818667,21.9931733 C19.4293333,21.9931733 18.9813333,22.4411733 18.9813333,22.9937067 L18.9813333,31.98784 C18.9813333,34.7441067 21.2234667,36.98624 23.9797333,36.98624 L24.9802667,36.98624 L24.9802667,49.3531733 L6.7296,30.5179733 C0.414933333,24.00064 0.414933333,13.3979733 6.7296,6.88064 C9.77813333,3.73184 13.8293333,1.99957333 18.1386667,1.99957333 C22.4458667,1.99957333 26.4970667,3.73184 29.5477333,6.87850667 L30.2602667,7.61664 C30.6357333,8.00490667 31.3226667,8.00490667 31.696,7.61664 L32.4085333,6.87850667 C35.4592,3.73184 39.5082667,1.99957333 43.8176,1.99957333 C48.1269333,1.99957333 52.176,3.73184 55.2266667,6.87850667 C61.5413333,13.3979733 61.5413333,24.00064 55.2266667,30.5179733 L36.976,49.3531733 Z M27.9797333,27.9899733 C27.9797333,26.33664 29.3237333,24.9905067 30.9770667,24.9905067 C32.6325333,24.9905067 33.9786667,26.33664 33.9786667,27.9899733 C33.9786667,29.64544 32.6325333,30.98944 30.9770667,30.98944 C29.3237333,30.98944 27.9797333,29.64544 27.9797333,27.9899733 L27.9797333,27.9899733 Z M25.9808,34.98944 L23.9797333,34.98944 C22.3285333,34.98944 20.9824,33.6433067 20.9824,31.98784 L20.9824,23.9921067 L22.9792,23.9921067 L22.9792,30.98944 C22.9792,32.0923733 23.8773333,32.9883733 24.9802667,32.9883733 L36.976,32.9883733 C38.0789333,32.9883733 38.9749333,32.0923733 38.9749333,30.98944 L38.9749333,23.9921067 L40.9738667,23.9921067 L40.9738667,31.98784 C40.9738667,33.6433067 39.6298667,34.98944 37.9765333,34.98944 L35.9754667,34.98944 C35.4229333,34.98944 34.9770667,35.43744 34.9770667,35.98784 L34.9770667,51.41824 L31.9776,54.5115733 L31.9776,42.9851733 L29.9786667,42.9851733 L29.9786667,54.5115733 L26.9792,51.41824 L26.9792,35.98784 C26.9792,35.43744 26.5312,34.98944 25.9808,34.98944 L25.9808,34.98944 Z M56.6624,5.48757333 C53.2341333,1.94837333 48.6709333,0.00064 43.8176,0.00064 C38.9664,0.00064 34.4074667,1.94624 30.9770667,5.48330667 C27.5488,1.94624 22.9898667,0.00064 18.1386667,0.00064 C13.2853333,0.00064 8.72213333,1.94837333 5.29386667,5.48757333 C-1.7632,12.7729067 -1.7632,24.6257067 5.29386667,31.9089067 L30.2624,57.6753067 C30.448,57.86944 30.7082667,57.9803733 30.9770667,57.9803733 C31.248,57.9803733 31.5082667,57.86944 31.696,57.6753067 L56.6624,31.9089067 C63.7216,24.6257067 63.7216,12.7729067 56.6624,5.48757333 L56.6624,5.48757333 Z" id="Fill-5" fill="#010202" mask="url(#mask-2)"></path>
                <polygon id="Fill-6" fill="#010202" mask="url(#mask-2)" points="44.2656 9.29066667 47.2650667 6.2912 48.6794667 7.7056 45.68 10.7029333"></polygon>
                <polygon id="Fill-7" fill="#010202" mask="url(#mask-2)" points="44.2656 20.7010133 45.68 19.2866133 48.6773333 22.28608 47.2650667 23.6983467"></polygon>
                <polygon id="Fill-8" fill="#010202" mask="url(#mask-2)" points="46.9717333 15.9938133 50.9717333 15.9938133 50.9717333 13.99488 46.9717333 13.99488"></polygon>
                <polygon id="Fill-9" fill="#010202" mask="url(#mask-2)" points="13.27808 7.70517333 14.6903467 6.29077333 17.6898133 9.29024 16.2754133 10.7025067"></polygon>
                <polygon id="Fill-10" fill="#010202" mask="url(#mask-2)" points="13.27808 22.2843733 16.2754133 19.28704 17.6898133 20.6993067 14.6903467 23.6987733"></polygon>
                <polygon id="Fill-11" fill="#010202" mask="url(#mask-2)" points="10.9845333 15.9938133 14.9845333 15.9938133 14.9845333 13.99488 10.9845333 13.99488"></polygon>
            </g>
        </g>
    </g>
</svg>