<?xml version="1.0" encoding="UTF-8"?>
<svg width="60px" height="60px" viewBox="0 0 60 60" version="1.1" xmlns="http://www.w3.org/2000/svg" xmlns:xlink="http://www.w3.org/1999/xlink">
    <!-- Generator: sketchtool 63 (101010) - https://sketch.com -->
    <title>B7051303-8FDF-4054-9D57-79F1BB238963</title>
    <desc>Created with sketchtool.</desc>
    <defs>
        <polygon id="path-1" points="0 -0.001 60 -0.001 60 60 0 60"></polygon>
    </defs>
    <g id="Design-System" stroke="none" stroke-width="1" fill="none" fill-rule="evenodd">
        <g id="Icons" transform="translate(-385.000000, -410.000000)">
            <g id="Group-8" transform="translate(385.000000, 410.000000)">
                <path d="M39.0002,39.3596 L39.0002,39.0006 C38.9892,35.1386 35.8622,32.0116 32.0002,32.0006 L28.0002,32.0006 C24.1392,32.0116 21.0112,35.1386 21.0002,39.0006 L21.0002,39.3596 C15.8192,34.3886 15.6492,26.1596 20.6202,20.9786 C25.5902,15.7976 33.8192,15.6276 39.0002,20.5976 C44.1812,25.5676 44.3522,33.7976 39.3812,38.9786 C39.2572,39.1086 39.1302,39.2346 39.0002,39.3596 L39.0002,39.3596 Z M28.5212,34.0006 L31.4792,34.0006 L30.0002,37.4576 L28.5212,34.0006 Z M23.0001808,40.9376 L23.0001808,39.0006 C22.9942,36.8346 24.3922,34.9156 26.4552,34.2566 L29.0812,40.3946 C29.2992,40.9016 29.8872,41.1366 30.3952,40.9196 C30.6302,40.8176 30.8182,40.6306 30.9192,40.3946 L33.5442,34.2566 C35.6082,34.9146 37.0062,36.8346 37.0002192,39.0006 L37.0002192,40.9376 C32.7392,43.6886 27.2622,43.6886 23.0001808,40.9376 L23.0001808,40.9376 Z M45.0002,30.0006 C45.0002,21.7156 38.2852,15.0006 30.0002,15.0006 C21.7162,15.0006 15.0002,21.7156 15.0002,30.0006 C15.0002,38.2846 21.7162,45.0006 30.0002,45.0006 C38.2812,44.9906 44.9912,38.2806 45.0002,30.0006 L45.0002,30.0006 Z" id="Fill-1" fill="#020303"></path>
                <path d="M30.0002,30.0002 C28.3432,30.0002 27.0002,28.6572 27.0002,27.0002 L27.0002,26.0002 C27.2662,26.0002 27.5202,25.8952 27.7072,25.7072 L28.1972,25.2172 L29.5532,25.8952 C29.6922,25.9642 29.8452,26.0002 30.0002,26.0002 L33.0002,26.0002 L33.0002,27.0002 C33.0002,28.6572 31.6572,30.0002 30.0002,30.0002 M29.0002,21.0002 L31.0002,21.0002 C32.6572,21.0002 34.0002,22.3432 34.0002,24.0002 L30.2362,24.0002 L28.4472,23.1052 C28.0622,22.9132 27.5972,22.9892 27.2932,23.2932 L26.5862,24.0002 L26.0002,24.0002 C26.0002,22.3432 27.3432,21.0002 29.0002,21.0002 M35.0002,27.0002 L35.0002,26.0002 C35.5532,26.0002 36.0002,25.5522 36.0002,25.0002 L36.0002,24.0002 C35.9972,21.2402 33.7602,19.0032 31.0002,19.0002 L29.0002,19.0002 C26.2402,19.0032 24.0032,21.2402 24.0002,24.0002 L24.0002,25.0002 C24.0002,25.5522 24.4482,26.0002 25.0002,26.0002 L25.0002,27.0002 C25.0002,29.7622 27.2392,32.0002 30.0002,32.0002 C32.7622,32.0002 35.0002,29.7622 35.0002,27.0002" id="Fill-3" fill="#020303"></path>
                <g id="Group-7" transform="translate(0.000000, 0.000800)">
                    <mask id="mask-2" fill="white">
                        <use xlink:href="#path-1"></use>
                    </mask>
                    <g id="Clip-6"></g>
                    <path d="M49.8005,49.7997 C49.0095,50.5557 47.7635,50.5557 46.9725,49.7997 C46.1915,49.0187 46.1915,47.7527 46.9715,46.9707 C47.7535,46.1897 49.0195,46.1897 49.8005,46.9707 C50.5815,47.7517 50.5815,49.0177 49.8005,49.7997 C49.8005,49.7997 49.8005,49.7997 49.8005,49.7997 L49.8005,49.7997 Z M30.0005,51.9997 C28.2985,52.0047 26.7855,53.0887 26.2345,54.6997 C22.2375,54.0977 18.4495,52.5267 15.2005,50.1217 C15.9595,48.5957 15.6535,46.7547 14.4415,45.5567 C13.2205,44.3957 11.4135,44.1007 9.8865,44.8117 C7.4775,41.5597 5.9025,37.7677 5.3005,33.7657 C7.3805,33.0627 8.4965,30.8077 7.7945,28.7277 C7.3975,27.5527 6.4755,26.6307 5.3005,26.2337 C5.9015,22.2367 7.4735,18.4477 9.8785,15.1997 C11.8455,16.1717 14.2285,15.3647 15.2005,13.3977 C15.7485,12.2887 15.7485,10.9867 15.2005,9.8777 C18.4495,7.4727 22.2375,5.9017 26.2345,5.2997 C26.9365,7.3797 29.1925,8.4957 31.2725,7.7937 C32.4475,7.3967 33.3695,6.4747 33.7665,5.2997 C37.7635,5.9007 41.5515,7.4727 44.8005,9.8777 C43.8305,11.8467 44.6415,14.2297 46.6115,15.1997 C47.7175,15.7447 49.0155,15.7447 50.1225,15.1997 C52.5275,18.4477 54.0995,22.2367 54.7005,26.2337 C52.6205,26.9357 51.5045,29.1917 52.2065,31.2717 C52.6035,32.4457 53.5255,33.3687 54.7005,33.7657 C54.0965,37.7677 52.5195,41.5607 50.1085,44.8117 C48.5815,44.1007 46.7755,44.3967 45.5545,45.5567 C44.3425,46.7557 44.0365,48.5947 44.7945,50.1217 C41.5475,52.5257 37.7615,54.0977 33.7665,54.6997 C33.2155,53.0887 31.7035,52.0047 30.0005,51.9997 L30.0005,51.9997 Z M30.0005,57.9997 C28.8955,57.9997 28.0005,57.1047 28.0005,55.9997 C28.0005,54.8947 28.8955,53.9997 30.0005,53.9997 C31.1055,53.9997 32.0005,54.8947 32.0005,55.9997 C32.0005,57.1047 31.1055,57.9997 30.0005,57.9997 L30.0005,57.9997 Z M10.2005,49.7997 C9.4195,49.0187 9.4195,47.7527 10.1995,46.9707 C10.9815,46.1897 12.2475,46.1897 13.0285,46.9707 C13.8095,47.7517 13.8095,49.0177 13.0295,49.7997 C13.0285,49.7997 13.0285,49.7997 13.0285,49.7997 C12.2375,50.5557 10.9915,50.5557 10.2005,49.7997 L10.2005,49.7997 Z M2.0005,29.9997 C2.0005,28.8947 2.8955,27.9997 4.0005,27.9997 C5.1055,27.9997 6.0005,28.8947 6.0005,29.9997 C6.0005,31.1047 5.1055,31.9997 4.0005,31.9997 C2.8955,31.9997 2.0005,31.1047 2.0005,29.9997 L2.0005,29.9997 Z M10.2005,10.1997 C10.9675,9.4047 12.2345,9.3827 13.0285,10.1507 C13.8225,10.9177 13.8445,12.1837 13.0775,12.9787 C13.0615,12.9947 13.0455,13.0117 13.0285,13.0277 C12.2375,13.7837 10.9915,13.7837 10.2005,13.0277 C9.4195,12.2467 9.4195,10.9807 10.2005,10.1997 L10.2005,10.1997 Z M30.0005,1.9997 C31.1055,1.9997 32.0005,2.8947 32.0005,3.9997 C32.0005,5.1047 31.1055,5.9997 30.0005,5.9997 C28.8955,5.9997 28.0005,5.1047 28.0005,3.9997 C28.0005,2.8947 28.8955,1.9997 30.0005,1.9997 L30.0005,1.9997 Z M48.3855,9.61469916 C49.4895,9.6137 50.3855,10.5097 50.3855,11.6137 C50.3855,12.1447 50.1755,12.6537 49.8005,13.0287 C49.0095,13.7847 47.7635,13.7847 46.9725,13.0287 C46.1915,12.2477 46.1915,10.9817 46.9725,10.1997 C47.3475,9.8247 47.8565,9.61469916 48.3865,9.61469916 L48.3855,9.61469916 Z M58.0005,29.9997 C58.0005,31.1047 57.1055,31.9997 56.0005,31.9997 C54.8955,31.9997 54.0005,31.1047 54.0005,29.9997 C54.0005,28.8947 54.8955,27.9997 56.0005,27.9997 C57.1055,27.9997 58.0005,28.8947 58.0005,29.9997 L58.0005,29.9997 Z M60.0005,29.9997 C59.9955,28.0637 58.6065,26.4087 56.7005,26.0707 C56.0585,21.6587 54.3235,17.4787 51.6535,13.9087 C52.7775,12.3227 52.5915,10.1577 51.2145,8.7867 C49.8215,7.4617 47.6945,7.2807 46.0975,8.3517 C42.5265,5.6787 38.3435,3.9417 33.9295,3.2997 C33.5485,1.1297 31.4815,-0.3213 29.3115,0.0597 C27.6565,0.3497 26.3615,1.6457 26.0715,3.2997 C21.6565,3.9417 17.4725,5.6777 13.9005,8.3517 C12.3035,7.2807 10.1765,7.4617 8.7835,8.7867 C7.4055,10.1577 7.2205,12.3237 8.3445,13.9097 C5.6755,17.4787 3.9415,21.6597 3.3005,26.0707 C1.1305,26.4507 -0.3205,28.5187 0.0605,30.6887 C0.3505,32.3427 1.6465,33.6387 3.3005,33.9287 C3.9425,38.3397 5.6775,42.5207 8.3485,46.0897 C7.0755,47.8887 7.5025,50.3787 9.3015,51.6517 C10.6825,52.6277 12.5285,52.6277 13.9095,51.6517 C17.4795,54.3217 21.6595,56.0577 26.0715,56.6997 C26.4515,58.8697 28.5195,60.3207 30.6895,59.9397 C32.3435,59.6497 33.6395,58.3537 33.9295,56.6997 C38.3415,56.0577 42.5215,54.3227 46.0915,51.6527 C47.8885,52.9257 50.3785,52.5017 51.6525,50.7037 C52.6315,49.3227 52.6315,47.4727 51.6525,46.0917 C54.3235,42.5217 56.0585,38.3407 56.7005,33.9287 C58.6065,33.5897 59.9955,31.9347 60.0005,29.9997 L60.0005,29.9997 Z" id="Fill-5" fill="#020303" mask="url(#mask-2)"></path>
                </g>
            </g>
        </g>
    </g>
</svg>