<?xml version="1.0" encoding="UTF-8"?>
<svg width="60px" height="60px" viewBox="0 0 60 60" version="1.1" xmlns="http://www.w3.org/2000/svg" xmlns:xlink="http://www.w3.org/1999/xlink">
    <!-- Generator: sketchtool 63 (101010) - https://sketch.com -->
    <title>F529E16F-BC98-4DF9-A6B7-B4D0918DC155</title>
    <desc>Created with sketchtool.</desc>
    <defs>
        <polygon id="path-1" points="0 60.0319 60.016 60.0319 60.016 -0.0001 0 -0.0001"></polygon>
    </defs>
    <g id="Design-System" stroke="none" stroke-width="1" fill="none" fill-rule="evenodd">
        <g id="Icons" transform="translate(-593.000000, -409.000000)">
            <g id="Group-14" transform="translate(593.000000, 409.000000)">
                <path d="M37.0160431,43.0159 L31.016,43.0159 L31.016,37.2159 L33.561,31.2669 C35.625,31.9259 37.025,33.8489 37.0160431,36.0159 L37.0160431,43.0159 Z M23.0159808,36.0159 C23.01,33.8499 24.408,31.9309 26.471,31.2719 L29.016,37.2209 L29.016,43.0159 L23.0159808,43.0159 L23.0159808,36.0159 Z M31.495,31.0159 L30.016,34.4729 L28.537,31.0159 L31.495,31.0159 Z M33.135,29.1089 C32.765,29.0479 32.391,29.0159 32.016,29.0159 L28.016,29.0159 C24.155,29.0269 21.027,32.1549 21.016,36.0159 L21.016,43.0159 C21.016,44.1199 21.912,45.0159 23.016,45.0159 L37.016,45.0159 C38.12,45.0159 39.0160586,44.1199 39.0160586,43.0159 L39.0160586,36.0159 C39.03,32.5779 36.532,29.6439 33.135,29.1089 L33.135,29.1089 Z" id="Fill-1" fill="#020303"></path>
                <mask id="mask-2" fill="white">
                    <use xlink:href="#path-1"></use>
                </mask>
                <g id="Clip-4"></g>
                <polygon id="Fill-3" fill="#020303" mask="url(#mask-2)" points="33.016 37.0159 35.016 37.0159 35.016 35.0159 33.016 35.0159"></polygon>
                <path d="M30.016,27.0159 C28.359,27.0159 27.016,25.6729 27.016,24.0159 L27.016,22.0159 C27.282,22.0159 27.536,21.9109 27.723,21.7229 L28.213,21.2329 L29.569,21.9109 C29.707,21.9799 29.861,22.0159 30.016,22.0159 L33.016,22.0159 L33.016,24.0159 C33.016,25.6729 31.673,27.0159 30.016,27.0159 M29.016,17.0159 L31.016,17.0159 C32.673,17.0159 34.016,18.3589 34.016,20.0159 L30.252,20.0159 L28.463,19.1209 C28.078,18.9289 27.613,19.0049 27.309,19.3089 L26.602,20.0159 L26.016,20.0159 C26.016,18.3589 27.359,17.0159 29.016,17.0159 M35.016,24.0159 L35.016,22.0159 C35.568,22.0159 36.016,21.5679 36.016,21.0159 L36.016,20.0159 C36.013,17.2559 33.776,15.0189 31.016,15.0159 L29.016,15.0159 C26.256,15.0189 24.019,17.2559 24.016,20.0159 L24.016,21.0159 C24.016,21.5679 24.463,22.0159 25.016,22.0159 L25.016,24.0159 C25.016,26.7769 27.254,29.0159 30.016,29.0159 C32.778,29.0159 35.016,26.7769 35.016,24.0159" id="Fill-5" fill="#020303" mask="url(#mask-2)"></path>
                <path d="M30.016,2.0159 C31.12,2.0159 32.016,2.9119 32.016,4.0159 C32.016,5.1199 31.12,6.0159 30.016,6.0159 C28.912,6.0159 28.016,5.1199 28.016,4.0159 C28.016,2.9119 28.912,2.0159 30.016,2.0159 M29.016,7.8739 L29.016,13.0159 L31.016,13.0159 L31.016,7.8739 C33.155,7.3219 34.441,5.1399 33.889,3.0009 C33.336,0.8619 31.155,-0.4241 29.016,0.1279 C26.877,0.6809 25.59,2.8619 26.143,5.0009 C26.507,6.4099 27.607,7.5099 29.016,7.8739" id="Fill-6" fill="#020303" mask="url(#mask-2)"></path>
                <path d="M10.2162,13.0447 C9.4352,12.2637 9.4352,10.9977 10.2152,10.2167 C10.9962,9.4357 12.2632,9.4357 13.0442,10.2157 C13.8252,10.9967 13.8252,12.2637 13.0442,13.0447 C12.2522,13.8007 11.0072,13.8007 10.2162,13.0447 M15.6312,11.6307 C15.6342,10.5697 15.2122,9.5507 14.4592,8.8027 C12.8762,7.2907 10.3852,7.2907 8.8032,8.8027 C7.2362,10.3527 7.2222,12.8787 8.7722,14.4457 C10.0622,15.7507 12.0752,16.0067 13.6522,15.0667 L17.2872,18.7027 L18.7012,17.2877 L15.0662,13.6517 C15.4332,13.0417 15.6282,12.3427 15.6312,11.6307" id="Fill-7" fill="#020303" mask="url(#mask-2)"></path>
                <path d="M30.016,58.0159 C28.912,58.0159 28.016,57.1199 28.016,56.0159 C28.016,54.9119 28.912,54.0159 30.016,54.0159 C31.12,54.0159 32.016,54.9119 32.016,56.0159 C32.016,57.1199 31.12,58.0159 30.016,58.0159 M31.016,52.1579 L31.016,47.0159 L29.016,47.0159 L29.016,52.1579 C26.877,52.7099 25.59,54.8919 26.143,57.0309 C26.696,59.1699 28.877,60.4559 31.016,59.9039 C33.155,59.3519 34.441,57.1699 33.889,55.0309 C33.525,53.6219 32.425,52.5219 31.016,52.1579" id="Fill-8" fill="#020303" mask="url(#mask-2)"></path>
                <path d="M49.8158,49.8157 C49.0248,50.5717 47.7788,50.5717 46.9878,49.8157 C46.2068,49.0347 46.2068,47.7687 46.9878,46.9877 C47.7688,46.2067 49.0348,46.2067 49.8158,46.9867 C50.5968,47.7677 50.5968,49.0347 49.8168,49.8157 L49.8158,49.8157 Z M46.3878,44.9737 L42.7438,41.3287 L41.3298,42.7437 L44.9658,46.3797 C43.8518,48.2817 44.4898,50.7267 46.3918,51.8407 C48.2938,52.9557 50.7388,52.3167 51.8528,50.4157 C52.7718,48.8477 52.5148,46.8567 51.2288,45.5727 C49.9218,44.3307 47.9578,44.0877 46.3878,44.9737 L46.3878,44.9737 Z" id="Fill-9" fill="#020303" mask="url(#mask-2)"></path>
                <path d="M56.016,32.0159 C54.912,32.0159 54.016,31.1199 54.016,30.0159 C54.016,28.9119 54.912,28.0159 56.016,28.0159 C57.12,28.0159 58.016,28.9119 58.016,30.0159 C58.016,31.1199 57.12,32.0159 56.016,32.0159 M56.016,26.0158945 C54.198,26.0229 52.613,27.2549 52.158,29.0158945 L47.016,29.0158945 L47.016,31.0158945 L52.158,31.0158945 C52.714,33.1499 54.895,34.4289 57.029,33.8729 C59.162,33.3169 60.442,31.1359 59.886,29.0019 C59.427,27.2409 57.835,26.0129 56.016,26.0158945" id="Fill-10" fill="#020303" mask="url(#mask-2)"></path>
                <path d="M4.016,32.0159 C2.912,32.0159 2.016,31.1199 2.016,30.0159 C2.016,28.9119 2.912,28.0159 4.016,28.0159 C5.12,28.0159 6.016,28.9119 6.016,30.0159 C6.016,31.1199 5.12,32.0159 4.016,32.0159 L4.016,32.0159 Z M13.016,31.0159 L13.016,29.0159 L7.874,29.0159 C7.322,26.8769 5.14,25.5909 3.001,26.1429 C0.862,26.6949 -0.424,28.8769 0.128,31.0159 C0.68,33.1549 2.862,34.4409 5.001,33.8889 C6.41,33.5249 7.51,32.4249 7.874,31.0159 L13.016,31.0159 Z" id="Fill-11" fill="#020303" mask="url(#mask-2)"></path>
                <path d="M13.0453,49.8157 C12.2533,50.5717 11.0083,50.5717 10.2173,49.8157 C9.4363,49.0347 9.4363,47.7687 10.2163,46.9877 C10.9973,46.2067 12.2643,46.2067 13.0453,46.9867 C13.8263,47.7677 13.8263,49.0347 13.0453,49.8157 L13.0453,49.8157 Z M17.2873,41.3287 L13.6443,44.9737 C12.0733,44.0877 10.1083,44.3317 8.8033,45.5737 C7.2233,47.1287 7.2033,49.6697 8.7583,51.2487 C10.3133,52.8287 12.8533,52.8487 14.4333,51.2947 C15.7503,49.9977 16.0113,47.9687 15.0663,46.3807 L18.7013,42.7447 L17.2873,41.3287 Z" id="Fill-12" fill="#020303" mask="url(#mask-2)"></path>
                <path d="M46.9867,10.2161 C47.7677,9.4351 49.0347,9.4351 49.8157,10.2161 C50.5967,10.9971 50.5967,12.2641 49.8157,13.0451 C49.0247,13.8001 47.7787,13.8001 46.9877,13.0451 C46.2077,12.2641 46.2077,10.9981 46.9877,10.2171 L46.9867,10.2161 Z M42.7437,18.7031 L46.3807,15.0671 C48.2787,16.1881 50.7257,15.5581 51.8467,13.6601 C52.7747,12.0901 52.5207,10.0911 51.2287,8.8031 C49.6467,7.2911 47.1547,7.2911 45.5727,8.8031 C44.2777,10.0861 44.0267,12.0891 44.9657,13.6521 L41.3297,17.2881 L42.7437,18.7031 Z" id="Fill-13" fill="#020303" mask="url(#mask-2)"></path>
            </g>
        </g>
    </g>
</svg>