<?xml version="1.0" encoding="UTF-8"?>
<svg width="64px" height="64px" viewBox="0 0 64 64" version="1.1" xmlns="http://www.w3.org/2000/svg" xmlns:xlink="http://www.w3.org/1999/xlink">
    <!-- Generator: sketchtool 63 (101010) - https://sketch.com -->
    <title>25419BA1-89A8-47D0-AA76-88C7DAD9B7DB</title>
    <desc>Created with sketchtool.</desc>
    <g id="Design-System" stroke="none" stroke-width="1" fill="none" fill-rule="evenodd">
        <g id="Icons" transform="translate(-686.000000, -408.000000)" fill="#020303">
            <g id="Group-7" transform="translate(686.000000, 408.000000)">
                <path d="M60.3038476,44.3616 L42.2817524,54.529981 C40.4181333,55.5875048 38.3122286,56.1436952 36.1682286,56.145219 L18.021181,56.145219 L18.021181,42.9749333 C19.5815619,42.0256 24.1148952,39.7109333 28.5446095,41.6583619 C29.861181,42.2404571 30.8318476,42.7250286 31.6912762,43.1547429 C34.9903238,44.8111238 36.1545143,45.2347429 42.2954667,44.5414095 C42.6992762,44.689219 43.0375619,44.9726476 43.252419,45.345981 C43.3987048,45.8320762 43.3499429,46.3577905 43.1137524,46.8073143 C42.0943238,47.5433143 39.3362286,49.0610286 33.9160381,49.0610286 C33.1495619,49.0610286 32.5293714,49.681219 32.5293714,50.4476952 C32.5293714,51.2126476 33.1495619,51.8328381 33.9160381,51.8328381 C40.2383238,51.8328381 43.6196571,49.9143619 44.9438476,48.8949333 L58.757181,42.2191238 C59.3270857,41.9158857 60.020419,41.9616 60.5461333,42.337981 C60.7686095,42.4888381 60.9270857,42.7158857 60.997181,42.9749333 C61.1053714,43.5402667 60.8219429,44.1086476 60.3038476,44.3616 L60.3038476,44.3616 Z M2.77241905,60.9970286 L15.2493714,60.9970286 L15.2493714,36.7364571 L2.77241905,36.7364571 L2.77241905,60.9970286 Z M63.6790857,42.3989333 C63.4825143,41.5227429 62.9948952,40.737981 62.2939429,40.1741714 C60.9255619,39.1181714 59.0726095,38.9429333 57.5320381,39.7246476 L46.0592762,45.2697905 C46.0105143,44.8903619 45.9053714,44.5216 45.748419,44.1741714 C45.1373714,42.9977905 44.0600381,42.1337905 42.7800381,41.7909333 C42.6139429,41.7589333 42.4417524,41.7589333 42.2741333,41.7909333 C36.404419,42.4827429 35.8009905,42.1566476 32.9103238,40.7014095 C32.0646095,40.2854095 31.0177524,39.7581714 29.6387048,39.1486476 C25.0581333,37.1387429 20.5720381,38.5878857 18.0013714,39.841981 L18.0013714,35.3497905 C18.0013714,34.5848381 17.381181,33.9646476 16.6147048,33.9646476 L1.38575238,33.9646476 C0.6208,33.9646476 0.00060952381,34.5848381 0.00060952381,35.3497905 L0.00060952381,62.3836952 C0.00060952381,63.1486476 0.6208,63.7688381 1.38575238,63.7688381 L16.6360381,63.7688381 C17.4009905,63.7688381 18.021181,63.1486476 18.021181,62.3836952 L18.021181,58.9170286 L36.1682286,58.9170286 C38.7968,58.9216 41.381181,58.241981 43.668419,56.9497905 L61.6905143,46.7676952 C63.2326095,45.8991238 64.0356571,44.1330286 63.6790857,42.3989333 L63.6790857,42.3989333 Z" id="Fill-1"></path>
                <path d="M37.5896381,21.3697524 C35.7595429,21.5236571 33.9995429,20.629181 33.0425905,19.061181 L30.7279238,20.5865143 C31.7961143,22.244419 33.4448762,23.4467048 35.3511619,23.9556571 L35.3511619,26.340419 L38.1229714,26.340419 L38.1229714,24.0867048 C40.2791619,23.7194667 42.6639238,22.180419 42.9336381,19.9907048 C43.3770667,16.3305143 40.286781,15.4009905 39.2673524,15.0901333 C38.2479238,14.7777524 37.5759238,14.6116571 36.8963048,14.4379429 C35.0936381,13.9808 34.5526857,13.8147048 34.0757333,13.1701333 C33.8319238,12.8470857 33.7404952,12.4356571 33.8258286,12.0394667 C33.9446857,11.5152762 34.2799238,11.0657524 34.7477333,10.7990857 C35.5934476,10.4272762 36.5458286,10.372419 37.4311619,10.6467048 C38.6319238,10.9286095 39.6711619,11.6768 40.3203048,12.7267048 L42.7324952,11.3400381 C41.7145905,9.63794286 40.0566857,8.41432381 38.1290667,7.94346667 L38.1290667,5.54499048 L35.3511619,5.54499048 L35.3511619,7.76975238 C34.6349714,7.84441905 33.9431619,8.06841905 33.3199238,8.4280381 C32.1831619,9.09699048 31.3785905,10.2108952 31.1012571,11.4985143 C30.8665905,12.6596571 31.1363048,13.8634667 31.8433524,14.8128 C32.9237333,16.2817524 34.3043048,16.6352762 36.2029714,17.1274667 C36.8551619,17.2935619 37.5896381,17.4809905 38.4704,17.7446095 C40.0704,18.229181 40.2989714,18.645181 40.1755429,19.6508952 C40.0917333,20.3366095 38.8163048,21.1823238 37.5896381,21.3697524" id="Fill-3"></path>
                <path d="M36.7369143,2.77226667 C44.0100571,2.77226667 49.9072,8.66940952 49.9072,15.9425524 C49.9072,23.2156952 44.0100571,29.1128381 36.7369143,29.1128381 C29.4637714,29.1128381 23.5666286,23.2156952 23.5666286,15.9425524 C23.5666286,8.66940952 29.4637714,2.77226667 36.7369143,2.77226667 M36.7369143,31.8846476 C45.5414857,31.8846476 52.6790095,24.7471238 52.6790095,15.9425524 C52.6790095,7.13798095 45.5414857,0.000457142857 36.7369143,0.000457142857 C27.9323429,0.000457142857 20.794819,7.13798095 20.794819,15.9425524 C20.794819,24.7471238 27.9323429,31.8846476 36.7369143,31.8846476" id="Fill-5"></path>
            </g>
        </g>
    </g>
</svg>