<?xml version="1.0" encoding="UTF-8"?>
<svg width="63px" height="53px" viewBox="0 0 63 53" version="1.1" xmlns="http://www.w3.org/2000/svg" xmlns:xlink="http://www.w3.org/1999/xlink">
    <!-- Generator: sketchtool 63 (101010) - https://sketch.com -->
    <title>455924EA-2397-4803-9A59-E9AAA2C1AAB5</title>
    <desc>Created with sketchtool.</desc>
    <defs>
        <polygon id="path-1" points="1.48433563 1.23539394 28.0199738 1.23539394 28.0199738 37.6137697 1.48433563 37.6137697"></polygon>
        <polygon id="path-3" points="1.17286246 1.91551882 34.6050583 1.91551882 34.6050583 38.7878788 1.17286246 38.7878788"></polygon>
    </defs>
    <g id="Design-System" stroke="none" stroke-width="1" fill="none" fill-rule="evenodd">
        <g id="Icons" transform="translate(-492.000000, -253.000000)">
            <g id="Group-9" transform="translate(492.000000, 252.000000)">
                <path d="M9.13629091,12.7544242 L9.13435152,12.7544242 C8.41289697,10.8654545 9.13435152,6.05381818 10.5093818,5.37309091 C10.9438061,5.15975758 11.420897,5.04727273 11.9038061,5.04727273 C11.9561697,5.04727273 12.0065939,5.04921212 12.0589576,5.05115152 L17.3690182,5.216 C17.5939879,5.22763636 17.8112,5.23345455 18.0225939,5.23345455 C19.6400485,5.24315152 21.2361697,4.85527273 22.6693818,4.10278788 C22.8400485,4 23.0301091,3.93212121 23.2298667,3.90690909 C23.3539879,3.9030303 23.4664727,3.98060606 23.5072,4.0969697 C23.6953212,4.62060606 23.8485333,5.152 23.9687758,5.69309091 C24.3430788,7.26206061 24.9016242,10.2467879 24.3430788,12.1939394 L21.5387152,9.81430303 C21.1896242,9.51951515 20.7493818,9.35660606 20.2916848,9.35660606 C19.9561697,9.35660606 19.6245333,9.44387879 19.3316848,9.60872727 C17.6463515,10.5764848 15.5867152,10.6307879 13.852897,9.75030303 C13.596897,9.62618182 13.3156848,9.56024242 13.0305939,9.56024242 C12.4875636,9.56218182 11.9697455,9.7910303 11.6032,10.1924848 C10.588897,11.2901818 9.21968485,12.7544242 9.13629091,12.7544242 M9.96829091,24.9609697 L8.4982303,24.9609697 C4.38089697,24.918303 0.911321212,28.0252121 0.500169697,32.1212121 L0.00562424242,37.2412121 C-0.0467393939,37.782303 0.34889697,38.2613333 0.889987879,38.3156364 C0.921018182,38.3195152 0.952048485,38.3195152 0.983078788,38.3195152 C1.48926061,38.3195152 1.91204848,37.9335758 1.96053333,37.4312727 L2.45701818,32.3112727 C2.7712,29.2606061 5.34089697,26.9352727 8.40901818,26.9313939 C8.85895758,29.92 12.3440485,32.1755152 16.7154424,32.1755152 C18.185503,32.1852121 19.6419879,31.9059394 21.0053818,31.3551515 C20.7939879,30.7209697 20.6194424,30.0751515 20.4817455,29.4215758 C19.2967758,29.9471515 18.012897,30.2167273 16.7154424,30.2070303 C13.5910788,30.2070303 10.9147152,28.7427879 10.4143515,26.8926061 C11.8863515,26.7355152 13.1508364,25.7735758 13.6958061,24.3966061 C13.7578667,24.2298182 13.8082909,24.0552727 13.8606545,23.8807273 C15.7069576,24.8019394 17.8810182,24.7767273 19.7040485,23.8128485 C19.7622303,22.9110303 19.9018667,22.0150303 20.1210182,21.1384242 C19.1978667,22.0189091 17.9876848,22.5347879 16.7154424,22.5871515 C13.3661091,22.5871515 10.5404121,18.4872727 9.64247273,14.6569697 C10.2320485,14.5115152 10.6567758,14.0693333 11.4441697,13.2412121 C11.8533818,12.8106667 12.3886545,12.2385455 13.0344727,11.5403636 C15.3365333,12.6787879 18.0536242,12.5992727 20.2839273,11.3309091 L23.0727758,13.6930909 C23.3132606,13.8967273 23.5983515,14.0363636 23.9047758,14.1042424 C23.7670788,14.8218182 23.5712,15.5258182 23.3190788,16.2104242 C23.3850182,16.1755152 23.4490182,16.1347879 23.516897,16.1037576 C24.1762909,15.7818182 24.8841697,15.5626667 25.6114424,15.4598788 C25.8034424,14.7306667 25.9372606,13.9878788 26.0090182,13.2373333 C26.1059879,13.0821818 26.1835636,12.9153939 26.2339879,12.7389091 C26.8817455,10.4853333 26.4007758,7.41721212 25.8829576,5.23927273 C25.7433212,4.58569697 25.5532606,3.94181818 25.3108364,3.31927273 C24.9617455,2.47951515 24.137503,1.93454545 23.2298667,1.9403175 C22.7333818,1.95587879 22.2485333,2.08969697 21.8141091,2.32824242 C20.6485333,2.95078788 19.3452606,3.27272727 18.0245333,3.26109091 C17.8422303,3.26109091 17.6579879,3.25915152 17.4640485,3.24945455 L17.4310788,3.24945455 L12.1345939,3.08460606 C12.0570182,3.08072727 11.9813818,3.07878788 11.9038061,3.08072727 C11.1183515,3.08072727 10.3445333,3.25915152 9.63859394,3.60824242 C6.93507879,4.94448485 6.40174545,11.1078788 7.29580606,13.4526061 C7.3481697,13.5844848 7.4121697,13.7066667 7.49168485,13.8249697 C7.92998788,16.9570909 9.60174545,20.6089697 12.1307152,22.7442424 C12.0667152,23.0661818 11.9755636,23.382303 11.8611394,23.6926061 C11.5508364,24.4644848 10.7983515,24.9687273 9.96829091,24.9609697" id="Fill-1" fill="#010202"></path>
                <g id="Group-5" transform="translate(34.909091, 0.704582)">
                    <mask id="mask-2" fill="white">
                        <use xlink:href="#path-1"></use>
                    </mask>
                    <g id="Clip-4"></g>
                    <path d="M16.1268364,9.11049697 C15.7796848,8.81570909 15.337503,8.6528 14.8798061,8.6528 C14.5442909,8.6528 14.2145939,8.74007273 13.9217455,8.90492121 C12.2364121,9.87267879 10.1748364,9.92698182 8.44101818,9.04649697 C8.18501818,8.92043636 7.90380606,8.85449697 7.61871515,8.85449697 C7.07568485,8.85643636 6.55980606,9.08528485 6.19326061,9.48673939 C5.17701818,10.5863758 3.80780606,12.0506182 3.72441212,12.0506182 L3.72247273,12.0506182 C3.00101818,10.1616485 3.72247273,5.35001212 5.09750303,4.66928485 C5.53192727,4.45595152 6.00901818,4.34346667 6.49192727,4.34346667 C6.54429091,4.34346667 6.59471515,4.34540606 6.64707879,4.34734545 L11.9571394,4.51219394 C12.1821091,4.5238303 12.3993212,4.52964848 12.6107152,4.52964848 C14.2281697,4.53934545 15.8242909,4.14952727 17.257503,3.39898182 C17.4281697,3.29619394 17.6201697,3.22831515 17.8179879,3.20116364 C17.9421091,3.19728485 18.0545939,3.27486061 18.0953212,3.39316364 C18.2834424,3.91486061 18.4366545,4.44819394 18.556897,4.98928485 C18.9312,6.55825455 19.4916848,9.54298182 18.9312,11.4901333 L16.1268364,9.11049697 Z M19.6080485,26.2256485 C22.6761697,26.2314667 25.2458667,28.5529212 25.5600485,31.6074667 L26.0565333,36.7255273 C26.1050182,37.2297697 26.5278061,37.6137697 27.0359273,37.6137697 C27.0669576,37.6137697 27.0979879,37.6137697 27.1309576,37.6098909 C27.6720485,37.5575273 28.0676848,37.078497 28.0153212,36.5374061 L27.5188364,31.4174061 C27.1076848,27.3214061 23.6381091,24.214497 19.5207758,24.2571636 L18.0526545,24.2571636 C17.2206545,24.2610424 16.4701091,23.7587394 16.1617455,22.9868606 C16.0453818,22.6804364 15.9542303,22.3623758 15.8882909,22.0404364 C18.5801697,19.7713455 20.3004121,15.7839515 20.5990788,12.5315879 C20.6960485,12.3783758 20.7716848,12.2096485 20.8240485,12.035103 C21.4718061,9.77958788 20.9908364,6.71146667 20.4710788,4.53352727 C20.3333818,3.87995152 20.1433212,3.23801212 19.900897,2.61352727 C19.5498667,1.7737697 18.7275636,1.23073939 17.8179879,1.23459754 C17.321503,1.25013333 16.8366545,1.38589091 16.4022303,1.62443636 C15.2366545,2.24698182 13.9333818,2.56892121 12.6126545,2.55728485 C12.4322909,2.55728485 12.2461091,2.55340606 12.0521697,2.54370909 L12.0192,2.54370909 L6.72271515,2.37886061 C6.64707879,2.37498182 6.56950303,2.37304242 6.49192727,2.37498182 C5.70647273,2.37498182 4.93265455,2.55534545 4.22671515,2.90443636 C1.5232,4.23873939 0.989866667,10.4040727 1.88392727,12.7488 C1.93629091,12.8787394 2.0022303,13.0028606 2.07980606,13.1192242 C2.10307879,13.2840727 2.1302303,13.4528 2.16126061,13.6215273 C2.45992727,13.5575273 2.76441212,13.5245576 3.07083636,13.5226182 C3.59253333,13.5245576 4.10841212,13.6234667 4.5952,13.8115879 C5.1382303,13.462497 5.62501818,13.0319515 6.0361697,12.5335273 C6.44538182,12.1029818 6.98065455,11.5308606 7.62647273,10.8326788 C9.92659394,11.971103 12.6417455,11.8935273 14.8720485,10.6251636 L17.660897,12.9892848 C17.9013818,13.1909818 18.1864727,13.3325576 18.492897,13.4004364 C17.7501091,17.3781333 14.8138667,21.8833455 11.3035636,21.8833455 C10.1108364,21.8387394 8.97241212,21.3810424 8.0822303,20.5878303 C8.21798788,21.4275879 8.30526061,22.275103 8.34210909,23.1245576 C10.1612606,24.0729212 12.3236848,24.0923152 14.1564121,23.1769212 C14.2087758,23.3514667 14.2592,23.5260121 14.3232,23.6928 C14.8681697,25.0697697 16.1307152,26.0317091 17.6046545,26.1888 C17.1042909,28.0389818 14.4259879,29.5032242 11.3035636,29.5032242 C10.0061091,29.5129212 8.7222303,29.2433455 7.53532121,28.7158303 C7.39762424,29.3694061 7.22307879,30.0152242 7.01168485,30.6474667 C8.37507879,31.2021333 9.83350303,31.4794667 11.3035636,31.4697697 C15.6749576,31.4697697 19.1581091,29.2142545 19.6080485,26.2256485 L19.6080485,26.2256485 Z" id="Fill-3" fill="#010202" mask="url(#mask-2)"></path>
                </g>
                <g id="Group-8" transform="translate(13.575758, 14.280339)">
                    <mask id="mask-4" fill="white">
                        <use xlink:href="#path-3"></use>
                    </mask>
                    <g id="Clip-7"></g>
                    <path d="M14.8673939,24.3737212 C14.9313939,24.2069333 14.9818182,24.0323879 15.0341818,23.8578424 C16.832,24.7557818 18.9459394,24.7557818 20.7418182,23.8578424 C20.7941818,24.0323879 20.8446061,24.2069333 20.9086061,24.3737212 C21.4535758,25.7506909 22.7161212,26.7126303 24.1881212,26.8697212 C23.689697,28.719903 21.0094545,30.1841455 17.8889697,30.1841455 C14.7646061,30.1841455 12.086303,28.719903 11.5878788,26.8697212 C13.0598788,26.7106909 14.3224242,25.7506909 14.8673939,24.3737212 M10.816,14.6360242 C11.4055758,14.4866909 11.830303,14.0464485 12.617697,13.2183273 C13.0269091,12.7877818 13.5621818,12.2156606 14.208,11.5174788 C16.5100606,12.655903 19.2252121,12.5763879 21.4574545,11.3060848 L24.2443636,13.6702061 C24.4848485,13.871903 24.7718788,14.0134788 25.078303,14.0813576 C24.3355152,18.0571152 21.3992727,22.5642667 17.8889697,22.5642667 C14.5396364,22.5642667 11.7139394,18.4643879 10.816,14.6360242 M10.3098182,12.7315394 L10.3059394,12.7315394 C9.58642424,10.8425697 10.3059394,6.03093333 11.6829091,5.35020606 C12.1173333,5.13493333 12.5924848,5.02438788 13.0773333,5.02438788 C13.1277576,5.02438788 13.1801212,5.02632727 13.2324848,5.02826667 L18.5425455,5.19311515 C18.7655758,5.20475152 18.9847273,5.2105697 19.1941818,5.2105697 C20.8116364,5.21832727 22.4077576,4.83044848 23.8409697,4.07990303 C24.0135758,3.97517576 24.2036364,3.90923636 24.4014545,3.88402424 C24.5255758,3.87820606 24.64,3.95772121 24.6807273,4.07408485 C24.8688485,4.59578182 25.0220606,5.12911515 25.142303,5.67020606 C25.5146667,7.23917576 26.0751515,10.2219636 25.5166061,12.1710545 L22.710303,9.79141818 C22.3631515,9.4966303 21.9209697,9.33372121 21.4652121,9.33372121 C21.129697,9.33372121 20.7980606,9.42099394 20.5052121,9.58584242 C18.8198788,10.5536 16.7602424,10.6059636 15.0264242,9.72741818 C14.7704242,9.60135758 14.4892121,9.53735758 14.2021818,9.53735758 C13.6610909,9.53929697 13.1432727,9.76814545 12.7767273,10.1676606 C11.7604848,11.267297 10.3932121,12.7315394 10.3098182,12.7315394 M2.06157576,38.7834182 C2.09260606,38.787297 2.12363636,38.7892364 2.15660606,38.7892364 C2.66278788,38.787297 3.08363636,38.4013576 3.13406061,37.8990545 L3.63054545,32.2883879 C3.94472727,29.2357818 6.51248485,26.9143273 9.58254545,26.9085091 C10.0305455,29.8951758 13.5156364,32.1506909 17.8889697,32.1506909 C22.2603636,32.1506909 25.7435152,29.8951758 26.1934545,26.9085091 C29.2615758,26.9143273 31.8312727,29.2357818 32.1454545,32.2883879 L32.6419394,37.8990545 C32.6884848,38.403297 33.1132121,38.7892364 33.6193939,38.7892364 C33.6523636,38.7892364 33.6833939,38.787297 33.7144242,38.7834182 C34.2555152,38.7310545 34.6511515,38.2500848 34.6007273,37.7109333 L34.6007273,37.7089939 L34.1042424,32.0983273 C33.6930909,28.0003879 30.2215758,24.8954182 26.1042424,24.9380848 L24.6361212,24.9380848 C23.8041212,24.943903 23.0535758,24.4396606 22.7452121,23.6697212 C22.6269091,23.3613576 22.537697,23.043297 22.4717576,22.7213576 C25.1636364,20.4542061 26.8838788,16.4648727 27.1806061,13.2125091 C27.2775758,13.0573576 27.3532121,12.8905697 27.4036364,12.7160242 C28.0533333,10.4605091 27.5704242,7.39238788 27.0526061,5.21444848 C26.9129697,4.56087273 26.7229091,3.91893333 26.4824242,3.29444848 C26.1313939,2.4566303 25.3110303,1.91166061 24.4014545,1.91551882 C23.9069091,1.93299394 23.4201212,2.06487273 22.9876364,2.30535758 C21.8201212,2.92790303 20.5187879,3.24984242 19.1961212,3.24014545 C19.0157576,3.24014545 18.8295758,3.23432727 18.6375758,3.2265697 L18.6046061,3.2265697 L13.3081212,3.06172121 C13.2305455,3.05784242 13.1549091,3.05590303 13.0773333,3.05590303 C12.2918788,3.05784242 11.5161212,3.23820606 10.8121212,3.58341818 C8.10666667,4.91966061 7.57527273,11.0830545 8.46933333,13.4277818 C8.51975758,13.5596606 8.58569697,13.6837818 8.66521212,13.8001455 C9.10157576,16.9342061 10.7752727,20.5860848 13.3042424,22.7213576 C13.2402424,23.043297 13.1490909,23.3613576 13.0327273,23.6697212 C12.7243636,24.4396606 11.9738182,24.943903 11.1418182,24.9361455 L9.67175758,24.9361455 C5.55442424,24.8954182 2.08484848,28.0003879 1.67369697,32.0983273 L1.17721212,37.7109333 C1.12678788,38.2500848 1.52048485,38.7291152 2.06157576,38.7834182" id="Fill-6" fill="#010202" mask="url(#mask-4)"></path>
                </g>
            </g>
        </g>
    </g>
</svg>