<?xml version="1.0" encoding="UTF-8"?>
<svg width="48px" height="48px" viewBox="0 0 48 48" version="1.1" xmlns="http://www.w3.org/2000/svg" xmlns:xlink="http://www.w3.org/1999/xlink">
    <!-- Generator: sketchtool 63 (101010) - https://sketch.com -->
    <title>C06F14AE-8052-47EF-8AE0-E6B6D4192C1B</title>
    <desc>Created with sketchtool.</desc>
    <defs>
        <polygon id="path-1" points="0.0001 0 48 0 48 47.9997 0.0001 47.9997"></polygon>
    </defs>
    <g id="Design-System" stroke="none" stroke-width="1" fill="none" fill-rule="evenodd">
        <g id="Icons" transform="translate(-804.000000, -416.000000)">
            <g id="Group-12" transform="translate(804.000000, 416.000000)">
                <g id="Group-3" transform="translate(0.000000, 0.000200)">
                    <mask id="mask-2" fill="white">
                        <use xlink:href="#path-1"></use>
                    </mask>
                    <g id="Clip-2"></g>
                    <path d="M46.0001,45.0527 L29.7811,32.7137 L46.0001,20.3747 L46.0001,45.0527 Z M4.0581,45.9997 L19.8701,33.9707 L23.3951,36.6517 C23.5731,36.7877 23.7861,36.8557 24.0001,36.8557 C24.2131,36.8557 24.4271,36.7877 24.6051,36.6517 L28.1291,33.9707 L43.9421,45.9997 L4.0581,45.9997 Z M2.0001,45.0527 L2.0001,20.3747 L18.2191,32.7137 L2.0001,45.0527 Z M6.0621,15.9027 L6.0621,20.9527 L2.7431,18.4277 L6.0621,15.9027 Z M8.0621,6.6567 L30.1071,6.6567 C30.1121,6.6567 30.1171,6.6587 30.1221,6.6587 C30.1261,6.6587 30.1301,6.6567 30.1331,6.6567 L39.9381,6.6567 L39.9381,22.4737 L24.0001,34.5997 L8.0621,22.4747 L8.0621,6.6567 Z M24.0001,2.2567 L27.1541,4.6567 L20.8451,4.6567 L24.0001,2.2567 Z M41.9381,15.9037 L45.2561,18.4277 L41.9381,20.9517 L41.9381,15.9037 Z M48.0001,18.4277 C48.0001,17.9927 47.7201,17.6327 47.3331,17.4947 L41.9381,13.3907 L41.9381,5.6567 C41.9381,5.1047 41.4891,4.6567 40.9381,4.6567 L30.4571,4.6567 L24.6051,0.2037 C24.2481,-0.0683 23.7521,-0.0683 23.3951,0.2037 L17.5421,4.6567 L7.0621,4.6567 C6.5101,4.6567 6.0621,5.1047 6.0621,5.6567 L6.0621,13.3897 L0.6661,17.4947 C0.2801,17.6337 0.0001,17.9937 0.0001,18.4277 L0.0001,45.1257 C0.0001,46.7107 1.3591,47.9997 3.0291,47.9997 L44.9701,47.9997 C46.6411,47.9997 48.0001,46.7107 48.0001,45.1257 L48.0001,18.4277 Z" id="Fill-1" fill="#000000" mask="url(#mask-2)"></path>
                </g>
                <polygon id="Fill-4" fill="#000000" points="30.0958 17.7277 30.0958 21.7677 23.8068 25.3907 17.5038 21.7677 17.5038 20.1427 23.8068 23.7807 25.1958 22.9757 21.0018 20.5457 22.4048 19.7407 26.5978 22.1697 27.9998 21.3657 23.8068 18.9357 25.1958 18.1297 28.6938 20.1427 28.6938 18.5327 26.5978 17.3257 27.9998 16.5197"></polygon>
                <polygon id="Fill-6" fill="#000000" points="25.1954 11.674 17.5044 16.117 17.5044 14.492 23.8064 10.869"></polygon>
                <polygon id="Fill-8" fill="#000000" points="16.1153 13.6876 16.1153 22.5726 14.7133 21.7676 14.7133 14.4926"></polygon>
                <polygon id="Fill-10" fill="#000000" points="32.8868 14.4923 32.8868 21.7673 31.4978 22.5723 31.4978 16.9223 26.5978 14.0903 22.4048 16.5193 21.0018 15.7143 26.5978 12.4793 31.4978 15.2983 31.4978 13.6873"></polygon>
            </g>
        </g>
    </g>
</svg>