<?xml version="1.0" encoding="UTF-8"?>
<svg width="64px" height="55px" viewBox="0 0 64 55" version="1.1" xmlns="http://www.w3.org/2000/svg" xmlns:xlink="http://www.w3.org/1999/xlink">
    <!-- Generator: sketchtool 63 (101010) - https://sketch.com -->
    <title>1C6306C2-18DF-4776-87E7-5F7EBC6C39FE</title>
    <desc>Created with sketchtool.</desc>
    <defs>
        <polygon id="path-1" points="0 1.67370323 63.0461935 1.67370323 63.0461935 55.7413161 0 55.7413161"></polygon>
    </defs>
    <g id="Design-System" stroke="none" stroke-width="1" fill="none" fill-rule="evenodd">
        <g id="Icons" transform="translate(-590.000000, -253.000000)">
            <g id="Group-8" transform="translate(590.000000, 251.000000)">
                <g id="Group-3" transform="translate(0.000000, 0.391432)">
                    <mask id="mask-2" fill="white">
                        <use xlink:href="#path-1"></use>
                    </mask>
                    <g id="Clip-2"></g>
                    <path d="M61.3314065,32.6146065 C61.2880516,32.7116387 61.1930839,32.7715097 61.0877935,32.7653161 L58.5236645,32.7653161 C58.0612129,32.7653161 57.6834065,33.1431226 57.6834065,33.6055742 C57.6710194,44.5722839 49.0248258,53.5797677 38.0705032,54.0442839 L38.0705032,50.0948645 C46.8446968,49.6386065 53.7277935,42.3921548 53.7339871,33.6055742 C53.7339871,33.1431226 53.3582452,32.7653161 52.893729,32.7653161 L49.2209548,32.7653161 C49.117729,32.7694452 49.0248258,32.7095742 48.9876645,32.6146065 C48.9319226,32.5320258 48.9319226,32.4205419 48.9876645,32.3379613 L54.9190194,24.8933161 C55.0532129,24.7157677 55.1874065,24.7157677 55.3319226,24.8933161 L61.2632774,32.3379613 C61.341729,32.4060903 61.3685677,32.5175742 61.3314065,32.6146065 M31.5239226,44.2460903 C22.941729,44.2460903 15.9863742,37.2907355 15.9863742,28.7064774 C15.9863742,20.1263484 22.941729,13.168929 31.5239226,13.168929 C40.1040516,13.168929 47.061471,20.1263484 47.061471,28.7064774 C47.0490839,37.2845419 40.0999226,44.2316387 31.5239226,44.2460903 M14.0271484,25.0770581 L8.09372903,32.5217032 C7.95953548,32.6992516 7.82534194,32.6992516 7.68289032,32.5217032 L1.74947097,25.0770581 C1.69372903,24.9944774 1.69372903,24.8850581 1.74947097,24.8004129 C1.79076129,24.7033806 1.88985806,24.6435097 1.99308387,24.6497032 L4.5572129,24.6497032 C5.02172903,24.6497032 5.39747097,24.2718968 5.39747097,23.8073806 C5.40985806,12.8571871 14.0354065,3.84970323 24.9773419,3.37073548 L24.9773419,7.32015484 C16.2031484,7.7764129 9.32005161,15.0228645 9.31385806,23.8073806 C9.31385806,24.2718968 9.6896,24.6497032 10.1520516,24.6497032 L13.8248258,24.6497032 C13.9280516,24.6455742 14.0209548,24.7054452 14.0622452,24.8004129 C14.1056,24.8912516 14.0932129,25.000671 14.0271484,25.0770581 M62.6176,31.2871226 L56.733729,23.8507355 C56.0132129,23.0084129 54.7456,22.9113806 53.9012129,23.6298323 C53.8248258,23.7000258 53.7505032,23.7722839 53.6844387,23.8507355 L48.725471,30.0855742 C48.725471,29.6334452 48.7936,29.1771871 48.7936,28.7147355 C48.7688258,19.2055742 41.0413419,11.5152516 31.5301161,11.5400258 C24.0648258,11.5586065 17.4604387,16.3875097 15.1791484,23.4977032 C14.8281806,23.1673806 14.365729,22.9815742 13.8846968,22.9753806 L11.0191484,22.9753806 C11.4692129,15.1281548 17.9579871,8.99447742 25.8176,8.98415484 C26.2821161,8.98415484 26.6578581,8.6084129 26.6578581,8.14389677 L26.6578581,2.51396129 C26.6578581,2.04944516 26.2821161,1.67370323 25.8176,1.67370323 C13.9259871,1.68815484 4.16495484,11.0837677 3.69837419,22.9671226 L1.96005161,22.9671226 C0.888567742,22.9568 0.00908387097,23.8177032 -0.0012596402,24.8912516 C-0.00330322581,25.3413161 0.147406452,25.776929 0.430245161,26.1258323 L6.31205161,33.5642839 C6.98301935,34.4066065 8.21140645,34.5469935 9.05166452,33.8739613 C9.16727742,33.7831226 9.27256774,33.6798968 9.36340645,33.5642839 L14.3203097,27.3273806 C14.3203097,27.7836387 14.2542452,28.2378323 14.2542452,28.7002839 C14.2769548,38.2094452 22.0065032,45.8997677 31.5156645,45.8749935 C38.9830194,45.8564129 45.5874065,41.0275097 47.8686968,33.9173161 C48.2196645,34.2476387 48.6821161,34.4334452 49.1631484,34.4396387 L52.0286968,34.4396387 C51.5786323,42.2868645 45.0898581,48.4205419 37.2302452,48.4308645 C36.765729,48.4308645 36.3879226,48.8066065 36.3879226,49.2711226 L36.3879226,54.9010581 C36.3879226,55.3676387 36.765729,55.7413161 37.2302452,55.7413161 C49.1218581,55.7268645 58.8828903,46.3312516 59.3474065,34.4478968 L61.0877935,34.4478968 C62.1592774,34.4582194 63.0366968,33.5973161 63.0471009,32.5237677 C63.0511484,32.0737032 62.8983742,31.6360258 62.6176,31.2871226" id="Fill-1" fill="#010202" mask="url(#mask-2)"></path>
                </g>
                <path d="M31.5239226,40.3590194 C25.3035355,40.3590194 20.2619871,35.3195355 20.2619871,29.0991484 C20.2619871,22.8787613 25.3035355,17.8392774 31.5239226,17.8392774 C37.7422452,17.8392774 42.7837935,22.8787613 42.7837935,29.0991484 C42.7796645,35.317471 37.7401806,40.3548903 31.5239226,40.3590194 M31.5239226,16.1566968 C24.3765677,16.1566968 18.581471,21.9517935 18.581471,29.0991484 C18.581471,36.2465032 24.3765677,42.0395355 31.5239226,42.0395355 C38.6712774,42.0395355 44.4663742,36.2465032 44.4663742,29.0991484 C44.4560516,21.9559226 38.6671484,16.1670194 31.5239226,16.1566968" id="Fill-4" fill="#010202"></path>
                <path d="M34.6407226,28.4678194 C33.9883355,28.1891097 33.3173677,27.9537548 32.6319484,27.7617548 C32.0724645,27.594529 31.6616258,27.4603355 31.3973677,27.3591742 C31.1393032,27.266271 30.9018839,27.1238194 30.6995613,26.9400774 C30.5158194,26.7790452 30.4125935,26.5436903 30.4146581,26.3000774 C30.4043355,26.0523355 30.530271,25.8169806 30.7408516,25.6869161 C31.0154323,25.538271 31.3230452,25.4701419 31.6327226,25.4866581 C32.2376258,25.5052387 32.8363355,25.6229161 33.4061419,25.8314323 C34.0977548,26.0605935 34.7666581,26.3620129 35.3984,26.7294968 L36.5648516,24.2995613 C36.0445935,23.9506581 35.4789161,23.6678194 34.8843355,23.4593032 C34.2525935,23.242529 33.6002065,23.0918194 32.9354323,23.0133677 L32.9354323,20.6949161 L30.6830452,20.6949161 L30.6830452,23.0649806 C29.7374968,23.1764645 28.8559484,23.5914323 28.162271,24.2417548 C27.5346581,24.8549161 27.1898839,25.7013677 27.2125935,26.5787871 C27.1774968,27.2414968 27.3756903,27.8959484 27.7762065,28.426529 C28.1292387,28.8765935 28.5875613,29.2316903 29.1119484,29.4587871 C29.7560774,29.7292387 30.4187871,29.954271 31.0938839,30.1338839 C31.6327226,30.2763355 32.0435613,30.402271 32.3387871,30.5096258 C32.6092387,30.5984 32.8569806,30.7429161 33.0696258,30.9307871 C33.2657548,31.0980129 33.3731097,31.3478194 33.3627871,31.6038194 C33.3710452,31.8969806 33.2244645,32.1756903 32.9767226,32.3346581 C32.650529,32.5184 32.2768516,32.6051097 31.9011097,32.586529 C31.1599484,32.5596903 30.4332387,32.3883355 29.7581419,32.0827871 C28.994271,31.7689806 28.2861419,31.3271742 27.6667871,30.7800774 L26.4817548,33.1831742 C27.0618839,33.666271 27.7101419,34.058529 28.4058839,34.3516903 C29.1346581,34.6572387 29.9005935,34.8698839 30.6830452,34.9813677 L30.6830452,37.5021419 L32.9024,37.5021419 L32.9024,34.9813677 C33.8851097,34.8802065 34.8141419,34.4755613 35.5573677,33.8231742 C36.2242065,33.2100129 36.5916903,32.3387871 36.5648516,31.434529 C36.5999484,30.7573677 36.4017548,30.090529 36.0033032,29.5434323 C35.6482065,29.0747871 35.1795613,28.7031742 34.6407226,28.4678194" id="Fill-6" fill="#010202"></path>
            </g>
        </g>
    </g>
</svg>