<?xml version="1.0" encoding="UTF-8"?>
<svg width="64px" height="61px" viewBox="0 0 64 61" version="1.1" xmlns="http://www.w3.org/2000/svg" xmlns:xlink="http://www.w3.org/1999/xlink">
    <!-- Generator: sketchtool 63 (101010) - https://sketch.com -->
    <title>4D263FF0-7E62-49D3-8AAB-7A405F41A527</title>
    <desc>Created with sketchtool.</desc>
    <defs>
        <polygon id="path-1" points="0 -0.0012952381 56.5279238 -0.0012952381 56.5279238 56.5259429 0 56.5259429"></polygon>
        <polygon id="path-3" points="0 60.9539048 63.5100952 60.9539048 63.5100952 0 0 0"></polygon>
    </defs>
    <g id="Design-System" stroke="none" stroke-width="1" fill="none" fill-rule="evenodd">
        <g id="Icons" transform="translate(-913.000000, -570.000000)">
            <g id="Group-11" transform="translate(913.000000, 570.000000)">
                <path d="M49.0315429,13.2102095 C49.0376381,13.1523048 49.0490667,13.0966857 49.0490667,13.0364952 C49.0490667,12.1344 48.310781,11.3953524 47.4079238,11.3953524 L46.0258286,11.3953524 C45.1229714,11.3953524 44.3846857,12.1344 44.3846857,13.0364952 C44.3846857,13.0966857 44.3961143,13.1523048 44.4022095,13.2102095 L40.9751619,13.4029714 C39.2578286,13.4029714 39.288269,13.9835429 39.288269,14.9382095 C39.288269,15.8928762 42.5324952,19.9576381 44.2498286,19.9576381 C44.790019,19.9576381 44.278781,18.1877333 44.694019,18.0094476 C44.7572571,18.0193524 46.3816381,17.9256381 46.4464,17.9370667 L51.398019,13.2109714 L49.0315429,13.2109714 L49.0315429,13.2102095 Z" id="Fill-1" fill="#010202"></path>
                <g id="Group-5" transform="translate(0.000000, 0.001524)">
                    <mask id="mask-2" fill="white">
                        <use xlink:href="#path-1"></use>
                    </mask>
                    <g id="Clip-4"></g>
                    <path d="M17.7774476,31.6550857 L16.1309714,31.6550857 C15.2151619,31.6550857 14.4502095,32.2630857 14.1926857,33.0943238 C13.670019,32.6745143 10.9584,30.4543238 10.5873524,29.3038476 C10.5584,29.213181 11.2311619,27.3648 12.0105905,26.6737524 C12.0105905,26.6737524 13.6753524,26.8139429 14.278781,26.6737524 C14.694781,26.5769905 17.7782095,24.8703238 19.1313524,22.6813714 C19.542781,22.0154667 21.4643048,17.7495619 21.7804952,17.0333714 C22.0105905,16.5114667 21.3332571,15.004419 20.6239238,15.3381333 C20.1164952,15.5766095 19.3058286,16.9975619 18.7930667,17.2246095 C18.1515429,17.5080381 16.7465905,17.6497524 16.1584,17.2672762 C13.6631619,15.6467048 16.7854476,14.6120381 18.3252571,15.4242286 C19.0079238,15.7861333 20.6185905,12.1609905 19.7050667,12.1609905 L14.6955429,12.1609905 C19.9351619,8.01470476 26.8464,4.87489524 34.4159238,4.87489524 C41.430781,4.87489524 47.8757333,7.1560381 52.9530667,11.6520381 L56.5279238,8.07718095 C50.5424,3.04251429 42.8311619,-0.0012952381 34.4159238,-0.0012952381 C15.4391619,-0.0012952381 -7.61904762e-05,15.437181 -7.61904762e-05,34.4147048 C-7.61904762e-05,42.829181 3.04449524,50.541181 8.0791619,56.5259429 L11.4963048,53.1080381 C7.3271619,48.0086095 4.82125714,41.4996571 4.82125714,34.4147048 C4.82125714,31.7929905 5.16792381,29.1522286 5.81097143,26.7301333 C5.94659048,26.7552762 6.08449524,26.6745143 6.22697143,26.6745143 L6.63459048,26.6745143 L6.63459048,29.0196571 C7.20297143,30.0048 7.44068571,29.9956571 8.54392381,30.8329905 C8.67878095,30.9350857 12.8905905,34.5472762 12.8905905,34.5472762 C12.9431619,34.5990857 13.0201143,34.6402286 13.110019,34.6737524 C12.6704,35.2832762 12.2490667,36.1861333 12.2490667,37.4242286 C12.2490667,41.053181 15.1062095,46.2379429 16.3671619,46.2379429 L16.6475429,47.9568 L26.038781,38.5648 L20.6025905,32.8352762 C19.8574476,32.0802286 18.8395429,31.6550857 17.7774476,31.6550857" id="Fill-3" fill="#010202" mask="url(#mask-2)"></path>
                </g>
                <path d="M14.1874286,55.3388952 C14.7740952,55.9712762 15.168,56.3857524 15.168,56.3857524 C15.304381,56.5137524 15.4460952,56.6326095 15.5847619,56.7568 L17.0034286,55.3388952 L14.1874286,55.3388952 Z" id="Fill-6" fill="#010202"></path>
                <mask id="mask-4" fill="white">
                    <use xlink:href="#path-3"></use>
                </mask>
                <g id="Clip-9"></g>
                <path d="M52.1592381,54.840381 L55.9687619,54.840381 L55.9687619,42.840381 L52.1592381,42.840381 L52.1592381,54.840381 Z M46.5980952,54.8342857 L50.407619,54.8342857 L50.407619,42.8342857 L46.5980952,42.8342857 L46.5980952,54.8342857 Z M51.3973333,36.728381 C44.7078095,36.728381 39.2845714,42.151619 39.2845714,48.8411429 C39.2845714,55.5306667 44.7078095,60.9539048 51.3973333,60.9539048 C58.0868571,60.9539048 63.5100952,55.5306667 63.5100952,48.8411429 C63.5100952,42.151619 58.0868571,36.728381 51.3973333,36.728381 L51.3973333,36.728381 Z" id="Fill-8" fill="#010202" mask="url(#mask-4)"></path>
                <path d="M60.4478476,11.984 C59.7057524,11.2419048 58.4912762,11.2419048 57.749181,11.984 L12.0348952,57.6982857 C11.2928,58.440381 11.2928,59.6548571 12.0348952,60.3969524 C12.7769905,61.1390476 13.9914667,61.1390476 14.7335619,60.3969524 L60.4478476,14.6826667 C61.1899429,13.9405714 61.1899429,12.7260952 60.4478476,11.984" id="Fill-10" fill="#010202" mask="url(#mask-4)"></path>
            </g>
        </g>
    </g>
</svg>