<?xml version="1.0" encoding="UTF-8"?>
<svg width="64px" height="55px" viewBox="0 0 64 55" version="1.1" xmlns="http://www.w3.org/2000/svg" xmlns:xlink="http://www.w3.org/1999/xlink">
    <!-- Generator: sketchtool 63 (101010) - https://sketch.com -->
    <title>C6D97142-F66B-44AA-B449-CE44AE309A4E</title>
    <desc>Created with sketchtool.</desc>
    <defs>
        <polygon id="path-1" points="0 -0.000457142857 63.3399146 -0.000457142857 63.3399146 54.1842574 0 54.1842574"></polygon>
    </defs>
    <g id="Design-System" stroke="none" stroke-width="1" fill="none" fill-rule="evenodd">
        <g id="Icons" transform="translate(-44.000000, -412.000000)">
            <g id="Group-3" transform="translate(44.000000, 412.000000)">
                <mask id="mask-2" fill="white">
                    <use xlink:href="#path-1"></use>
                </mask>
                <g id="Clip-2"></g>
                <path d="M37.8770286,31.1213714 L37.8770286,33.7453714 L32.9856,33.7453714 L32.9856,38.6596571 L30.3387429,38.6596571 L30.3387429,33.7453714 L25.4427429,33.7453714 L25.4427429,31.1213714 L30.3387429,31.1213714 L30.3387429,26.2070857 L32.9627429,26.2070857 L32.9627429,31.1213714 L37.8770286,31.1213714 Z M34.0598857,23.9166835 L29.2827429,23.9166835 C28.6153143,23.9076571 28.0621714,24.4379429 28.0484571,25.1099429 L28.0484571,25.1282286 L28.0484571,28.8310857 L24.3684571,28.8310857 C23.6964571,28.8310857 23.1524571,29.3750857 23.1524571,30.0470857 L23.1524571,34.8242286 C23.1524571,35.4916571 23.6964571,36.0356571 24.3684571,36.0356571 L28.0484571,36.0356571 L28.0484571,39.7385143 C28.0484571,40.4059429 28.5924571,40.9499429 29.2598857,40.9499429 L34.0370286,40.9499429 C34.7090286,40.9499429 35.2530286,40.4059429 35.2530286,39.7385143 L35.2530286,36.0356571 L38.9513143,36.0356571 C39.6233143,36.0356571 40.1673143,35.4916571 40.1673143,34.8242286 L40.1673143,30.0470857 C40.1673143,29.3750857 39.6233143,28.8310857 38.9513143,28.8310857 L35.2758857,28.8310857 L35.2758857,25.1282286 C35.2758857,24.4608 34.7318857,23.9166835 34.0598857,23.9166835 L34.0598857,23.9166835 Z M31.6736,45.2196571 C24.6107429,45.2196571 18.8873143,39.4962286 18.8873143,32.4333714 C18.8873143,25.3750857 24.6107429,19.6516571 31.6736,19.6516571 C38.7318857,19.6516571 44.4507429,25.3750857 44.4507429,32.4333714 C44.4461714,39.4916571 38.7318857,45.2150857 31.6736,45.2196571 L31.6736,45.2196571 Z M31.6736,17.3613714 C23.3444571,17.3613714 16.6016,24.1088 16.6016,32.4333714 C16.6016,40.7579429 23.3444571,47.5053714 31.6736,47.5053714 C39.9981714,47.5053714 46.7410286,40.7579429 46.7410286,32.4333714 C46.7318857,24.1133714 39.9936,17.3705143 31.6736,17.3613714 L31.6736,17.3613714 Z M2.28845714,51.8939429 L61.0496,51.8939429 L61.0496,12.9728 L2.28845714,12.9728 L2.28845714,51.8939429 Z M16.4096,10.6825143 L46.9376,10.6825143 L46.9376,2.28937143 L16.4096,2.28937143 L16.4096,10.6825143 Z M49.2233143,10.6825143 L49.2233143,1.21965714 C49.2278857,0.552228571 48.6884571,0.00365714286 48.0210286,-0.000942887972 L48.0027429,-0.000942887972 L15.3398857,-0.000942887972 C14.6678857,-0.00548571429 14.1238857,0.538514286 14.1193143,1.20594286 L14.1193143,1.21965714 L14.1193143,10.6825143 L1.21874286,10.6825143 C0.551314286,10.6779429 0.00274285714,11.2173714 0.00274285714,11.8893714 C-0.00182857143,11.8939429 -0.00182857143,11.8985143 0.00274285714,11.9076571 L0.00274285714,52.9636571 C-0.00182857143,53.6356571 0.533028571,54.1796571 1.2096,54.1842574 L1.21874286,54.1842574 L62.1238857,54.1842574 C62.7913143,54.1888 63.3353143,53.6493714 63.3399146,52.9773714 L63.3399146,52.9636571 L63.3399146,11.9076571 C63.3444571,11.2310857 62.8050286,10.6870857 62.1376,10.6825143 L62.1238857,10.6825143 L49.2233143,10.6825143 Z" id="Fill-1" fill="#020303" mask="url(#mask-2)"></path>
            </g>
        </g>
    </g>
</svg>