<?xml version="1.0" encoding="UTF-8"?>
<svg width="61px" height="62px" viewBox="0 0 61 62" version="1.1" xmlns="http://www.w3.org/2000/svg" xmlns:xlink="http://www.w3.org/1999/xlink">
    <!-- Generator: sketchtool 63 (101010) - https://sketch.com -->
    <title>7E3C1E55-C276-481C-B3F5-AA0C3722252C</title>
    <desc>Created with sketchtool.</desc>
    <defs>
        <polygon id="path-1" points="0.757848276 0.690758621 16.4797793 0.690758621 16.4797793 16.0759172 0.757848276 16.0759172"></polygon>
    </defs>
    <g id="Design-System" stroke="none" stroke-width="1" fill="none" fill-rule="evenodd">
        <g id="Icons" transform="translate(-804.000000, -250.000000)">
            <g id="Group-118" transform="translate(804.000000, 248.000000)">
                <path d="M19.5160276,55.8541241 C19.5160276,58.1669517 17.6335448,60.0472276 15.3229241,60.0472276 C13.0123034,60.0472276 11.1298207,58.1669517 11.1298207,55.8541241 C11.1298207,55.4921931 11.1827862,55.1412966 11.2688552,54.8058483 L14.2614069,54.8058483 C14.5549241,54.8058483 14.8374069,54.6822621 15.0360276,54.4637793 L15.4067862,54.0599172 C15.8084414,53.616331 16.4992,53.6008828 16.9207172,54.0224 L17.3974069,54.4990897 C17.5938207,54.6955034 17.8608552,54.8058483 18.1389241,54.8058483 L19.3792,54.8058483 C19.465269,55.1412966 19.5160276,55.4921931 19.5160276,55.8541241 M21.4382345,55.344331 C21.4382345,51.0938483 17.993269,49.4276414 15.4994759,49.4276414 C13.0056828,49.4276414 9.63795862,51.3675034 9.63795862,55.344331 C9.63795862,58.2861241 9.14361379,60.0494345 8.71326897,61.0270897 C8.4992,61.5148138 8.85230345,62.0621241 9.38637241,62.0621241 C9.57616552,62.0621241 9.75933793,62.1349517 9.89837241,62.2651586 L10.7723034,63.1037793 C11.0614069,63.3818483 11.5182345,63.3774345 11.8007172,63.0949517 L12.297269,62.6050207 C12.5952,62.3092966 13.0807172,62.3225379 13.3632,62.6315034 L13.6743724,62.9779862 C13.9723034,63.3068138 14.4953379,63.2979862 14.7822345,62.9581241 L14.9742345,62.7286069 C15.2699586,62.3799172 15.8062345,62.3799172 16.1019586,62.7286069 L16.2939586,62.9581241 C16.5830621,63.2979862 17.1038897,63.3068138 17.4040276,62.9779862 L17.7152,62.6315034 C17.9976828,62.3225379 18.4809931,62.3092966 18.7789241,62.6050207 L19.2776828,63.0949517 C19.5601655,63.3774345 20.0169931,63.3818483 20.3038897,63.1037793 L21.1800276,62.2651586 C21.3168552,62.1349517 21.5000276,62.0621241 21.6898207,62.0621241 C22.2260966,62.0621241 22.5792,61.5148138 22.3629241,61.0270897 C21.9347862,60.0494345 21.4382345,58.2861241 21.4382345,55.344331" id="Fill-1" fill="#010202"></path>
                <path d="M15.3220414,13.9252966 C13.0114207,13.9252966 11.1311448,12.0428138 11.1311448,9.7321931 C11.1311448,9.55564138 11.1443862,9.37908966 11.1664552,9.20695172 L15.0417655,9.20695172 C15.3220414,9.20695172 15.5912828,9.0966069 15.7876966,8.89798621 L16.2224552,8.4544 C16.630731,8.04171034 17.2994207,8.03950345 17.7099034,8.4521931 L18.1601103,8.9024 C18.3565241,9.0966069 18.6235586,9.20695172 18.9016276,9.20695172 L19.4798345,9.20695172 C19.5019034,9.37908966 19.5151448,9.55564138 19.5151448,9.7321931 C19.5151448,12.0428138 17.634869,13.9252966 15.3220414,13.9252966 M15.3220414,14.9735724 C18.2174897,14.9735724 20.5634207,12.6254345 20.5634207,9.7321931 C20.5634207,6.83674483 18.2174897,4.49081379 15.3220414,4.49081379 C12.4265931,4.49081379 10.082869,6.83674483 10.082869,9.7321931 C10.082869,12.6254345 12.4265931,14.9735724 15.3220414,14.9735724" id="Fill-3" fill="#010202"></path>
                <path d="M27.6625655,23.0415448 C28.0730483,23.4696828 29.0153931,24.0456828 31.1251862,24.0456828 C33.4159448,24.0456828 34.6407724,23.3681655 35.1924966,22.9356138 C36.5894621,23.4255448 37.8518069,24.1847172 38.9287724,25.1557517 L35.9759448,25.1557517 C35.7243586,25.1557517 35.4970483,25.3036138 35.395531,25.533131 C35.2366345,25.8928552 34.7886345,26.0230621 34.4598069,25.8001655 L34.223669,25.6390621 C34.0669793,25.533131 33.8749793,25.5022345 33.6940138,25.5529931 L31.0214621,26.3055448 C30.8471172,26.3563034 30.703669,26.4776828 30.6242207,26.6409931 L30.0504276,27.8238897 C29.9930483,27.9430621 29.9003586,28.0423724 29.7811862,28.1063724 L28.6093241,28.7397517 C28.4018759,28.8500966 28.2738759,29.0641655 28.2738759,29.2980966 L28.2738759,29.3157517 C28.2738759,29.6644414 28.5585655,29.949131 28.9072552,29.949131 L30.8449103,29.949131 C31.0987034,29.949131 31.3017379,30.1543724 31.3017379,30.4037517 C31.3017379,30.6553379 31.5047724,30.8605793 31.7563586,30.8605793 L32.2551172,30.8605793 C32.5067034,30.8605793 32.7119448,30.6553379 32.7119448,30.4037517 L32.7119448,29.8696828 L34.4951172,30.8605793 L34.5723586,31.8912 L34.0184276,31.3350621 L31.5290483,31.3350621 C30.1541517,31.3350621 28.8322207,31.8735448 27.8501517,32.8357517 C27.5389793,33.1403034 27.3624276,33.5574069 27.3624276,33.9921655 C27.3624276,34.4203034 27.5323586,34.8329931 27.8369103,35.1353379 L27.9406345,35.2368552 C28.2429793,35.5414069 28.6534621,35.7113379 29.0838069,35.7113379 L29.935669,35.7113379 C30.383669,35.7113379 30.7478069,36.0754759 30.7478069,36.521269 L30.7478069,36.9207172 L30.0416,39.145269 C29.8804966,39.6506483 30.0151172,40.2067862 30.3924966,40.5819586 C30.659531,40.8489931 31.0214621,41.001269 31.3988414,41.001269 C32.6391172,41.001269 33.7558069,40.2575448 34.2324966,39.1143724 L34.5392552,38.3794759 C35.2145655,36.7640276 35.5632552,35.0272 35.5632552,33.2749241 L35.9406345,33.2749241 C36.2120828,33.2749241 36.4349793,33.0520276 36.4349793,32.7783724 L36.4349793,32.3833379 C36.4349793,32.1096828 36.655669,31.8912 36.9293241,31.8912 C37.2029793,31.8912 37.4258759,31.6683034 37.4258759,31.3946483 L37.4258759,30.1080276 L40.5177379,33.2020966 C41.0584276,33.7427862 41.7778759,34.0605793 42.5370483,34.109131 C42.2214621,38.5140966 39.3061517,42.2040276 35.3160828,43.6539586 C34.9387034,43.2214069 34.0140138,42.5858207 31.8004966,42.5858207 C29.6002207,42.5858207 28.3842207,43.2125793 27.8038069,43.645131 C27.2101517,43.4266483 26.6385655,43.1640276 26.095669,42.8528552 L26.095669,41.9127172 C26.095669,41.5993379 26.0140138,41.2947862 25.8617379,41.021131 L24.5883586,38.8009931 C24.4338759,38.5295448 24.3544276,38.2227862 24.3544276,37.9094069 L24.3544276,36.9714759 C24.3544276,36.4837517 24.1558069,36.0158897 23.8049103,35.6804414 C23.471669,35.3560276 23.023669,35.177269 22.5602207,35.177269 L20.7329103,35.177269 C20.7108414,35.0404414 20.6887724,34.9058207 20.6711172,34.7667862 L21.7149793,33.7935448 C22.3726345,33.1778207 22.8029793,32.3590621 22.9376,31.4674759 C23.1296,30.2117517 23.9042207,29.1237517 25.027531,28.5256828 L25.9588414,28.0335448 C26.4576,27.7687172 26.7709793,27.2478897 26.7709793,26.6829241 C26.7709793,25.8398897 26.0846345,25.1557517 25.2416,25.1557517 L24.2131862,25.1557517 C25.2151172,24.2509241 26.3803586,23.5314759 27.6625655,23.0415448 M19.5169103,33.3168552 C19.5169103,39.9750621 24.9127724,45.3709241 31.5709793,45.3709241 C38.2269793,45.3709241 43.6250483,39.9750621 43.6250483,33.3168552 C43.6250483,26.6608552 38.2269793,21.2627862 31.5709793,21.2627862 C24.9127724,21.2627862 19.5169103,26.6608552 19.5169103,33.3168552" id="Fill-5" fill="#010202"></path>
                <g id="Group-9" transform="translate(39.724138, 1.516800)">
                    <mask id="mask-2" fill="white">
                        <use xlink:href="#path-1"></use>
                    </mask>
                    <g id="Clip-8"></g>
                    <path d="M8.09357241,10.3115034 C8.09357241,9.48612414 7.61246897,8.77991724 6.91950345,8.43564138 C7.31233103,8.15095172 7.57053793,7.69191724 7.57053793,7.16667586 C7.57053793,6.71205517 7.37412414,6.30598621 7.06295172,6.01688276 C7.41826207,5.88667586 7.71177931,5.63067586 7.89274483,5.30184828 C8.17743448,5.48502069 8.51508966,5.59315862 8.87922759,5.59315862 C9.59205517,5.59315862 10.1989517,5.18708966 10.5057103,4.59564138 C10.6028138,4.54708966 10.7021241,4.49633103 10.7904,4.43453793 C10.7926069,5.26874483 11.3641931,6.02350345 12.2138483,6.21550345 C12.2535724,6.22212414 12.2910897,6.21991724 12.3286069,6.22653793 C12.3021241,6.36115862 12.2866759,6.5001931 12.2866759,6.64364138 C12.2866759,7.17771034 12.4919172,7.66102069 12.8229517,8.02957241 C12.9664,8.19288276 13.1341241,8.33191724 13.3239172,8.44226207 C13.2599172,9.62295172 12.7104,10.6734345 11.8651586,11.3972966 C11.8497103,11.4105379 11.8342621,11.4259862 11.8166069,11.4414345 C11.2737103,11.8938483 10.6138483,12.2072276 9.88777931,12.3374345 C9.64502069,12.3815724 9.39784828,12.4080552 9.14405517,12.4080552 C8.47095172,12.4080552 7.83757241,12.2447448 7.27481379,11.964469 C7.77136552,11.580469 8.09357241,10.9868138 8.09357241,10.3115034 M1.59646897,12.8869517 C1.40005517,13.2069517 1.28088276,13.5777103 1.28088276,13.9793655 C1.28088276,15.1401931 2.21881379,16.0759172 3.37743448,16.0759172 C4.35729655,16.0759172 5.17164138,15.4050207 5.40115862,14.4957793 C5.42543448,14.4979862 5.44971034,14.5046069 5.47398621,14.5046069 C6.3126069,14.5046069 6.99453793,13.8447448 7.03646897,13.0149517 C7.68088276,13.2974345 8.39371034,13.456331 9.14405517,13.456331 C9.32722759,13.456331 9.5104,13.4475034 9.69136552,13.4276414 C9.80391724,14.3280552 10.5675034,15.0298483 11.5010207,15.0298483 C11.644469,15.0298483 11.7835034,15.0077793 11.9181241,14.9768828 C12.2006069,15.6235034 12.8450207,16.0759172 13.5975724,16.0759172 C14.6105379,16.0759172 15.4315034,15.2549517 15.4315034,14.2419862 C15.4315034,14.0632276 15.3984,13.8932966 15.3498483,13.7277793 C15.4734345,13.5446069 15.568331,13.3371586 15.6190897,13.1120552 C15.676469,12.8538483 15.6786759,12.6022621 15.6301241,12.3617103 C15.5926069,12.1719172 15.6433655,11.9710897 15.7713655,11.8276414 C16.0339862,11.5319172 16.2304,11.1699862 16.3230897,10.7550897 C16.5261241,9.85246897 16.1995034,8.95646897 15.5528828,8.38267586 C16.1134345,8.00529655 16.4797793,7.36750345 16.4797793,6.64364138 C16.4797793,5.50267586 15.5705379,4.5801931 14.4361931,4.55150345 C14.4406069,4.50074483 14.4538483,4.4544 14.4538483,4.40143448 C14.4516414,3.70405517 14.0235034,3.0486069 13.3857103,2.76171034 C13.136331,2.64915862 12.880331,2.5961931 12.6331586,2.5961931 C12.1432276,2.59177931 11.6753655,2.3446069 11.472331,1.89881379 C11.216331,1.33384828 10.7087448,0.888055172 10.0532966,0.740193103 C9.27867586,0.565848276 8.51067586,0.852744828 8.03177931,1.41771034 C7.7184,1.78405517 7.2064,1.85908966 6.74736552,1.72005517 C6.5664,1.66708966 6.3721931,1.6384 6.16474483,1.6361931 C5.33936552,1.63398621 4.57798621,2.13274483 4.2624,2.89412414 C4.14543448,3.1744 4.09467586,3.45908966 4.09688276,3.73495172 C4.10350345,4.27784828 3.78791724,4.76336552 3.28033103,4.95977931 C2.54984828,5.24446897 1.97164138,5.86902069 1.78626207,6.6921931 C1.60308966,7.50433103 1.85026207,8.30102069 2.36667586,8.8726069 C1.43315862,9.18598621 0.757848276,10.0599172 0.757848276,11.0971586 C0.757848276,11.8188138 1.08667586,12.4566069 1.59646897,12.8869517" id="Fill-7" fill="#010202" mask="url(#mask-2)"></path>
                </g>
                <path d="M47.8177103,60.0481103 C45.8535724,60.0481103 44.2072276,58.6886621 43.7526069,56.8657655 C47.0166069,56.8150069 48.5658483,55.4423172 49.2985379,54.0872828 C49.7752276,54.8001103 50.5984,55.4356966 51.9975724,55.5703172 C52.0019862,55.6652138 52.0108138,55.7579034 52.0108138,55.8550069 C52.0108138,58.1656276 50.1305379,60.0481103 47.8177103,60.0481103 M47.8177103,50.6136276 C44.9222621,50.6136276 42.576331,52.9595586 42.576331,55.8550069 C42.576331,58.7482483 44.9222621,61.0963862 47.8177103,61.0963862 C50.7131586,61.0963862 53.0590897,58.7482483 53.0590897,55.8550069 C53.0590897,52.9595586 50.7131586,50.6136276 47.8177103,50.6136276" id="Fill-10" fill="#010202"></path>
                <path d="M55.6797793,37.5092966 C53.4839172,37.5092966 51.6808828,35.8099862 51.504331,33.660469 C54.0488828,33.3846069 55.1854345,31.8088828 55.6864,30.5906759 C56.1498483,32.0626759 57.244469,33.8657103 59.8155034,33.9716414 C59.4999172,35.9732966 57.7675034,37.5092966 55.6797793,37.5092966 M60.9211586,27.5517793 C60.9211586,26.1040552 59.7492966,24.9321931 58.2993655,24.9321931 C56.8516414,24.9321931 55.6797793,26.1040552 55.6797793,27.5517793 C55.6797793,27.7327448 55.6996414,27.9070897 55.7327448,28.0792276 C55.7150897,28.0792276 55.6974345,28.0770207 55.6797793,28.0770207 C52.784331,28.0770207 50.4384,30.4229517 50.4384,33.3184 C50.4384,36.2116414 52.784331,38.5597793 55.6797793,38.5597793 C58.5752276,38.5597793 60.9211586,36.2116414 60.9211586,33.3184 C60.9211586,31.9744 60.4135724,30.7517793 59.5815724,29.8270897 C60.3782621,29.3746759 60.9211586,28.5316414 60.9211586,27.5517793" id="Fill-12" fill="#010202"></path>
                <path d="M7.98565517,37.5092966 C6.92634483,37.5092966 5.95972414,37.1120552 5.22041379,36.4610207 C4.88937931,36.1719172 4.60468966,35.8276414 4.37737931,35.4436414 C4.2582069,35.2406069 4.15227586,35.0221241 4.06841379,34.7970207 C3.97351724,34.5498483 3.90289655,34.2938483 3.85875862,34.0290207 C3.82344828,33.8281931 3.80137931,33.6229517 3.79917241,33.4177103 C3.79696552,33.3824 3.79255172,33.3492966 3.79255172,33.3184 C3.79255172,33.2014345 3.80137931,33.084469 3.808,32.9697103 C3.87862069,32.9652966 3.94482759,32.9608828 4.00882759,32.956469 C4.39503448,32.9255724 4.74593103,32.8615724 5.05931034,32.7688828 C5.33958621,32.6850207 5.58675862,32.5812966 5.81627586,32.4599172 C7.11172414,31.7757793 7.64137931,30.5465379 7.84882759,29.5446069 C7.91282759,30.4207448 8.16441379,31.4116414 8.94124138,31.7757793 C9.37158621,31.9766069 9.70924138,32.3319172 9.84606897,32.7887448 C10.0667586,33.532469 10.6206897,34.5388138 11.9492414,34.6756414 C11.382069,36.3219862 9.8217931,37.5092966 7.98565517,37.5092966 M12.6377931,35.7195034 C12.726069,36.2955034 12.7878621,36.9090207 12.7878621,37.5092966 C12.7878621,37.9749517 13.1630345,38.352331 13.6286897,38.352331 C14.0943448,38.352331 14.4695172,37.9749517 14.4695172,37.5092966 C14.4695172,36.5625379 14.345931,35.6091586 14.1892414,34.7793655 C14.3415172,34.8499862 14.5026207,34.9184 14.6769655,34.9801931 C14.7674483,35.0088828 14.857931,35.024331 14.9484138,35.024331 C15.2993103,35.024331 15.6281379,34.8036414 15.7473103,34.4527448 C15.8973793,34.0135724 15.6634483,33.5346759 15.222069,33.3846069 C13.8008276,32.8990897 13.5867586,31.7029517 13.577931,31.6632276 C13.5735172,31.6168828 13.5624828,31.5749517 13.5492414,31.5308138 C12.7922759,29.0745379 10.2565517,28.1277793 9.35393103,27.8629517 C8.94786207,27.1832276 8.14675862,26.6006069 6.80496552,26.6006069 C5.14096552,26.6006069 4.35531034,27.4657103 3.72193103,28.1630897 C3.17462069,28.7677793 2.81268966,29.1672276 1.91006897,29.1672276 C1.44441379,29.1672276 1.06703448,29.5446069 1.06703448,30.0102621 C1.06703448,30.4737103 1.44441379,30.8510897 1.91006897,30.8510897 C2.26537931,30.8510897 2.57434483,30.8047448 2.85682759,30.736331 C2.48606897,31.0099862 2.12413793,31.1556414 1.91006897,31.1556414 C1.44441379,31.1556414 1.06703448,31.5330207 1.06703448,31.9986759 C1.06703448,32.464331 1.44441379,32.8417103 1.91006897,32.8417103 C2.17268966,32.8417103 2.47503448,32.7799172 2.79062069,32.6673655 C2.7862069,32.6894345 2.7817931,32.7115034 2.77958621,32.7335724 C2.43310345,32.9719172 2.10868966,33.0932966 1.91006897,33.0932966 C1.44441379,33.0932966 1.06703448,33.4706759 1.06703448,33.936331 C1.06703448,34.3997793 1.44441379,34.7771586 1.91006897,34.7771586 C2.19475862,34.7771586 2.52358621,34.7065379 2.86565517,34.576331 C2.22565517,35.1501241 1.46427586,35.5142621 0.841931034,35.5142621 C0.378482759,35.5142621 0.00110344828,35.8916414 0.00110344828,36.3550897 C0.00110344828,36.8207448 0.378482759,37.1959172 0.841931034,37.1959172 C1.67834483,37.1959172 2.54344828,36.8781241 3.32027586,36.3528828 C2.96275862,36.816331 2.52137931,37.1650207 2.02041379,37.3504 C1.58565517,37.5115034 1.36275862,37.9970207 1.52386207,38.4317793 C1.64965517,38.7716414 1.96965517,38.9812966 2.31393103,38.9812966 C2.41103448,38.9812966 2.51034483,38.9636414 2.60524138,38.9305379 C3.41296552,38.6304 4.11475862,38.0897103 4.66427586,37.372469 C5.56910345,38.1117793 6.72551724,38.5597793 7.98565517,38.5597793 C10.0115862,38.5597793 11.7682759,37.4055724 12.6377931,35.7195034" id="Fill-14" fill="#010202"></path>
                <path d="M38.2163862,11.3046069 L38.7394207,11.3046069 C39.030731,11.3046069 39.2646621,11.0706759 39.2646621,10.7815724 C39.2646621,10.4902621 39.030731,10.256331 38.7394207,10.256331 L38.2163862,10.256331 C37.9272828,10.256331 37.6933517,10.4902621 37.6933517,10.7815724 C37.6933517,11.0706759 37.9272828,11.3046069 38.2163862,11.3046069" id="Fill-16" fill="#010202"></path>
                <path d="M22.4922483,11.3046069 L23.0152828,11.3046069 C23.3065931,11.3046069 23.542731,11.0706759 23.542731,10.7815724 C23.542731,10.4902621 23.3065931,10.256331 23.0152828,10.256331 L22.4922483,10.256331 C22.2031448,10.256331 21.9692138,10.4902621 21.9692138,10.7815724 C21.9692138,11.0706759 22.2031448,11.3046069 22.4922483,11.3046069" id="Fill-18" fill="#010202"></path>
                <path d="M27.7336276,11.3046069 L28.2566621,11.3046069 C28.5479724,11.3046069 28.7841103,11.0706759 28.7841103,10.7815724 C28.7841103,10.4902621 28.5479724,10.256331 28.2566621,10.256331 L27.7336276,10.256331 C27.4445241,10.256331 27.2105931,10.4902621 27.2105931,10.7815724 C27.2105931,11.0706759 27.4445241,11.3046069 27.7336276,11.3046069" id="Fill-20" fill="#010202"></path>
                <path d="M30.3543172,11.3046069 L30.8773517,11.3046069 C31.1686621,11.3046069 31.4025931,11.0706759 31.4025931,10.7815724 C31.4025931,10.4902621 31.1686621,10.256331 30.8773517,10.256331 L30.3543172,10.256331 C30.0652138,10.256331 29.8312828,10.4902621 29.8312828,10.7815724 C29.8312828,11.0706759 30.0652138,11.3046069 30.3543172,11.3046069" id="Fill-22" fill="#010202"></path>
                <path d="M32.9750069,11.3046069 L33.4980414,11.3046069 C33.7893517,11.3046069 34.0232828,11.0706759 34.0232828,10.7815724 C34.0232828,10.4902621 33.7893517,10.256331 33.4980414,10.256331 L32.9750069,10.256331 C32.6859034,10.256331 32.4519724,10.4902621 32.4519724,10.7815724 C32.4519724,11.0706759 32.6859034,11.3046069 32.9750069,11.3046069" id="Fill-24" fill="#010202"></path>
                <path d="M35.5956966,11.3046069 L36.118731,11.3046069 C36.4100414,11.3046069 36.6439724,11.0706759 36.6439724,10.7815724 C36.6439724,10.4902621 36.4100414,10.256331 36.118731,10.256331 L35.5956966,10.256331 C35.3065931,10.256331 35.0726621,10.4902621 35.0726621,10.7815724 C35.0726621,11.0706759 35.3065931,11.3046069 35.5956966,11.3046069" id="Fill-26" fill="#010202"></path>
                <path d="M25.1129379,11.3046069 L25.6359724,11.3046069 C25.9272828,11.3046069 26.1634207,11.0706759 26.1634207,10.7815724 C26.1634207,10.4902621 25.9272828,10.256331 25.6359724,10.256331 L25.1129379,10.256331 C24.8238345,10.256331 24.5899034,10.4902621 24.5899034,10.7815724 C24.5899034,11.0706759 24.8238345,11.3046069 25.1129379,11.3046069" id="Fill-28" fill="#010202"></path>
                <path d="M34.1905655,54.2830345 L33.667531,54.2830345 C33.3784276,54.2830345 33.1422897,54.5147586 33.1422897,54.806069 C33.1422897,55.0951724 33.3784276,55.3313103 33.667531,55.3313103 L34.1905655,55.3313103 C34.4818759,55.3313103 34.7136,55.0951724 34.7136,54.806069 C34.7136,54.5147586 34.4818759,54.2830345 34.1905655,54.2830345" id="Fill-30" fill="#010202"></path>
                <path d="M31.5698759,54.2830345 L31.0468414,54.2830345 C30.7577379,54.2830345 30.5216,54.5147586 30.5216,54.806069 C30.5216,55.0951724 30.7577379,55.3313103 31.0468414,55.3313103 L31.5698759,55.3313103 C31.8611862,55.3313103 32.0951172,55.0951724 32.0951172,54.806069 C32.0951172,54.5147586 31.8611862,54.2830345 31.5698759,54.2830345" id="Fill-32" fill="#010202"></path>
                <path d="M28.9491862,54.2830345 L28.4261517,54.2830345 C28.1370483,54.2830345 27.9009103,54.5147586 27.9009103,54.806069 C27.9009103,55.0951724 28.1370483,55.3313103 28.4261517,55.3313103 L28.9491862,55.3313103 C29.2404966,55.3313103 29.4744276,55.0951724 29.4744276,54.806069 C29.4744276,54.5147586 29.2404966,54.2830345 28.9491862,54.2830345" id="Fill-34" fill="#010202"></path>
                <path d="M36.8112552,54.2830345 L36.2882207,54.2830345 C35.9991172,54.2830345 35.7629793,54.5147586 35.7629793,54.806069 C35.7629793,55.0951724 35.9991172,55.3313103 36.2882207,55.3313103 L36.8112552,55.3313103 C37.1025655,55.3313103 37.3342897,55.0951724 37.3342897,54.806069 C37.3342897,54.5147586 37.1025655,54.2830345 36.8112552,54.2830345" id="Fill-36" fill="#010202"></path>
                <path d="M23.7097931,54.2830345 L23.1845517,54.2830345 C22.8954483,54.2830345 22.6593103,54.5147586 22.6593103,54.806069 C22.6593103,55.0951724 22.8954483,55.3313103 23.1845517,55.3313103 L23.7097931,55.3313103 C23.9988966,55.3313103 24.2328276,55.0951724 24.2328276,54.806069 C24.2328276,54.5147586 23.9988966,54.2830345 23.7097931,54.2830345" id="Fill-38" fill="#010202"></path>
                <path d="M26.3284966,54.2830345 L25.8054621,54.2830345 C25.5163586,54.2830345 25.2802207,54.5147586 25.2802207,54.806069 C25.2802207,55.0951724 25.5163586,55.3313103 25.8054621,55.3313103 L26.3284966,55.3313103 C26.6198069,55.3313103 26.8537379,55.0951724 26.8537379,54.806069 C26.8537379,54.5147586 26.6198069,54.2830345 26.3284966,54.2830345" id="Fill-40" fill="#010202"></path>
                <path d="M39.4319448,54.2830345 L38.9089103,54.2830345 C38.6198069,54.2830345 38.383669,54.5147586 38.383669,54.806069 C38.383669,55.0951724 38.6198069,55.3313103 38.9089103,55.3313103 L39.4319448,55.3313103 C39.7232552,55.3313103 39.9549793,55.0951724 39.9549793,54.806069 C39.9549793,54.5147586 39.7232552,54.2830345 39.4319448,54.2830345" id="Fill-42" fill="#010202"></path>
                <path d="M18.4684138,31.7442207 L17.9431724,31.7442207 C17.654069,31.7442207 17.417931,31.9781517 17.417931,32.2694621 C17.417931,32.5585655 17.654069,32.7947034 17.9431724,32.7947034 L18.4684138,32.7947034 C18.7575172,32.7947034 18.9914483,32.5585655 18.9914483,32.2694621 C18.9914483,31.9781517 18.7575172,31.7442207 18.4684138,31.7442207" id="Fill-44" fill="#010202"></path>
                <path d="M15.3220414,32.7938207 L15.8472828,32.7938207 C16.1363862,32.7938207 16.3725241,32.5598897 16.3725241,32.2707862 C16.3725241,31.9794759 16.1363862,31.7433379 15.8472828,31.7433379 L15.3220414,31.7433379 C15.0329379,31.7433379 14.7990069,31.9794759 14.7990069,32.2707862 C14.7990069,32.5598897 15.0329379,32.7938207 15.3220414,32.7938207" id="Fill-46" fill="#010202"></path>
                <path d="M45.1970207,31.7442207 C44.9079172,31.7442207 44.6739862,31.9781517 44.6739862,32.2694621 C44.6739862,32.5585655 44.9079172,32.7947034 45.1970207,32.7947034 L45.7200552,32.7947034 C46.0113655,32.7947034 46.2475034,32.5585655 46.2475034,32.2694621 C46.2475034,31.9781517 46.0113655,31.7442207 45.7200552,31.7442207 L45.1970207,31.7442207 Z" id="Fill-48" fill="#010202"></path>
                <path d="M48.8673103,32.2701241 C48.8673103,31.9788138 48.6333793,31.7448828 48.342069,31.7448828 L47.8168276,31.7448828 C47.529931,31.7448828 47.2937931,31.9788138 47.2937931,32.2701241 C47.2937931,32.5592276 47.529931,32.7931586 47.8168276,32.7931586 L48.342069,32.7931586 C48.6333793,32.7931586 48.8673103,32.5592276 48.8673103,32.2701241" id="Fill-50" fill="#010202"></path>
                <path d="M11.6193103,45.5373241 C11.7097931,45.7227034 11.8973793,45.8286345 12.0893793,45.8286345 C12.1666207,45.8286345 12.246069,45.8109793 12.3211034,45.7734621 C12.5815172,45.6454621 12.6874483,45.3320828 12.5594483,45.071669 L12.3255172,44.6016 C12.1975172,44.3433931 11.8841379,44.2352552 11.6237241,44.3654621 C11.3655172,44.4934621 11.2595862,44.8068414 11.3875862,45.0672552 L11.6193103,45.5373241 Z" id="Fill-52" fill="#010202"></path>
                <path d="M10.4578207,43.1860966 C10.5505103,43.3714759 10.7358897,43.4796138 10.9300966,43.4796138 C11.0073379,43.4796138 11.0845793,43.4619586 11.1596138,43.4244414 C11.4200276,43.2986483 11.5259586,42.9830621 11.3979586,42.7226483 L11.1662345,42.2525793 C11.0382345,41.9943724 10.7248552,41.8884414 10.4644414,42.0164414 C10.2062345,42.1422345 10.0980966,42.4578207 10.2283034,42.7160276 L10.4578207,43.1860966 Z" id="Fill-54" fill="#010202"></path>
                <path d="M12.7788138,47.8865655 C12.8715034,48.0719448 13.0568828,48.1778759 13.2510897,48.1778759 C13.328331,48.1778759 13.4055724,48.1602207 13.4806069,48.1227034 C13.7410207,47.9969103 13.8469517,47.6813241 13.7189517,47.4231172 L13.4872276,46.9530483 C13.3614345,46.6926345 13.0458483,46.5867034 12.7854345,46.7147034 C12.5272276,46.8427034 12.4190897,47.1560828 12.5492966,47.4164966 L12.7788138,47.8865655 Z" id="Fill-56" fill="#010202"></path>
                <path d="M10.0051862,39.9037793 C9.87497931,39.6433655 9.5638069,39.5374345 9.3033931,39.6676414 C9.04297931,39.7934345 8.93925517,40.1090207 9.06504828,40.3672276 L9.29897931,40.8372966 C9.38946207,41.0226759 9.57704828,41.1308138 9.76904828,41.1308138 C9.84628966,41.1308138 9.92573793,41.1131586 10.0007724,41.0756414 C10.2589793,40.9476414 10.3671172,40.6320552 10.2369103,40.3738483 L10.0051862,39.9037793 Z" id="Fill-58" fill="#010202"></path>
                <path d="M48.828469,49.3735724 C48.9012966,49.4110897 48.9807448,49.4265379 49.0579862,49.4265379 C49.2521931,49.4265379 49.4375724,49.3228138 49.5280552,49.1374345 L49.6670897,48.8571586 C49.7950897,48.5967448 49.6891586,48.2833655 49.4287448,48.1553655 C49.1705379,48.0273655 48.8549517,48.1332966 48.7269517,48.3937103 L48.5901241,48.6739862 C48.4621241,48.9321931 48.5680552,49.2455724 48.828469,49.3735724" id="Fill-60" fill="#010202"></path>
                <path d="M52.9125517,41.1063172 C52.6521379,40.9761103 52.3365517,41.0842483 52.2107586,41.3424552 L51.9768276,41.8125241 C51.8488276,42.0729379 51.9547586,42.3863172 52.2151724,42.5165241 C52.2902069,42.5518345 52.3696552,42.5694897 52.4468966,42.5694897 C52.6388966,42.5694897 52.8242759,42.4635586 52.9169655,42.2781793 L53.1486897,41.8081103 C53.2766897,41.5476966 53.1707586,41.2365241 52.9125517,41.1063172" id="Fill-62" fill="#010202"></path>
                <path d="M51.0547862,44.8648828 C51.1298207,44.9024 51.2070621,44.9178483 51.2843034,44.9178483 C51.4785103,44.9178483 51.6638897,44.8141241 51.7543724,44.6287448 L51.9883034,44.1586759 C52.1163034,43.8982621 52.0103724,43.5848828 51.7499586,43.4546759 C51.4895448,43.3288828 51.1761655,43.4348138 51.0481655,43.6952276 L50.8164414,44.1652966 C50.6884414,44.4235034 50.7943724,44.7368828 51.0547862,44.8648828" id="Fill-64" fill="#010202"></path>
                <path d="M54.0720552,38.7570759 C53.8116414,38.6290759 53.4960552,38.7350069 53.3702621,38.9932138 L53.136331,39.4632828 C53.0105379,39.7236966 53.116469,40.0392828 53.3768828,40.1672828 C53.4519172,40.2025931 53.5291586,40.2202483 53.6064,40.2202483 C53.8006069,40.2202483 53.9859862,40.1121103 54.0786759,39.926731 L54.3081931,39.4566621 C54.4384,39.1984552 54.3302621,38.8850759 54.0720552,38.7570759" id="Fill-66" fill="#010202"></path>
                <path d="M50.589131,45.8045793 C50.3309241,45.6765793 50.0153379,45.7825103 49.8895448,46.0429241 L49.6556138,46.5129931 C49.5276138,46.7712 49.6335448,47.0867862 49.8939586,47.2147862 C49.9689931,47.2523034 50.0484414,47.2699586 50.1256828,47.2699586 C50.3176828,47.2699586 50.5030621,47.1618207 50.5957517,46.9764414 L50.8274759,46.5063724 C50.9554759,46.2481655 50.8495448,45.9347862 50.589131,45.8045793" id="Fill-68" fill="#010202"></path>
                <path d="M51.5224276,22.601931 C51.6151172,22.7873103 51.8004966,22.8954483 51.9947034,22.8954483 C52.0719448,22.8954483 52.1491862,22.8777931 52.2242207,22.8402759 C52.4846345,22.7122759 52.5905655,22.3966897 52.4625655,22.1384828 L52.2308414,21.6684138 C52.1050483,21.408 51.7894621,21.302069 51.5290483,21.430069 C51.2708414,21.558069 51.1627034,21.8736552 51.2929103,22.1318621 L51.5224276,22.601931 Z" id="Fill-70" fill="#010202"></path>
                <path d="M50.8327724,20.5459862 C50.9100138,20.5459862 50.9894621,20.528331 51.0644966,20.4908138 C51.3249103,20.3628138 51.4308414,20.0472276 51.3028414,19.7890207 L51.0689103,19.3189517 C50.9409103,19.0585379 50.627531,18.9526069 50.3671172,19.0806069 C50.1089103,19.2108138 50.0029793,19.5241931 50.1309793,19.7824 L50.3627034,20.252469 C50.4553931,20.4378483 50.6407724,20.5459862 50.8327724,20.5459862" id="Fill-72" fill="#010202"></path>
                <path d="M49.673269,18.1947586 C49.7505103,18.1947586 49.8277517,18.1771034 49.9027862,18.1417931 C50.1632,18.0137931 50.2713379,17.6982069 50.141131,17.44 L49.9094069,16.969931 C49.7814069,16.7095172 49.4680276,16.6035862 49.2076138,16.7315862 C48.9494069,16.8617931 48.841269,17.1729655 48.9714759,17.4333793 L49.2009931,17.9034483 C49.2936828,18.0888276 49.4790621,18.1947586 49.673269,18.1947586" id="Fill-74" fill="#010202"></path>
                <path d="M52.6841379,24.9533793 C52.7768276,25.1365517 52.9622069,25.2446897 53.1542069,25.2446897 C53.2314483,25.2446897 53.3108966,25.2270345 53.385931,25.1895172 C53.6463448,25.0615172 53.7522759,24.7481379 53.6242759,24.4877241 L53.3903448,24.0176552 C53.2645517,23.7594483 52.9489655,23.6513103 52.6885517,23.7815172 C52.4303448,23.9073103 52.3244138,24.2228966 52.4524138,24.4811034 L52.6841379,24.9533793 Z" id="Fill-76" fill="#010202"></path>
                <path d="M53.8198069,27.2507586 C53.9102897,27.4361379 54.095669,27.5442759 54.2898759,27.5442759 C54.3671172,27.5442759 54.4465655,27.5266207 54.5193931,27.4891034 C54.7820138,27.3611034 54.8857379,27.0455172 54.7599448,26.7873103 L54.5524966,26.3702069 C54.4244966,26.1075862 54.1089103,26.0016552 53.8507034,26.1296552 C53.5902897,26.2576552 53.4843586,26.5710345 53.6123586,26.8336552 L53.8198069,27.2507586 Z" id="Fill-78" fill="#010202"></path>
                <path d="M40.0136828,43.6903724 C39.8547862,43.4498207 39.5303724,43.3814069 39.2876138,43.5425103 C39.0470621,43.7014069 38.9786483,44.0236138 39.1375448,44.2685793 L39.4244414,44.7055448 C39.5259586,44.8578207 39.6914759,44.9394759 39.8636138,44.9394759 C39.9629241,44.9394759 40.0622345,44.9129931 40.1505103,44.8534069 C40.393269,44.6945103 40.4594759,44.3723034 40.3005793,44.1273379 L40.0136828,43.6903724 Z" id="Fill-80" fill="#010202"></path>
                <path d="M41.4534621,45.8800552 C41.2945655,45.6395034 40.9679448,45.5710897 40.7273931,45.7321931 C40.4868414,45.8910897 40.4184276,46.2132966 40.5773241,46.4582621 L40.8642207,46.8952276 C40.9657379,47.0475034 41.1312552,47.1291586 41.3033931,47.1291586 C41.4027034,47.1291586 41.5020138,47.1026759 41.5902897,47.0430897 C41.8330483,46.8841931 41.8992552,46.5619862 41.7403586,46.3170207 L41.4534621,45.8800552 Z" id="Fill-82" fill="#010202"></path>
                <path d="M43.6065103,50.1106759 C43.3659586,50.2673655 43.2975448,50.5939862 43.4586483,50.8367448 L43.5910621,51.0375724 C43.6903724,51.1898483 43.8580966,51.2737103 44.0280276,51.2737103 C44.1273379,51.2737103 44.2266483,51.2472276 44.3149241,51.1876414 C44.5576828,51.0287448 44.6260966,50.704331 44.4672,50.4615724 L44.3325793,50.2585379 C44.1758897,50.0179862 43.849269,49.9517793 43.6065103,50.1106759" id="Fill-84" fill="#010202"></path>
                <path d="M43.0309517,49.2334345 C43.2715034,49.0767448 43.3399172,48.7501241 43.1810207,48.5095724 L42.8941241,48.0704 C42.7330207,47.8276414 42.4086069,47.7614345 42.1658483,47.920331 C41.9252966,48.0792276 41.8590897,48.4036414 42.0179862,48.6441931 L42.3048828,49.0833655 C42.4064,49.2378483 42.5719172,49.3195034 42.7440552,49.3195034 C42.8411586,49.3195034 42.9426759,49.2908138 43.0309517,49.2334345" id="Fill-86" fill="#010202"></path>
                <path d="M22.7572966,45.7313103 C22.5167448,45.5724138 22.1901241,45.6386207 22.0334345,45.8791724 L21.744331,46.3183448 C21.5854345,46.5611034 21.6516414,46.8833103 21.8921931,47.0444138 C21.9826759,47.1017931 22.0819862,47.1304828 22.1812966,47.1304828 C22.3512276,47.1304828 22.5211586,47.0488276 22.620469,46.8943448 L22.9073655,46.4573793 C23.068469,46.2146207 23.0000552,45.8902069 22.7572966,45.7313103" id="Fill-88" fill="#010202"></path>
                <path d="M20.5934345,48.0697379 L20.304331,48.5067034 C20.1454345,48.751669 20.2116414,49.0738759 20.4544,49.2327724 C20.5448828,49.2923586 20.6419862,49.3188414 20.7412966,49.3188414 C20.9134345,49.3188414 21.0811586,49.2371862 21.180469,49.0849103 L21.4673655,48.6479448 C21.628469,48.4029793 21.5600552,48.0807724 21.3172966,47.9218759 C21.0767448,47.7607724 20.7501241,47.8291862 20.5934345,48.0697379" id="Fill-90" fill="#010202"></path>
                <path d="M24.1990621,43.5416276 C23.9563034,43.382731 23.6296828,43.4489379 23.4729931,43.6894897 L23.1838897,44.1286621 C23.0249931,44.3714207 23.0912,44.6936276 23.3317517,44.854731 C23.4222345,44.9121103 23.5215448,44.9408 23.6208552,44.9408 C23.7907862,44.9408 23.9607172,44.8591448 24.0600276,44.7046621 L24.3469241,44.2676966 C24.5080276,44.0249379 24.4396138,43.7005241 24.1990621,43.5416276" id="Fill-92" fill="#010202"></path>
                <path d="M20.2443034,18.0135724 L20.5687172,18.4262621 C20.6724414,18.556469 20.8269241,18.6226759 20.9814069,18.6226759 C21.0939586,18.6226759 21.2087172,18.5873655 21.3036138,18.512331 C21.533131,18.3313655 21.5728552,18.000331 21.3918897,17.7752276 L21.065269,17.3625379 C20.8865103,17.1374345 20.5576828,17.0977103 20.3281655,17.2786759 C20.1030621,17.4574345 20.0633379,17.7862621 20.2443034,18.0135724" id="Fill-94" fill="#010202"></path>
                <path d="M22.1947586,20.4791172 C22.2984828,20.611531 22.4507586,20.6799448 22.6074483,20.6799448 C22.72,20.6799448 22.8347586,20.6424276 22.9318621,20.5651862 C23.1591724,20.3864276 23.1966897,20.0576 23.017931,19.8302897 L22.6935172,19.4198069 C22.5147586,19.1924966 22.1837241,19.1527724 21.9564138,19.331531 C21.7291034,19.5124966 21.6893793,19.8413241 21.8703448,20.0686345 L22.1947586,20.4791172 Z" id="Fill-96" fill="#010202"></path>
                <path d="M19.6797793,16.4555034 C19.9070897,16.2767448 19.9446069,15.9479172 19.7636414,15.7206069 L19.4414345,15.3079172 C19.260469,15.0828138 18.9316414,15.0430897 18.704331,15.2218483 C18.4770207,15.4028138 18.4395034,15.7316414 18.6182621,15.9589517 L18.9426759,16.3716414 C19.0464,16.5018483 19.1986759,16.5702621 19.3553655,16.5702621 C19.4679172,16.5702621 19.5826759,16.5327448 19.6797793,16.4555034" id="Fill-98" fill="#010202"></path>
                <path d="M23.4966069,22.1234759 L23.8210207,22.5361655 C23.9247448,22.6663724 24.0792276,22.7325793 24.2337103,22.7325793 C24.348469,22.7325793 24.4610207,22.697269 24.5581241,22.6222345 C24.7854345,22.441269 24.8251586,22.1102345 24.6441931,21.885131 L24.3175724,21.4724414 C24.1388138,21.2473379 23.8099862,21.2076138 23.5826759,21.3885793 C23.3553655,21.5673379 23.3178483,21.8961655 23.4966069,22.1234759" id="Fill-100" fill="#010202"></path>
                <path d="M41.5461517,17.8520276 L41.5329103,17.8740966 C41.3762207,18.1168552 41.4534621,18.4302345 41.6962207,18.5869241 C41.7800828,18.6398897 41.8749793,18.6663724 41.9720828,18.6663724 C42.1486345,18.6663724 42.3273931,18.5758897 42.4267034,18.4192 C42.5856,18.1742345 42.5127724,17.8498207 42.2700138,17.6953379 C42.0294621,17.5364414 41.7028414,17.6070621 41.5461517,17.8520276" id="Fill-102" fill="#010202"></path>
                <path d="M40.2443034,20.7852138 C40.3325793,20.8425931 40.4340966,20.8712828 40.5334069,20.8712828 C40.7033379,20.8712828 40.8688552,20.7874207 40.9703724,20.6351448 L41.2594759,20.1959724 C41.4161655,19.9554207 41.3499586,19.6310069 41.1094069,19.4699034 C40.8666483,19.3110069 40.5422345,19.3772138 40.381131,19.6199724 L40.0964414,20.0591448 C39.9353379,20.2996966 40.0037517,20.6263172 40.2443034,20.7852138" id="Fill-104" fill="#010202"></path>
                <path d="M38.9426759,21.8089931 L38.6557793,22.2481655 C38.4968828,22.4909241 38.5630897,22.8153379 38.8058483,22.9720276 C38.8941241,23.0338207 38.9934345,23.0603034 39.0927448,23.0603034 C39.2648828,23.0603034 39.4304,22.9764414 39.5319172,22.8241655 L39.8188138,22.3872 C39.9777103,22.1444414 39.9092966,21.8200276 39.6687448,21.661131 C39.4281931,21.5000276 39.1015724,21.5684414 38.9426759,21.8089931" id="Fill-106" fill="#010202"></path>
                <path d="M12.272331,22.6818207 C12.3473655,22.7193379 12.4268138,22.7347862 12.5040552,22.7347862 C12.6960552,22.7347862 12.8836414,22.6288552 12.9741241,22.4434759 L13.2058483,21.9734069 C13.3338483,21.7129931 13.2279172,21.3996138 12.9675034,21.2694069 C12.7070897,21.1436138 12.3959172,21.2517517 12.2657103,21.5099586 L12.0361931,21.9800276 C11.9059862,22.2382345 12.0141241,22.5516138 12.272331,22.6818207" id="Fill-108" fill="#010202"></path>
                <path d="M9.95133793,27.3800828 C10.0263724,27.4176 10.1036138,27.4330483 10.1830621,27.4330483 C10.3750621,27.4330483 10.5626483,27.3271172 10.653131,27.1417379 L10.8848552,26.671669 C11.0128552,26.4134621 10.9069241,26.0978759 10.6465103,25.9698759 C10.3860966,25.8440828 10.0749241,25.9500138 9.94471724,26.2082207 L9.7152,26.6782897 C9.5849931,26.9387034 9.69313103,27.2520828 9.95133793,27.3800828" id="Fill-110" fill="#010202"></path>
                <path d="M13.4318345,20.3303724 C13.506869,20.3678897 13.5863172,20.3833379 13.6635586,20.3833379 C13.8577655,20.3833379 14.0431448,20.2796138 14.1336276,20.0942345 L14.3675586,19.6241655 C14.4955586,19.3659586 14.3896276,19.0503724 14.1292138,18.9201655 C13.8688,18.7943724 13.5576276,18.9003034 13.4274207,19.1585103 L13.1956966,19.6285793 C13.0676966,19.8889931 13.1736276,20.2023724 13.4318345,20.3303724" id="Fill-112" fill="#010202"></path>
                <path d="M11.8091034,23.6212966 C11.5486897,23.4910897 11.2353103,23.5970207 11.1073103,23.8574345 L10.8733793,24.3275034 C10.7475862,24.5857103 10.8513103,24.9012966 11.1117241,25.0315034 C11.1867586,25.0668138 11.2662069,25.084469 11.3434483,25.084469 C11.5376552,25.084469 11.7230345,24.976331 11.8135172,24.7909517 L12.0452414,24.3208828 C12.1754483,24.0626759 12.0673103,23.7492966 11.8091034,23.6212966" id="Fill-114" fill="#010202"></path>
                <path d="M14.5935448,17.9813517 C14.6685793,18.018869 14.7480276,18.0343172 14.825269,18.0343172 C15.017269,18.0343172 15.2048552,17.9283862 15.2953379,17.7452138 L15.5270621,17.2751448 C15.6550621,17.014731 15.549131,16.6991448 15.2887172,16.5711448 C15.0283034,16.4453517 14.717131,16.5512828 14.5869241,16.8094897 L14.3574069,17.2795586 C14.2272,17.5399724 14.3353379,17.8533517 14.5935448,17.9813517" id="Fill-116" fill="#010202"></path>
            </g>
        </g>
    </g>
</svg>