<?xml version="1.0" encoding="UTF-8"?>
<svg width="64px" height="64px" viewBox="0 0 64 64" version="1.1" xmlns="http://www.w3.org/2000/svg" xmlns:xlink="http://www.w3.org/1999/xlink">
    <!-- Generator: sketchtool 63 (101010) - https://sketch.com -->
    <title>6DE45E31-C819-40A3-9364-F687050126BF</title>
    <desc>Created with sketchtool.</desc>
    <defs>
        <polygon id="path-1" points="0 0 63.0447761 0 63.0447761 63.1164179 0 63.1164179"></polygon>
    </defs>
    <g id="Design-System" stroke="none" stroke-width="1" fill="none" fill-rule="evenodd">
        <g id="Icons" transform="translate(-687.000000, -568.000000)">
            <g id="Group-3" transform="translate(687.000000, 568.000000)">
                <mask id="mask-2" fill="white">
                    <use xlink:href="#path-1"></use>
                </mask>
                <g id="Clip-2"></g>
                <path d="M31.5223881,43.0810746 C29.038806,43.0810746 26.7462687,42.3159403 24.9313433,40.9795821 L40.8835821,25.0273433 C42.2208955,26.937791 42.9850746,29.2303284 42.9850746,31.6183881 C42.9850746,37.9228657 37.8268657,43.0810746 31.5223881,43.0810746 M31.5223881,20.1557015 C34.0059701,20.1557015 36.2985075,20.9198806 38.1134328,22.2562388 L22.161194,38.2084776 C20.8238806,36.3945075 20.0597015,34.1019701 20.0597015,31.6183881 C20.0597015,25.3129552 25.2179104,20.1557015 31.5223881,20.1557015 M31.5223881,16.334806 C23.1164179,16.334806 16.238806,23.2114627 16.238806,31.6183881 C16.238806,40.0243582 23.1164179,46.9019701 31.5223881,46.9019701 C39.9283582,46.9019701 46.8059701,40.0243582 46.8059701,31.6183881 C46.8059701,23.2114627 39.9283582,16.334806 31.5223881,16.334806 M31.5223881,59.1288358 C15.1880597,52.4422687 4.20298507,36.3945075 3.82089552,18.8183881 C14.1162985,16.2402388 22.4391642,13.0937313 31.5223881,4.58459701 C40.2626866,12.7718209 48.8444179,16.2201791 59.2238806,18.8183881 C58.841791,36.4900299 47.8567164,52.5368358 31.5223881,59.1288358 M61.5164179,15.3795821 C50.6192239,13.1099701 41.5570149,9.27092537 32.8597015,0.57361194 C32.0945672,-0.191522388 30.9492537,-0.191522388 30.1850746,0.57361194 C21.6157612,9.25564179 12.5459104,13.0841791 1.52835821,15.3795821 C0.668656716,15.5696716 0,16.334806 0,17.2900299 C0,38.926806 13.222209,56.1943881 30.8537313,63.0442985 C31.0447761,63.1407761 32,63.1407761 32.1910448,63.0442985 C49.6630448,56.2564776 63.0447761,39.1063881 63.0447761,17.2900299 C63.0447761,16.4303284 62.3761194,15.5696716 61.5164179,15.3795821" id="Fill-1" fill="#020303" mask="url(#mask-2)"></path>
            </g>
        </g>
    </g>
</svg>