<?xml version="1.0" encoding="UTF-8"?>
<svg width="62px" height="46px" viewBox="0 0 62 46" version="1.1" xmlns="http://www.w3.org/2000/svg" xmlns:xlink="http://www.w3.org/1999/xlink">
    <!-- Generator: sketchtool 63 (101010) - https://sketch.com -->
    <title>019E0F21-9B80-4C81-ABD9-21D7CF9364A7</title>
    <desc>Created with sketchtool.</desc>
    <defs>
        <polygon id="path-1" points="0.00112941176 0.271058824 61.1124706 0.271058824 61.1124706 28.0824471 0.00112941176 28.0824471"></polygon>
    </defs>
    <g id="Design-System" stroke="none" stroke-width="1" fill="none" fill-rule="evenodd">
        <g id="Icons" transform="translate(-913.000000, -258.000000)">
            <g id="Group-6" transform="translate(913.000000, 255.000000)">
                <g id="Group-3" transform="translate(0.000000, 3.493647)">
                    <mask id="mask-2" fill="white">
                        <use xlink:href="#path-1"></use>
                    </mask>
                    <g id="Clip-2"></g>
                    <path d="M47.6208941,16.1935059 L43.3856,2.10221176 C43.0053647,0.841035294 41.7216,0.0655058824 40.4303059,0.317741176 L30.1865412,2.33185882 L19.9465412,0.317741176 C18.6552471,0.0655058824 17.3677176,0.833505882 16.9912471,2.10221176 L12.7258353,16.3064471 C5.02324706,17.4885647 0.00112941176,19.4085647 0.00112941176,21.5808 C0.00112941176,25.1723294 13.6858353,28.0824471 30.5554824,28.0824471 C47.4364235,28.0824471 61.1136,25.1723294 61.1136,21.5808 C61.1136,19.3370353 55.7639529,17.3643294 47.6208941,16.1935059" id="Fill-1" fill="#010202" mask="url(#mask-2)"></path>
                </g>
                <path d="M40.1852235,43.6615529 C37.5386353,44.1321412 35.2233412,43.5373176 35.0125176,42.3476706 C34.8054588,41.1504941 36.7744,39.8102588 39.4172235,39.3396706 C42.0638118,38.8728471 44.3828706,39.4676706 44.5899294,40.6535529 C44.8045176,41.8507294 42.8280471,43.1947294 40.1852235,43.6615529 M20.1984,43.6615529 C17.5555765,43.1947294 15.5791059,41.8507294 15.7936941,40.6535529 C16.0045176,39.4601412 18.3198118,38.8728471 20.9664,39.3396706 C23.6092235,39.8102588 25.5856941,41.1504941 25.3711059,42.3476706 C25.1640471,43.5373176 22.8449882,44.1321412 20.1984,43.6615529 M50.6661647,35.9439059 C49.8642824,34.9424941 48.6256941,34.4380235 47.3456941,34.5999059 C35.6751059,36.0681412 24.1438118,36.0756706 13.0605176,34.6149647 C11.7767529,34.4455529 10.5344,34.9424941 9.72498824,35.9514353 C8.92310588,36.9566118 8.70098824,38.2742588 9.14522353,39.4827294 L9.35604706,40.0512 C10.7188706,43.8046118 13.8096941,46.7523765 17.6158118,47.9495529 L18.5381647,48.2394353 C21.7984,49.2634353 25.3485176,48.4201412 27.7993412,46.0333176 C29.1358118,44.7307294 31.2402824,44.7307294 32.5767529,46.0333176 C34.3386353,47.7500235 36.6689882,48.6686118 39.0558118,48.6686118 C39.9856941,48.6686118 40.9268706,48.5293176 41.8416941,48.2394353 L42.7640471,47.9495529 C46.5739294,46.7523765 49.6647529,43.8046118 51.0238118,40.0512 L51.2384,39.4752 C51.6788706,38.2667294 51.4718118,36.9490824 50.6661647,35.9439059" id="Fill-4" fill="#010202"></path>
            </g>
        </g>
    </g>
</svg>