<?xml version="1.0" encoding="UTF-8"?>
<svg width="63px" height="60px" viewBox="0 0 63 60" version="1.1" xmlns="http://www.w3.org/2000/svg" xmlns:xlink="http://www.w3.org/1999/xlink">
    <!-- Generator: sketchtool 63 (101010) - https://sketch.com -->
    <title>9263BE2E-6F55-4C28-8876-5975628902DB</title>
    <desc>Created with sketchtool.</desc>
    <defs>
        <polygon id="path-1" points="0 0.00170666667 62.7029333 0.00170666667 62.7029333 59.95264 0 59.95264"></polygon>
    </defs>
    <g id="Design-System" stroke="none" stroke-width="1" fill="none" fill-rule="evenodd">
        <g id="Icons" transform="translate(-491.000000, -568.000000)">
            <g id="Group-3" transform="translate(491.000000, 568.000000)">
                <mask id="mask-2" fill="white">
                    <use xlink:href="#path-1"></use>
                </mask>
                <g id="Clip-2"></g>
                <path d="M35.9936,47.6433067 L55.6245333,47.6433067 L55.6245333,44.4859733 L35.9936,44.4859733 L35.9936,47.6433067 Z M30.6304,53.2923733 L55.6202667,53.2923733 L55.6202667,50.13504 L30.6304,50.13504 L30.6304,53.2923733 Z M13.8496,24.71424 C13.8026667,24.71424 13.7472,24.7185067 13.696,24.72704 L13.6533333,24.7355733 L13.5978667,24.7483733 L13.5594667,24.7611733 L13.5381333,24.7697067 L13.5296,24.7739733 L13.5082667,24.7825067 L13.4954667,24.7867733 L13.4826667,24.79104 L13.4656,24.7953067 L13.4570667,24.7995733 L13.4357333,24.8123733 L13.4229333,24.81664 L13.4058667,24.8251733 L13.3930667,24.8337067 L13.3845333,24.8379733 L13.376,24.8465067 L13.3632,24.8507733 L13.3546667,24.85504 L13.3418667,24.8635733 L13.3333333,24.86784 L13.3248,24.8763733 L13.3162667,24.88064 L13.3077333,24.8891733 L13.2992,24.8977067 L13.2906667,24.9019733 L13.2821333,24.9105067 L13.2736,24.91904 L13.2608,24.9233067 L13.2522667,24.93184 L13.2437333,24.9403733 L13.2352,24.9489067 L13.2266667,24.9531733 L13.2181333,24.9617067 L13.2096,24.97024 L13.2010667,24.9745067 L13.1925333,24.98304 L13.184,24.9915733 C13.0346667,25.1451733 12.9322667,25.3457067 12.9109333,25.57184 L12.9109333,25.58464 L12.9109333,25.59744 L12.9109333,25.61024 L12.9109333,25.62304 L12.9066667,25.63584 L12.9066667,25.64864 L12.9066667,25.66144 L12.9066667,55.7499733 C12.9066667,56.2747733 13.3248,56.6971733 13.8496,56.6971733 L58.496,56.6971733 C59.0122667,56.6971733 59.4432,56.26624 59.4432,55.7499733 L59.4432,25.66144 C59.4432,25.13664 59.0208,24.71424 58.496,24.71424 L13.8496,24.71424 Z M56.3285333,21.4545067 L58.496,21.4545067 C60.8042667,21.4545067 62.7029333,23.3531733 62.7029333,25.66144 L62.7029333,55.7499733 C62.7029333,58.0625067 60.8128,59.95264 58.496,59.95264 L13.8496,59.95264 C11.5456,59.95264 9.64693333,58.0539733 9.64693333,55.7499733 L9.64693333,50.7835733 C9.28,50.3227733 9.0112,49.81504 8.8576,49.2347733 L0.174933333,16.8379733 C-0.5376,14.7003733 1.01546667,12.2683733 3.1488,11.69664 L46.272,0.142506667 C48.4992,-0.45056 50.816,0.884906667 51.4133333,3.11210667 L56.3285333,21.4545067 Z M3.7888,17.76384 L48.7466667,5.71904 L48.2730667,3.95264 C48.1365333,3.44490667 47.616,3.14624 47.1082667,3.28277333 L3.98506667,14.8369067 C3.50293333,14.9691733 3.15733333,15.5195733 3.31946667,16.0017067 L3.7888,17.76384 Z M50.2485333,11.32544 L5.29493333,23.37024 L9.64693333,39.6347733 L9.64693333,25.66144 L9.6512,25.6059733 L9.6512,25.5505067 L9.6512,25.4993067 L9.65546667,25.44384 L9.664,25.3371733 L9.664,25.3329067 L9.66826667,25.2859733 L9.66826667,25.2817067 C9.7536,24.2747733 10.2058667,23.37024 10.8842667,22.6875733 L10.9184,22.65344 L10.9568,22.6193067 L10.9909333,22.5851733 L11.0293333,22.55104 L11.0634667,22.5169067 L11.0634667,22.51264 L11.1061333,22.4827733 L11.1445333,22.4529067 L11.1786667,22.4187733 L11.2170667,22.38464 L11.2597333,22.3547733 L11.3024,22.32064 L11.3408,22.29504 L11.3792,22.2651733 L11.4218667,22.2353067 L11.4645333,22.20544 L11.5072,22.1755733 L11.5456,22.1457067 L11.5882667,22.1201067 L11.6778667,22.06464 C11.7162667,22.03904 11.7632,22.01344 11.8058667,21.98784 L11.8528,21.96224 L11.8954667,21.9409067 L11.9381333,21.9195733 L12.0362667,21.87264 L12.0789333,21.8513067 L12.1258667,21.8299733 L12.1728,21.8043733 L12.2197333,21.7873067 L12.2197333,21.78304 L12.2624,21.77024 L12.3605333,21.73184 C12.8256,21.55264 13.3248,21.4545067 13.8496,21.4545067 L52.9621333,21.4545067 L50.2485333,11.32544 Z M18.6965333,36.24704 L26.8629333,36.24704 C27.6778667,36.24704 28.3349333,36.9083733 28.3349333,37.7233067 L28.3349333,41.8619733 C28.3349333,42.67264 27.6778667,43.3339733 26.8629333,43.3339733 L18.6965333,43.3339733 C17.8901333,43.3339733 17.2245333,42.67264 17.2245333,41.8619733 L17.2245333,37.7233067 C17.2245333,36.9083733 17.8901333,36.24704 18.6965333,36.24704 L18.6965333,36.24704 Z" id="Fill-1" fill="#020303" mask="url(#mask-2)"></path>
            </g>
        </g>
    </g>
</svg>