<?xml version="1.0" encoding="UTF-8"?>
<svg width="60px" height="60px" viewBox="0 0 60 60" version="1.1" xmlns="http://www.w3.org/2000/svg" xmlns:xlink="http://www.w3.org/1999/xlink">
    <!-- Generator: sketchtool 63 (101010) - https://sketch.com -->
    <title>7EEE55FD-FCA3-41D7-A990-0463299B05CB</title>
    <desc>Created with sketchtool.</desc>
    <defs>
        <polygon id="path-1" points="0 60 60 60 60 0 0 0"></polygon>
    </defs>
    <g id="Design-System" stroke="none" stroke-width="1" fill="none" fill-rule="evenodd">
        <g id="Icons" transform="translate(-276.000000, -410.000000)">
            <g id="Group-21" transform="translate(276.000000, 410.000000)">
                <path d="M56.9998,50 L28.9998,50 C28.4478,50 27.9998,49.552 27.9998,49 L27.9998,48 L57.9998,48 L57.9998,49 C57.9998,49.552 57.5518,50 56.9998,50 L56.9998,50 Z M46.8668,58 L39.1328,58 L39.8828,52 L46.1168,52 L46.8668,58 Z M28.9998,30 L56.9998,30 C57.5518,30 57.9998,30.448 57.9998,31 L57.9998,46 L27.9998,46 L27.9998,31 C27.9998,30.448 28.4478,30 28.9998,30 L28.9998,30 Z M56.9998,28 L28.9998,28 C27.3428,28 25.9998,29.343 25.9998,31 L25.9998,49 C25.9998,50.657 27.3428,52 28.9998,52 L37.8668,52 L37.1168,58 L34.9998,58 L34.9998,60 L50.9998,60 L50.9998,58 L48.8828,58 L48.1328,52 L56.9998,52 C58.6568,52 59.9998,50.657 59.9998,49 L59.9998,31 C59.9998,29.343 58.6568,28 56.9998,28 L56.9998,28 Z" id="Fill-1" fill="#020303"></path>
                <mask id="mask-2" fill="white">
                    <use xlink:href="#path-1"></use>
                </mask>
                <g id="Clip-4"></g>
                <polygon id="Fill-3" fill="#020303" mask="url(#mask-2)" points="34 10 36 10 36 8 34 8"></polygon>
                <polygon id="Fill-5" fill="#020303" mask="url(#mask-2)" points="38 10 40 10 40 8 38 8"></polygon>
                <polygon id="Fill-6" fill="#020303" mask="url(#mask-2)" points="42 10 44 10 44 8 42 8"></polygon>
                <polygon id="Fill-7" fill="#020303" mask="url(#mask-2)" points="42 14 44 14 44 12 42 12"></polygon>
                <polygon id="Fill-8" fill="#020303" mask="url(#mask-2)" points="42 18 44 18 44 16 42 16"></polygon>
                <polygon id="Fill-9" fill="#020303" mask="url(#mask-2)" points="42 22 44 22 44 20 42 20"></polygon>
                <polygon id="Fill-10" fill="#020303" mask="url(#mask-2)" points="42 26 44 26 44 24 42 24"></polygon>
                <polygon id="Fill-11" fill="#020303" mask="url(#mask-2)" points="22 45 24 45 24 43 22 43"></polygon>
                <polygon id="Fill-12" fill="#020303" mask="url(#mask-2)" points="18 45 20 45 20 43 18 43"></polygon>
                <polygon id="Fill-13" fill="#020303" mask="url(#mask-2)" points="14 45 16 45 16 43 14 43"></polygon>
                <polygon id="Fill-14" fill="#020303" mask="url(#mask-2)" points="10 45 12 45 12 43 10 43"></polygon>
                <polygon id="Fill-15" fill="#020303" mask="url(#mask-2)" points="10 41 12 41 12 39 10 39"></polygon>
                <polygon id="Fill-16" fill="#020303" mask="url(#mask-2)" points="10 37 12 37 12 35 10 35"></polygon>
                <polygon id="Fill-17" fill="#020303" mask="url(#mask-2)" points="10 33 12 33 12 31 10 31"></polygon>
                <polygon id="Fill-18" fill="#020303" mask="url(#mask-2)" points="10 29 12 29 12 27 10 27"></polygon>
                <path d="M15.9998,6 C17.1048,6 17.9998,6.896 17.9998,8 C17.9998,9.104 17.1048,10 15.9998,10 C14.8958,10 13.9998,9.104 13.9998,8 C13.9998,6.896 14.8958,6 15.9998,6 M15.9998,12 C18.2088,12 19.9998,10.209 19.9998,8 C19.9998,5.791 18.2088,4 15.9998,4 C13.7908,4 11.9998,5.791 11.9998,8 C11.9998,10.209 13.7908,12 15.9998,12" id="Fill-19" fill="#020303" mask="url(#mask-2)"></path>
                <path d="M2,23 L30,23 L30,22 L2,22 L2,23 Z M2,2 L4.874,2 C4.507,3.408 3.408,4.507 2,4.874 L2,2 Z M30,2 L30,4.874 C28.592,4.507 27.493,3.408 27.126,2 L30,2 Z M2,20 L30,20 L30,19 L2,19 L2,20 Z M30,14 L27.126,14 C27.493,12.592 28.592,11.493 30,11.126 L30,14 Z M2,14 L2,11.126 C3.408,11.493 4.507,12.592 4.874,14 L2,14 Z M2,17 L30,17 L30,16 L2,16 L2,17 Z M6.91,2 L25.09,2 C25.519,4.513 27.488,6.48 30,6.91 L30,9.09 C27.488,9.52 25.519,11.487 25.09,14 L6.91,14 C6.481,11.487 4.513,9.52 2,9.09 L2,6.91 C4.513,6.48 6.481,4.513 6.91,2 L6.91,2 Z M32,24 L32,1 C32,0.448 31.552,0 31,0 L1,0 C0.448,0 0,0.448 0,1 L0,24 C0,24.552 0.448,25 1,25 L31,25 C31.552,25 32,24.552 32,24 L32,24 Z" id="Fill-20" fill="#020303" mask="url(#mask-2)"></path>
            </g>
        </g>
    </g>
</svg>