<?xml version="1.0" encoding="UTF-8"?>
<svg width="63px" height="43px" viewBox="0 0 63 43" version="1.1" xmlns="http://www.w3.org/2000/svg" xmlns:xlink="http://www.w3.org/1999/xlink">
    <!-- Generator: sketchtool 63 (101010) - https://sketch.com -->
    <title>362322EE-BC0E-4F08-A2F6-92016A9794E2</title>
    <desc>Created with sketchtool.</desc>
    <defs>
        <polygon id="path-1" points="0 0.000426666667 62.6346667 0.000426666667 62.6346667 42.2148267 0 42.2148267"></polygon>
    </defs>
    <g id="Design-System" stroke="none" stroke-width="1" fill="none" fill-rule="evenodd">
        <g id="Icons" transform="translate(-590.000000, -579.000000)">
            <g id="Group-3" transform="translate(590.000000, 579.000000)">
                <mask id="mask-2" fill="white">
                    <use xlink:href="#path-1"></use>
                </mask>
                <g id="Clip-2"></g>
                <path d="M49.62432,13.7462044 L52.61952,13.7462044 C52.9693867,13.7462044 53.2524089,13.4631822 53.2524089,13.1147378 C53.2524089,12.7662933 52.9693867,12.4818489 52.61952,12.4818489 L49.62432,12.4818489 C49.2758756,12.4818489 48.9928533,12.7662933 48.9928533,13.1147378 C48.9928533,13.4631822 49.2758756,13.7462044 49.62432,13.7462044 L49.62432,13.7462044 Z M44.6436978,13.7462044 C44.9921422,13.7462044 45.2751644,13.4631822 45.2751644,13.1147378 C45.2751644,12.7662933 44.9921422,12.4818489 44.6436978,12.4818489 L41.6484978,12.4818489 C41.2986311,12.4818489 41.0156089,12.7662933 41.0156089,13.1147378 C41.0156089,13.4631822 41.2986311,13.7462044 41.6484978,13.7462044 L44.6436978,13.7462044 Z M51.12192,14.3847822 C50.8033422,14.3847822 50.5231644,14.5426489 50.3482311,14.7815822 C50.2316089,14.9394489 50.1604978,15.1342933 50.1604978,15.3462044 C50.1604978,15.8766933 50.5914311,16.3076267 51.12192,16.3076267 C51.6538311,16.3076267 52.0833422,15.8766933 52.0833422,15.3462044 C52.0833422,15.1342933 52.0122311,14.9394489 51.8956089,14.7815822 C51.7220978,14.5426489 51.4404978,14.3847822 51.12192,14.3847822 L51.12192,14.3847822 Z M43.1446756,14.3847822 C42.82752,14.3847822 42.54592,14.5426489 42.3709867,14.7815822 C42.2543644,14.9394489 42.1846756,15.1342933 42.1846756,15.3462044 C42.1846756,15.8766933 42.6141867,16.3076267 43.1446756,16.3076267 C43.6765867,16.3076267 44.10752,15.8766933 44.10752,15.3462044 C44.10752,15.1342933 44.0349867,14.9394489 43.9197867,14.7815822 C43.7448533,14.5426489 43.4646756,14.3847822 43.1446756,14.3847822 L43.1446756,14.3847822 Z M44.7660089,21.5826489 C44.4630756,21.75616 44.3592533,22.1415822 44.5327644,22.4445156 C44.9764978,23.2196267 45.9990756,23.7230933 47.1340089,23.7230933 C48.2689422,23.7230933 49.29152,23.2196267 49.7352533,22.4445156 C49.9087644,22.1415822 49.8049422,21.75616 49.5020089,21.5826489 C49.1976533,21.4077156 48.8136533,21.51296 48.6401422,21.8158933 C48.4623644,22.1259378 47.9148089,22.4587378 47.1340089,22.4587378 C46.3532089,22.4587378 45.8056533,22.1259378 45.6278756,21.8158933 C45.4543644,21.5143822 45.0689422,21.4091378 44.7660089,21.5826489 L44.7660089,21.5826489 Z M46.0033422,20.0139378 L48.2646756,20.0139378 C48.61312,20.0139378 48.89472,19.7309156 48.89472,19.3824711 C48.89472,19.0340267 48.61312,18.7510044 48.2646756,18.7510044 L46.7073422,18.7510044 L47.0316089,15.7287822 C47.0671644,15.3803378 46.8168533,15.0702933 46.4698311,15.0318933 C46.11712,14.9920711 45.8113422,15.2466489 45.7743644,15.5936711 L45.3761422,19.3156267 C45.3562311,19.4934044 45.4145422,19.6711822 45.5340089,19.8048711 C45.6534756,19.93856 45.8241422,20.0139378 46.0033422,20.0139378 L46.0033422,20.0139378 Z M53.7473422,30.8256711 L51.9183644,29.6722489 L47.8764089,32.3446044 L50.0879644,35.1691378 L53.7473422,30.8256711 Z M47.1340089,31.3206044 L51.17312,28.6510933 L51.0948978,26.8406044 C49.9044978,27.4066489 48.5604978,27.7351822 47.1325867,27.7351822 C45.7060978,27.7351822 44.36352,27.4080711 43.17312,26.8391822 L43.0948978,28.6510933 L47.1340089,31.3206044 Z M46.3930311,32.3446044 L42.3496533,29.6722489 L40.5206756,30.8256711 L44.1800533,35.1691378 L46.3930311,32.3446044 Z M42.0097422,24.5792711 C42.2017422,24.7470933 42.40512,24.9063822 42.6156089,25.0542933 C42.81472,25.1950933 43.0180978,25.3245156 43.2314311,25.4454044 C44.3692089,26.0925156 45.7018311,26.4722489 47.1325867,26.4722489 C48.5647644,26.4722489 49.8973867,26.0925156 51.0351644,25.4468267 C51.24992,25.3259378 51.4532978,25.1965156 51.6524089,25.0571378 C51.8628978,24.9078044 52.0662756,24.7499378 52.2596978,24.5821156 C53.7018311,23.3234489 54.6092089,21.5470933 54.6092089,19.5773156 L54.88512,14.7815822 L55.0401422,12.0893156 C49.9713422,11.8077156 47.4639644,9.32593778 46.4072533,7.83687111 C44.8442311,10.4324267 41.50912,11.5460267 39.2236089,12.0167822 L39.3828978,14.7815822 L39.6573867,19.5389156 C39.6573867,21.5314489 40.5661867,23.3163378 42.0097422,24.5792711 L42.0097422,24.5792711 Z M38.4513422,10.8775822 C40.7268978,10.4765156 44.7005867,9.34584889 45.74592,6.28096 C45.8298311,6.03207111 46.0602311,5.86282667 46.3233422,5.85429333 C46.59072,5.84860444 46.8239644,6.00078222 46.9263644,6.24113778 C47.0074311,6.43029333 48.9217422,10.73536 55.71712,10.8491378 C55.8892089,10.8519822 56.0541867,10.9259378 56.1708089,11.0496711 C56.2874311,11.1762489 56.3485867,11.3454933 56.3386311,11.5175822 L56.20352,13.8414933 C56.3044978,13.8642489 56.4068978,13.8770489 56.5050311,13.9126044 C56.5519644,13.9296711 56.5917867,13.9581156 56.63872,13.9780267 C57.8120533,9.12398222 57.4493867,5.60113778 55.55072,3.51047111 C53.0404978,0.742826667 48.54912,1.22353778 47.2349867,1.43829333 C47.16672,1.44967111 47.1012978,1.44967111 47.0330311,1.43829333 C45.7174756,1.22353778 41.22752,0.742826667 38.7158756,3.51047111 C36.8186311,5.60113778 36.4559644,9.12398222 37.6292978,13.9780267 C37.6762311,13.9566933 37.7146311,13.9296711 37.7615644,13.9126044 C37.86112,13.8770489 37.96352,13.8642489 38.0630756,13.8414933 L37.9293867,11.5360711 C37.91232,11.2174933 38.1356089,10.9330489 38.4513422,10.8775822 L38.4513422,10.8775822 Z M38.3048533,18.0214044 L38.1384533,15.1286044 C37.5510756,15.38176 37.2524089,16.1142044 37.4728533,16.7997156 C37.6278756,17.28896 37.9620978,17.7511822 38.3048533,18.0214044 L38.3048533,18.0214044 Z M56.1295644,15.1286044 L55.9617422,18.0327822 C56.3087644,17.76256 56.6372978,17.2932267 56.7951644,16.7997156 C57.0156089,16.1142044 56.7169422,15.38176 56.1295644,15.1286044 L56.1295644,15.1286044 Z M62.6350727,41.5648711 C62.6447644,41.9133156 62.3716978,42.2034489 62.0232533,42.2148267 L62.00192,42.2148267 C61.6634311,42.2148267 61.3818311,41.9446044 61.3718756,41.6018489 L61.3405867,40.6134044 L61.1841422,35.4791822 C61.1244089,33.4994489 59.5912533,31.8795378 57.5389867,31.62496 L54.9903644,31.3120711 L54.9704533,31.3106489 C54.9420089,31.35616 54.9149867,31.4030933 54.8780089,31.4443378 L50.8303644,36.2486044 C50.8076089,36.2756267 50.7848533,36.29696 50.7606756,36.3197156 C50.5729422,36.4818489 50.3297422,36.5714489 50.0836978,36.5714489 C50.0509867,36.5714489 50.0182756,36.5700267 49.9855644,36.5671822 C49.7068089,36.54016 49.4465422,36.3979378 49.2716089,36.1760711 L48.9004089,35.7024711 L48.8335644,36.1334044 C48.7866311,36.4420267 48.5220978,36.6695822 48.2106311,36.6695822 L46.0573867,36.6695822 C45.74592,36.6695822 45.4813867,36.4420267 45.4344533,36.1334044 L45.3676089,35.7024711 L44.9964089,36.1760711 C44.8214756,36.3979378 44.5612089,36.54016 44.2810311,36.5671822 C44.2497422,36.5700267 44.2156089,36.5714489 44.18432,36.5714489 C43.9368533,36.5714489 43.6950756,36.4818489 43.5073422,36.3197156 C43.4831644,36.29696 43.4589867,36.2756267 43.4376533,36.2486044 L39.3900089,31.4443378 C39.3530311,31.4030933 39.3260089,31.35616 39.2975644,31.3106489 L39.2762311,31.3120711 L36.7290311,31.62496 C34.6767644,31.8795378 33.1436089,33.4994489 33.0824533,35.4791822 L32.9274311,40.6134044 L32.8961422,41.6018489 C32.8847644,41.9446044 32.6045867,42.2148267 32.2660978,42.2148267 L32.2447644,42.2148267 C31.89632,42.2034489 31.6232533,41.9133156 31.6329451,41.5648711 L31.81952,35.4422044 C31.9005867,32.8338489 33.8988089,30.7019378 36.5740089,30.3719822 L39.4753422,30.0150044 C39.5236978,29.9709156 39.5748978,29.9282489 39.6303644,29.8941156 L41.8362311,28.5031822 L41.9386311,26.12096 C39.79392,24.6333156 38.3944533,22.2567822 38.3944533,19.5773156 L38.3887644,19.4578489 C37.42592,19.2004267 36.5967644,18.2062933 36.2696533,17.18656 C36.0136533,16.3901156 36.1501867,15.5552711 36.5583644,14.90816 C35.0877867,9.29607111 35.4973867,5.17589333 37.7814756,2.65998222 C40.6543644,-0.505884444 45.5439644,-0.0692622222 47.1340089,0.17536 C48.7254756,-0.0692622222 53.6122311,-0.505884444 56.4865422,2.65998222 C58.7692089,5.17589333 59.1802311,9.29607111 57.7096533,14.90816 C58.1178311,15.5552711 58.2543644,16.3901156 57.9983644,17.18656 C57.6698311,18.2062933 56.8406756,19.2004267 55.8792533,19.4578489 L55.87072,19.6128711 C55.8721422,22.2724267 54.4740978,24.6390044 52.3293867,26.1238044 L52.4317867,28.5031822 L54.6376533,29.8941156 C54.69312,29.9296711 54.74432,29.9709156 54.7926756,30.0150044 L57.6940089,30.3719822 C60.3692089,30.7019378 62.3674311,32.8338489 62.4484978,35.4422044 L62.6350727,41.5648711 Z M17.98272,15.45856 C19.4262756,14.90816 20.54272,15.9350044 20.59392,15.9847822 C20.7176533,16.1014044 20.8740978,16.1597156 21.0319644,16.1597156 C21.1969422,16.1597156 21.36192,16.0957156 21.4856533,15.9677156 C21.7288533,15.7188267 21.7231644,15.31776 21.4714311,15.0759822 C21.4017422,15.0091378 19.7434311,13.4333156 17.5332978,14.2795378 C17.2061867,14.4032711 17.0426311,14.7687822 17.1677867,15.0944711 C17.2929422,15.4215822 17.6570311,15.5837156 17.98272,15.45856 L17.98272,15.45856 Z M11.9226311,15.45856 C12.2497422,15.5837156 12.6138311,15.4215822 12.7375644,15.0944711 C12.8612978,14.7687822 12.6991644,14.4032711 12.3734756,14.2795378 C10.1604978,13.4333156 8.50218667,15.0091378 8.43392,15.0759822 C8.18218667,15.31776 8.17649778,15.7188267 8.41969778,15.9677156 C8.54343111,16.0957156 8.70840889,16.1597156 8.87338667,16.1597156 C9.03125333,16.1597156 9.19054222,16.1014044 9.31285333,15.9819378 C9.32423111,15.97056 10.4548978,14.8996267 11.9226311,15.45856 L11.9226311,15.45856 Z M12.4161422,23.5538489 C12.8513422,24.3118933 13.8468978,24.7997156 14.9519644,24.7997156 C16.0584533,24.7997156 17.0554311,24.3118933 17.4892089,23.5538489 C17.66272,23.2509156 17.5588978,22.8640711 17.2559644,22.69056 C16.9530311,22.5184711 16.5676089,22.6222933 16.3940978,22.9238044 C16.2248533,23.2196267 15.7014756,23.5367822 14.9519644,23.5367822 C14.2038756,23.5367822 13.68192,23.2196267 13.5112533,22.9238044 C13.3377422,22.6222933 12.95232,22.5184711 12.6493867,22.69056 C12.3464533,22.8640711 12.2426311,23.2509156 12.4161422,23.5538489 L12.4161422,23.5538489 Z M14.5437867,21.2939378 L15.66592,21.4318933 C15.6929422,21.4347378 15.7185422,21.43616 15.7455644,21.43616 C16.0584533,21.43616 16.33152,21.2014933 16.3713422,20.8829156 C16.4125867,20.5358933 16.1679644,20.2215822 15.8209422,20.1774933 L14.8154311,20.0551822 L15.3160533,17.7085156 C15.3885867,17.3671822 15.1695644,17.03296 14.8296533,16.9590044 C14.4897422,16.8836267 14.1526756,17.1026489 14.0801422,17.4454044 L13.5553422,19.9058489 C13.4884978,20.2230044 13.5581867,20.5543822 13.7444978,20.8174933 C13.9322311,21.0806044 14.2237867,21.2541156 14.5437867,21.2939378 L14.5437867,21.2939378 Z M18.8630756,15.68896 C18.3496533,15.68896 17.9329422,16.1056711 17.9329422,16.6205156 C17.9329422,17.13536 18.3496533,17.5520711 18.8630756,17.5520711 C19.3764978,17.5520711 19.7932089,17.13536 19.7932089,16.6205156 C19.7932089,16.1056711 19.3764978,15.68896 18.8630756,15.68896 L18.8630756,15.68896 Z M11.9724089,16.6205156 C11.9724089,16.1056711 11.5556978,15.68896 11.0422756,15.68896 C10.5288533,15.68896 10.1121422,16.1056711 10.1121422,16.6205156 C10.1121422,17.13536 10.5288533,17.5520711 11.0422756,17.5520711 C11.5556978,17.5520711 11.9724089,17.13536 11.9724089,16.6205156 L11.9724089,16.6205156 Z M9.75800889,26.1792711 C8.47943111,24.7598933 7.44832,22.8939378 6.71303111,20.9227378 C6.66752,20.9270044 6.62485333,20.9398044 6.57792,20.9398044 C5.38183111,20.9398044 4.11320889,19.6982044 3.72778667,18.7325156 C3.47178667,18.0939378 3.49027556,17.4070044 3.77756444,16.8494933 C4.04209778,16.3360711 4.50432,15.9762489 5.07889778,15.8397156 C5.22112,15.80416 5.36760889,15.7870933 5.51267556,15.7814044 C5.47143111,15.3163378 5.44725333,14.8654933 5.44725333,14.4302933 C5.44725333,14.1102933 5.46147556,13.7661156 5.49418667,13.3792711 C5.51552,13.1005156 5.72032,12.8686933 5.99338667,12.8132267 C8.28743111,12.3367822 12.3037867,11.0966044 13.4572089,8.13411556 C13.5524978,7.89091556 13.7857422,7.73162667 14.0445867,7.73162667 L14.1228089,7.73162667 C14.36032,7.73162667 14.5793422,7.86531556 14.6874311,8.07864889 C14.9121422,8.52664889 17.0881422,12.4676267 23.8166756,12.8075378 C24.1324089,12.8231822 24.3884089,13.0706489 24.4125867,13.3878044 C24.4410311,13.7319822 24.45952,14.0790044 24.45952,14.4302933 C24.45952,14.8726044 24.4324978,15.3319822 24.3855644,15.7998933 C24.6017422,15.7700267 24.81792,15.7714489 25.0284089,15.8226489 C25.4778311,15.9307378 25.8404978,16.2294044 26.0751644,16.6830933 C26.4349867,17.3799822 26.45632,18.3968711 26.1277867,19.2160711 C25.7110756,20.2557156 24.6970311,20.9398044 23.6716089,20.9398044 C23.4966756,20.9398044 23.32032,20.9198933 23.1482311,20.8786489 C23.1468089,20.8772267 23.1453867,20.8772267 23.1425422,20.8758044 C22.3745422,22.8555378 21.2964978,24.7286044 19.9837867,26.1550933 C21.6321422,26.4139378 22.9121422,26.3826489 25.5489422,26.24896 C25.5702756,26.2802489 25.5574756,26.1863822 25.4892089,26.1010489 C24.8093867,25.23776 25.1862756,24.1597156 25.5204978,23.2082489 C25.5972978,22.98496 25.6769422,22.7602489 25.7437867,22.5355378 C26.5558756,19.7778489 26.9782756,16.95616 26.9981867,14.1486933 C27.0365867,8.50389333 25.6812089,4.65678222 22.9690311,2.71260444 C19.4092089,0.159715556 14.6063644,1.78247111 14.5580089,1.79953778 C14.4470756,1.83651556 14.3233422,1.84362667 14.2081422,1.81802667 C14.1668978,1.80807111 10.11072,0.919182222 6.92494222,3.41091556 C4.35925333,5.41767111 3.00956444,9.03438222 2.91143111,14.16576 C2.86165333,16.7655822 3.27125333,19.50336 4.16440889,22.5355378 C4.23125333,22.7602489 4.31089778,22.9863822 4.38769778,23.2082489 C4.72192,24.1597156 5.09880889,25.2391822 4.41898667,26.1010489 C4.34787556,26.1892267 4.35072,26.2603378 4.35498667,26.2731378 C6.90645333,26.3826489 8.18787556,26.4110933 9.75800889,26.1792711 L9.75800889,26.1792711 Z M23.5706311,19.6654933 C24.1124978,19.72096 24.7212089,19.3284267 24.9544533,18.7467378 C25.1421867,18.2788267 25.1407644,17.6274489 24.9530311,17.2647822 C24.8591644,17.0813156 24.7638756,17.05856 24.7325867,17.0500267 C24.70272,17.0429156 24.6685867,17.0386489 24.6358756,17.0386489 C24.5078756,17.0386489 24.3542756,17.0884267 24.1935644,17.1709156 C24.0456533,17.9915378 23.8365867,18.8306489 23.5706311,19.6654933 L23.5706311,19.6654933 Z M7.83232,20.3026489 C8.57187556,22.3051378 9.63143111,24.1426489 10.8772978,25.4624711 C11.0252089,25.6203378 11.1773867,25.7710933 11.3295644,25.9133156 C11.3722311,25.9517156 11.4134756,25.9886933 11.4561422,26.0270933 C11.6623644,26.21056 11.8728533,26.3812267 12.0876089,26.5334044 C12.9565867,27.1549156 13.8838756,27.5133156 14.83392,27.5133156 C15.8607644,27.5133156 16.8719644,27.0909156 17.8177422,26.37696 C18.0310756,26.2148267 18.2429867,26.0384711 18.4492089,25.8478933 C18.4676978,25.8308267 18.4833422,25.81376 18.5018311,25.7981156 C18.6540089,25.6558933 18.8047644,25.5079822 18.9526756,25.3501156 C20.2127644,24.00896 21.2964978,22.1671822 22.05312,20.1789156 C22.5181867,18.95296 22.8609422,17.6743822 23.0429867,16.4214044 C23.14112,15.7444267 23.1951644,15.0788267 23.1951644,14.4302933 C23.1951644,14.2980267 23.19232,14.1643378 23.1866311,14.0320711 C17.8433422,13.60256 15.2292978,11.0653156 14.1412978,9.58051556 C12.6010311,12.0850489 9.41525333,13.3294933 6.72298667,13.9467378 C6.71445333,14.1074489 6.71018667,14.26816 6.71018667,14.4302933 C6.71018667,14.9750044 6.74574222,15.5339378 6.80974222,16.0971378 C6.97187556,17.4994489 7.32885333,18.9373156 7.83232,20.3026489 L7.83232,20.3026489 Z M5.59943111,17.0400711 C5.52263111,17.0400711 5.44725333,17.0486044 5.37472,17.0670933 C5.15854222,17.1182933 4.99498667,17.2448711 4.90112,17.42976 C4.78165333,17.66016 4.78165333,17.9645156 4.90112,18.2631822 C5.12156444,18.8164267 5.77009778,19.4166044 6.27214222,19.6100267 C6.01472,18.7524267 5.81560889,17.8891378 5.67765333,17.0471822 C5.65063111,17.04576 5.62503111,17.0400711 5.59943111,17.0400711 L5.59943111,17.0400711 Z M14.9519644,31.5822933 C16.5220978,31.5822933 17.8376533,31.44576 18.8815644,31.2494933 L18.3183644,31.1328711 C18.0253867,31.0717156 17.81632,30.8128711 17.81632,30.5127822 L17.8177422,27.9357156 C16.8890311,28.4704711 15.8892089,28.7762489 14.83392,28.7762489 C13.8596978,28.7762489 12.9409422,28.51456 12.0876089,28.0580267 L12.0890311,30.5127822 C12.0890311,30.8128711 11.8785422,31.0717156 11.5855644,31.1328711 L11.0237867,31.2494933 C12.0676978,31.44576 13.3846756,31.5822933 14.9519644,31.5822933 L14.9519644,31.5822933 Z M29.8127644,38.4118044 L29.9052089,41.5648711 C29.9165867,41.9133156 29.6406756,42.2048711 29.2922311,42.2149149 L29.27232,42.2149149 C28.9324089,42.2149149 28.6522311,41.9431822 28.6422756,41.6018489 L28.6422756,41.5819378 L28.5498311,38.4487822 C28.4460089,34.9230933 25.9485867,32.0146489 22.5352533,31.3390933 C22.4527644,31.3220267 22.3716978,31.3021156 22.2877867,31.2878933 C22.0701867,31.4742044 21.7956978,31.6391822 21.4813867,31.7885156 C19.8700089,32.5536711 17.1535644,32.8452267 14.9519644,32.8452267 C12.7503644,32.8452267 10.03392,32.5536711 8.42254222,31.7870933 C8.11107556,31.6391822 7.83516444,31.4742044 7.61898667,31.2893156 C7.53365333,31.3035378 7.45400889,31.3248711 7.37009778,31.3419378 C3.94254222,32.0331378 1.45934222,34.9330489 1.35552,38.4487822 L1.26307556,41.5819378 L1.26307556,41.6018489 C1.25312,41.9502933 0.965831111,42.2205156 0.61312,42.2149149 C0.264675556,42.2048711 -0.00981333333,41.9133156 -0.000120250301,41.5648711 L0.0925866667,38.4118044 C0.220586667,34.0839822 3.42912,30.5454933 7.72280889,29.9965156 C7.94325333,29.9652267 8.19640889,30.05056 8.33436444,30.2226489 C8.37703111,30.2752711 8.44245333,30.3307378 8.51925333,30.3876267 C8.54912,30.4118044 8.58040889,30.4331378 8.61596444,30.4558933 L10.8260978,29.99936 L10.8246756,27.2772267 C10.6881422,27.3028267 10.5615644,27.3227378 10.4292978,27.3469156 C9.33987556,27.5332267 8.40974222,27.6128711 7.29472,27.6128711 C6.45703111,27.6128711 5.50983111,27.5730489 4.29667556,27.5118933 C3.80458667,27.4848711 3.39640889,27.2174933 3.20298667,26.7936711 C2.99249778,26.3243378 3.07783111,25.7582933 3.42912,25.3174044 C3.67658667,25.0002489 3.44334222,24.3332267 3.19587556,23.6263822 C3.11196444,23.3831822 3.02520889,23.13856 2.95409778,22.8925156 C2.02254222,19.7351822 1.59445333,16.8708267 1.64849778,14.14016 C1.75374222,8.60487111 3.27125333,4.65536 6.15836444,2.40540444 C9.46218667,-0.165973333 13.4188089,0.383004444 14.3133867,0.550826667 C15.2776533,0.250737778 19.9596089,-0.992284444 23.6972089,1.68007111 C26.7677867,3.87598222 28.3037867,8.07438222 28.26112,14.1572267 C28.2397867,17.0827378 27.80032,20.0210489 26.9569422,22.8925156 C26.8844089,23.13856 26.7976533,23.38176 26.7137422,23.6263822 C26.4648533,24.3318044 26.2316089,25.0002489 26.48192,25.3174044 C26.8317867,25.7582933 26.91712,26.3243378 26.7052089,26.7936711 C26.5132089,27.2174933 26.1050311,27.4848711 25.6129422,27.5118933 C22.7741867,27.6541156 21.3917867,27.68256 19.4774756,27.34976 C19.3480533,27.3284267 19.2157867,27.3028267 19.0806756,27.2786489 L19.0792533,29.99936 L21.2879644,30.4573156 C21.3263644,30.4331378 21.3562311,30.4118044 21.38752,30.3876267 C21.4628978,30.3307378 21.52832,30.2752711 21.5709867,30.2226489 C21.7089422,30.05056 21.9222756,29.9638044 22.1455644,29.9908267 C26.4762311,30.5454933 29.6847644,34.0839822 29.8127644,38.4118044 L29.8127644,38.4118044 Z M48.8861867,37.84576 L49.62432,41.45536 C49.66272,41.6416711 49.6157867,41.8350933 49.4948978,41.9830044 C49.3754311,42.1294933 49.1962311,42.2148267 49.0056533,42.2148267 L45.2623644,42.2148267 C45.0717867,42.2148267 44.8925867,42.1294933 44.77312,41.9830044 C44.6522311,41.8350933 44.6052978,41.6416711 44.6422756,41.45536 L45.3818311,37.84576 C45.4415644,37.55136 45.6989867,37.3408711 45.9990756,37.3408711 L48.2689422,37.3408711 C48.5690311,37.3408711 48.8264533,37.55136 48.8861867,37.84576 L48.8861867,37.84576 Z" id="Fill-1" fill="#020303" mask="url(#mask-2)"></path>
            </g>
        </g>
    </g>
</svg>