<?xml version="1.0" encoding="UTF-8"?>
<svg width="39px" height="61px" viewBox="0 0 39 61" version="1.1" xmlns="http://www.w3.org/2000/svg" xmlns:xlink="http://www.w3.org/1999/xlink">
    <!-- Generator: sketchtool 63 (101010) - https://sketch.com -->
    <title>4954EFC9-291B-40CF-A207-FCAD12CE4DBD</title>
    <desc>Created with sketchtool.</desc>
    <defs>
        <polygon id="path-1" points="0 0 38.4749176 0 38.4749176 60.4600471 0 60.4600471"></polygon>
    </defs>
    <g id="Design-System" stroke="none" stroke-width="1" fill="none" fill-rule="evenodd">
        <g id="Icons" transform="translate(-285.000000, -568.000000)">
            <g id="Group-3" transform="translate(285.000000, 568.000000)">
                <mask id="mask-2" fill="white">
                    <use xlink:href="#path-1"></use>
                </mask>
                <g id="Clip-2"></g>
                <path d="M8.11632941,52.2153412 C7.35585882,52.2529882 6.77232941,52.8967529 6.80621176,53.6572235 C6.84385882,54.4139294 7.48762353,54.9974588 8.24432941,54.9635765 L30.2302118,54.9635765 C30.9906824,54.9748706 31.6156235,54.3687529 31.6233082,53.6082824 C31.6344471,52.8515765 31.0283294,52.2266353 30.2678588,52.2153412 L30.2302118,52.2153412 L8.24432941,52.2153412 L8.11632941,52.2153412 Z M8.11632941,46.7188706 C7.35585882,46.7565176 6.77232941,47.4002824 6.80621176,48.1607529 C6.84385882,48.9174588 7.48762353,49.5009882 8.24432941,49.4708706 L30.2302118,49.4708706 C30.9906824,49.4784 31.6156235,48.8722824 31.6233082,48.1118118 C31.6344471,47.3551059 31.0283294,46.7301647 30.2678588,46.7188706 L30.2302118,46.7188706 L8.24432941,46.7188706 L8.11632941,46.7188706 Z M19.2372706,35.0407529 C20.8523294,35.0407529 22.2829176,35.5414588 23.2542118,36.3056941 C24.2217412,37.0736941 24.7337412,38.0299294 24.7337412,39.1631059 L24.7337412,41.2224 L13.7408,41.2224 L13.7408,39.1631059 C13.7408,38.0299294 14.2528,37.0736941 15.2240941,36.3056941 C16.1916235,35.5414588 17.6222118,35.0407529 19.2372706,35.0407529 L19.2372706,35.0407529 Z M19.2372706,26.7960471 C20.7732706,26.7960471 21.9855059,28.0082824 21.9855059,29.5442824 C21.9855059,31.0765176 20.7732706,32.2925176 19.2372706,32.2925176 C17.7050353,32.2925176 16.4890353,31.0765176 16.4890353,29.5442824 C16.4890353,28.0082824 17.7050353,26.7960471 19.2372706,26.7960471 L19.2372706,26.7960471 Z M11.6815059,19.2365176 L26.7968,19.2365176 C27.9600941,19.2365176 28.8560941,20.1362824 28.8560941,21.2995765 L28.8560941,39.1631059 C28.8560941,40.0854588 28.2951529,40.8421647 27.4819765,41.1169882 L27.4819765,39.1631059 C27.4819765,37.1376941 26.4655059,35.3344 24.9483294,34.1372235 C24.4589176,33.7532235 23.9205647,33.4407529 23.3370353,33.1696941 C24.1991529,32.2021647 24.7337412,30.9372235 24.7337412,29.5442824 C24.7337412,26.5249882 22.2565647,24.0478118 19.2372706,24.0478118 C16.2179765,24.0478118 13.7408,26.5249882 13.7408,29.5442824 C13.7408,30.9372235 14.2753882,32.2021647 15.1375059,33.1696941 C14.5539765,33.4407529 14.0156235,33.7532235 13.5262118,34.1372235 C12.0090353,35.3344 10.9925647,37.1376941 10.9925647,39.1631059 L10.9925647,41.1169882 C10.1793882,40.8421647 9.61844706,40.0854588 9.61844706,39.1631059 L9.61844706,21.2995765 C9.61844706,20.1362824 10.5144471,19.2365176 11.6815059,19.2365176 L11.6815059,19.2365176 Z M11.6815059,16.4882824 C9.03868235,16.4882824 6.87021176,18.6567529 6.87021176,21.2995765 L6.87021176,39.1631059 C6.87021176,41.8021647 9.03868235,43.9744 11.6815059,43.9744 L26.7968,43.9744 C29.4358588,43.9744 31.6043294,41.8021647 31.6043294,39.1631059 L31.6043294,21.2995765 C31.6043294,18.6567529 29.4358588,16.4882824 26.7968,16.4882824 L11.6815059,16.4882824 Z M4.12197647,12.3659294 L34.3525647,12.3659294 C35.1393882,12.3659294 35.7266824,12.9532235 35.7266824,13.7400471 L35.7266824,56.3414588 C35.7266824,57.1245176 35.1393882,57.7118118 34.3525647,57.7118118 L4.12197647,57.7118118 C3.33515294,57.7118118 2.74785882,57.1245176 2.74785882,56.3414588 L2.74785882,13.7400471 C2.74785882,12.9532235 3.33515294,12.3659294 4.12197647,12.3659294 L4.12197647,12.3659294 Z M16.4890353,2.74710588 L21.9855059,2.74710588 C22.7723294,2.74710588 23.3596235,3.33816471 23.3596235,4.12498824 L23.3596235,9.62145882 L20.6113882,9.62145882 L20.6113882,7.5584 C20.6302118,6.80169412 20.0278588,6.17298824 19.2673882,6.15416471 C19.2071529,6.15416471 19.1469176,6.15792941 19.0866824,6.16169412 C18.3789176,6.24075294 17.8480941,6.84310588 17.8631529,7.5584 L17.8631529,9.62145882 L15.1149176,9.62145882 L15.1149176,4.12498824 C15.1149176,3.33816471 15.7059765,2.74710588 16.4890353,2.74710588 L16.4890353,2.74710588 Z M16.4890353,-0.00112941176 C14.2302118,-0.00112941176 12.3666824,1.8624 12.3666824,4.12498824 L12.3666824,9.62145882 L4.12197647,9.62145882 C1.86315294,9.62145882 -0.000376470588,11.4812235 -0.000376470588,13.7400471 L-0.000376470588,56.3414588 C-0.000376470588,58.5965176 1.86315294,60.4600471 4.12197647,60.4600471 L34.3525647,60.4600471 C36.6113882,60.4600471 38.4749176,58.5965176 38.4749176,56.3414588 L38.4749176,13.7400471 C38.4749176,11.4812235 36.6113882,9.62145882 34.3525647,9.62145882 L26.1078588,9.62145882 L26.1078588,4.12498824 C26.1078588,1.8624 24.2480941,-0.00112941176 21.9855059,-0.00112941176 L16.4890353,-0.00112941176 Z" id="Fill-1" fill="#020303" mask="url(#mask-2)"></path>
            </g>
        </g>
    </g>
</svg>