<?xml version="1.0" encoding="UTF-8"?>
<svg width="38px" height="64px" viewBox="0 0 38 64" version="1.1" xmlns="http://www.w3.org/2000/svg" xmlns:xlink="http://www.w3.org/1999/xlink">
    <!-- Generator: sketchtool 63 (101010) - https://sketch.com -->
    <title>DC2FE9BE-4937-4DD0-8A64-9F3892435002</title>
    <desc>Created with sketchtool.</desc>
    <defs>
        <polygon id="path-1" points="9.52659407e-06 0.00246153846 37.2135385 0.00246153846 37.2135385 63.1499111 9.52659407e-06 63.1499111"></polygon>
    </defs>
    <g id="Design-System" stroke="none" stroke-width="1" fill="none" fill-rule="evenodd">
        <g id="Icons" transform="translate(-804.000000, -568.000000)">
            <g id="Group-3" transform="translate(804.000000, 568.000000)">
                <mask id="mask-2" fill="white">
                    <use xlink:href="#path-1"></use>
                </mask>
                <g id="Clip-2"></g>
                <path d="M10.2818462,47.6824615 L15.9926154,32.4947692 C16.6424615,30.7716923 15.3673846,28.9353846 13.5310769,28.9353846 L7.28369231,28.9353846 L19.232,5.26030769 L29.024,5.26030769 L19.1483077,22.3581538 C18.1341538,24.1156923 19.3993846,26.3064615 21.4227692,26.3064615 L28.8172308,26.3064615 L10.2818462,47.6824615 Z M35.8572308,3.94584615 C36.8664615,2.19323077 35.6061538,-0.00246153846 33.5778462,-0.00246153846 L17.6123077,-0.00246153846 C16.6227692,-0.00246153846 15.7169231,0.558769231 15.2689231,1.44492308 L0.662153846,30.3778462 C-0.224,32.1304615 1.05107692,34.1981538 3.00553846,34.1981538 L9.73538462,34.1981538 L0.184615385,59.5766154 C-0.849230769,62.3236923 2.71015385,64.4406154 4.63507692,62.2252308 L36.5661538,25.4006154 C38.0430769,23.6972308 36.832,21.0436923 34.5772308,21.0436923 L25.9766154,21.0436923 L35.8572308,3.94584615 Z" id="Fill-1" fill="#020303" mask="url(#mask-2)"></path>
            </g>
        </g>
    </g>
</svg>