<?xml version="1.0" encoding="UTF-8"?>
<svg width="230px" height="212px" viewBox="0 0 230 212" version="1.1" xmlns="http://www.w3.org/2000/svg" xmlns:xlink="http://www.w3.org/1999/xlink">
    <!-- Generator: sketchtool 63 (101010) - https://sketch.com -->
    <title>E9631899-69AC-4E62-8A3C-3A3EF8200BD0</title>
    <desc>Created with sketchtool.</desc>
    <g id="Design-System" stroke="none" stroke-width="1" fill="none" fill-rule="evenodd">
        <g id="Illustrations" transform="translate(-44.000000, -1164.000000)">
            <g id="holding-phone-colour" transform="translate(44.000000, 1163.000000)">
                <path d="M162.088122,6.75746565 C188.880595,10.5524427 222.495573,24.9681527 228.599405,46.2031145 C234.706489,67.4933588 213.315435,95.5508244 192.951985,117.998748 C172.595038,140.498702 153.285206,157.392366 129.627573,168.774046 C105.973191,180.106947 78.0230382,186.00916 59.2107481,175.320137 C40.4504885,164.705908 30.8931298,137.52971 19.7618473,113.595664 C8.59479389,89.6095878 -4.16894656,68.8136336 1.87635115,54.2353282 C7.93465649,39.7123053 32.802,31.4036794 51.5069771,26.1778626 C70.2119542,20.9520458 82.6992824,18.7505038 98.9848397,14.2953893 C115.215115,9.78174046 135.240366,2.96248855 162.088122,6.75746565 Z" id="Path" fill="#F2F2F2" fill-rule="nonzero"></path>
                <path d="M76.8263359,13.1734809 C72.5305649,13.1734809 71.1875267,19.8854198 71.1875267,22.5682443 C71.1875267,27.120916 76.0198626,45.9234504 80.5822901,45.9234504 C85.1447176,45.9234504 89.9803053,27.3875725 89.9803053,25.2543206 C89.9803053,23.1210687 84.3414962,13.1734809 76.8263359,13.1734809 Z" id="Path" fill="#DE8E68" fill-rule="nonzero"></path>
                <rect id="Rectangle" fill="#74D5DE" fill-rule="nonzero" transform="translate(114.998466, 78.998864) rotate(11.100000) translate(-114.998466, -78.998864) " x="73.8520689" y="6.75934485" width="82.2927939" height="144.479038" rx="8.24358779"></rect>
                <path d="M146.397664,11.573542 L145.581435,15.7327328 C145.160852,17.8511789 143.106609,19.2308509 140.986489,18.8187939 L113.143649,13.3555878 C111.026271,12.9334017 109.647419,10.8803794 110.057588,8.76064122 L110.890076,4.60145038" id="Path" fill="#FED385" fill-rule="nonzero"></path>
                <line x1="57.262855" y1="127.331725" x2="145.272504" y2="144.602611" id="Path" stroke="#FED385" stroke-width="0.975572519"></line>
                <circle id="Oval" fill="#FED385" fill-rule="nonzero" cx="101.352229" cy="142.905115" r="3.26166412"></circle>
                <path d="M71.7273435,49.4290076 C66.0885344,49.4290076 62.3293282,53.7215267 62.3293282,58.2872061 C62.3293282,73.3175267 70.9208702,85.6650229 74.6865802,85.6650229 C82.7383053,85.6650229 85.6910382,81.3692519 85.6910382,78.4165191 C85.6845344,76.254 84.6114046,49.4290076 71.7273435,49.4290076 Z" id="Path" fill="#DE8E68" fill-rule="nonzero"></path>
                <path d="M68.7746107,88.8714046 C70.3843053,90.4810992 82.7318015,103.635069 82.7318015,112.759924 C82.7318015,118.93855 81.3887634,123.764382 70.1143969,123.764382 C64.7454962,123.764382 49.7151756,102.558687 49.7151756,93.9703969 C49.7151756,89.1380611 52.6679084,77.8636947 60.989542,77.8636947 C63.4057099,77.8636947 68.7746107,82.1594656 69.5778321,83.2325954 C70.4050564,84.0893102 71.2824495,84.896121 72.205374,85.6487634 C71.8671756,87.3950382 70.0005802,96.5816794 70.0005802,96.5816794" id="Path" fill="#DE8E68" fill-rule="nonzero"></path>
                <path d="M72.7289313,93.2907481 C72.7289313,93.2907481 68.9079389,88.4681679 66.491771,86.3219084" id="Path" stroke="#FED385" stroke-width="0.975572519" stroke-linecap="round"></path>
                <path d="M66.7681832,142.872595 C65.9649618,145.022107 65.4186412,165.775786 67.8348092,177.316809 C66.208855,185.638443 59.7798321,212.762611 59.7798321,212.762611 L118.044275,212.762611 L123.94974,189.140748 C123.94974,189.140748 159.90284,157.717557 163.392137,152.085252 C166.881435,146.452947 175.06974,113.566397 174.952672,110.480336 C174.858366,108.334076 135.760672,75.3141985 134.687542,73.9711603 C133.614412,72.6281221 114.733832,91.5314656 146.140763,113.286733 C145.870855,115.969557 145.887115,127.819511 145.887115,127.819511 C145.887115,127.819511 124.040794,135.328168 121.822992,136.947618 C119.605191,138.567069 115.36145,149.978015 114.594,152.537267 C111.625008,151.958427 66.7681832,142.872595 66.7681832,142.872595 Z" id="Path" fill="#DE8E68" fill-rule="nonzero"></path>
                <path d="M110.015313,165.98716 C110.746992,163.190519 114.294824,153.145374 115.176092,150.748718" id="Path" stroke="#FED385" stroke-width="0.975572519" stroke-linecap="round"></path>
            </g>
        </g>
    </g>
</svg>