<?xml version="1.0" encoding="UTF-8"?>
<svg width="476px" height="464px" viewBox="0 0 476 464" version="1.1" xmlns="http://www.w3.org/2000/svg" xmlns:xlink="http://www.w3.org/1999/xlink">
    <g stroke="none" stroke-width="1" fill="none" fill-rule="evenodd">
        <g transform="translate(-151.000000, -1177.000000)">
            <g transform="translate(151.000000, 1177.000000)">
                <path d="M332.241157,122.664862 C370.163319,172.636686 416.409552,213.415846 413.902302,250.718052 C411.395051,287.926456 360.146854,321.570358 303.351365,352.024967 C246.468122,382.517098 184.125342,409.819937 135.353054,392.716578 C86.5807665,375.613219 51.360167,313.922311 41.1681943,251.637319 C30.9762216,189.352327 45.5746868,126.316913 82.073984,76.7077928 C118.573281,27.0986722 176.791635,-9.31553548 220.793879,2.10963323 C264.796122,13.5348019 294.318995,72.6054881 332.241157,122.664862 Z" fill="#F2F2F2" fill-rule="nonzero"></path>
                <line x1="257.5" y1="254" x2="257.5" y2="410" stroke="#A4A4A4" stroke-width="3" stroke-linecap="round" stroke-linejoin="round"></line>
                <rect fill="#6BD5E1" fill-rule="nonzero" x="314" y="91" width="20" height="27" rx="10"></rect>
                <path d="M249.465995,425 C248.767003,426.71458 244,437.231087 244,437.231087 L259.403023,443 L264,427.971114 L249.465995,425 Z" fill="#E49D75" fill-rule="nonzero"></path>
                <polygon fill="#E49D75" fill-rule="nonzero" points="336.833881 410 340 421.390385 326.139573 428 317 418.726901"></polygon>
                <path d="M316.448864,187 C314.881338,188.821122 301.897728,204.482774 300.967205,205.719882 C300.036682,206.956989 262.02262,218.574493 260.017936,219.11455 C258.013252,219.654607 250.80638,222.807033 248.776715,222.807033 C246.74705,222.807033 240.233387,220.640525 237.535494,221.086386 C234.837601,221.532247 226.225577,226.599991 227.056179,228.622065 C227.88678,230.644139 320.864166,223.893427 320.864166,223.893427 L331,192.174499 L316.448864,187 Z" fill="#D38D6A" fill-rule="nonzero"></path>
                <line x1="335" y1="334" x2="311" y2="456" stroke="#E0E0E0" stroke-width="2" stroke-linecap="round" stroke-linejoin="round"></line>
                <polygon fill="#E0E0E0" fill-rule="nonzero" points="422.423871 134 476 134 425.191595 333 327 333 327 320.046226 381.978777 283.562893"></polygon>
                <path d="M310.684328,321.595767 C313.406856,327.150339 336.404055,405.127272 337,409.661105 C334.07046,412.729584 321.367425,419.555384 315.94119,420 C306.751092,412.779682 281,352.149047 281,352.149047 C281,352.149047 289.769799,301.844783 310.684328,321.595767 Z" fill="#5FC5D1" fill-rule="nonzero"></path>
                <path d="M421.545138,248 C423.537629,250.37001 429.98503,285.349599 430.943681,294.397017 C432.416119,308.617076 404.865857,329.445575 365.974686,329.445575 C353.136276,329.445575 310.629799,326.580245 298.417958,321.965623 C297.791389,329.696369 267.001762,426.114387 263.51177,429.606703 C257.778658,431.105201 249.301173,427.989077 247.183368,425.844783 C245.065563,423.700488 261.89522,290.50343 266.607023,281.901172 C271.318826,273.298914 367.32181,266.834681 367.32181,266.834681 L421.545138,248 Z" fill="#6BD5E1" fill-rule="nonzero"></path>
                <path d="M354.896476,148.264452 C372.765101,158.801189 346.046011,204.826462 342.667306,206 C337.282497,205.37244 318.531931,194.296 315.016588,186.143992 C314.258864,181.136061 339.63641,139.258962 354.896476,148.264452 Z" fill="#FFC78E" fill-rule="nonzero"></path>
                <path d="M365.849183,129 C396.062859,129 425.158209,244.250816 423.964489,248.864866 C421.520505,258.325239 372.025112,275.626358 364.083734,268.193657 C343.997827,249.411019 306.954817,129 365.849183,129 Z" fill="#FFD98E" fill-rule="nonzero"></path>
                <line x1="420" y1="334" x2="444" y2="456"  stroke="#E0E0E0" stroke-width="2" stroke-linecap="round" stroke-linejoin="round"></line>
                <polygon fill="#3D3F46" fill-rule="nonzero" points="260 444.461257 252.185554 464 210 445.368457 214.190535 437 245 437.9072"></polygon>
                <polygon fill="#3D3F46" fill-rule="nonzero" points="339.656957 420 350 438.794876 308.894948 460 305 451.276293 325.102154 427.585007"></polygon>
                <path d="M357.967622,116 C358.642307,119.831232 362.919438,131.381641 364.776369,133.498901 C366.6333,135.616161 356.636821,147.992049 345.519994,145.723557 C345.185746,141.835612 343.867325,130.827121 342.12181,128.999724 C340.376295,127.172327 357.967622,116 357.967622,116 Z" fill="#D38D6A" fill-rule="nonzero"></path>
                <ellipse id="Oval" fill="#E49D75" fill-rule="nonzero" transform="translate(338.343994, 99.145028) rotate(-18.072322) translate(-338.343994, -99.145028) " cx="338.343994" cy="99.1450278" rx="23.2696323" ry="31.6006444"></ellipse>
                <path d="M319.599857,56 C332.037642,56 364,78.3515789 364,100.842105 C364,112.911579 361.889573,116 361.090358,116 C360.291143,116 352.573722,109.943158 352.573722,105.591579 C352.573722,101.24 351.056462,94.8042105 349.576666,94.8042105 C347.079119,94.8042105 346.710731,97.6147368 340.4294,97.6147368 C338.025511,97.6147368 333.511194,94.7157895 333.511194,91.3873684 C328.409955,91.4757895 328.409955,93.1810526 321.410579,93.1810526 C313.480867,93.1810526 294,89.1263158 294,82.8989474 C294,78.68 299.438409,75.7747368 304.795647,76.8042105 C301.16796,74.84 297.927393,70.7852632 297.927393,68.1010526 C297.927393,64.3431579 302.610293,61.7473684 306.237981,61.7473684 C310.540005,61.7473684 314.248863,63.5789474 316.103291,65.3726316 C314.623495,62.7831579 316.08456,56 319.599857,56 Z" fill="#FD8369" fill-rule="nonzero"></path>
                <circle id="Oval" fill="#E49D75" fill-rule="nonzero" cx="348.5" cy="101.5" r="6.5"></circle>
                <rect id="Rectangle" fill="#A4A4A4" fill-rule="nonzero" x="0" y="246" width="325" height="9"></rect>
                <polygon fill="#E0E0E0" fill-rule="nonzero" points="297.353639 231 162.666242 231 162.327485 231 27.6400872 231 0 245 162.327485 245 162.666242 245 325 245"></polygon>
                <line x1="41.5" y1="254" x2="41.5" y2="446"  stroke="#A4A4A4" stroke-width="3" stroke-linecap="round" stroke-linejoin="round"></line>
                <line x1="66.5" y1="254" x2="66.5" y2="410"  stroke="#A4A4A4" stroke-width="3" stroke-linecap="round" stroke-linejoin="round"></line>
                <line x1="283.5" y1="254" x2="283.5" y2="446"  stroke="#A4A4A4" stroke-width="3" stroke-linecap="round" stroke-linejoin="round"></line>
                <rect id="Rectangle" fill="#A4A4A4" fill-rule="nonzero" x="192" y="232" width="57" height="4"></rect>
                <rect id="Rectangle" fill="#A4A4A4" fill-rule="nonzero" x="119" y="227" width="12" height="13"></rect>
                <ellipse id="Oval" fill="#F2F2F2" fill-rule="nonzero" cx="234" cy="237.5" rx="13" ry="6.5"></ellipse>
                <path d="M325.190098,193 C323.319231,195.054257 311.869524,211.639084 310.634752,213.391799 C284.442612,216.470043 249.831571,224.932074 248.559381,224.976049 C247.287192,225.020024 232.731846,220.270732 230.779908,220.61625 C228.82797,220.961767 224.836786,228.010318 225.005165,229.461491 C225.173543,230.912663 236.635722,237.885829 249.831571,237.709929 C252.32606,237.540312 253.143006,236.170807 255.731039,236.170807 C258.319071,236.170807 317.469653,240.775609 327.734477,235.372976 C333.315897,232.426657 349,210.206758 349,208.541993 C349,206.877228 325.190098,193 325.190098,193 Z" fill="#E49D75" fill-rule="nonzero"></path>
                <path d="M362.899563,153.264452 C380.760578,163.801189 354.04979,209.826462 350.67135,211 C345.280752,210.37244 326.537865,199.296 323.016587,191.143992 C322.258922,186.136061 347.634481,144.258962 362.899563,153.264452 Z" fill="#FFE4AD" fill-rule="nonzero"></path>
                <rect id="Rectangle" fill="#E0E0E0" fill-rule="nonzero" x="110" y="64" width="5" height="171"></rect>
                <polygon fill="#A4A4A4" fill-rule="nonzero" points="115 64 115 149.496849 115 235 140 225.812617 140 149.496849 140 73.1810812"></polygon>
                <rect id="Rectangle" fill="#6BD5E1" fill-rule="nonzero" x="339" y="91" width="20" height="27" rx="10"></rect>
                <path d="M348.965179,94 C348.965179,90.5232825 350.128996,70.0451034 339,64"  stroke="#6BD5E1" stroke-width="6" stroke-linecap="round" stroke-linejoin="round"></path>
                <path d="M348,119 C348,120.948778 347.244,132 339,132"  stroke="#A4A4A4" stroke-width="6" stroke-linecap="round" stroke-linejoin="round"></path>
            </g>
        </g>
    </g>
</svg>