<?xml version="1.0" encoding="UTF-8"?>
<svg width="21px" height="14px" viewBox="0 0 21 14" version="1.1" xmlns="http://www.w3.org/2000/svg" xmlns:xlink="http://www.w3.org/1999/xlink">
    <title>58BB6B24-94E0-46E1-AD3C-5ACBFB062B4B</title>
    <g id="Blog-Article-Page" stroke="none" stroke-width="1" fill="none" fill-rule="evenodd">
        <g id="Blog-Article-Page:-Desktop-V1" transform="translate(-1167.000000, -623.000000)" fill="#000000" fill-rule="nonzero">
            <g id="Mail2" transform="translate(1167.000000, 623.000000)">
                <path d="M1.224,0.0090768 C1.056,0.0090768 0.888,0.0330768 0.744,0.1050768 L10.08,8.4810768 L19.416,0.1050768 C19.272,0.0330768 19.104,0.0090768 18.936,0.0090768 L1.224,0.0090768 Z M0.072,0.8010768 C0.024,0.9210768 0,1.0650768 0,1.2330768 L0,12.2250768 C0,12.3210768 0,12.3930768 0.024,12.4650768 L6.696,6.7290768 L0.072,0.8010768 Z M20.088,0.8010768 L13.464,6.7290768 L20.136,12.4650768 C20.16,12.3930768 20.16,12.2970768 20.16,12.2250768 L20.16,1.2330768 C20.16,1.0650768 20.136,0.9210768 20.088,0.8010768 Z M7.416,7.3770768 L0.576,13.2570768 C0.768,13.3770768 0.984,13.4490768 1.224,13.4490768 L18.936,13.4490768 C19.176,13.4490768 19.392,13.3770768 19.584,13.2570768 L12.744,7.3770768 L10.392,9.4890768 C10.2,9.6570768 9.936,9.6570768 9.744,9.4890768 L7.416,7.3770768 Z" id="Shape"></path>
            </g>
        </g>
    </g>
</svg>