<?xml version="1.0" encoding="UTF-8"?>
<svg width="208px" height="214px" viewBox="0 0 208 214" version="1.1" xmlns="http://www.w3.org/2000/svg" xmlns:xlink="http://www.w3.org/1999/xlink">
    <!-- Generator: sketchtool 63 (101010) - https://sketch.com -->
    <title>16BFB35A-D7D7-43B3-A736-E5E7873BEC50</title>
    <desc>Created with sketchtool.</desc>
    <g id="Design-System" stroke="none" stroke-width="1" fill="none" fill-rule="evenodd">
        <g id="Illustrations" transform="translate(-44.000000, -562.000000)">
            <g id="mobile-post-colour" transform="translate(44.000000, 563.000000)">
                <path d="M183.207543,31.3807759 C177.064884,25.1435395 170.099498,19.7740659 162.50431,15.4210776 L162.50431,145.28069 C179.850345,126.698276 199.644655,114.04069 205.523578,96.036681 C211.990086,76.23625 201.572672,50.0152155 183.207543,31.3807759 Z" id="Path" fill="#F1F1F1" fill-rule="nonzero"></path>
                <path d="M47.4353448,191.188922 L47.4353448,41.5380603 C25.905819,60.0806897 4.20491379,81.3194828 0.550862069,106.14194 C-3.08482759,131.193922 11.6293103,159.887716 33.3302155,181.707974 C37.8726375,186.296473 42.7266832,190.56562 47.8576724,194.484914 C47.5765862,193.408819 47.4346528,192.301122 47.4353448,191.188922 Z" id="Path" fill="#F1F1F1" fill-rule="nonzero"></path>
                <path d="M62.7584914,204.177026 C77.4114224,212.100259 92.38875,215.417672 104.72194,210.940388 C108.776897,209.456121 112.544181,207.127198 116.118664,204.177026 L62.7584914,204.177026 Z" id="Path" fill="#F1F1F1" fill-rule="nonzero"></path>
                <path d="M162.50431,122.970776 L162.50431,95.8438793 C144.142241,94.2402586 125.168103,93.3956034 105.731853,93.3956034 C85.7722845,93.3956034 66.2809483,94.2831034 47.4353448,95.9754741 L47.4353448,122.967716 L162.50431,122.970776 Z" id="Path" fill="#E0E0E0" fill-rule="nonzero"></path>
                <path d="M86.2343966,123.080948 C87.0912931,117.982414 88.9887069,102.215517 79.6821983,102.0625 C78.7640948,104.838233 76.8942241,116.727672 77.4818103,123.080948 L86.2343966,123.080948 Z" id="Path" fill="#E49D75" fill-rule="nonzero"></path>
                <path d="M92.1990086,81.5581897 C101.35556,83.5198707 97.4934052,102.784741 95.9448707,105.734914 C92.9028879,108.161767 81.9193103,106.741767 77.9959483,102.135948 C77.4083621,99.8223276 82.2896121,79.4343103 92.1990086,81.5581897 Z" id="Path" fill="#FFC78E" fill-rule="nonzero"></path>
                <rect id="Rectangle" stroke="#4FE0E0" stroke-width="0.918103448" x="47.4322845" y="0.153017241" width="115.068966" height="203.818966" rx="12.9911638"></rect>
                <path d="M125.599612,0.0948706897 C125.617075,0.266703875 125.625248,0.439354565 125.624202,0.612068966 L125.624202,3.67241379 C125.624907,5.01136126 125.093581,6.29574682 124.147089,7.24281277 C123.200597,8.18987873 121.916534,8.72198369 120.577586,8.72198369 L89.362069,8.72198369 C88.0223098,8.72279473 86.7371459,8.19114658 85.789506,7.24408068 C84.8418661,6.29701478 84.3094397,5.01217316 84.3094397,3.67241379 L84.3094397,0.612068966 C84.3094397,0.455991379 84.3094397,0.306034483 84.3308621,0.153017241" id="Path" fill="#6BD5E1" fill-rule="nonzero"></path>
                <circle id="Oval" fill="#FFD98E" fill-rule="nonzero" cx="104.966767" cy="192.624224" r="5.88198276"></circle>
                <circle id="Oval" fill="#FD8369" fill-rule="nonzero" cx="60.8457759" cy="135.297845" r="6.65012931"></circle>
                <circle id="Oval" fill="#FD8369" fill-rule="nonzero" cx="67.814181" cy="159.373578" r="3.74586207"></circle>
                <line x1="73.5492672" y1="132.531293" x2="133.899267" y2="132.531293" id="Path" stroke="#FD8369" stroke-width="0.918103448" stroke-linecap="round"></line>
                <line x1="76.2240086" y1="159.373578" x2="136.574009" y2="159.373578" id="Path" stroke="#FD8369" stroke-width="0.918103448" stroke-linecap="round"></line>
                <line x1="73.5492672" y1="138.125603" x2="93.6037069" y2="138.125603" id="Path" stroke="#FD8369" stroke-width="0.918103448" stroke-linecap="round"></line>
                <path d="M97.0649569,33.4709914 L58.8626724,33.4709914 C58.8626724,33.4709914 61.1456897,30.3127155 67.814181,29.7465517 C74.4826724,29.1803879 71.1652586,20.599181 80.8787931,20.599181 C90.5923276,20.599181 88.6490086,26.4138362 92.7774138,26.4138362 C96.905819,26.4138362 97.0649569,33.4709914 97.0649569,33.4709914 Z" id="Path" fill="#F1F1F1" fill-rule="nonzero"></path>
                <path d="M124.794741,37.9084914 L151.147371,37.9084914 C151.147371,37.9084914 149.571293,35.7295259 144.971595,35.3408621 C140.371897,34.9521983 142.661034,29.030431 135.96194,29.030431 C129.262845,29.030431 130.600216,33.0517241 127.754095,33.0517241 C124.907974,33.0517241 124.794741,37.9084914 124.794741,37.9084914 Z" id="Path" fill="#F1F1F1" fill-rule="nonzero"></path>
                <path d="M125.085474,123.080948 C126.003578,112.544181 124.620302,76.759569 106.010345,76.759569 C86.9413362,76.759569 81.0868966,101.092371 83.2536207,123.080948 L125.085474,123.080948 Z" id="Path" fill="#FFD98E" fill-rule="nonzero"></path>
                <path d="M136.200647,123.080948 C135.649784,118.013017 132.387457,103.693664 131.236767,101.3525 C131.236767,101.3525 117.964052,103.800776 117.964052,104.682155 C117.964052,105.456422 121.204957,118.759741 122.554569,123.084009 L136.200647,123.080948 Z" id="Path" fill="#E49D75" fill-rule="nonzero"></path>
                <path d="M117.823276,81.2001293 C126.698276,78.2040517 133.225991,96.7344397 133.403491,100.064095 C132.026336,103.702845 121.862931,108.0975 116.137026,106.145 C114.456897,104.45569 108.229095,84.4379741 117.823276,81.2001293 Z" id="Path" fill="#FFE4AD" fill-rule="nonzero"></path>
                <rect id="Rectangle" stroke="#4FE0E0" stroke-width="0.918103448" x="47.4322845" y="123.080948" width="115.068966" height="57.9415086"></rect>
            </g>
        </g>
    </g>
</svg>