<?xml version="1.0" encoding="UTF-8"?>
<svg width="50px" height="60px" viewBox="0 0 50 60" version="1.1" xmlns="http://www.w3.org/2000/svg" xmlns:xlink="http://www.w3.org/1999/xlink">
    <g stroke="none" stroke-width="1" fill="none" fill-rule="evenodd">
        <g transform="translate(-496.000000, -714.000000)" fill="#0C0C0C" fill-rule="nonzero">
            <g transform="translate(496.000000, 714.000000)">
                <path d="M47.6940714,2.12431735 C47.6940714,1.44887174 47.368001,0.82345913 46.8412719,0.423195062 C46.3020015,0.0229309934 45.6122371,-0.102151528 44.9600963,0.0854722541 L13.4817583,9.25402107 C12.578794,9.51669437 11.9517355,10.3547473 11.9517355,11.2928662 L11.9517355,42.9637606 C10.9484419,42.5634965 9.85736002,42.338348 8.72865467,42.338348 C3.9128452,42.338348 0,46.3034639 0,51.169174 C0,56.0348841 3.9128452,60 8.72865467,60 C13.5444641,60 17.4573093,56.0348841 17.4573093,51.169174 C17.4573093,49.5180847 16.9682037,47.9670614 16.2157335,46.6411867 L16.2157335,27.1658381 L43.4300735,19.2356063 L43.4300735,27.603627 C42.5521915,27.3284454 41.6993919,27.1908546 40.7713453,27.1908546 C35.9555359,27.1908546 32.0426907,31.1559706 32.0426907,36.0216806 C32.0426907,40.8873907 35.9555359,44.8525067 40.7713453,44.8525067 C45.5871548,44.8525067 49.5,40.8873907 49.5,36.0216806 C49.5,33.9953438 48.8227768,32.1316142 47.6940714,30.6431322 L47.6940714,2.12431735 L47.6940714,2.12431735 Z M8.7161135,55.734686 C6.25804408,55.734686 4.2514568,53.6833327 4.2514568,51.1566657 C4.2514568,48.6299988 6.25804408,46.5786455 8.7161135,46.5786455 C11.1741829,46.5786455 13.1807702,48.6299988 13.1807702,51.1566657 C13.1807702,53.6833327 11.1867241,55.734686 8.7161135,55.734686 Z M16.2157335,22.7379169 L16.2157335,12.8814142 L43.4300735,4.95118234 L43.4300735,14.807685 L16.2157335,22.7379169 Z M40.7713453,40.5871927 C38.3132759,40.5871927 36.3066886,38.5358393 36.3066886,36.0091724 C36.3066886,33.4825055 38.3132759,31.4311521 40.7713453,31.4311521 C43.2294147,31.4311521 45.236002,33.4825055 45.236002,36.0091724 C45.236002,38.5358393 43.2294147,40.5871927 40.7713453,40.5871927 Z" id="Shape"></path>
            </g>
        </g>
    </g>
</svg>