<?xml version="1.0" encoding="UTF-8"?>
<svg width="16px" height="15px" viewBox="0 0 16 15" version="1.1" xmlns="http://www.w3.org/2000/svg" xmlns:xlink="http://www.w3.org/1999/xlink">
    <!-- Generator: sketchtool 63 (101010) - https://sketch.com -->
    <title>B7F5492C-5B01-4476-9913-8B7341BC5A72</title>
    <desc>Created with sketchtool.</desc>
    <g id="Design-System" stroke="none" stroke-width="1" fill="none" fill-rule="evenodd">
        <g id="Utility-Icons" transform="translate(-484.000000, -618.000000)" fill="#000" fill-rule="nonzero">
            <g id="RedditLogo" transform="translate(484.000000, 618.000000)">
                <path d="M16,7.33425 C16,6.24 15.2053333,5.3505 14.2286667,5.3505 C13.752,5.3505 13.32,5.565 13.002,5.91 C11.7953333,5.01675 10.1626667,4.44825 8.35466667,4.3755 L9.34333333,0.87375 L12.0206667,1.5795 L12.0166667,1.623 C12.0166667,2.51775 12.6666667,3.24525 13.466,3.24525 C14.2646667,3.24525 14.914,2.51775 14.914,1.623 C14.914,0.72825 14.264,9.99200722e-16 13.466,9.99200722e-16 C12.8526667,9.99200722e-16 12.33,0.4305 12.1186667,1.03425 L9.23266667,0.273 C9.10666667,0.2385 8.97866667,0.32025 8.93933333,0.45975 L7.83666667,4.365 C5.94466667,4.3905 4.23066667,4.9635 2.97,5.88375 C2.654,5.55525 2.23466667,5.34975 1.77066667,5.34975 C0.794,5.34975 -1.99840144e-15,6.24 -1.99840144e-15,7.33425 C-1.99840144e-15,8.06175 0.355333333,8.6925 0.878,9.0375 C0.843333333,9.249 0.820666667,9.46275 0.820666667,9.68025 C0.820666667,12.6135 4.026,15 7.96666667,15 C11.9073333,15 15.1133333,12.6135 15.1133333,9.68025 C15.1133333,9.47475 15.094,9.27225 15.0633333,9.07275 C15.618,8.7375 16,8.08875 16,7.33425 Z M4.51733333,8.69625 C4.51733333,8.04525 4.99066667,7.515 5.572,7.515 C6.15333333,7.515 6.626,8.04525 6.626,8.69625 C6.626,9.34725 6.15333333,9.87675 5.572,9.87675 C4.99066667,9.87675 4.51733333,9.34725 4.51733333,8.69625 L4.51733333,8.69625 Z M10.558,12.198 C10.0266667,12.79275 9.19266667,13.08225 8.00866667,13.08225 L8,13.08 L7.99133333,13.08225 C6.80666667,13.08225 5.97266667,12.79275 5.442,12.198 C5.34533333,12.09 5.34533333,11.91375 5.442,11.80575 C5.53866667,11.697 5.696,11.697 5.79266667,11.80575 C6.226,12.291 6.94533333,12.5265 7.99133333,12.5265 L8,12.52875 L8.00866667,12.5265 C9.05466667,12.5265 9.774,12.29025 10.2073333,11.805 C10.304,11.69625 10.4613333,11.697 10.558,11.805 C10.6546667,11.91375 10.6546667,12.08925 10.558,12.198 Z M10.432,9.87675 C9.85066667,9.87675 9.378,9.34725 9.378,8.69625 C9.378,8.04525 9.85066667,7.515 10.432,7.515 C11.0133333,7.515 11.486,8.04525 11.486,8.69625 C11.486,9.34725 11.0133333,9.87675 10.432,9.87675 Z" id="Shape"></path>
            </g>
        </g>
    </g>
</svg>