<?xml version="1.0" encoding="UTF-8"?>
<svg width="64px" height="58px" viewBox="0 0 64 58" version="1.1" xmlns="http://www.w3.org/2000/svg" xmlns:xlink="http://www.w3.org/1999/xlink">
    <!-- Generator: sketchtool 63 (101010) - https://sketch.com -->
    <title>EBFB0737-B27A-4D07-8F73-707150B1E1EE</title>
    <desc>Created with sketchtool.</desc>
    <defs>
        <polygon id="path-1" points="0 0.317890909 63.3052364 0.317890909 63.3052364 57.4545455 0 57.4545455"></polygon>
        <polygon id="path-3" points="0 57.864 63.3054545 57.864 63.3054545 0.727272727 0 0.727272727"></polygon>
    </defs>
    <g id="Design-System" stroke="none" stroke-width="1" fill="none" fill-rule="evenodd">
        <g id="Icons" transform="translate(-916.000000, -410.000000)">
            <g id="Group-19" transform="translate(916.000000, 410.000000)">
                <path d="M27.3032727,31.7256727 C28.3338182,29.7940364 29.2152727,27.5293091 29.208,25.4020364 C30.9738182,25.0144 32.7432727,24.4420364 34.5607273,23.6565818 C32.9330909,27.9169455 29.7389091,30.1838545 29.6952727,30.2107636 L27.3032727,31.7256727 Z M25.9905455,23.7838545 L25.3018182,22.6965818 L26.52,21.9256727 C26.9978182,21.6224 27.1410909,20.9831273 26.8385455,20.5053091 C26.5352727,20.0267636 25.896,19.8834909 25.4181818,20.1867636 L24.2443636,20.9300364 L23.3352727,19.4951273 C25.1621818,16.5104 28.0261818,13.7220364 31.4174545,11.5744 C36.7665455,8.18749091 43.1250909,6.77949091 47.3541818,7.87912727 C46.1250909,12.1911273 42.4363636,16.6594909 37.4785455,19.7991273 C33.7825455,22.1387636 29.7374545,23.5438545 25.9905455,23.7838545 L25.9905455,23.7838545 Z M16.8116364,15.1584 L19.16,13.6711273 C19.2029091,13.6434909 22.6618182,11.6973091 27.2363636,12.0900364 C25.7214545,13.3533091 24.3767273,14.6929455 23.272,16.1234909 C21.3512727,15.2071273 18.9272727,15.0362182 16.8116364,15.1584 L16.8116364,15.1584 Z M30.84,31.9227636 C31.0574545,31.7853091 35.632,28.5227636 37.0749091,22.4311273 C37.5803636,22.1707636 38.1025455,21.8405818 38.5803636,21.5380364 C44.408,17.8478545 48.5003636,12.5751273 49.5934545,7.37512727 L49.7425455,6.54967273 L48.9490909,6.25949091 C44.1090909,4.38967273 36.6218182,5.84203636 30.3163636,9.83476364 C30.0552727,9.99985455 29.7949091,10.1649455 29.5607273,10.3744 C23.3389091,9.01367273 18.3469091,11.8093091 18.1294545,11.9474909 L14.1287273,14.4805818 C13.4763636,14.8936727 13.2298182,15.6587636 13.4850909,16.3504 C13.4967273,16.4653091 13.5796364,16.5954909 13.6341818,16.6820364 C13.9643636,17.2042182 14.5723636,17.4900364 15.1883636,17.4049455 C17.9956364,17.0274909 20.3912727,17.1554909 22.0327273,17.8224 C21.7949091,18.2165818 21.5134545,18.6384 21.2756364,19.0325818 L20.9621818,19.5962182 L22.4887273,22.1031273 L20.3149091,23.4791273 C19.8356364,23.7824 19.6923636,24.4216727 19.9956364,24.8994909 C20.2981818,25.3780364 20.9374545,25.5220364 21.416,25.2187636 L23.5905455,23.8420364 L24.8683636,25.9562182 L25.4690909,25.9424 C25.9978182,25.9118545 26.5978182,25.8973091 27.1425455,25.7962182 C27.0443636,27.5642182 26.1905455,29.8718545 24.5905455,32.3467636 C24.2494545,32.8674909 24.248,33.5387636 24.5781818,34.0602182 C24.6334545,34.1474909 24.7156364,34.2784 24.8145455,34.3373091 C25.3301818,34.8631273 26.1709091,34.9402182 26.7796364,34.5547636 L30.84,31.9227636 Z" id="Fill-1" fill="#020303"></path>
                <path d="M17.8373818,26.2058182 C17.5341091,25.7272727 16.8948364,25.584 16.4170182,25.8872727 L11.2853818,29.136 C10.8075636,29.4385455 10.6642909,30.0778182 10.9668364,30.5563636 C11.2701091,31.0349091 11.9093818,31.1781818 12.3872,30.8756364 L17.5188364,27.6261818 C17.9966545,27.3229091 18.1399273,26.6836364 17.8373818,26.2058182" id="Fill-3" fill="#020303"></path>
                <path d="M19.6810909,20.6511273 C19.3785455,20.1733091 18.7392727,20.0300364 18.2607273,20.3325818 L13.1298182,23.5820364 C12.6512727,23.8845818 12.508,24.5238545 12.8105455,25.0024 C13.1138182,25.4809455 13.7530909,25.6242182 14.2309091,25.3216727 L19.3625455,22.0714909 C19.8410909,21.7689455 19.9843636,21.1296727 19.6810909,20.6511273" id="Fill-5" fill="#020303"></path>
                <path d="M23.6463273,26.9132364 C23.3437818,26.4354182 22.7045091,26.2921455 22.2259636,26.5946909 L17.0950545,29.8434182 C16.6165091,30.1466909 16.4732364,30.7859636 16.7765091,31.2637818 C17.0790545,31.7430545 17.7183273,31.8863273 18.1968727,31.5830545 L23.3277818,28.3336 C23.8063273,28.0310545 23.9496,27.3917818 23.6463273,26.9132364" id="Fill-7" fill="#020303"></path>
                <path d="M34.7002909,15.8919273 C34.2602909,15.1966545 34.4675636,14.2730182 35.1635636,13.8322909 C35.8588364,13.3915636 36.7817455,13.5995636 37.2232,14.2955636 C37.6632,14.9908364 37.4559273,15.9137455 36.7599273,16.3552 C36.0646545,16.7952 35.1410182,16.5879273 34.7002909,15.8919273 M38.9184727,13.2213818 C37.8719273,11.5690182 35.6704727,11.0744727 34.0188364,12.1202909 C32.3657455,13.1675636 31.8712,15.3690182 32.9177455,17.0213818 C33.9642909,18.6737455 36.1664727,19.1682909 37.8181091,18.1210182 C39.4428364,17.0315636 39.9650182,14.8737455 38.9184727,13.2213818" id="Fill-9" fill="#020303"></path>
                <g id="Group-13" transform="translate(0.000000, 0.409455)">
                    <mask id="mask-2" fill="white">
                        <use xlink:href="#path-1"></use>
                    </mask>
                    <g id="Clip-12"></g>
                    <path d="M62.2506909,55.3375273 L61.5190545,55.3375273 L41.5743273,55.3375273 L39.7117818,55.3375273 L2.11396364,55.3375273 L2.11396364,1.37534545 C2.11396364,0.790618182 1.63832727,0.317890909 1.05723636,0.317890909 C0.476145455,0.317890909 -0.000218181818,0.790618182 -0.000218181818,1.37534545 L-0.000218181818,56.3971636 C-0.000218181818,56.9818909 0.476145455,57.4546182 1.05723636,57.4546182 L1.3896,57.4546182 L39.7088727,57.4546182 L41.5714182,57.4546182 L61.5161455,57.4546182 L62.2485091,57.4546182 C62.8325091,57.4546182 63.3052364,56.9789818 63.3052364,56.3971636 C63.3052364,55.8153455 62.8325091,55.3375273 62.2506909,55.3375273" id="Fill-11" fill="#020303" mask="url(#mask-2)"></path>
                </g>
                <mask id="mask-4" fill="white">
                    <use xlink:href="#path-3"></use>
                </mask>
                <g id="Clip-15"></g>
                <path d="M19.328,51.7585455 L26.0145455,51.7585455 L26.0145455,42.9127273 L19.328,42.9127273 L19.328,51.7585455 Z M18.2683636,40.7956364 C17.6843636,40.7956364 17.2116364,41.2712727 17.2116364,41.8530909 L17.2116364,52.8130909 C17.2116364,53.3978182 17.6865455,53.8705455 18.2683636,53.8705455 L27.0727273,53.8705455 C27.656,53.8705455 28.1301818,53.3949091 28.1301818,52.8130909 L28.1301818,41.8530909 C28.1301818,41.2683636 27.6538182,40.7956364 27.0727273,40.7956364 L18.2683636,40.7956364 Z" id="Fill-14" fill="#020303" mask="url(#mask-4)"></path>
                <path d="M6.50981818,51.7585455 L13.1963636,51.7585455 L13.1963636,47.4770909 L6.50981818,47.4770909 L6.50981818,51.7585455 Z M5.44945455,45.36 C4.86545455,45.36 4.39272727,45.8356364 4.39272727,46.4167273 L4.39272727,52.816 C4.39272727,53.4 4.86836364,53.8727273 5.44945455,53.8727273 L14.2538182,53.8727273 C14.8378182,53.8727273 15.3112727,53.3978182 15.3112727,52.816 L15.3112727,46.4167273 C15.3112727,45.8327273 14.8349091,45.36 14.2538182,45.36 L5.44945455,45.36 Z" id="Fill-16" fill="#020303" mask="url(#mask-4)"></path>
                <path d="M32.872,51.7585455 L39.5585455,51.7585455 L39.5585455,36.2181818 L32.872,36.2181818 L32.872,51.7585455 Z M31.8109091,34.1003636 C31.2269091,34.1003636 30.7541818,34.5767273 30.7541818,35.1578182 L30.7541818,52.816 C30.7541818,53.4 31.2298182,53.8727273 31.8109091,53.8727273 L40.6152727,53.8727273 C41.1992727,53.8727273 41.6727273,53.3978182 41.6727273,52.816 L41.6727273,35.1578182 C41.6727273,34.5738182 41.1963636,34.1003636 40.6152727,34.1003636 L31.8109091,34.1003636 Z" id="Fill-17" fill="#020303" mask="url(#mask-4)"></path>
                <path d="M46.4109091,51.7563636 L53.0952727,51.7563636 L53.0952727,26.8981818 L46.4109091,26.8981818 L46.4109091,51.7563636 Z M44.2967273,25.8414545 L44.2967273,52.816 C44.2967273,53.4 44.7723636,53.8727273 45.3541818,53.8727273 L54.1556364,53.8727273 C54.7396364,53.8727273 55.2123636,53.3978182 55.2123636,52.816 L55.2123636,25.8414545 C55.2123636,25.2567273 54.7374545,24.7839867 54.1556364,24.7839867 L45.3541818,24.7839867 C44.7701818,24.7810909 44.2967273,25.2567273 44.2967273,25.8414545 L44.2967273,25.8414545 Z" id="Fill-18" fill="#020303" mask="url(#mask-4)"></path>
            </g>
        </g>
    </g>
</svg>