<?xml version="1.0" encoding="UTF-8"?>
<svg width="322px" height="126px" viewBox="0 0 322 126" version="1.1" xmlns="http://www.w3.org/2000/svg" xmlns:xlink="http://www.w3.org/1999/xlink">
    <title>4ED03121-D7B8-47C6-A2ED-062F4CA008AF</title>
    <defs>
        <polygon id="path-1" points="0 0 322 0 322 125.658537 0 125.658537"></polygon>
    </defs>
    <g id="Homepage" stroke="none" stroke-width="1" fill="none" fill-rule="evenodd">
        <g id="Homepage:-Desktop-V2" transform="translate(-867.000000, -3455.000000)">
            <g id="Group-3" transform="translate(867.000000, 3455.000000)">
                <mask id="mask-2" fill="white">
                    <use xlink:href="#path-1"></use>
                </mask>
                <g id="Clip-2"></g>
                <path d="M51.742069,85.2979493 L65.0565517,58.1559371 L78.3710345,85.2979493 L51.742069,85.2979493 Z M276.398621,59.836019 L320.513103,7.71485867 L282.828966,7.71485867 L242.663448,55.4716684 L242.663448,7.71485867 L210.57931,7.71485867 L210.57931,84.6606769 C209.874483,78.7128008 207.788966,73.5663432 204.332414,69.2116482 C199.987586,63.7368987 192.794483,59.1794353 182.782069,55.5682248 C179.644138,54.4095477 176.4,53.3281157 173.04,52.3142732 C169.689655,51.3004307 167.024828,50.5279792 165.045517,50.0162302 C163.066207,49.4948255 161.125517,48.9154869 159.233103,48.2878701 C157.331034,47.6602533 155.902069,47.0422922 154.955862,46.4436423 C154.009655,45.8353368 153.256552,45.0532297 152.686897,44.0876654 C152.117241,43.1414124 151.827586,41.9730796 151.827586,40.6019784 C151.827586,38.4584256 152.918621,36.7300656 155.081379,35.3782756 C157.253793,34.0361412 160.372414,33.3602462 164.437241,33.3602462 C173.32,33.3602462 184.597241,35.1368845 189.675862,40.5343889 L194.262069,14.8021006 C185.456552,7.99487231 170.172414,6.23754531 163.297931,6.60445974 C157.852414,6.90378467 152.638621,7.34794424 147.695172,8.81560196 C142.761379,10.2929153 138.368276,12.4268124 134.496552,15.2269488 C130.644138,18.0174296 127.564138,21.6479514 125.266207,26.1088584 C122.977931,30.5601098 121.828966,35.5617328 121.828966,41.0944161 C121.828966,49.5913819 124.136552,56.5434448 128.751724,61.9795717 C133.366897,67.3963874 139.971034,71.731771 148.554483,74.9664114 C151.315862,76.0671547 154.482759,77.1485867 158.074483,78.2203631 C161.666207,79.2824838 164.601379,80.1514916 166.918621,80.7984197 C169.216552,81.4646591 171.466207,82.2467661 173.667586,83.1447409 C175.85931,84.0523714 177.481379,85.0951808 178.543448,86.2731692 C179.605517,87.4511577 180.136552,88.8319146 180.136552,90.4250957 C180.136552,96.0736468 174.951724,98.8930945 164.591724,98.8930945 C158.547586,98.8930945 152.986207,97.5413045 147.936552,94.8184132 C142.877241,92.1051775 138.822069,88.6194905 135.732414,84.332385 L116.537931,99.2406976 L65.0565517,0 L0,125.40749 L33.3682759,125.40749 L40.9572414,110.064673 L89.1558621,110.064673 L96.7448276,125.40749 L130.113103,125.40749 L123.412414,112.468928 C124.377931,113.260691 125.411034,114.062109 126.531034,114.853872 C129.591724,117.026392 132.893793,118.880275 136.456552,120.415522 C140.038621,121.95077 144.248276,123.215659 149.114483,124.181223 C153.98069,125.166099 159.136552,125.658537 164.591724,125.658537 C180.02069,125.658537 191.587586,122.375618 199.292414,115.800125 C205.828966,110.238475 209.584828,103.083644 210.57931,94.335631 L210.57931,125.40749 L242.663448,125.40749 L242.663448,95.146705 L254.297931,81.6963945 L284.228966,125.40749 L322,125.40749 L276.398621,59.836019 Z" id="Fill-1" fill="#24B8F3" mask="url(#mask-2)"></path>
            </g>
        </g>
    </g>
</svg>