<?xml version="1.0" encoding="UTF-8"?>
<svg width="194px" height="213px" viewBox="0 0 194 213" version="1.1" xmlns="http://www.w3.org/2000/svg" xmlns:xlink="http://www.w3.org/1999/xlink">
    <!-- Generator: sketchtool 63 (101010) - https://sketch.com -->
    <title>F1EB9BC7-DEAA-4611-AD8F-481A85E529FC</title>
    <desc>Created with sketchtool.</desc>
    <g id="Design-System" stroke="none" stroke-width="1" fill="none" fill-rule="evenodd">
        <g id="Illustrations" transform="translate(-517.000000, -257.000000)">
            <g id="social-feed-colour" transform="translate(517.000000, 257.000000)">
                <path d="M184.30553,44.7038249 C195.802949,58.2919816 194.497465,82.595576 189.792488,102.092765 C185.035161,121.639032 176.829263,136.437788 165.331843,154.105991 C153.834424,171.774194 139.0553,192.354378 119.495945,197.111705 C99.9365899,201.869032 75.6951613,190.751152 54.3722581,173.082949 C33.0493548,155.414747 14.5958986,131.098065 9.68479263,101.935714 C4.77695853,72.7177419 13.342765,38.5886636 34.6689401,25.0005069 C55.9951152,11.4123502 90.1209217,18.3618433 119.338894,23.2762212 C148.501244,28.2396774 172.804839,31.1156682 184.30553,44.7038249 Z" id="Path" fill="#F1F1F1" fill-rule="nonzero"></path>
                <path d="M93.098341,65.9907373 C92.6533641,68.1665438 93.1376037,83.7440092 92.4930415,86.2011982 C91.8484793,88.6583871 84.696129,118.687788 84.696129,118.687788 L96.0724885,115.543502 C96.0724885,115.543502 100.060922,106.778111 101.507097,98.8863134 C102.779862,91.9400922 102.596636,66.1117972 93.098341,65.9907373 Z" id="Path" fill="#D18C65" fill-rule="nonzero"></path>
                <polygon id="Path" fill="#000000" fill-rule="nonzero" points="82.0557143 72.8682488 74.6743318 72.8682488 70.4470507 56.8359908 77.8317051 56.8359908"></polygon>
                <rect id="Rectangle" fill="#E0E0E0" fill-rule="nonzero" x="97.4499539" y="117.447742" width="80.1972811" height="80.1972811"></rect>
                <circle id="Oval" fill="#A4A4A4" fill-rule="nonzero" cx="112.30106" cy="133.450553" r="8.08156682"></circle>
                <line x1="127.175069" y1="129.985622" x2="168.14894" y2="129.985622" id="Path" stroke="#FFFFFF" stroke-width="0.667465438" stroke-linecap="round" stroke-linejoin="round"></line>
                <line x1="127.175069" y1="136.912212" x2="145.340599" y2="136.912212" id="Path" stroke="#FFFFFF" stroke-width="0.667465438" stroke-linecap="round" stroke-linejoin="round"></line>
                <line x1="127.175069" y1="154.083088" x2="168.14894" y2="154.083088" id="Path" stroke="#FFFFFF" stroke-width="0.667465438" stroke-linecap="round" stroke-linejoin="round"></line>
                <line x1="127.175069" y1="161.009677" x2="145.340599" y2="161.009677" id="Path" stroke="#FFFFFF" stroke-width="0.667465438" stroke-linecap="round" stroke-linejoin="round"></line>
                <line x1="127.175069" y1="178.177281" x2="168.14894" y2="178.177281" id="Path" stroke="#FFFFFF" stroke-width="0.667465438" stroke-linecap="round" stroke-linejoin="round"></line>
                <line x1="127.175069" y1="185.103871" x2="145.340599" y2="185.103871" id="Path" stroke="#FFFFFF" stroke-width="0.667465438" stroke-linecap="round" stroke-linejoin="round"></line>
                <circle id="Oval" fill="#FFFFFF" fill-rule="nonzero" cx="112.30106" cy="157.544747" r="8.08156682"></circle>
                <circle id="Oval" fill="#FFFFFF" fill-rule="nonzero" cx="112.30106" cy="181.642212" r="8.08156682"></circle>
                <polygon id="Path" fill="#E49D75" fill-rule="nonzero" points="20.88447 192.897512 28.4261751 188.555714 33.1965899 197.291659 24.4115668 201.630184"></polygon>
                <polygon id="Path" fill="#E49D75" fill-rule="nonzero" points="76.2153917 188.555714 77.8971429 198.21106 88.0956221 196.476959 84.7321198 185.519401"></polygon>
                <path d="M101.454747,111.653226 C98.4511521,111.81682 49.166682,122.519171 48.5253917,125.02871 C43.2478341,145.615438 73.3917512,188.830553 75.6068203,190.139309 C77.9952995,189.563456 86.145576,186.723456 86.145576,186.723456 L84.2740553,157.907926 L101.454747,111.653226 Z" id="Path" fill="#5FC5D1" fill-rule="nonzero"></path>
                <polygon id="Path" fill="#000000" fill-rule="nonzero" points="26.6331797 202.984747 20.6129032 190.40106 4.230553 174.725438 0 177.055023 16.2187558 208.137972"></polygon>
                <polygon id="Path" fill="#000000" fill-rule="nonzero" points="88.867788 194.163733 75.1323963 196.611106 55.6515668 208.216498 56.7738249 212.918203 91.056682 205.576083"></polygon>
                <path d="M139.474101,98.8863134 C141.391429,100.420829 143.400369,107.337604 143.632673,109.683548 C146.142212,136.899124 101.346774,152.924839 95.1432719,155.614332 C89.253871,160.538525 37.8852074,198.407373 34.7540092,199.303871 C31.6228111,200.200369 26.5023041,188.179447 26.950553,186.572949 C27.3988018,184.966452 102.688249,109.281106 102.688249,109.281106 L139.474101,98.8863134 Z" id="Path" fill="#6BD5E1" fill-rule="nonzero"></path>
                <path d="M103.453871,49.8963134 C97.1162212,46.7651152 91.2562673,63.9392627 91.8190323,65.9056682 C92.3817972,67.8720737 98.1992166,68.4348387 99.6715668,68.4348387 C101.143917,68.4348387 103.453871,49.8963134 103.453871,49.8963134 Z" id="Path" fill="#FFC78E" fill-rule="nonzero"></path>
                <path d="M115.605668,40.0446544 C138.737926,40.0446544 140.920276,95.1923502 140.658525,98.955023 C138.322396,106.624332 110.301935,115.837972 101.677235,110.795991 C87.9909217,78.7052995 94.2958525,40.0446544 115.605668,40.0446544 Z" id="Path" fill="#FFD98E" fill-rule="nonzero"></path>
                <path d="M138.682304,67.2340553 C139.9747,69.4393088 142.755806,83.809447 142.477696,85.6842396 C142.199585,87.5590323 137.897051,92.2901843 136.365806,92.3948848 C114.594654,93.8737788 90.9814286,85.1738249 86.5676498,82.7297235 C77.3343779,81.9935484 71.8703226,78.6594931 71.8703226,73.7843779 C71.8703226,70.9051152 73.4670046,68.8307373 74.3471429,68.8307373 C76.0158065,68.8307373 78.9801382,71.7067281 79.3400461,72.5476037 C78.6202304,71.0687097 76.3626267,68.3530415 78.2210599,68.3530415 C78.7380184,68.3530415 82.9325806,74.2162673 85.2098157,75.6395392 C87.4870507,77.0628111 120.35318,78.2570507 126.942765,80.6520737 C126.101889,78.9768664 123.746129,72.9042396 123.706866,72.0273733 C123.667604,71.1505069 138.682304,67.2340553 138.682304,67.2340553 Z" id="Path" fill="#E49D75" fill-rule="nonzero"></path>
                <rect id="Rectangle" fill="#6BD5E1" fill-rule="nonzero" transform="translate(70.043292, 40.562946) rotate(-11.240000) translate(-70.043292, -40.562946) " x="61.2549966" y="31.7746506" width="17.5765899" height="17.5765899" rx="2.51281106"></rect>
                <path d="M70.7709677,38.6541014 L70.378341,36.6909677 C70.3017247,36.2994796 70.0721762,35.9546976 69.7405427,35.7329945 C69.4089093,35.5112914 69.0025655,35.4309676 68.6115207,35.5098157 L67.5219816,40.3293088 L68.5984332,45.7377419 L74.1606452,44.6351152 C74.652466,44.5441128 75.0016767,44.1041073 74.9786175,43.60447 L74.7790323,39.0238249 C74.7525526,38.4701058 74.2825017,38.0425205 73.7287558,38.0684332 C73.6749691,38.0717508 73.6214312,38.0783065 73.5684332,38.0880645 L70.7709677,38.6541014 Z M68.5984332,45.7311982 L67.1228111,46.0256682 C66.8620187,46.077602 66.5912792,46.0236561 66.3703098,45.8757293 C66.1493404,45.7278026 65.996295,45.4980481 65.9449309,45.2371429 L65.2578341,41.7951152 C65.1495632,41.2512336 65.502533,40.7225111 66.0463594,40.6139631 L67.5219816,40.322765" id="Shape" stroke="#FFFFFF" stroke-width="0.667465438" stroke-linecap="round" stroke-linejoin="round"></path>
                <polygon id="Path" fill="#6BD5E1" fill-rule="nonzero" points="72.5639631 53.220553 74.0952074 48.7118894 69.4229493 49.641106"></polygon>
                <path d="M122.257419,44.4388018 C132.272673,40.7677419 140.190645,63.9065438 139.866728,66.8381567 C139.542811,69.7697696 123.507281,74.9033641 121.701198,73.8432719 C119.895115,72.7831797 112.330507,48.0771429 122.257419,44.4388018 Z" id="Path" fill="#FFE4AD" fill-rule="nonzero"></path>
                <path d="M116.260046,30.0097696 C116.152074,31.4003226 116.999493,39.1710599 118.324608,41.7067742 C117.73894,42.8584793 111.718664,46.2056221 108.836129,45.4890783 C108.443502,43.3361751 107.39977,37.5547465 106.545806,35.79447 C108.086866,34.9895853 116.260046,30.0097696 116.260046,30.0097696 Z" id="Path" fill="#D18C65" fill-rule="nonzero"></path>
                <ellipse id="Oval" fill="#E49D75" fill-rule="nonzero" transform="translate(104.640765, 20.845040) rotate(-14.860000) translate(-104.640765, -20.845040) " cx="104.640765" cy="20.8450404" rx="13.1333641" ry="16.4608756"></ellipse>
                <path d="M110.809078,20.6292627 C110.082719,20.6685253 107.311429,19.2550691 106.696313,15.0147005 C104.697189,14.6875115 95.8827189,15.6265438 91.2628111,19.2681567 C89.5516129,19.9225346 88.1643318,20.4689401 85.5762673,20.4689401 C84.3493088,20.4689401 83.3088479,19.1863594 83.3088479,18.3062212 C83.3088479,15.8817512 84.3493088,13.5325346 87.388894,13.3754839 C84.8302765,13.3198618 82.4581567,11.7395392 82.4581567,10.5747465 C82.4581567,9.02714286 85.9754378,4.27963134 92.1102304,6.360553 C90.6705991,5.32009217 89.04447,4.30580645 89.04447,3.32096774 C89.04447,1.6359447 91.4689401,0 95.7093088,0 C102.269447,0 109.418525,2.71894009 110.962857,4.66571429 C111.682673,4.29271889 112.598802,3.59907834 114.352535,3.59907834 C118.723779,3.59907834 120.189585,17.7598157 118.298433,22.5073272 C117.830079,22.8082007 117.306004,23.011822 116.757373,23.1060829" id="Path" fill="#FD8369" fill-rule="nonzero"></path>
                <path d="M110.678203,20.9400922 C111.122322,19.6760413 112.300833,18.8175056 113.640172,18.782322 C114.97951,18.7471383 116.201471,19.542615 116.711344,20.7816051 C117.221216,22.0205951 116.91309,23.4457372 115.936926,24.3634354 C114.960762,25.2811336 113.519327,25.5007648 112.314147,24.9154378" id="Path" fill="#E49D75" fill-rule="nonzero"></path>
            </g>
        </g>
    </g>
</svg>