<?xml version="1.0" encoding="UTF-8"?>
<svg width="50px" height="64px" viewBox="0 0 50 64" version="1.1" xmlns="http://www.w3.org/2000/svg" xmlns:xlink="http://www.w3.org/1999/xlink">
    <!-- Generator: sketchtool 64 (101010) - https://sketch.com -->
    <title>8C6B99BB-62B6-4D41-AEEB-DBCF95FB3FF1</title>
    <desc>Created with sketchtool.</desc>
    <defs>
        <polygon id="path-1" points="5.71428571e-05 0.165657143 49.2857143 0.165657143 49.2857143 44.5713714 5.71428571e-05 44.5713714"></polygon>
        <polygon id="path-3" points="0 63.4891429 49.2857143 63.4891429 49.2857143 -8.12048841e-15 0 -8.12048841e-15"></polygon>
    </defs>
    <g id="Design-System" stroke="none" stroke-width="1" fill="none" fill-rule="evenodd">
        <g id="Icons" transform="translate(-281.000000, -248.000000)">
            <g id="Group-23" transform="translate(281.000000, 248.000000)">
                <g id="Group-3" transform="translate(0.000000, 18.917714)">
                    <mask id="mask-2" fill="white">
                        <use xlink:href="#path-1"></use>
                    </mask>
                    <g id="Clip-2"></g>
                    <path d="M44.7857714,26.9056571 L44.7857714,22.2862286 L47.8572,22.2862286 L47.8572,32.5719429 L30.7857714,32.5719429 C27.9497714,32.5719429 25.6429143,30.2650857 25.6429143,27.4290857 C25.6429143,24.5930857 27.9497714,22.2862286 30.7857714,22.2862286 L43.3572,22.2862286 L43.3572,26.9056571 L44.7857714,26.9056571 Z M5.34577143,43.1433714 C3.18577143,43.1433714 1.42862857,41.3862286 1.42862857,39.2268 L1.42862857,9.14622857 C2.4052,10.1988 3.80005714,10.8582286 5.34577143,10.8582286 L5.64291429,10.8582286 L5.64291429,28.3348 L7.07148571,28.3348 L7.07148571,10.8576571 L47.8572,10.8576571 L47.8572,20.8576571 L30.7857714,20.8576571 C27.1623429,20.8576571 24.2143429,23.8056571 24.2143429,27.4290857 C24.2143429,31.0525143 27.1623429,34.0005143 30.7857714,34.0005143 L47.8572,34.0005143 L47.8572,43.1433714 L5.34577143,43.1433714 Z M5.34577143,1.59422857 L44.9154857,4.73708571 L6.3572,4.95308571 L6.3572,6.38165714 L45.0000571,6.38165714 L45.0000571,9.42908571 L5.34577143,9.42908571 C3.18577143,9.42908571 1.42862857,7.67194286 1.42862857,5.51251429 C1.42862857,3.35194286 3.18577143,1.59422857 5.34577143,1.59422857 L5.34577143,1.59422857 Z M28.4360571,4.95308571 L22.2789143,4.95308571 C22.5897714,4.39994286 22.8012,3.79251429 22.8909143,3.16108571 L27.8240571,3.16108571 C27.9143429,3.79308571 28.1252,4.39994286 28.4360571,4.95308571 L28.4360571,4.95308571 Z M38.4360571,4.95308571 L30.1897714,4.95308571 C29.5532,4.27022857 29.2017714,3.39251429 29.2017714,2.4468 L29.2017714,1.73251429 L21.5126286,1.73251429 L21.5126286,2.4468 C21.5126286,3.39137143 21.1617714,4.27022857 20.5246286,4.95308571 L12.2789143,4.95308571 L38.4360571,4.95308571 Z M10.8503429,0.165657143 L5.34577143,0.165657143 C2.39777143,0.165657143 5.71428571e-05,2.56394286 5.71428571e-05,5.51194286 L5.71428571e-05,39.2262286 C5.71428571e-05,42.1730857 2.39834286,44.5713714 5.34577143,44.5713714 L49.2857714,44.5713714 L49.2857714,9.42851429 L46.4286286,9.42851429 L46.4286286,9.42908571 L46.4286286,0.165657143 L39.8646286,0.165657143 L10.8503429,0.165657143 Z" id="Fill-1" fill="#020303" mask="url(#mask-2)"></path>
                </g>
                <mask id="mask-4" fill="white">
                    <use xlink:href="#path-3"></use>
                </mask>
                <g id="Clip-5"></g>
                <polygon id="Fill-4" fill="#020303" mask="url(#mask-4)" points="5.64285714 53.3177143 7.07142857 53.3177143 7.07142857 49.3468571 5.64285714 49.3468571"></polygon>
                <polygon id="Fill-6" fill="#020303" mask="url(#mask-4)" points="5.64285714 57.0611429 7.07142857 57.0611429 7.07142857 54.7754286 5.64285714 54.7754286"></polygon>
                <path d="M30.6064,48.0505143 C29.6669714,48.0505143 28.9029714,47.2853714 28.9029714,46.3470857 C28.9029714,45.4082286 29.6675429,44.6436571 30.6064,44.6436571 C31.5452571,44.6436571 32.3098286,45.4082286 32.3098286,46.3470857 C32.3098286,47.2853714 31.5452571,48.0505143 30.6064,48.0505143 M30.6064,43.2150857 C28.8795429,43.2150857 27.4744,44.6202286 27.4744,46.3470857 C27.4744,48.0739429 28.8795429,49.4790857 30.6064,49.4790857 C32.3332571,49.4790857 33.7384,48.0739429 33.7384,46.3470857 C33.7384,44.6202286 32.3332571,43.2150857 30.6064,43.2150857" id="Fill-7" fill="#020303" mask="url(#mask-4)"></path>
                <polygon id="Fill-8" fill="#020303" mask="url(#mask-4)" points="43.3571429 49.3468571 44.7857143 49.3468571 44.7857143 47.252 43.3571429 47.252"></polygon>
                <polyline id="Fill-9" fill="#FEFEFE" mask="url(#mask-4)" points="5.34577143 20.512 44.9954857 20.276 44.9154857 23.6548571 6.3572 23.8708571"></polyline>
                <g id="Group-12" mask="url(#mask-4)">
                    <g transform="translate(9.142857, 0.060571)">
                        <path d="M32.3722857,16.5914857 C32.3722857,25.4726286 25.1722857,32.6726286 16.2911429,32.6726286 C7.41,32.6726286 0.21,25.4726286 0.21,16.5914857 C0.21,7.71034286 7.41,0.510342857 16.2911429,0.510342857 C25.1722857,0.510342857 32.3722857,7.71034286 32.3722857,16.5914857" id="Fill-10" stroke="none" fill="#FEFEFE" fill-rule="evenodd"></path>
                        <path d="M32.3722857,16.5914857 C32.3722857,25.4726286 25.1722857,32.6726286 16.2911429,32.6726286 C7.41,32.6726286 0.21,25.4726286 0.21,16.5914857 C0.21,7.71034286 7.41,0.510342857 16.2911429,0.510342857 C25.1722857,0.510342857 32.3722857,7.71034286 32.3722857,16.5914857" id="Stroke-11" stroke="#231F20" stroke-width="1.14285714" fill="none"></path>
                    </g>
                </g>
                <path d="M19.7947429,23.8909143 L20.4867429,22.4800571 L21.1787429,23.8909143 L19.7947429,23.8909143 Z M31.4730286,22.5680571 L33.7667429,19.8577714 L31.8073143,19.8577714 L29.7198857,22.3400571 L29.7198857,19.8577714 L28.0518857,19.8577714 L28.0518857,23.8572 C28.0147429,23.5486286 27.9067429,23.2812 27.7267429,23.0549143 C27.5004571,22.7697714 27.1273143,22.5332 26.6067429,22.3452 C26.4438857,22.2852 26.2747429,22.2292 26.1004571,22.1766286 C25.9261714,22.1234857 25.7873143,22.0840571 25.6850286,22.0566286 C25.5816,22.0297714 25.4810286,21.9994857 25.3821714,21.9669143 C25.2833143,21.9343429 25.2096,21.9023429 25.1604571,21.8709143 C25.1113143,21.8394857 25.0718857,21.7989143 25.0421714,21.7492 C25.0124571,21.6994857 24.9976,21.6389143 24.9976,21.5674857 C24.9976,21.4560571 25.0541714,21.3657714 25.1667429,21.2960571 C25.2793143,21.2263429 25.4416,21.1914857 25.6530286,21.1914857 C26.1153143,21.1914857 26.7010286,21.2840571 26.9650286,21.5646286 L27.2033143,20.2269143 C26.7456,19.8732 25.9507429,19.7812 25.5936,19.8000571 C25.3107429,19.8154857 25.0398857,19.8383429 24.7833143,19.9154857 C24.5261714,19.9926286 24.2976,20.1029143 24.0970286,20.2486286 C23.8958857,20.3937714 23.7358857,20.5823429 23.6170286,20.8137714 C23.4976,21.0457714 23.4376,21.3057714 23.4376,21.5932 C23.4376,22.0349143 23.5576,22.3966286 23.7976,22.6789143 C24.0381714,22.9606286 24.3810286,23.1857714 24.8273143,23.3543429 C24.9707429,23.4109143 25.1358857,23.4674857 25.3221714,23.5223429 C25.5090286,23.5783429 25.6621714,23.6229143 25.7821714,23.6572 C25.9016,23.6914857 26.0187429,23.7320571 26.1324571,23.7794857 C26.2473143,23.8263429 26.3313143,23.8800571 26.3867429,23.9417714 C26.4416,24.0023429 26.4690286,24.0743429 26.4690286,24.1577714 C26.4690286,24.4509143 26.1993143,24.5972 25.6616,24.5972 C25.3467429,24.5972 25.0576,24.5269143 24.7953143,24.3857714 C24.5324571,24.2452 24.3210286,24.0634857 24.1610286,23.8412 L23.1633143,24.6160571 L20.4867429,19.4572 L17.1044571,25.9760571 L18.8398857,25.9760571 L19.2341714,25.1789143 L21.7398857,25.1789143 L22.1341714,25.9760571 L23.8690286,25.9760571 L23.5204571,25.3040571 C23.5707429,25.3446286 23.6244571,25.3857714 23.6827429,25.4269143 C23.8416,25.5406286 24.0136,25.6366286 24.1987429,25.7160571 C24.3844571,25.7960571 24.6038857,25.8612 24.8564571,25.9126286 C25.1090286,25.9634857 25.3776,25.9886286 25.6616,25.9886286 C26.4633143,25.9886286 27.0644571,25.8177714 27.4650286,25.4760571 C27.8050286,25.1874857 27.9998857,24.8149143 28.0518857,24.3606286 L28.0518857,25.9754857 L29.7198857,25.9754857 L29.7198857,24.4029143 L30.3238857,23.7040571 L31.8804571,25.9754857 L33.8438857,25.9754857 L31.4730286,22.5680571 Z" id="Fill-13" fill="#010202" mask="url(#mask-4)"></path>
                <polygon id="Fill-14" fill="#231F20" mask="url(#mask-4)" points="17.8385143 12.7888 17.8385143 11.1905143 20.6956571 11.1905143 20.6956571 18.2533714 18.8973714 18.2533714 18.8973714 12.7888"></polygon>
                <path d="M25.6206286,14.6470286 C25.6206286,14.0150286 25.5457714,13.5304571 25.3960571,13.1933143 C25.2457714,12.8578857 24.9514857,12.6893143 24.5120571,12.6893143 C24.0652,12.6893143 23.7657714,12.8584571 23.6126286,13.1984571 C23.4594857,13.5384571 23.3829143,14.0207429 23.3829143,14.6470286 C23.3829143,15.2796 23.4594857,15.7676 23.6126286,16.1110286 C23.7657714,16.4533143 24.0652,16.6253143 24.5120571,16.6253143 C24.9514857,16.6253143 25.2457714,16.4533143 25.3960571,16.1110286 C25.5457714,15.7676 25.6206286,15.2796 25.6206286,14.6470286 M21.7046286,14.6470286 C21.7046286,13.5481714 21.9280571,12.6773143 22.3737714,12.0350286 C22.8200571,11.3921714 23.5332,11.0710286 24.5120571,11.0710286 C25.4840571,11.0710286 26.1949143,11.3921714 26.6446286,12.0350286 C27.0943429,12.6773143 27.3189143,13.5481714 27.3189143,14.6470286 C27.3189143,15.7533143 27.0943429,16.6287429 26.6446286,17.2750286 C26.1949143,17.9207429 25.4840571,18.2436 24.5120571,18.2436 C23.5332,18.2436 22.8200571,17.9207429 22.3737714,17.2750286 C21.9280571,16.6287429 21.7046286,15.7533143 21.7046286,14.6470286" id="Fill-15" fill="#231F20" mask="url(#mask-4)"></path>
                <path d="M32.0542286,14.6470286 C32.0542286,14.0150286 31.9793714,13.5304571 31.8290857,13.1933143 C31.6793714,12.8578857 31.3845143,12.6893143 30.9450857,12.6893143 C30.4988,12.6893143 30.1993714,12.8584571 30.0462286,13.1984571 C29.8930857,13.5384571 29.8165143,14.0207429 29.8165143,14.6470286 C29.8165143,15.2796 29.8930857,15.7676 30.0462286,16.1110286 C30.1993714,16.4533143 30.4988,16.6253143 30.9450857,16.6253143 C31.3845143,16.6253143 31.6793714,16.4533143 31.8290857,16.1110286 C31.9793714,15.7676 32.0542286,15.2796 32.0542286,14.6470286 M28.1376571,14.6470286 C28.1376571,13.5481714 28.3610857,12.6773143 28.8073714,12.0350286 C29.2536571,11.3921714 29.9662286,11.0710286 30.9450857,11.0710286 C31.9176571,11.0710286 32.6285143,11.3921714 33.0782286,12.0350286 C33.5279429,12.6773143 33.7525143,13.5481714 33.7525143,14.6470286 C33.7525143,15.7533143 33.5279429,16.6287429 33.0782286,17.2750286 C32.6285143,17.9207429 31.9176571,18.2436 30.9450857,18.2436 C29.9662286,18.2436 29.2536571,17.9207429 28.8073714,17.2750286 C28.3610857,16.6287429 28.1376571,15.7533143 28.1376571,14.6470286" id="Fill-16" fill="#231F20" mask="url(#mask-4)"></path>
                <polygon id="Fill-17" fill="#231F20" mask="url(#mask-4)" points="11.2348571 29.7685714 41.8051429 29.7685714 41.8051429 28.3742857 11.2348571 28.3742857"></polygon>
                <polygon id="Fill-18" fill="#FEFEFE" mask="url(#mask-4)" points="11.8514286 35.0228571 42.4217143 35.0228571 42.4217143 29.7691429 11.8514286 29.7691429"></polygon>
                <polygon id="Fill-19" fill="#020303" mask="url(#mask-4)" points="28.7392 6.08788571 28.7392 8.13931429 25.5460571 9.97931429 22.3454857 8.13931429 22.3454857 7.31417143 25.5460571 9.1616 26.2512 8.75245714 24.1220571 7.51874286 24.8340571 7.11017143 26.9626286 8.34331429 27.6746286 7.93474286 25.5460571 6.70102857 26.2512 6.29188571 28.0272 7.31417143 28.0272 6.49702857 26.9626286 5.88388571 27.6746286 5.47474286"></polygon>
                <polygon id="Fill-20" fill="#020303" mask="url(#mask-4)" points="26.2509143 3.01422857 22.3457714 5.27022857 22.3457714 4.44565714 25.5457714 2.60565714"></polygon>
                <polygon id="Fill-21" fill="#020303" mask="url(#mask-4)" points="21.6406857 4.03657143 21.6406857 8.54857143 20.9286857 8.13942857 20.9286857 4.44571429"></polygon>
                <polygon id="Fill-22" fill="#020303" mask="url(#mask-4)" points="30.1560571 4.4456 30.1560571 8.13931429 29.4514857 8.54845714 29.4514857 5.67874286 26.9629143 4.24102857 24.8343429 5.47474286 24.1217714 5.0656 26.9629143 3.42331429 29.4514857 4.85417143 29.4514857 4.03645714"></polygon>
            </g>
        </g>
    </g>
</svg>