<?xml version="1.0" encoding="UTF-8"?>
<svg width="65px" height="59px" viewBox="0 0 65 59" version="1.1" xmlns="http://www.w3.org/2000/svg" xmlns:xlink="http://www.w3.org/1999/xlink">
    <defs>
        <polygon points="0 59 64.984 59 64.984 0.717 0 0.717"></polygon>
    </defs>
    <g stroke="none" stroke-width="1" fill="none" fill-rule="evenodd">
        <g transform="translate(-158.000000, -251.000000)">
            <g transform="translate(158.000000, 250.000000)">
                <polygon fill="#020303" points="41.4486 13.5483 41.4486 17.5883 35.1596 21.2123 28.8566 17.5883 28.8566 15.9643 35.1596 19.6023 36.5476 18.7963 32.3546 16.3663 33.7576 15.5623 37.9496 17.9903 39.3516 17.1863 35.1596 14.7563 36.5476 13.9503 40.0466 15.9643 40.0466 14.3543 37.9496 13.1463 39.3516 12.3403"></polygon>
                <polygon fill="#020303" points="36.5477 7.4955 28.8567 11.9375 28.8567 10.3135 35.1597 6.6895"></polygon>
                <polygon fill="#020303" points="27.4681 9.5082 27.4681 18.3942 26.0661 17.5882 26.0661 10.3142"></polygon>
                <polygon fill="#020303" points="44.2391 10.3139 44.2391 17.5879 42.8511 18.3939 42.8511 12.7439 37.9501 9.9109 33.7571 12.3399 32.3551 11.5359 37.9501 8.2999 42.8511 11.1189 42.8511 9.5079"></polygon>
                <g transform="translate(0.000000, 0.283300)">
                    <path d="M25.974,45.6205 L27.185,43.1515 L28.396,45.6205 L25.974,45.6205 Z M46.411,43.3055 L50.425,38.5625 L46.996,38.5625 L43.343,42.9075 L43.343,38.5625 L40.424,38.5625 L40.424,45.5615 C40.359,45.0215 40.17,44.5535 39.855,44.1575 C39.459,43.6585 38.806,43.2445 37.895,42.9155 C37.609,42.8105 37.314,42.7125 37.009,42.6205 C36.704,42.5275 36.461,42.4585 36.281,42.4105 C36.101,42.3635 35.925,42.3105 35.752,42.2545 C35.579,42.1965 35.45,42.1415 35.364,42.0855 C35.278,42.0305 35.208,41.9595 35.157,41.8725 C35.105,41.7855 35.079,41.6795 35.079,41.5545 C35.079,41.3595 35.178,41.2015 35.375,41.0795 C35.572,40.9575 35.856,40.8965 36.226,40.8965 C37.034,40.8965 38.06,41.0585 38.522,41.5495 L38.938,39.2085 C38.138,38.5895 36.747,38.4285 36.122,38.4615 C35.627,38.4885 35.153,38.5295 34.703,38.6635 C34.254,38.7985 33.854,38.9925 33.503,39.2465 C33.151,39.5005 32.871,39.8305 32.662,40.2355 C32.454,40.6415 32.349,41.0965 32.349,41.5995 C32.349,42.3725 32.559,43.0055 32.979,43.4995 C33.4,43.9925 34,44.3875 34.781,44.6815 C35.032,44.7805 35.32,44.8795 35.647,44.9755 C35.974,45.0735 36.242,45.1515 36.452,45.2125 C36.661,45.2715 36.866,45.3425 37.065,45.4255 C37.266,45.5075 37.413,45.6015 37.509,45.7095 C37.605,45.8165 37.654,45.9415 37.654,46.0875 C37.654,46.6005 37.182,46.8565 36.241,46.8565 C35.69,46.8565 35.184,46.7335 34.725,46.4865 C34.265,46.2405 33.895,45.9225 33.615,45.5335 L31.869,46.8895 L27.185,37.8615 L21.266,49.2695 L24.303,49.2695 L24.993,47.8745 L29.378,47.8745 L30.068,49.2695 L33.104,49.2695 L32.494,48.0935 C32.582,48.1655 32.676,48.2365 32.777,48.3085 C33.056,48.5075 33.357,48.6755 33.681,48.8145 C34.006,48.9545 34.389,49.0695 34.832,49.1585 C35.274,49.2475 35.744,49.2915 36.241,49.2915 C37.643,49.2915 38.696,48.9925 39.397,48.3945 C39.992,47.8895 40.333,47.2375 40.424,46.4425 L40.424,49.2685 L43.343,49.2685 L43.343,46.5165 L44.4,45.2935 L47.123,49.2685 L50.56,49.2685 L46.411,43.3055 Z" fill="#010202"></path>
                    <polygon id="Fill-7" fill="#231F20" points="21.5506 26.1917 21.5506 23.3947 26.5506 23.3947 26.5506 35.7547 23.4036 35.7547 23.4036 26.1917"></polygon>
                    <path d="M35.1693,29.4437 C35.1693,28.3377 35.0383,27.4897 34.7753,26.9007 C34.5133,26.3127 33.9983,26.0177 33.2293,26.0177 C32.4473,26.0177 31.9233,26.3137 31.6553,26.9087 C31.3873,27.5037 31.2533,28.3487 31.2533,29.4437 C31.2533,30.5507 31.3873,31.4047 31.6553,32.0057 C31.9233,32.6047 32.4473,32.9057 33.2293,32.9057 C33.9983,32.9057 34.5133,32.6047 34.7753,32.0057 C35.0383,31.4047 35.1693,30.5507 35.1693,29.4437 M28.3163,29.4437 C28.3163,27.5207 28.7063,25.9967 29.4873,24.8737 C30.2683,23.7477 31.5163,23.1857 33.2293,23.1857 C34.9303,23.1857 36.1743,23.7477 36.9613,24.8737 C37.7483,25.9967 38.1413,27.5207 38.1413,29.4437 C38.1413,31.3797 37.7483,32.9117 36.9613,34.0427 C36.1743,35.1727 34.9303,35.7377 33.2293,35.7377 C31.5163,35.7377 30.2683,35.1727 29.4873,34.0427 C28.7063,32.9117 28.3163,31.3797 28.3163,29.4437" fill="#231F20"></path>
                    <path d="M46.4276,29.4437 C46.4276,28.3377 46.2966,27.4897 46.0346,26.9007 C45.7716,26.3127 45.2566,26.0177 44.4876,26.0177 C43.7066,26.0177 43.1816,26.3137 42.9136,26.9087 C42.6456,27.5037 42.5116,28.3487 42.5116,29.4437 C42.5116,30.5507 42.6456,31.4047 42.9136,32.0057 C43.1816,32.6047 43.7066,32.9057 44.4876,32.9057 C45.2566,32.9057 45.7716,32.6047 46.0346,32.0057 C46.2966,31.4047 46.4276,30.5507 46.4276,29.4437 M39.5746,29.4437 C39.5746,27.5207 39.9656,25.9967 40.7466,24.8737 C41.5266,23.7477 42.7746,23.1857 44.4876,23.1857 C46.1886,23.1857 47.4326,23.7477 48.2196,24.8737 C49.0066,25.9967 49.3996,27.5207 49.3996,29.4437 C49.3996,31.3797 49.0066,32.9117 48.2196,34.0427 C47.4326,35.1727 46.1886,35.7377 44.4876,35.7377 C42.7746,35.7377 41.5266,35.1727 40.7466,34.0427 C39.9656,32.9117 39.5746,31.3797 39.5746,29.4437" fill="#231F20"></path>
                    <path d="M63.9842,29.8587 C63.9842,45.4007 51.3852,58.0007 35.8422,58.0007 C20.3002,58.0007 7.7012,45.4007 7.7012,29.8587 C7.7012,14.3157 20.3002,1.7167 35.8422,1.7167 C51.3852,1.7167 63.9842,14.3157 63.9842,29.8587 Z" id="Stroke-13" stroke="#231F20" stroke-width="2"></path>
                    <mask fill="white">
                        <use xlink:href="#path-1"></use>
                    </mask>
                    <g></g>
                    <polygon fill="#FEFEFE" mask="url(#mask-2)" points="0 38.998 15.956 38.998 15.956 19.11 0 19.11"></polygon>
                    <polygon fill="#231F20" mask="url(#mask-2)" points="14.5477 31.5091 10.2007 31.5091 10.2007 35.9321 6.0547 35.9321 6.0547 31.5091 1.7077 31.5091 1.7077 27.5651 6.0547 27.5651 6.0547 23.1171 10.2007 23.1171 10.2007 27.5651 14.5477 27.5651"></polygon>
                </g>
            </g>
        </g>
    </g>
</svg>