<?xml version="1.0" encoding="UTF-8"?>
<svg width="65px" height="53px" viewBox="0 0 65 53" version="1.1" xmlns="http://www.w3.org/2000/svg" xmlns:xlink="http://www.w3.org/1999/xlink">
    <!-- Generator: sketchtool 64 (101010) - https://sketch.com -->
    <title>597CDC0C-032D-4F08-B854-0BA8789500C4</title>
    <desc>Created with sketchtool.</desc>
    <g id="Design-System" stroke="none" stroke-width="1" fill="none" fill-rule="evenodd">
        <g id="Icons" transform="translate(-44.000000, -251.000000)" fill="#020303">
            <g id="Group-5" transform="translate(44.000000, 251.000000)">
                <polygon id="Fill-1" points="43.7470982 22.9507024 51.2383927 27.3753469 51.2383927 33.2739334 38.73824 25.9014048 33.7733673 28.8492889 48.7559564 37.7493063 43.7470982 40.6971904 28.7645091 31.7971731 23.7529018 34.7506937 38.73824 43.6507111 33.7733673 46.6014135 11.25 33.2739334 11.25 39.2232484 33.7733673 52.5 56.25 39.2232484 56.25 24.4246445 48.7559564 20"></polygon>
                <polygon id="Fill-2" points="8.75 13.8102917 8.75 20 37.5 3.06699897 32.3095869 0"></polygon>
                <polygon id="Fill-3" points="0 14.1961039 0 40.8038961 5 43.75 5 11.25"></polygon>
                <polygon id="Fill-4" points="22.5 17.8682355 27.512623 20.7638148 42.5092245 12.0356326 60.0341468 22.2060785 60.0341468 42.5 65 39.6099466 65 13.4806593 60.0341468 10.5906059 60.0341468 16.3734756 42.5092245 6.25"></polygon>
            </g>
        </g>
    </g>
</svg>