<?xml version="1.0" encoding="UTF-8"?>
<svg width="169px" height="214px" viewBox="0 0 169 214" version="1.1" xmlns="http://www.w3.org/2000/svg" xmlns:xlink="http://www.w3.org/1999/xlink">
    <!-- Generator: sketchtool 63 (101010) - https://sketch.com -->
    <title>90427429-B527-4DDB-AA54-F40C2994381D</title>
    <desc>Created with sketchtool.</desc>
    <g id="Design-System" stroke="none" stroke-width="1" fill="none" fill-rule="evenodd">
        <g id="Illustrations" transform="translate(-302.000000, -257.000000)">
            <g id="student-colour" transform="translate(302.000000, 257.000000)">
                <path d="M149.116753,34.4796742 C161.645461,49.9760225 169.749034,66.9753371 167.844,82.1174831 C165.984438,97.2141573 154.125843,110.496742 141.589955,128.912865 C129.061247,147.374461 115.781056,171.017461 96.6541348,176.904876 C77.4841348,182.792292 52.4697978,170.971989 32.7684944,152.510393 C13.067191,134.048798 -1.32107865,109.034461 0.0957303371,85.3938539 C1.51253933,61.7532472 18.6913483,39.5270562 38.3878652,24.0331011 C58.084382,8.53914607 80.3177528,-0.239325843 99.9305056,2.39325843 C119.543258,5.0258427 136.542573,18.9857191 149.116753,34.4796742 Z" id="Path" fill="#F2F2F2" fill-rule="nonzero"></path>
                <path d="M80.1286854,103.977506 C93.0522809,103.977506 99.9927303,112.612382 101.282697,121.381281 C102.594202,130.351213 101.098416,137.777494 101.471764,148.621348 C101.725449,155.92318 104.939596,160.80064 107.000191,167.310303 C109.060787,173.819966 54.0661011,175.461742 54.3939775,169.373292 C54.7218539,163.284843 58.6563708,157.048011 58.797573,149.463775 C58.9411685,141.731157 57.8402697,137.090629 57.9910449,124.511663 C58.1035281,114.582034 67.2003034,103.977506 80.1286854,103.977506 Z" id="Path" fill="#000000" fill-rule="nonzero"></path>
                <path d="M27.0653596,212.830079 C26.5699551,206.717697 29.2958764,184.919899 37.7225393,168.643348 C69.1962809,151.213247 108.685045,159.515461 124.298663,168.643348 C129.585371,174.01382 133.407404,209.692517 132.251461,212.253303" id="Path" fill="#FFD98E"></path>
                <path d="M45.2325843,212.253303 C45.7279888,208.287674 46.5129775,201.897674 47.7933708,195.979146" id="Path" stroke="#FF8364" stroke-width="1.37133708" stroke-linecap="round" stroke-linejoin="round"></path>
                <path d="M115.036753,212.253303 C114.541348,208.287674 113.75636,201.897674 112.475966,195.979146" id="Path" stroke="#FF8364" stroke-width="1.37133708" stroke-linecap="round" stroke-linejoin="round"></path>
                <path d="M60.1521565,132.28018 C60.15084,130.347069 61.7163997,128.778659 63.6495094,128.776457 C65.5826191,128.774259 67.1517441,130.339103 67.1548307,132.272212 C67.1579083,134.20532 65.593781,135.775159 63.6606742,135.779131 C62.731233,135.78103 61.8391717,135.41331 61.181059,134.756993 C60.5229462,134.100676 60.1527906,133.209623 60.1521565,132.28018 L60.1521565,132.28018 Z" id="Path" fill="#D18C65"></path>
                <path d="M92.2601115,132.28018 C92.2591442,130.863804 93.1116035,129.586355 94.4198866,129.04366 C95.7281697,128.500966 97.2345496,128.799934 98.2364212,129.801121 C99.2382929,130.802308 99.5382914,132.308483 98.9964914,133.617137 C98.4546915,134.925791 97.1778258,135.779124 95.7614494,135.779124 C93.8286486,135.779124 92.2614335,134.21298 92.2601115,132.28018 Z" id="Path" fill="#D18C65"></path>
                <path d="M94.071809,72.0059663 C90.5393596,69.2513258 89.6682135,72.3290562 89.1153708,74.1598989 C88.5625281,75.9907416 88.6032135,79.2192472 91.3722135,79.1498427 C93.7989775,81.3253146 96.0582135,78.5084494 96.7522584,77.0772809 C97.4463034,75.6461124 99.1503034,72.5420562 94.071809,72.0059663 Z" id="Path" fill="#FF8364"></path>
                <path d="M96.4076292,70.0434944 C95.1894607,70.4718876 94.5049888,71.0558427 94.1172809,72.0705843" id="Path" stroke="#FFD98E" stroke-width="0.677292135" stroke-linecap="round" stroke-linejoin="round"></path>
                <path d="M71.0366959,88.3543146 C71.0353816,86.0897542 72.8694024,84.2525288 75.1339616,84.2498875 C77.3985208,84.2472519 79.2368177,86.0801987 79.240786,88.344756 C79.2447414,90.6093133 77.4128692,92.4486811 75.1483146,92.4539775 C74.0591415,92.4565083 73.0136725,92.0257808 72.2423872,91.2567403 C71.4711019,90.4876997 71.0373291,89.4434905 71.0366959,88.3543146 L71.0366959,88.3543146 Z" id="Path" fill="#6BD5E1"></path>
                <polygon id="Path" fill="#DFDFDF" points="42.6311124 90.163618 53.9919101 87.2797416 58.5941461 105.415854 47.2357416 108.287764"></polygon>
                <polygon id="Path" fill="#FF8364" points="45.0243708 92.1619888 52.8407528 90.1779775 53.4438539 92.5544831 45.6274719 94.5337079"></polygon>
                <line x1="46.2832247" y1="97.118427" x2="54.0996067" y2="95.1344157" id="Path" stroke="#6BD5E1" stroke-width="0.744303371" stroke-linecap="round" stroke-linejoin="round"></line>
                <line x1="46.9389775" y1="99.6983596" x2="54.7577528" y2="97.7143483" id="Path" stroke="#6BD5E1" stroke-width="0.744303371" stroke-linecap="round" stroke-linejoin="round"></line>
                <line x1="47.6258427" y1="102.390775" x2="55.4494045" y2="100.404371" id="Path" stroke="#6BD5E1" stroke-width="0.744303371" stroke-linecap="round" stroke-linejoin="round"></line>
                <line x1="48.2815955" y1="104.992247" x2="51.3497528" y2="104.212045" id="Path" stroke="#6BD5E1" stroke-width="0.744303371" stroke-linecap="round" stroke-linejoin="round"></line>
                <line x1="54.8750225" y1="103.316966" x2="56.1051573" y2="103.005843" id="Path" stroke="#6BD5E1" stroke-width="0.744303371" stroke-linecap="round" stroke-linejoin="round"></line>
                <polygon id="Path" fill="#DFDFDF" points="35.0995281 48.9852135 64.4983146 34.9870449 73.6860337 54.2791011 44.2872472 68.2796629"></polygon>
                <polyline id="Path" stroke="#FF8364" stroke-width="0.744303371" stroke-linecap="round" stroke-linejoin="round" points="45.2660899 64.0124831 48.1906517 55.4517978 53.6401011 56.4808989 55.7796742 45.924236 61.0448427 46.8001685 62.5765281 39.3523483"></polyline>
                <path d="M47.1591573,56.0022472 C46.8010982,55.2467819 47.1227079,54.3440679 47.8777786,53.9851772 C48.6328492,53.6262865 49.5359167,53.9469022 49.8956385,54.7015772 C50.2553604,55.4562522 49.9357392,56.3596722 49.1814607,56.7202247 C48.8181789,56.893877 48.4007113,56.9157624 48.0212636,56.7810473 C47.6418158,56.6463321 47.3316087,56.3661006 47.1591573,56.0022472 L47.1591573,56.0022472 Z" id="Path" fill="#FFD98E"></path>
                <path d="M54.4825281,46.8169213 C54.1224389,46.0602666 54.4438952,45.1549658 55.2005331,44.7948411 C55.957171,44.4347164 56.8624869,44.7561304 57.222647,45.5127514 C57.5828071,46.2693724 57.2614356,47.1747033 56.5048315,47.5348989 C56.1415497,47.7085511 55.7240821,47.7304366 55.3446343,47.5957214 C54.9651866,47.4610063 54.6549795,47.1807747 54.4825281,46.8169213 L54.4825281,46.8169213 Z" id="Path" fill="#FFD98E"></path>
                <path d="M110.171258,63.0862921 C110.171258,60.9848993 111.437624,59.0906051 113.37943,58.2873341 C115.321235,57.4840631 117.555745,57.9301433 119.040283,59.4174225 C120.524821,60.9047017 120.966777,63.1400315 120.159925,65.0803513 C119.353073,67.0206711 117.456445,68.2835365 115.355056,68.2796718 C112.490028,68.2757005 110.169935,65.9513226 110.171258,63.0862921 L110.171258,63.0862921 Z" id="Path" fill="#FFD98E"></path>
                <path d="M124.131135,62.1792472 C124.636748,63.9794335 124.271688,65.9124843 123.144379,67.4042911 C122.017069,68.8960979 120.257151,69.7750995 118.387315,69.7802407 C117.996076,69.7807252 117.605722,69.7430525 117.221798,69.6677528" id="Path" stroke="#FF8364" stroke-width="0.744303371" stroke-linecap="round" stroke-linejoin="round"></path>
                <polyline id="Path" fill="#FFD98E" points="112.215101 67.030382 110.22391 70.6011236 118.444753 71.9222022 117.544888 67.7627191"></polyline>
                <path d="M114.139281,63.0862921 C114.139281,62.4095509 114.687888,61.8609438 115.364629,61.8609438 C116.04137,61.8609438 116.589978,62.4095509 116.589978,63.0862921 C116.589978,63.7630333 116.04137,64.3116404 115.364629,64.3116404 C114.687888,64.3116404 114.139281,63.7630333 114.139281,63.0862921 Z" id="Path" fill="#1B3C87"></path>
                <path d="M122.575517,61.8609438 C122.575517,61.1842026 123.124124,60.6355955 123.800865,60.6355955 C124.477606,60.6355955 125.026213,61.1842026 125.026213,61.8609438 C125.026213,62.537685 124.477606,63.0862921 123.800865,63.0862921 C123.12467,63.0849753 122.576834,62.5371388 122.575517,61.8609438 Z" id="Path" fill="#FFD98E"></path>
                <polygon id="Path" fill="#FF8364" points="24.1503708 24.0450674 31.8303371 26.1200225 24.2676404 54.1211461 16.5876742 52.0533708"></polygon>
                <line x1="19.0287978" y1="43.0140337" x2="23.2576854" y2="44.1580112" id="Path" stroke="#FFD98E" stroke-width="1.01234831" stroke-linecap="round" stroke-linejoin="round"></line>
                <line x1="17.6861798" y1="47.9824382" x2="21.9174607" y2="49.1240225" id="Path" stroke="#FFD98E" stroke-width="1.01234831" stroke-linecap="round" stroke-linejoin="round"></line>
                <line x1="20.3690225" y1="38.052809" x2="24.6003034" y2="39.1967865" id="Path" stroke="#FFD98E" stroke-width="1.01234831" stroke-linecap="round" stroke-linejoin="round"></line>
                <line x1="21.7116404" y1="33.0820112" x2="25.9405281" y2="34.2235955" id="Path" stroke="#FFD98E" stroke-width="1.01234831" stroke-linecap="round" stroke-linejoin="round"></line>
                <line x1="23.0518652" y1="28.116" x2="27.2831461" y2="29.2575843" id="Path" stroke="#FFD98E" stroke-width="1.01234831" stroke-linecap="round" stroke-linejoin="round"></line>
                <polygon id="Path" fill="#DFDFDF" points="103.252348 18.2390225 132.251461 25.2393034 127.464944 45.0124045 98.4777978 38.0097303"></polygon>
                <path d="M120.596292,39.6754382 C120.892964,38.4465455 121.900696,37.5173719 123.149578,37.3211956 C124.39846,37.1250194 125.642542,37.7004748 126.301701,38.7792241 C126.960861,39.8579734 126.905286,41.2275716 126.160892,42.2493683 C125.416497,43.2711649 124.129882,43.7439311 122.901,43.4472135 C121.223046,43.0420659 120.191207,41.3534073 120.596292,39.6754382 L120.596292,39.6754382 Z" id="Path" fill="#FF8364"></path>
                <polyline id="Path" fill="#FF8364" points="121.52009 42.248191 119.435562 47.6832809 122.345764 47.0251348 124.214899 48.7602472 124.59064 42.8393258"></polyline>
                <line x1="104.965921" y1="23.3677753" x2="127.859831" y2="28.8962022" id="Path" stroke="#6BD5E1" stroke-width="0.744303371" stroke-linecap="round" stroke-linejoin="round"></line>
                <line x1="103.640056" y1="28.7932921" x2="117.46591" y2="32.1318876" id="Path" stroke="#6BD5E1" stroke-width="0.744303371" stroke-linecap="round" stroke-linejoin="round"></line>
                <polygon id="Path" fill="#6BD5E1" points="57.232382 20.9362247 54.1211461 17.5641236 58.5965393 16.5517753 63.0743258 15.539427 61.7125618 19.9238764 60.3507978 24.3059326"></polygon>
                <polygon id="Path" fill="#FFD98E" points="119.047854 91.6330787 114.785461 93.3370787 115.43882 88.7898876 116.09218 84.2426966 119.69882 87.0787079 123.307854 89.9171124"></polygon>
                <path d="M84.060809,36.8561798 C84.060809,35.6269429 85.0573024,34.6304494 86.2865393,34.6304494 C87.5157762,34.6304494 88.5122697,35.6269429 88.5122697,36.8561798 C88.5122697,38.0854167 87.5157762,39.0819101 86.2865393,39.0819101 C85.0573024,39.0819101 84.060809,38.0854167 84.060809,36.8561798 Z" id="Path" stroke="#FF8364" stroke-width="0.744303371" stroke-linecap="round" stroke-linejoin="round"></path>
                <path d="M21.874382,74.1431461 C21.874382,73.2429222 22.4166638,72.4313401 23.2483622,72.0868394 C24.0800607,71.7423386 25.037387,71.9327626 25.6739414,72.5693171 C26.3104958,73.2058715 26.5009198,74.1631978 26.1564191,74.9948962 C25.8119183,75.8265946 25.0003362,76.3688764 24.1001124,76.3688764 C22.8708754,76.3688764 21.874382,75.372383 21.874382,74.1431461 Z" id="Path" fill="#FFD98E"></path>
                <path d="M72.2309326,145.450281 L87.1146067,145.450281 C87.1146067,145.450281 87.1840112,160.826966 87.1146067,166.877124 C87.1146067,169.373292 72.2357191,169.088494 72.2357191,166.877124 L72.2309326,145.450281 Z" id="Path" fill="#D18C65"></path>
                <path d="M64.6179775,130.748494 C64.6179775,119.327865 71.558427,110.068348 80.1334719,110.068348 C88.7085169,110.068348 95.6513596,119.327865 95.6513596,130.748494 C95.6513596,142.169124 88.7109101,151.431034 80.1334719,151.431034 C71.5560337,151.431034 64.6179775,142.171517 64.6179775,130.748494 Z" id="Path" fill="#E49D75"></path>
                <path d="M88.5122697,108.586921 C84.570573,117.745921 68.2389775,126.687135 61.3607528,128.778843 C60.2742135,123.310247 67.3127865,100.016663 88.5122697,108.586921 Z" id="Path" fill="#000000" fill-rule="nonzero"></path>
                <path d="M79.7840562,108.304517 C76.7996629,109.441315 86.5019326,124.959202 98.128382,128.778843 C102.874213,122.022674 91.932236,107.981427 79.7840562,108.304517 Z" id="Path" fill="#000000" fill-rule="nonzero"></path>
                <path d="M101.969561,4.33897753 C101.968594,2.67942004 102.96767,1.18277993 104.500716,0.54724756 C106.033762,-0.088284813 107.798705,0.262516618 108.97219,1.43600117 C110.145674,2.60948572 110.496476,4.37442858 109.860943,5.90747476 C109.225411,7.44052094 107.728771,8.43959717 106.069213,8.43862992 C103.805038,8.43862992 101.969561,6.60315263 101.969561,4.33897753 L101.969561,4.33897753 Z" id="Path" fill="#FFD98E"></path>
                <path d="M31.2607416,112.138517 C31.2607416,110.023701 32.9751388,108.309303 35.0899551,108.309303 C37.2047713,108.309303 38.9191685,110.023701 38.9191685,112.138517 C38.9191685,114.253333 37.2047713,115.96773 35.0899551,115.96773 C32.9751388,115.96773 31.2607416,114.253333 31.2607416,112.138517 Z" id="Path" stroke="#6BD5E1" stroke-width="0.744303371" stroke-linecap="round" stroke-linejoin="round"></path>
                <path d="M116.104145,110.525461 C116.103178,109.624052 116.645428,108.810863 117.477944,108.465237 C118.31046,108.119612 119.269208,108.30965 119.906943,108.9467 C120.544678,109.58375 120.735746,110.542293 120.391015,111.37518 C120.046285,112.208066 119.233679,112.751192 118.33227,112.751192 C117.741555,112.751826 117.174816,112.517611 116.756893,112.100136 C116.33897,111.682662 116.104145,111.116176 116.104145,110.525461 Z" id="Path" stroke="#FF8364" stroke-width="0.744303371" stroke-linecap="round" stroke-linejoin="round"></path>
                <path d="M149.116753,34.6591685 C161.645461,50.1531236 169.749034,67.1548315 167.844,82.2850112 C165.984438,97.405618 154.125843,110.673843 141.589955,129.09236 C129.061247,147.553955 115.781056,171.194562 96.6541348,177.081978 C77.4841348,182.971787 52.4697978,171.151483 32.7684944,152.689888 C13.067191,134.228292 -1.32107865,109.213955 0.0957303371,85.5709551 C1.51253933,61.9279551 18.6913483,39.7065506 38.3878652,24.2102022 C58.084382,8.71385393 80.3177528,-0.050258427 99.9305056,2.56078652 C119.543258,5.17183146 136.542573,19.1628202 149.116753,34.6591685 Z" id="Path" fill="#F2F2F2" fill-rule="nonzero"></path>
                <path d="M27.0653596,213 C26.5699551,206.887618 29.2958764,185.08982 37.7225393,168.815663 C69.1962809,151.385562 108.685045,159.685382 124.298663,168.815663 C129.585371,174.186135 133.407404,209.862438 132.251461,212.423225" id="Path" fill="#FFD98E"></path>
                <path d="M45.2325843,212.430404 C45.7279888,208.464775 46.5129775,202.074775 47.7933708,196.156247" id="Path" stroke="#FF8364" stroke-width="1.37133708" stroke-linecap="round" stroke-linejoin="round"></path>
                <path d="M115.036753,212.430404 C114.541348,208.464775 113.75636,202.074775 112.475966,196.156247" id="Path" stroke="#FF8364" stroke-width="1.37133708" stroke-linecap="round" stroke-linejoin="round"></path>
                <path d="M94.071809,72.1854607 C90.5393596,69.428427 89.6682135,72.5085506 89.1153708,74.3393933 C88.5625281,76.170236 88.6032135,79.3987416 91.3722135,79.3293371 C93.7989775,81.5072022 96.0582135,78.6903371 96.7522584,77.2591685 C97.4463034,75.828 99.1503034,72.7215506 94.071809,72.1854607 Z" id="Path" fill="#FF8364"></path>
                <path d="M96.4076292,70.2205955 C95.1894607,70.6489888 94.5049888,71.2329438 94.1172809,72.2476854" id="Path" stroke="#FFD98E" stroke-width="0.677292135" stroke-linecap="round" stroke-linejoin="round"></path>
                <path d="M71.0366959,88.5314157 C71.0353816,86.2668554 72.8694024,84.4296299 75.1339616,84.4269886 C77.3985208,84.424353 79.2368177,86.2572998 79.240786,88.5218571 C79.2447414,90.7864144 77.4128692,92.6257822 75.1483146,92.6310849 C74.0589475,92.6342471 73.0131083,92.2037249 72.2416844,91.4345462 C71.4702606,90.6653674 71.0366959,89.6207874 71.0366959,88.5314157 Z" id="Path" fill="#6BD5E1"></path>
                <polygon id="Path" fill="#DFDFDF" points="42.6311124 90.3407191 53.9919101 87.4568427 58.5941461 105.592955 47.2357416 108.476831"></polygon>
                <polygon id="Path" fill="#FF8364" points="45.0243708 92.3390899 52.8407528 90.3550787 53.4438539 92.7315843 45.6274719 94.7155955"></polygon>
                <line x1="46.2832247" y1="97.2979213" x2="54.0996067" y2="95.3115169" id="Path" stroke="#6BD5E1" stroke-width="0.744303371" stroke-linecap="round" stroke-linejoin="round"></line>
                <line x1="46.9389775" y1="99.8778539" x2="54.7577528" y2="97.8842697" id="Path" stroke="#6BD5E1" stroke-width="0.744303371" stroke-linecap="round" stroke-linejoin="round"></line>
                <line x1="47.6258427" y1="102.567876" x2="55.4494045" y2="100.581472" id="Path" stroke="#6BD5E1" stroke-width="0.744303371" stroke-linecap="round" stroke-linejoin="round"></line>
                <line x1="48.2815955" y1="105.169348" x2="51.3497528" y2="104.391539" id="Path" stroke="#6BD5E1" stroke-width="0.744303371" stroke-linecap="round" stroke-linejoin="round"></line>
                <line x1="54.8750225" y1="103.494067" x2="56.1051573" y2="103.182944" id="Path" stroke="#6BD5E1" stroke-width="0.744303371" stroke-linecap="round" stroke-linejoin="round"></line>
                <polygon id="Path" fill="#DFDFDF" points="35.0995281 49.1647079 64.4983146 35.1641461 73.6860337 54.4585955 44.2872472 68.447191"></polygon>
                <polyline id="Path" stroke="#FF8364" stroke-width="0.744303371" stroke-linecap="round" stroke-linejoin="round" points="45.2660899 64.1895843 48.1906517 55.6312921 53.6401011 56.6460337 55.7796742 46.0893708 61.0448427 46.9653034 62.5765281 39.5198764"></polyline>
                <path d="M47.1591573,56.1913146 C46.7990681,55.4346599 47.1205244,54.529359 47.8771623,54.1692344 C48.6338002,53.8091097 49.5391161,54.1305236 49.8992762,54.8871446 C50.2594363,55.6437656 49.9380648,56.5490966 49.1814607,56.9092921 C48.4246833,57.2681104 47.5202495,56.9470096 47.1591573,56.1913146 L47.1591573,56.1913146 Z" id="Path" fill="#FFD98E"></path>
                <path d="M54.4825281,46.9940225 C54.1224389,46.2373677 54.4438952,45.3320669 55.2005331,44.9719422 C55.957171,44.6118176 56.8624869,44.9332315 57.222647,45.6898525 C57.5828071,46.4464735 57.2614356,47.3518044 56.5048315,47.712 C56.1415497,47.8856523 55.7240821,47.9075377 55.3446343,47.7728225 C54.9651866,47.6381074 54.6549795,47.3578759 54.4825281,46.9940225 L54.4825281,46.9940225 Z" id="Path" fill="#FFD98E"></path>
                <path d="M110.17125,63.2633933 C110.167387,61.1611336 111.43129,59.2639015 113.372786,58.4576121 C115.314283,57.6513227 117.550364,58.0950367 119.036888,59.5815613 C120.523413,61.0680859 120.967127,63.3041669 120.160837,65.2456632 C119.354548,67.1871596 117.457316,68.4510626 115.355056,68.4471999 C112.494309,68.4419226 110.176527,66.1241406 110.17125,63.2633933 Z" id="Path" fill="#FFD98E"></path>
                <path d="M124.131135,62.3587416 C124.281816,62.8880331 124.357542,63.4358373 124.356121,63.9861573 C124.356811,65.7745099 123.555927,67.4690307 122.173679,68.6037535 C120.791431,69.7384763 118.973359,70.1939233 117.219404,69.8448539" id="Path" stroke="#FF8364" stroke-width="0.744303371" stroke-linecap="round" stroke-linejoin="round"></path>
                <polyline id="Path" fill="#FFD98E" points="112.215101 67.2074831 110.22391 70.7710449 118.444753 72.0945169 117.544888 67.9326404"></polyline>
                <path d="M114.139281,63.2633933 C114.139281,62.5866521 114.687888,62.0380449 115.364629,62.0380449 C116.04137,62.0380449 116.589978,62.5866521 116.589978,63.2633933 C116.589978,63.9401344 116.04137,64.4887416 115.364629,64.4887416 C114.687888,64.4887416 114.139281,63.9401344 114.139281,63.2633933 Z" id="Path" fill="#1B3C87"></path>
                <path d="M122.575517,62.0380449 C122.575517,61.3613038 123.124124,60.8126966 123.800865,60.8126966 C124.477606,60.8126966 125.026213,61.3613038 125.026213,62.0380449 C125.026213,62.7147861 124.477606,63.2633933 123.800865,63.2633933 C123.124124,63.2633933 122.575517,62.7147861 122.575517,62.0380449 Z" id="Path" fill="#FFD98E"></path>
                <polygon id="Path" fill="#FF8364" points="24.1503708 24.2221685 31.8303371 26.2995169 24.2676404 54.3006404 16.5804944 52.2256854"></polygon>
                <line x1="19.0287978" y1="43.1935281" x2="23.2576854" y2="44.3351124" id="Path" stroke="#FFD98E" stroke-width="1.01234831" stroke-linecap="round" stroke-linejoin="round"></line>
                <line x1="17.6861798" y1="48.1595393" x2="21.9174607" y2="49.3011236" id="Path" stroke="#FFD98E" stroke-width="1.01234831" stroke-linecap="round" stroke-linejoin="round"></line>
                <line x1="20.3690225" y1="38.2275169" x2="24.6003034" y2="39.3691011" id="Path" stroke="#FFD98E" stroke-width="1.01234831" stroke-linecap="round" stroke-linejoin="round"></line>
                <line x1="21.7116404" y1="33.2662921" x2="25.9405281" y2="34.4078764" id="Path" stroke="#FFD98E" stroke-width="1.01234831" stroke-linecap="round" stroke-linejoin="round"></line>
                <line x1="23.0518652" y1="28.2931011" x2="27.2831461" y2="29.4370787" id="Path" stroke="#FFD98E" stroke-width="1.01234831" stroke-linecap="round" stroke-linejoin="round"></line>
                <polygon id="Path" fill="#DFDFDF" points="103.252348 18.4280899 132.251461 25.4187978 127.464944 45.1895056 98.4777978 38.1868315"></polygon>
                <path d="M120.596292,39.8525393 C120.892964,38.6236466 121.900696,37.694473 123.149578,37.4982968 C124.39846,37.3021205 125.642542,37.8775759 126.301701,38.9563252 C126.960861,40.0350745 126.905286,41.4046728 126.160892,42.4264694 C125.416497,43.448266 124.129882,43.9210322 122.901,43.6243146 C121.223046,43.219167 120.191207,41.5305084 120.596292,39.8525393 L120.596292,39.8525393 Z" id="Path" fill="#FF8364"></path>
                <polyline id="Path" fill="#FF8364" points="121.52009 42.4276854 119.435562 47.8651685 122.345764 47.2046292 124.214899 48.9397416 124.59064 43.016427"></polyline>
                <line x1="104.965921" y1="23.5472697" x2="127.859831" y2="29.0756966" id="Path" stroke="#6BD5E1" stroke-width="0.744303371" stroke-linecap="round" stroke-linejoin="round"></line>
                <line x1="103.640056" y1="28.9727865" x2="117.46591" y2="32.3089888" id="Path" stroke="#6BD5E1" stroke-width="0.744303371" stroke-linecap="round" stroke-linejoin="round"></line>
                <polygon id="Path" fill="#6BD5E1" points="57.232382 21.1133258 54.1211461 17.743618 58.5965393 16.7312697 63.0743258 15.7189213 61.7101685 20.1033708 60.3484045 24.4878202"></polygon>
                <polygon id="Path" fill="#FFD98E" points="119.047854 91.8101798 114.785461 93.516573 115.43882 88.969382 116.09218 84.422191 119.69882 87.2582022 123.307854 90.0942135"></polygon>
                <path d="M84.060809,37.0380674 C84.060809,35.8088305 85.0573024,34.8123371 86.2865393,34.8123371 C87.5157762,34.8123371 88.5122697,35.8088305 88.5122697,37.0380674 C88.5122697,38.2673043 87.5157762,39.2637978 86.2865393,39.2637978 C85.0573024,39.2637978 84.060809,38.2673043 84.060809,37.0380674 Z" id="Path" stroke="#FF8364" stroke-width="0.744303371" stroke-linecap="round" stroke-linejoin="round"></path>
                <path d="M21.874382,74.3202472 C21.874382,73.4200233 22.4166638,72.6084413 23.2483622,72.2639405 C24.0800607,71.9194397 25.037387,72.1098638 25.6739414,72.7464182 C26.3104958,73.3829726 26.5009198,74.3402989 26.1564191,75.1719973 C25.8119183,76.0036957 25.0003362,76.5459775 24.1001124,76.5459775 C22.8708754,76.5459775 21.874382,75.5494841 21.874382,74.3202472 Z" id="Path" fill="#FFD98E"></path>
                <path d="M101.969559,4.51847191 C101.967625,2.85869766 102.966087,1.36132338 104.499056,0.725036626 C106.032025,0.0887498743 107.79736,0.438959822 108.971341,1.61225553 C110.145322,2.78555124 110.496563,4.55068157 109.861171,6.08402171 C109.22578,7.61736185 107.728989,8.61669757 106.069213,8.61573104 C103.805973,8.61573104 101.970883,6.78171233 101.969559,4.51847191 L101.969559,4.51847191 Z" id="Path" fill="#FFD98E"></path>
                <path d="M31.2607416,112.315618 C31.2607416,110.200802 32.9751388,108.486404 35.0899551,108.486404 C37.2047713,108.486404 38.9191685,110.200802 38.9191685,112.315618 C38.9191685,114.430434 37.2047713,116.144831 35.0899551,116.144831 C32.9751388,116.144831 31.2607416,114.430434 31.2607416,112.315618 Z" id="Path" stroke="#6BD5E1" stroke-width="0.744303371" stroke-linecap="round" stroke-linejoin="round"></path>
                <path d="M116.104145,110.702562 C116.103178,109.801153 116.645428,108.987964 117.477944,108.642338 C118.31046,108.296713 119.269208,108.486751 119.906943,109.123801 C120.544678,109.760851 120.735746,110.719394 120.391015,111.552281 C120.046285,112.385167 119.233679,112.928293 118.33227,112.928293 C117.741555,112.928927 117.174816,112.694712 116.756893,112.277238 C116.33897,111.859763 116.104145,111.293277 116.104145,110.702562 Z" id="Path" stroke="#FF8364" stroke-width="0.744303371" stroke-linecap="round" stroke-linejoin="round"></path>
            </g>
        </g>
    </g>
</svg>