<?xml version="1.0" encoding="UTF-8"?>
<svg width="53px" height="58px" viewBox="0 0 53 58" version="1.1" xmlns="http://www.w3.org/2000/svg" xmlns:xlink="http://www.w3.org/1999/xlink">
    <defs>
        <polygon points="0 -0.000181495845 52.8410279 -0.000181495845 52.8410279 57.64968 0 57.64968"></polygon>
    </defs>
    <g stroke="none" stroke-width="1" fill="none" fill-rule="evenodd">
        <g transform="translate(-41.000000, -725.000000)">
            <g transform="translate(41.000000, 725.000000)">
                <mask fill="white">
                    <use xlink:href="#path-1"></use>
                </mask>
                <g></g>
                <path d="M8.4,48.0498 L13.2,48.0498 L13.2,43.2498 L8.4,43.2498 L8.4,48.0498 Z M14.4,40.8498 L7.2,40.8498 C6.5376,40.8498 6,41.3862 6,42.0498 L6,49.2498 C6,49.9134 6.5376,50.4498 7.2,50.4498 L14.4,50.4498 C15.0624,50.4498 15.6,49.9134 15.6,49.2498 L15.6,42.0498 C15.6,41.3862 15.0624,40.8498 14.4,40.8498 L14.4,40.8498 Z" fill="#07AFF2" mask="url(#mask-2)"></path>
                <path d="M8.4,34.8498 L13.2,34.8498 L13.2,30.0498 L8.4,30.0498 L8.4,34.8498 Z M14.4,27.6498 L7.2,27.6498 C6.5376,27.6498 6,28.1874 6,28.8498 L6,36.0498 C6,36.7122 6.5376,37.2498 7.2,37.2498 L14.4,37.2498 C15.0624,37.2498 15.6,36.7122 15.6,36.0498 L15.6,28.8498 C15.6,28.1874 15.0624,27.6498 14.4,27.6498 L14.4,27.6498 Z" fill="#07AFF2" mask="url(#mask-2)"></path>
                <path d="M20.4,22.8498 L36,22.8498 C36.6636,22.8498 37.2,22.3122 37.2,21.6498 C37.2,20.9874 36.6636,20.4498 36,20.4498 L20.4,20.4498 C19.7376,20.4498 19.2,20.9874 19.2,21.6498 C19.2,22.3122 19.7376,22.8498 20.4,22.8498" fill="#07AFF2" mask="url(#mask-2)"></path>
                <path d="M20.4,18.0498 L36,18.0498 C36.6636,18.0498 37.2,17.5122 37.2,16.8498 C37.2,16.1874 36.6636,15.6498 36,15.6498 L20.4,15.6498 C19.7376,15.6498 19.2,16.1874 19.2,16.8498 C19.2,17.5122 19.7376,18.0498 20.4,18.0498" fill="#07AFF2" mask="url(#mask-2)"></path>
                <path d="M30,33.6498 L20.4,33.6498 C19.7376,33.6498 19.2,34.1874 19.2,34.8498 C19.2,35.5122 19.7376,36.0498 20.4,36.0498 L30,36.0498 C30.6636,36.0498 31.2,35.5122 31.2,34.8498 C31.2,34.1874 30.6636,33.6498 30,33.6498" fill="#07AFF2" mask="url(#mask-2)"></path>
                <path d="M20.4,31.2498 L30,31.2498 C30.6636,31.2498 31.2,30.7122 31.2,30.0498 C31.2,29.3874 30.6636,28.8498 30,28.8498 L20.4,28.8498 C19.7376,28.8498 19.2,29.3874 19.2,30.0498 C19.2,30.7122 19.7376,31.2498 20.4,31.2498" fill="#07AFF2" mask="url(#mask-2)"></path>
                <path d="M26.4,46.8498 L20.4,46.8498 C19.7376,46.8498 19.2,47.3862 19.2,48.0498 C19.2,48.7134 19.7376,49.2498 20.4,49.2498 L26.4,49.2498 C27.0624,49.2498 27.6,48.7134 27.6,48.0498 C27.6,47.3862 27.0624,46.8498 26.4,46.8498" fill="#07AFF2" mask="url(#mask-2)"></path>
                <path d="M26.4,42.0498 L20.4,42.0498 C19.7376,42.0498 19.2,42.5862 19.2,43.2498 C19.2,43.9134 19.7376,44.4498 20.4,44.4498 L26.4,44.4498 C27.0624,44.4498 27.6,43.9134 27.6,43.2498 C27.6,42.5862 27.0624,42.0498 26.4,42.0498" fill="#07AFF2" mask="url(#mask-2)"></path>
                <path d="M13.548,15.9978 L9.6,19.9578 L8.052,18.3978 C7.5816,17.9274 6.8184,17.9274 6.348,18.3978 C5.8776,18.8682 5.8776,19.6314 6.348,20.1018 C10.296,24.0378 8.748,24.1818 15.252,17.7018 C15.7224,17.2314 15.7224,16.4682 15.252,15.9978 C14.7816,15.5274 14.0184,15.5274 13.548,15.9978" fill="#07AFF2" mask="url(#mask-2)"></path>
                <path d="M50.15976,20.35368 L48.65976,22.95768 L45.59976,21.15768 L47.09976,18.55368 C47.73816,17.79288 48.87456,17.69328 49.63536,18.33168 C50.22336,18.82608 50.43456,19.63728 50.15976,20.35368 L50.15976,20.35368 Z M37.68096,41.88168 C36.83016,41.00088 35.74776,40.37688 34.55976,40.08168 L44.29176,23.28168 L47.41176,25.08168 L37.68096,41.88168 Z M33.59976,42.33768 C34.63416,42.48768 35.57016,43.02888 36.21576,43.84968 L33.39576,45.70968 L33.59976,42.33768 Z M40.79976,55.24968 L2.39976,55.24968 L2.39976,2.44968 L33.59976,2.44968 L33.59976,9.64968 C33.59976,10.31208 34.13616,10.84968 34.79976,10.84968 L40.79976,10.84968 L40.79976,24.56568 L31.46376,40.74168 C31.25976,41.08968 31.34376,40.74168 30.89976,47.94168 C30.86016,48.60288 31.36416,49.17288 32.02656,49.21128 C32.05056,49.21368 32.07576,49.21368 32.09976,49.21368 C32.61576,49.21368 32.38776,49.21368 38.36376,45.32688 C38.67696,45.10968 38.50776,45.32688 40.76376,41.34168 L40.79976,55.24968 Z M35.99976,4.48968 L39.39576,8.44968 L35.99976,8.44968 L35.99976,4.48968 Z M50.69976,15.81768 C48.69096,14.66568 46.12896,15.35208 44.96376,17.35368 L43.19976,20.44968 C43.19976,8.79768 43.29576,9.36168 42.91176,8.90568 C35.00376,-0.35832 35.67696,0.36168 35.33976,0.19368 C34.72896,-0.13032 34.79976,0.04968 1.19976,0.04968 C0.53736,0.04968 -0.00024,0.58728 -0.00024,1.24968 L-0.00024,56.44968 C-0.00024,57.11328 0.53736,57.64968 1.19976,57.64968 L41.99976,57.64968 C42.66336,57.64968 43.19976,57.11328 43.19976,56.44968 L43.19976,37.24968 C46.63296,31.30968 48.89976,27.38568 52.23576,21.64968 C53.43456,19.66368 52.79736,17.08248 50.81256,15.88248 C50.77536,15.86088 50.73696,15.83928 50.69976,15.81768 L50.69976,15.81768 Z" fill="#07AFF2" mask="url(#mask-2)"></path>
            </g>
        </g>
    </g>
</svg>