<?xml version="1.0" encoding="UTF-8"?>
<svg width="18px" height="15px" viewBox="0 0 18 15" version="1.1" xmlns="http://www.w3.org/2000/svg" xmlns:xlink="http://www.w3.org/1999/xlink">
    <g stroke="none" stroke-width="1" fill="none" fill-rule="evenodd">
        <g transform="translate(-371.000000, -618.000000)" fill="#000">
            <g transform="translate(371.000000, 618.000000)">
                <path d="M13.7879846,14.8340235 C14.0294791,15.0050196 14.340722,15.0477687 14.6182157,14.9427711 C14.8957094,14.8370235 15.0997047,14.6000289 15.1612033,14.3127854 C15.8129385,11.2498551 17.3939025,3.49728156 17.987139,0.711094973 C18.032138,0.501099753 17.9571397,0.28285472 17.7921434,0.142607912 C17.6271472,0.0023611044 17.3984024,-0.0381379738 17.194407,0.0376103021 C14.0497286,1.20158381 4.36519904,4.8352511 0.406789132,6.29996777 C0.15554485,6.39296565 -0.00795142873,6.63446015 0.000298383495,6.89920413 C0.00929817865,7.16469809 0.187794116,7.39494284 0.445038261,7.47219109 C2.22024786,8.003179 4.55044482,8.74191219 4.55044482,8.74191219 C4.55044482,8.74191219 5.63942003,12.0305873 6.20715711,13.7030493 C6.27840549,13.9130445 6.44265175,14.0780407 6.65939682,14.1350394 C6.8753919,14.1912882 7.10638664,14.1320395 7.26763297,13.979793 C8.17961222,13.1188126 9.58958013,11.7875929 9.58958013,11.7875929 C9.58958013,11.7875929 12.2685192,13.7517982 13.7879846,14.8340235 Z M5.53067251,8.32642164 L6.78989385,12.4798271 L7.06963748,9.84963697 C7.06963748,9.84963697 11.9347767,5.46148685 14.7082136,2.96029378 C14.7892118,2.88679545 14.8004615,2.76379825 14.7329631,2.67755022 C14.6662146,2.59130218 14.5432174,2.57105264 14.4509695,2.62955131 C11.2365426,4.68225459 5.53067251,8.32642164 5.53067251,8.32642164 Z" id="telegram-1"></path>
            </g>
        </g>
    </g>
</svg>