<?xml version="1.0" encoding="UTF-8"?>
<svg width="18px" height="14px" viewBox="0 0 18 14" version="1.1" xmlns="http://www.w3.org/2000/svg" xmlns:xlink="http://www.w3.org/1999/xlink">
    <title>BDCBDEF1-EEF5-4AB5-8186-06B7E2765F7F</title>
    <defs>
        <polygon id="path-1" points="0 -0.000105882353 17.2249412 -0.000105882353 17.2249412 13.9982824 0 13.9982824"></polygon>
    </defs>
    <g id="Homepage" stroke="none" stroke-width="1" fill="none" fill-rule="evenodd">
        <g id="Homepage:-Desktop-V2" transform="translate(-845.000000, -793.000000)">
            <g id="Group-9" transform="translate(845.000000, 792.000000)">
                <g id="TwitterLogo" transform="translate(0.000000, 1.000000)">
                    <mask id="mask-2" fill="white">
                        <use xlink:href="#path-1"></use>
                    </mask>
                    <g id="Clip-2"></g>
                    <path d="M17.2253647,1.65695294 C16.5911294,1.9386 15.9103059,2.12812941 15.1956,2.21283529 C15.9251294,1.77554118 16.4863059,1.08307059 16.7499529,0.258247059 C16.0670118,0.663776471 15.3110118,0.958129412 14.5063059,1.11589412 C13.8604235,0.428717647 12.9424235,-0.000105882353 11.9259529,-0.000105882353 C9.97348235,-0.000105882353 8.3916,1.58283529 8.3916,3.53424706 C8.3916,3.81165882 8.42336471,4.0806 8.48265882,4.33895294 C5.54654118,4.19283529 2.94289412,2.78565882 1.19901176,0.645776471 C0.895129412,1.16989412 0.720423529,1.77554118 0.720423529,2.42354118 C0.720423529,3.64965882 1.34512941,4.73177647 2.29171765,5.36495294 C1.7136,5.34695294 1.16830588,5.18707059 0.692894118,4.92236471 L0.692894118,4.96683529 C0.692894118,6.67895294 1.91054118,8.10836471 3.52630588,8.43236471 C3.22983529,8.51283529 2.91748235,8.55730588 2.5956,8.55730588 C2.36901176,8.55730588 2.14665882,8.53507059 1.93171765,8.49271765 C2.3796,9.89777647 3.68512941,10.9184824 5.23207059,10.9481294 C4.02289412,11.8957765 2.49924706,12.4611882 0.842188235,12.4611882 C0.557364706,12.4611882 0.276776471,12.4431882 -0.000635294118,12.4114235 C1.56430588,13.4130706 3.42148235,13.9986 5.41842353,13.9986 C11.9174824,13.9986 15.4730118,8.61448235 15.4730118,3.94401176 C15.4730118,3.79154118 15.4687765,3.63907059 15.4634824,3.48554118 C16.1517176,2.98789412 16.7510118,2.36530588 17.2253647,1.65695294" id="Fill-1" fill="#FFFFFF" mask="url(#mask-2)"></path>
                </g>
            </g>
        </g>
    </g>
</svg>